<svg width="539" height="750" viewBox="0 0 539 750" fill="none" xmlns="http://www.w3.org/2000/svg">
<path fill-rule="evenodd" clip-rule="evenodd" d="M242.376 57.015C238.357 58.272 236.677 60.352 236.779 63.944C236.843 66.178 236.327 66.952 234.459 67.421C231.273 68.221 229.488 71.588 230.772 74.376C231.311 75.544 234.214 77.737 237.225 79.25C243.995 82.65 250.721 82.854 258.775 79.902C261.924 78.747 267.65 76.713 271.5 75.381C275.35 74.049 279.288 72.018 280.25 70.868C284.314 66.015 281.123 61.257 272 58.564C265.412 56.62 246.758 55.644 242.376 57.015ZM117.75 81.662C118.438 81.94 119.563 81.94 120.25 81.662C120.938 81.385 120.375 81.158 119 81.158C117.625 81.158 117.063 81.385 117.75 81.662ZM358.079 139.583C358.127 140.748 358.364 140.985 358.683 140.188C358.972 139.466 358.936 138.603 358.604 138.271C358.272 137.939 358.036 138.529 358.079 139.583ZM297.813 157.683C298.534 157.972 299.397 157.936 299.729 157.604C300.061 157.272 299.471 157.036 298.417 157.079C297.252 157.127 297.015 157.364 297.813 157.683ZM286.813 165.683C287.534 165.972 288.397 165.936 288.729 165.604C289.061 165.272 288.471 165.036 287.417 165.079C286.252 165.127 286.015 165.364 286.813 165.683ZM79.4051 224.25L77.5001 226.5L79.7501 224.595C80.9881 223.547 82.0001 222.535 82.0001 222.345C82.0001 221.545 81.1951 222.136 79.4051 224.25ZM384.272 229C384.272 231.475 384.467 232.488 384.706 231.25C384.944 230.012 384.944 227.988 384.706 226.75C384.467 225.512 384.272 226.525 384.272 229ZM427.946 288.75L424.5 292.5L428.25 289.054C430.313 287.158 432 285.471 432 285.304C432 284.54 431.154 285.26 427.946 288.75ZM412.872 292.75C411.629 294.336 411.664 294.371 413.25 293.128C414.916 291.821 415.445 291 414.622 291C414.415 291 413.627 291.788 412.872 292.75ZM284.75 298.662C285.438 298.94 286.563 298.94 287.25 298.662C287.938 298.385 287.375 298.158 286 298.158C284.625 298.158 284.063 298.385 284.75 298.662ZM414.872 300.75C413.629 302.336 413.664 302.371 415.25 301.128C416.212 300.373 417 299.585 417 299.378C417 298.555 416.179 299.084 414.872 300.75ZM293.32 316C293.32 319.575 293.502 321.038 293.723 319.25C293.945 317.462 293.945 314.538 293.723 312.75C293.502 310.962 293.32 312.425 293.32 316ZM499.079 322.583C499.127 323.748 499.364 323.985 499.683 323.188C499.972 322.466 499.936 321.603 499.604 321.271C499.272 320.939 499.036 321.529 499.079 322.583ZM286.328 330.5C286.333 334.35 286.513 335.802 286.73 333.728C286.946 331.653 286.943 328.503 286.722 326.728C286.501 324.952 286.324 326.65 286.328 330.5ZM294.252 355.5C294.263 357.7 294.468 358.482 294.707 357.238C294.946 355.994 294.937 354.194 294.687 353.238C294.437 352.282 294.241 353.3 294.252 355.5ZM287.252 363.5C287.263 365.7 287.468 366.482 287.707 365.238C287.946 363.994 287.937 362.194 287.687 361.238C287.437 360.282 287.241 361.3 287.252 363.5ZM295.158 380C295.158 381.375 295.385 381.938 295.662 381.25C295.94 380.563 295.94 379.438 295.662 378.75C295.385 378.063 295.158 378.625 295.158 380ZM288.079 385.583C288.127 386.748 288.364 386.985 288.683 386.188C288.972 385.466 288.936 384.603 288.604 384.271C288.272 383.939 288.036 384.529 288.079 385.583ZM223.872 393.75C222.629 395.336 222.664 395.371 224.25 394.128C225.916 392.821 226.445 392 225.622 392C225.415 392 224.627 392.788 223.872 393.75ZM296.079 393.583C296.127 394.748 296.364 394.985 296.683 394.188C296.972 393.466 296.936 392.603 296.604 392.271C296.272 391.939 296.036 392.529 296.079 393.583ZM289.079 397.583C289.127 398.748 289.364 398.985 289.683 398.188C289.972 397.466 289.936 396.603 289.604 396.271C289.272 395.939 289.036 396.529 289.079 397.583ZM214.75 400.662C215.438 400.94 216.563 400.94 217.25 400.662C217.938 400.385 217.375 400.158 216 400.158C214.625 400.158 214.063 400.385 214.75 400.662ZM297.079 405.583C297.127 406.748 297.364 406.985 297.683 406.188C297.972 405.466 297.936 404.603 297.604 404.271C297.272 403.939 297.036 404.529 297.079 405.583ZM290.079 409.583C290.127 410.748 290.364 410.985 290.683 410.188C290.972 409.466 290.936 408.603 290.604 408.271C290.272 407.939 290.036 408.529 290.079 409.583ZM298.079 418.583C298.127 419.748 298.364 419.985 298.683 419.188C298.972 418.466 298.936 417.603 298.604 417.271C298.272 416.939 298.036 417.529 298.079 418.583ZM291.158 423C291.158 424.375 291.385 424.938 291.662 424.25C291.94 423.563 291.94 422.438 291.662 421.75C291.385 421.063 291.158 421.625 291.158 423ZM299.158 433C299.158 434.375 299.385 434.938 299.662 434.25C299.94 433.563 299.94 432.438 299.662 431.75C299.385 431.063 299.158 431.625 299.158 433ZM292.158 439C292.158 440.375 292.385 440.938 292.662 440.25C292.94 439.563 292.94 438.438 292.662 437.75C292.385 437.063 292.158 437.625 292.158 439ZM300.252 452.5C300.263 454.7 300.468 455.482 300.707 454.238C300.946 452.994 300.937 451.194 300.687 450.238C300.437 449.282 300.241 450.3 300.252 452.5ZM293.252 462.5C293.263 464.7 293.468 465.482 293.707 464.238C293.946 462.994 293.937 461.194 293.687 460.238C293.437 459.282 293.241 460.3 293.252 462.5ZM294.079 481.583C294.127 482.748 294.364 482.985 294.683 482.188C294.972 481.466 294.936 480.603 294.604 480.271C294.272 479.939 294.036 480.529 294.079 481.583ZM302.079 488.583C302.127 489.748 302.364 489.985 302.683 489.188C302.972 488.466 302.936 487.603 302.604 487.271C302.272 486.939 302.036 487.529 302.079 488.583ZM303.813 492.683C304.534 492.972 305.397 492.936 305.729 492.604C306.061 492.272 305.471 492.036 304.417 492.079C303.252 492.127 303.015 492.364 303.813 492.683ZM350.75 492.662C351.438 492.94 352.563 492.94 353.25 492.662C353.938 492.385 353.375 492.158 352 492.158C350.625 492.158 350.063 492.385 350.75 492.662ZM375.75 493.662C376.438 493.94 377.563 493.94 378.25 493.662C378.938 493.385 378.375 493.158 377 493.158C375.625 493.158 375.063 493.385 375.75 493.662ZM312.287 499.74C315.469 499.939 320.419 499.937 323.287 499.736C326.154 499.535 323.55 499.372 317.5 499.374C311.45 499.376 309.104 499.541 312.287 499.74ZM368.75 500.662C369.438 500.94 370.563 500.94 371.25 500.662C371.938 500.385 371.375 500.158 370 500.158C368.625 500.158 368.063 500.385 368.75 500.662ZM110.269 516.693C111.242 516.947 112.592 516.93 113.269 516.656C113.946 516.382 113.15 516.175 111.5 516.195C109.85 516.215 109.296 516.439 110.269 516.693ZM408.813 537.683C409.534 537.972 410.397 537.936 410.729 537.604C411.061 537.272 410.471 537.036 409.417 537.079C408.252 537.127 408.015 537.364 408.813 537.683ZM415.776 546.733C418.128 546.945 421.728 546.942 423.776 546.727C425.824 546.512 423.9 546.339 419.5 546.343C415.1 546.346 413.424 546.522 415.776 546.733ZM327.813 610.683C328.534 610.972 329.397 610.936 329.729 610.604C330.061 610.272 329.471 610.036 328.417 610.079C327.252 610.127 327.015 610.364 327.813 610.683ZM223.872 647.75C222.629 649.336 222.664 649.371 224.25 648.128C225.916 646.821 226.445 646 225.622 646C225.415 646 224.627 646.788 223.872 647.75ZM180.269 663.693C181.242 663.947 182.592 663.93 183.269 663.656C183.946 663.382 183.15 663.175 181.5 663.195C179.85 663.215 179.296 663.439 180.269 663.693ZM438.5 703.379C432.207 704.951 429.333 706.452 425.296 710.271C421.261 714.09 420.362 717.865 422.503 722.006C425.082 726.994 430.647 728.952 442.316 728.978C452.353 729 454.836 728.334 458.631 724.598C459.802 723.444 461.903 721.72 463.298 720.766C466.635 718.484 467.69 713.702 465.57 710.467C461.685 704.538 448.1 700.981 438.5 703.379ZM47.7251 720.566C40.0291 722.43 31.2461 726.671 29.9101 729.168C28.7201 731.391 29.4691 736 31.0191 736C31.5591 736 32.0001 736.642 32.0001 737.427C32.0001 740.453 37.0071 743 42.9531 743C53.2141 743 64.0431 738.767 71.5991 731.802C76.7311 727.071 77.2191 724.104 73.3651 721.073C71.1391 719.321 69.3951 719.013 62.1151 719.083C57.3771 719.129 50.9011 719.796 47.7251 720.566Z" fill="#1749B3"/>
<path fill-rule="evenodd" clip-rule="evenodd" d="M462.116 69.009C456.13 71.162 453.797 72.544 449.75 76.331C446.465 79.405 445.996 84.782 448.792 87.312C451.267 89.552 460.323 90.424 467.418 89.106C475.141 87.67 489.893 80.276 490.592 77.489C491.478 73.958 489.272 70.012 485.538 68.452C480.544 66.365 468.682 66.647 462.116 69.009ZM492.013 145.687C486.269 146.874 481.488 153.463 482.533 158.75C483.917 165.743 484.16 166.169 487.587 167.601C490.465 168.803 492.222 168.867 497.275 167.95C504.765 166.592 506.433 165.784 511.25 161.179C516.102 156.54 516.159 153.515 511.477 148.978C508.24 145.84 507.407 145.547 501.227 145.368C497.527 145.261 493.381 145.405 492.013 145.687ZM21.5 184.89C15.947 187.453 12.939 191.103 5.437 204.389C3.197 208.355 4.793 211.55 10.251 214.027C15.676 216.49 18.804 216.477 28.449 213.95C41.262 210.594 49 205.863 49 201.385C49 200.138 48.516 198.819 47.925 198.453C47.237 198.028 47.597 197.092 48.925 195.856C53.422 191.666 50.341 188 42.323 188C37.879 188 36.204 187.508 33.818 185.5C30.3 182.54 26.951 182.374 21.5 184.89ZM85.009 373.855C76.915 378.197 72.493 389.028 76.908 393.701C82.222 399.327 97.42 399.157 109.749 393.335C114.951 390.878 116.925 387.981 116.107 384.004C115.66 381.831 108.037 374.979 104.282 373.375C99.542 371.35 89.201 371.608 85.009 373.855ZM215.944 440.727C209.988 443.045 207.407 444.991 205.54 448.57C203.78 451.946 203.526 458.246 205.036 461.067C207.838 466.303 220.79 467.35 229.264 463.026C241.888 456.585 247.464 450.508 245.237 445.62C243.205 441.16 239.721 439.75 229.71 439.335C222.58 439.04 219.471 439.354 215.944 440.727ZM463.939 441.404C452.238 444.459 445.391 455.402 450.561 462.783C454.422 468.296 460.868 469.183 474.187 466.035C481.119 464.396 482.963 463.524 485.289 460.785C491.43 453.553 490.188 448.798 481 444.362C472.898 440.45 469.71 439.898 463.939 441.404ZM237 448.441C237 448.684 236.55 449.16 236 449.5C235.45 449.84 235 449.641 235 449.059C235 448.477 235.45 448 236 448C236.55 448 237 448.198 237 448.441ZM401.5 552.205C396.808 553.842 388.09 560.792 387.431 563.421C386.253 568.111 387.337 570.379 392 572.985C396.2 575.332 397.401 575.497 410 575.463C422.599 575.428 423.758 575.261 427.365 572.963C434.299 568.544 436.263 566.204 435.56 563.2C434.669 559.389 429.762 555.219 425.294 554.476C423.207 554.128 419.507 553.204 417.072 552.422C411.97 550.784 405.818 550.698 401.5 552.205ZM22.057 574.302C17.618 575.718 5.813 586.852 2.538 592.712C-2.106 601.02 0.0370035 606.957 8.204 608.413C16.009 609.804 41.611 600.853 46.082 595.169C48.773 591.747 48.587 586.608 45.689 584.323C44.154 583.112 43.398 581.492 43.439 579.5C43.489 577.044 42.866 576.183 40 574.752C36.054 572.78 27.501 572.566 22.057 574.302ZM189.206 663.403C177.204 668.138 175.588 669.566 175.641 675.386C175.713 683.25 176.911 683.84 194.22 684.533C211.23 685.213 217.932 683.816 223.684 678.391C230.691 671.783 226.073 664 215.146 664C210.682 664 209.073 663.566 207.732 662C205.216 659.062 199.019 659.531 189.206 663.403Z" fill="#F1C40F"/>
<path fill-rule="evenodd" clip-rule="evenodd" d="M390.405 4.25L388.5 6.5L390.75 4.595C392.864 2.805 393.455 2 392.655 2C392.465 2 391.453 3.013 390.405 4.25ZM380.813 19.683C381.534 19.972 382.397 19.936 382.729 19.604C383.061 19.272 382.471 19.036 381.417 19.079C380.252 19.127 380.015 19.364 380.813 19.683ZM396.813 19.683C397.534 19.972 398.397 19.936 398.729 19.604C399.061 19.272 398.471 19.036 397.417 19.079C396.252 19.127 396.015 19.364 396.813 19.683ZM155.25 31.689C156.213 31.941 157.787 31.941 158.75 31.689C159.713 31.438 158.925 31.232 157 31.232C155.075 31.232 154.287 31.438 155.25 31.689ZM208.25 312.689C209.212 312.941 210.788 312.941 211.75 312.689C212.712 312.438 211.925 312.232 210 312.232C208.075 312.232 207.288 312.438 208.25 312.689ZM189.872 320.75C188.629 322.336 188.664 322.371 190.25 321.128C191.916 319.821 192.445 319 191.622 319C191.415 319 190.627 319.788 189.872 320.75ZM187.158 327C187.158 328.375 187.385 328.938 187.662 328.25C187.94 327.563 187.94 326.438 187.662 325.75C187.385 325.063 187.158 325.625 187.158 327ZM193.813 333.683C194.534 333.972 195.397 333.936 195.729 333.604C196.061 333.272 195.471 333.036 194.417 333.079C193.252 333.127 193.015 333.364 193.813 333.683ZM411.75 365.706C412.988 365.944 415.012 365.944 416.25 365.706C417.488 365.467 416.475 365.272 414 365.272C411.525 365.272 410.512 365.467 411.75 365.706ZM120.813 616.683C121.534 616.972 122.397 616.936 122.729 616.604C123.061 616.272 122.471 616.036 121.417 616.079C120.252 616.127 120.015 616.364 120.813 616.683ZM97.079 631.583C97.127 632.748 97.364 632.985 97.683 632.188C97.972 631.466 97.936 630.603 97.604 630.271C97.272 629.939 97.036 630.529 97.079 631.583Z" fill="#F1685B"/>
<path fill-rule="evenodd" clip-rule="evenodd" d="M396.419 1.02306C394.724 1.54406 392.517 2.87706 391.514 3.98506C390.511 5.09306 388.972 6.00706 388.095 6.01506C385.937 6.03406 377.819 8.90506 376.258 10.2011C373.97 12.1001 374.756 16.5311 377.654 18.0811C383.615 21.2681 406.32 19.0461 411.75 14.7451C413.244 13.5621 413.412 9.37206 412 8.50006C411.45 8.16006 411 6.83906 411 5.56306C411 4.28806 410.325 2.68406 409.499 2.00006C407.532 0.367058 400.311 -0.171943 396.419 1.02306ZM159.5 11.9351C154.199 13.2261 150.055 15.9591 147.463 19.8771C145.392 23.0061 145.113 24.1661 145.919 26.2881C147.317 29.9651 149.902 31.0001 157.684 30.9991C167.873 30.9991 178 26.7351 178 22.4461C178 20.4501 172.024 13.5641 169.191 12.2951C166.18 10.9471 163.906 10.8621 159.5 11.9351ZM200.385 314.617C198.122 315.42 194.41 317.669 192.135 319.616C188.854 322.425 188 323.831 188 326.423C188 331.121 190.575 332.95 198.105 333.6C205.883 334.272 211.396 332.727 219.324 327.656C229.489 321.153 229.037 316.093 218.106 314.02C210.937 312.661 205.374 312.848 200.385 314.617ZM404.914 366.956C395.902 369.687 393.25 376.841 398.317 384.75C399.576 386.715 405.534 386.218 411.78 383.627C414.926 382.322 419.121 380.734 421.103 380.098C427.154 378.156 428.711 372.41 424.25 368.484C421.883 366.4 420.525 366.071 414.5 366.118C410.65 366.147 406.336 366.525 404.914 366.956ZM108.094 618.292C106.221 618.89 103.183 620.884 101.344 622.723C96.97 627.096 96.594 633.033 100.526 635.609C105.577 638.919 116.768 635.429 124.25 628.212C128.269 624.334 128.992 621.135 126.429 618.571C124.575 616.718 113.551 616.549 108.094 618.292Z" fill="#ED3624"/>
<path fill-rule="evenodd" clip-rule="evenodd" d="M410.564 3.29297C410.94 4.27897 411.499 4.83397 411.807 4.52597C412.115 4.21897 411.808 3.41197 411.124 2.73297C410.136 1.75297 410.022 1.86797 410.564 3.29297ZM374.459 11.067C374.096 11.653 374.014 12.348 374.276 12.61C374.538 12.872 375.019 12.392 375.345 11.543C376.021 9.78097 375.445 9.47097 374.459 11.067ZM413.079 11.583C413.127 12.748 413.364 12.985 413.683 12.188C413.972 11.466 413.936 10.603 413.604 10.271C413.272 9.93897 413.036 10.529 413.079 11.583ZM248.813 55.683C249.534 55.972 250.397 55.936 250.729 55.604C251.061 55.272 250.471 55.036 249.417 55.079C248.252 55.127 248.015 55.364 248.813 55.683ZM246.269 82.693C247.242 82.947 248.592 82.93 249.269 82.656C249.946 82.382 249.15 82.175 247.5 82.195C245.85 82.215 245.296 82.439 246.269 82.693ZM97.405 90.25L95.5 92.5L97.75 90.595C99.864 88.805 100.455 88 99.655 88C99.465 88 98.453 89.012 97.405 90.25ZM365.813 146.683C366.534 146.972 367.397 146.936 367.729 146.604C368.061 146.272 367.471 146.036 366.417 146.079C365.252 146.127 365.015 146.364 365.813 146.683ZM369.813 146.683C370.534 146.972 371.397 146.936 371.729 146.604C372.061 146.272 371.471 146.036 370.417 146.079C369.252 146.127 369.015 146.364 369.813 146.683ZM289.25 157.689C290.212 157.941 291.788 157.941 292.75 157.689C293.712 157.438 292.925 157.232 291 157.232C289.075 157.232 288.288 157.438 289.25 157.689ZM306.269 157.693C307.242 157.947 308.592 157.93 309.269 157.656C309.946 157.382 309.15 157.175 307.5 157.195C305.85 157.215 305.296 157.439 306.269 157.693ZM294.762 165.707C296.006 165.946 297.806 165.937 298.762 165.687C299.718 165.437 298.7 165.241 296.5 165.252C294.3 165.263 293.518 165.468 294.762 165.707ZM304.813 165.683C305.534 165.972 306.397 165.936 306.729 165.604C307.061 165.272 306.471 165.036 305.417 165.079C304.252 165.127 304.015 165.364 304.813 165.683ZM266.75 170.662C267.438 170.94 268.563 170.94 269.25 170.662C269.938 170.385 269.375 170.158 268 170.158C266.625 170.158 266.063 170.385 266.75 170.662ZM270.25 178.689C271.212 178.941 272.788 178.941 273.75 178.689C274.712 178.438 273.925 178.232 272 178.232C270.075 178.232 269.288 178.438 270.25 178.689ZM361 179.378C361 179.585 361.788 180.373 362.75 181.128C364.336 182.371 364.371 182.336 363.128 180.75C361.821 179.084 361 178.555 361 179.378ZM225.405 200.25L223.5 202.5L225.75 200.595C226.988 199.547 228 198.535 228 198.345C228 197.545 227.195 198.136 225.405 200.25ZM198.272 244C198.272 246.475 198.467 247.488 198.706 246.25C198.944 245.012 198.944 242.988 198.706 241.75C198.467 240.512 198.272 241.525 198.272 244ZM206.079 244.583C206.127 245.748 206.364 245.985 206.683 245.188C206.972 244.466 206.936 243.603 206.604 243.271C206.272 242.939 206.036 243.529 206.079 244.583ZM372.872 260.75C371.629 262.336 371.664 262.371 373.25 261.128C374.212 260.373 375 259.585 375 259.378C375 258.555 374.179 259.084 372.872 260.75ZM209 273.313C209 273.485 210.462 274.948 212.25 276.563L215.5 279.5L212.563 276.25C209.825 273.221 209 272.54 209 273.313ZM422.462 283.25L417.5 288.5L422.75 283.538C425.637 280.808 428 278.446 428 278.288C428 277.541 427.074 278.372 422.462 283.25ZM436.872 279.75C435.629 281.336 435.664 281.371 437.25 280.128C438.916 278.821 439.445 278 438.622 278C438.415 278 437.627 278.788 436.872 279.75ZM287.813 290.683C288.534 290.972 289.397 290.936 289.729 290.604C290.061 290.272 289.471 290.036 288.417 290.079C287.252 290.127 287.015 290.364 287.813 290.683ZM408.872 295.75C407.629 297.336 407.664 297.371 409.25 296.128C410.212 295.373 411 294.585 411 294.378C411 293.555 410.179 294.084 408.872 295.75ZM418.872 297.75C417.629 299.336 417.664 299.371 419.25 298.128C420.916 296.821 421.445 296 420.622 296C420.415 296 419.627 296.788 418.872 297.75ZM260.813 297.683C261.534 297.972 262.397 297.936 262.729 297.604C263.061 297.272 262.471 297.036 261.417 297.079C260.252 297.127 260.015 297.364 260.813 297.683ZM409.872 305.75C408.629 307.336 408.664 307.371 410.25 306.128C411.916 304.821 412.445 304 411.622 304C411.415 304 410.627 304.788 409.872 305.75ZM401.872 312.75C400.629 314.336 400.664 314.371 402.25 313.128C403.212 312.373 404 311.585 404 311.378C404 310.555 403.179 311.084 401.872 312.75ZM510.813 315.683C511.534 315.972 512.397 315.936 512.729 315.604C513.061 315.272 512.471 315.036 511.417 315.079C510.252 315.127 510.015 315.364 510.813 315.683ZM532.813 315.683C533.534 315.972 534.397 315.936 534.729 315.604C535.061 315.272 534.471 315.036 533.417 315.079C532.252 315.127 532.015 315.364 532.813 315.683ZM522.813 316.683C523.534 316.972 524.397 316.936 524.729 316.604C525.061 316.272 524.471 316.036 523.417 316.079C522.252 316.127 522.015 316.364 522.813 316.683ZM535.872 326.75C534.629 328.336 534.664 328.371 536.25 327.128C537.916 325.821 538.445 325 537.622 325C537.415 325 536.627 325.788 535.872 326.75ZM188 330.378C188 330.585 188.787 331.373 189.75 332.128C191.336 333.371 191.371 333.336 190.128 331.75C188.821 330.084 188 329.555 188 330.378ZM294.3 341C294.3 344.025 294.487 345.262 294.716 343.75C294.945 342.238 294.945 339.762 294.716 338.25C294.487 336.738 294.3 337.975 294.3 341ZM286.3 346C286.3 349.025 286.487 350.262 286.716 348.75C286.945 347.238 286.945 344.762 286.716 343.25C286.487 341.738 286.3 342.975 286.3 346ZM100.25 351.716C101.762 351.945 104.238 351.945 105.75 351.716C107.262 351.487 106.025 351.3 103 351.3C99.975 351.3 98.738 351.487 100.25 351.716ZM263.813 360.683C264.534 360.972 265.397 360.936 265.729 360.604C266.061 360.272 265.471 360.036 264.417 360.079C263.252 360.127 263.015 360.364 263.813 360.683ZM131 361.378C131 361.585 131.787 362.373 132.75 363.128C134.336 364.371 134.371 364.336 133.128 362.75C131.821 361.084 131 360.555 131 361.378ZM418.813 365.683C419.534 365.972 420.397 365.936 420.729 365.604C421.061 365.272 420.471 365.036 419.417 365.079C418.252 365.127 418.015 365.364 418.813 365.683ZM295.252 370.5C295.263 372.7 295.468 373.482 295.707 372.238C295.946 370.994 295.937 369.194 295.687 368.238C295.437 367.282 295.241 368.3 295.252 370.5ZM135.158 371C135.158 372.375 135.385 372.938 135.662 372.25C135.94 371.563 135.94 370.438 135.662 369.75C135.385 369.063 135.158 369.625 135.158 371ZM306.813 370.683C307.534 370.972 308.397 370.936 308.729 370.604C309.061 370.272 308.471 370.036 307.417 370.079C306.252 370.127 306.015 370.364 306.813 370.683ZM287.252 375.5C287.263 377.7 287.468 378.482 287.707 377.238C287.946 375.994 287.937 374.194 287.687 373.238C287.437 372.282 287.241 373.3 287.252 375.5ZM252.872 378.75C251.629 380.336 251.664 380.371 253.25 379.128C254.916 377.821 255.445 377 254.622 377C254.415 377 253.627 377.788 252.872 378.75ZM246.872 384.75C245.629 386.336 245.664 386.371 247.25 385.128C248.916 383.821 249.445 383 248.622 383C248.415 383 247.627 383.788 246.872 384.75ZM296.158 388C296.158 389.375 296.385 389.938 296.662 389.25C296.94 388.563 296.94 387.438 296.662 386.75C296.385 386.063 296.158 386.625 296.158 388ZM401.75 386.662C402.438 386.94 403.563 386.94 404.25 386.662C404.938 386.385 404.375 386.158 403 386.158C401.625 386.158 401.063 386.385 401.75 386.662ZM288.158 391C288.158 392.375 288.385 392.938 288.662 392.25C288.94 391.563 288.94 390.438 288.662 389.75C288.385 389.063 288.158 389.625 288.158 391ZM229.872 398.75C228.629 400.336 228.664 400.371 230.25 399.128C231.916 397.821 232.445 397 231.622 397C231.415 397 230.627 397.788 229.872 398.75ZM297.158 400C297.158 401.375 297.385 401.938 297.662 401.25C297.94 400.563 297.94 399.438 297.662 398.75C297.385 398.063 297.158 398.625 297.158 400ZM289.158 403C289.158 404.375 289.385 404.938 289.662 404.25C289.94 403.563 289.94 402.438 289.662 401.75C289.385 401.063 289.158 401.625 289.158 403ZM298.158 412C298.158 413.375 298.385 413.938 298.662 413.25C298.94 412.563 298.94 411.438 298.662 410.75C298.385 410.063 298.158 410.625 298.158 412ZM290.158 415C290.158 416.375 290.385 416.938 290.662 416.25C290.94 415.563 290.94 414.438 290.662 413.75C290.385 413.063 290.158 413.625 290.158 415ZM299.195 425.5C299.215 427.15 299.439 427.704 299.693 426.731C299.947 425.758 299.93 424.408 299.656 423.731C299.382 423.054 299.175 423.85 299.195 425.5ZM291.195 430.5C291.215 432.15 291.439 432.704 291.693 431.731C291.947 430.758 291.93 429.408 291.656 428.731C291.382 428.054 291.175 428.85 291.195 430.5ZM300.195 442.5C300.215 444.15 300.439 444.704 300.693 443.731C300.947 442.758 300.93 441.408 300.656 440.731C300.382 440.054 300.175 440.85 300.195 442.5ZM292.195 447.5C292.215 449.15 292.439 449.704 292.693 448.731C292.947 447.758 292.93 446.408 292.656 445.731C292.382 445.054 292.175 445.85 292.195 447.5ZM301.252 468.5C301.263 470.7 301.468 471.482 301.707 470.238C301.946 468.994 301.937 467.194 301.687 466.238C301.437 465.282 301.241 466.3 301.252 468.5ZM293.195 470.5C293.215 472.15 293.439 472.704 293.693 471.731C293.947 470.758 293.93 469.408 293.656 468.731C293.382 468.054 293.175 468.85 293.195 470.5ZM294.079 486.583C294.127 487.748 294.364 487.985 294.683 487.188C294.972 486.466 294.936 485.603 294.604 485.271C294.272 484.939 294.036 485.529 294.079 486.583ZM310.762 491.707C312.006 491.946 313.806 491.937 314.762 491.687C315.718 491.437 314.7 491.241 312.5 491.252C310.3 491.263 309.518 491.468 310.762 491.707ZM360.25 492.716C361.762 492.945 364.238 492.945 365.75 492.716C367.262 492.487 366.025 492.3 363 492.3C359.975 492.3 358.738 492.487 360.25 492.716ZM381.813 493.683C382.534 493.972 383.397 493.936 383.729 493.604C384.061 493.272 383.471 493.036 382.417 493.079C381.252 493.127 381.015 493.364 381.813 493.683ZM357.269 500.693C358.242 500.947 359.592 500.93 360.269 500.656C360.946 500.382 360.15 500.175 358.5 500.195C356.85 500.215 356.296 500.439 357.269 500.693ZM285.872 503.75C284.629 505.336 284.664 505.371 286.25 504.128C287.916 502.821 288.445 502 287.622 502C287.415 502 286.627 502.788 285.872 503.75ZM86.564 523.707C86.022 525.132 86.136 525.247 87.124 524.267C87.808 523.588 88.115 522.781 87.807 522.474C87.499 522.166 86.94 522.721 86.564 523.707ZM476.405 598.25L474.5 600.5L476.75 598.595C478.864 596.805 479.455 596 478.655 596C478.465 596 477.453 597.013 476.405 598.25ZM216.158 613C216.158 614.375 216.385 614.938 216.662 614.25C216.94 613.563 216.94 612.438 216.662 611.75C216.385 611.063 216.158 611.625 216.158 613ZM224.079 615.583C224.127 616.748 224.364 616.985 224.683 616.188C224.972 615.466 224.936 614.603 224.604 614.271C224.272 613.939 224.036 614.529 224.079 615.583ZM115.813 616.683C116.534 616.972 117.397 616.936 117.729 616.604C118.061 616.272 117.471 616.036 116.417 616.079C115.252 616.127 115.015 616.364 115.813 616.683ZM128.079 622.583C128.127 623.748 128.364 623.985 128.683 623.188C128.972 622.466 128.936 621.603 128.604 621.271C128.272 620.939 128.036 621.529 128.079 622.583ZM123.872 628.75C122.629 630.336 122.664 630.371 124.25 629.128C125.916 627.821 126.445 627 125.622 627C125.415 627 124.627 627.788 123.872 628.75ZM217.872 642.75C216.629 644.336 216.664 644.371 218.25 643.128C219.916 641.821 220.445 641 219.622 641C219.415 641 218.627 641.788 217.872 642.75ZM171.872 646.75C170.629 648.336 170.664 648.371 172.25 647.128C173.916 645.821 174.445 645 173.622 645C173.415 645 172.627 645.788 171.872 646.75ZM199.75 685.662C200.438 685.94 201.563 685.94 202.25 685.662C202.938 685.385 202.375 685.158 201 685.158C199.625 685.158 199.063 685.385 199.75 685.662ZM440.813 702.683C441.534 702.972 442.397 702.936 442.729 702.604C443.061 702.272 442.471 702.036 441.417 702.079C440.252 702.127 440.015 702.364 440.813 702.683ZM58.768 718.725C60.565 718.947 63.265 718.943 64.768 718.715C66.271 718.486 64.8 718.304 61.5 718.31C58.2 718.315 56.971 718.502 58.768 718.725ZM73 720.378C73 720.585 73.787 721.373 74.75 722.128C76.336 723.371 76.371 723.336 75.128 721.75C73.821 720.084 73 719.555 73 720.378ZM143 725.378C143 725.585 143.787 726.373 144.75 727.128C146.336 728.371 146.371 728.336 145.128 726.75C143.821 725.084 143 724.555 143 725.378ZM438.25 729.689C439.212 729.941 440.788 729.941 441.75 729.689C442.712 729.438 441.925 729.232 440 729.232C438.075 729.232 437.288 729.438 438.25 729.689ZM447.813 729.683C448.534 729.972 449.397 729.936 449.729 729.604C450.061 729.272 449.471 729.036 448.417 729.079C447.252 729.127 447.015 729.364 447.813 729.683ZM69.872 733.75C68.629 735.336 68.664 735.371 70.25 734.128C71.916 732.821 72.445 732 71.622 732C71.415 732 70.627 732.788 69.872 733.75ZM143.872 735.75C142.629 737.336 142.664 737.371 144.25 736.128C145.916 734.821 146.445 734 145.622 734C145.415 734 144.627 734.788 143.872 735.75ZM32 739.378C32 739.585 32.787 740.373 33.75 741.128C35.336 742.371 35.371 742.336 34.128 740.75C32.821 739.084 32 738.555 32 739.378ZM102.079 743.583C102.127 744.748 102.364 744.985 102.683 744.188C102.972 743.466 102.936 742.603 102.604 742.271C102.272 741.939 102.036 742.529 102.079 743.583ZM41.75 743.706C42.987 743.944 45.013 743.944 46.25 743.706C47.487 743.467 46.475 743.272 44 743.272C41.525 743.272 40.513 743.467 41.75 743.706Z" fill="#BFBFBF"/>
<path fill-rule="evenodd" clip-rule="evenodd" d="M143.872 94.75C142.629 96.336 142.664 96.371 144.25 95.128C145.213 94.373 146 93.585 146 93.378C146 92.555 145.179 93.084 143.872 94.75ZM373.813 124.683C374.534 124.972 375.397 124.936 375.729 124.604C376.061 124.272 375.471 124.036 374.417 124.079C373.252 124.127 373.015 124.364 373.813 124.683ZM365.872 127.75C364.629 129.336 364.664 129.371 366.25 128.128C367.212 127.373 368 126.585 368 126.378C368 125.555 367.179 126.084 365.872 127.75ZM294.813 157.683C295.534 157.972 296.397 157.936 296.729 157.604C297.061 157.272 296.471 157.036 295.417 157.079C294.252 157.127 294.015 157.364 294.813 157.683ZM301.269 157.693C302.242 157.947 303.592 157.93 304.269 157.656C304.946 157.382 304.15 157.175 302.5 157.195C300.85 157.215 300.296 157.439 301.269 157.693ZM289.75 165.662C290.438 165.94 291.563 165.94 292.25 165.662C292.938 165.385 292.375 165.158 291 165.158C289.625 165.158 289.063 165.385 289.75 165.662ZM272.813 170.683C273.534 170.972 274.397 170.936 274.729 170.604C275.061 170.272 274.471 170.036 273.417 170.079C272.252 170.127 272.015 170.364 272.813 170.683ZM266.813 178.683C267.534 178.972 268.397 178.936 268.729 178.604C269.061 178.272 268.471 178.036 267.417 178.079C266.252 178.127 266.015 178.364 266.813 178.683ZM471.813 192.683C472.534 192.972 473.397 192.936 473.729 192.604C474.061 192.272 473.471 192.036 472.417 192.079C471.252 192.127 471.015 192.364 471.813 192.683ZM94.813 215.683C95.534 215.972 96.397 215.936 96.729 215.604C97.061 215.272 96.471 215.036 95.417 215.079C94.252 215.127 94.015 215.364 94.813 215.683ZM465.405 220.25L463.5 222.5L465.75 220.595C467.864 218.805 468.455 218 467.655 218C467.465 218 466.453 219.012 465.405 220.25ZM102 220.941C102 221.459 102.445 222.157 102.989 222.493C103.555 222.843 103.723 222.442 103.382 221.552C102.717 219.82 102 219.503 102 220.941ZM384.079 223.583C384.127 224.748 384.364 224.985 384.683 224.188C384.972 223.466 384.936 222.603 384.604 222.271C384.272 221.939 384.036 222.529 384.079 223.583ZM469.946 226.75L466.5 230.5L470.25 227.054C473.74 223.846 474.46 223 473.696 223C473.529 223 471.842 224.688 469.946 226.75ZM206.079 241.583C206.127 242.748 206.364 242.985 206.683 242.188C206.972 241.466 206.936 240.603 206.604 240.271C206.272 239.939 206.036 240.529 206.079 241.583ZM206.158 248C206.158 249.375 206.385 249.938 206.662 249.25C206.94 248.563 206.94 247.438 206.662 246.75C206.385 246.063 206.158 246.625 206.158 248ZM362.946 259.75L359.5 263.5L363.25 260.054C365.313 258.158 367 256.471 367 256.304C367 255.54 366.154 256.26 362.946 259.75ZM366.872 266.75C365.629 268.336 365.664 268.371 367.25 267.128C368.212 266.373 369 265.585 369 265.378C369 264.555 368.179 265.084 366.872 266.75ZM428.872 276.75C427.629 278.336 427.664 278.371 429.25 277.128C430.212 276.373 431 275.585 431 275.378C431 274.555 430.179 275.084 428.872 276.75ZM433.405 283.25L431.5 285.5L433.75 283.595C435.864 281.805 436.455 281 435.655 281C435.465 281 434.453 282.012 433.405 283.25ZM415.872 289.75C414.629 291.336 414.664 291.371 416.25 290.128C417.916 288.821 418.445 288 417.622 288C417.415 288 416.627 288.788 415.872 289.75ZM422.405 294.25L420.5 296.5L422.75 294.595C423.988 293.547 425 292.535 425 292.345C425 291.545 424.195 292.136 422.405 294.25ZM405.872 298.75C404.629 300.336 404.664 300.371 406.25 299.128C407.916 297.821 408.445 297 407.622 297C407.415 297 406.627 297.788 405.872 298.75ZM271.75 298.662C272.438 298.94 273.563 298.94 274.25 298.662C274.938 298.385 274.375 298.158 273 298.158C271.625 298.158 271.063 298.385 271.75 298.662ZM286.158 339C286.158 340.375 286.385 340.938 286.662 340.25C286.94 339.563 286.94 338.438 286.662 337.75C286.385 337.063 286.158 337.625 286.158 339ZM294.232 349C294.232 350.925 294.438 351.712 294.689 350.75C294.941 349.788 294.941 348.212 294.689 347.25C294.438 346.288 294.232 347.075 294.232 349ZM104.813 359.683C105.534 359.972 106.397 359.936 106.729 359.604C107.061 359.272 106.471 359.036 105.417 359.079C104.252 359.127 104.015 359.364 104.813 359.683ZM287.195 369.5C287.215 371.15 287.439 371.704 287.693 370.731C287.947 369.758 287.93 368.408 287.656 367.731C287.382 367.054 287.175 367.85 287.195 369.5ZM243.924 376.75L241.5 379.5L244.25 377.076C245.762 375.742 247 374.505 247 374.326C247 373.541 246.19 374.18 243.924 376.75ZM295.158 376C295.158 377.375 295.385 377.938 295.662 377.25C295.94 376.563 295.94 375.438 295.662 374.75C295.385 374.063 295.158 374.625 295.158 376ZM249.872 381.75C248.629 383.336 248.664 383.371 250.25 382.128C251.916 380.821 252.445 380 251.622 380C251.415 380 250.627 380.788 249.872 381.75ZM298.079 415.583C298.127 416.748 298.364 416.985 298.683 416.188C298.972 415.466 298.936 414.603 298.604 414.271C298.272 413.939 298.036 414.529 298.079 415.583ZM291.079 426.583C291.127 427.748 291.364 427.985 291.683 427.188C291.972 426.466 291.936 425.603 291.604 425.271C291.272 424.939 291.036 425.529 291.079 426.583ZM299.079 429.583C299.127 430.748 299.364 430.985 299.683 430.188C299.972 429.466 299.936 428.603 299.604 428.271C299.272 427.939 299.036 428.529 299.079 429.583ZM292.158 443C292.158 444.375 292.385 444.938 292.662 444.25C292.94 443.563 292.94 442.438 292.662 441.75C292.385 441.063 292.158 441.625 292.158 443ZM300.158 447C300.158 448.375 300.385 448.938 300.662 448.25C300.94 447.563 300.94 446.438 300.662 445.75C300.385 445.063 300.158 445.625 300.158 447ZM301.079 473.583C301.127 474.748 301.364 474.985 301.683 474.188C301.972 473.466 301.936 472.603 301.604 472.271C301.272 471.939 301.036 472.529 301.079 473.583ZM283.924 494.75L281.5 497.5L284.25 495.076C285.762 493.742 287 492.505 287 492.326C287 491.541 286.19 492.18 283.924 494.75ZM354.75 492.662C355.438 492.94 356.563 492.94 357.25 492.662C357.938 492.385 357.375 492.158 356 492.158C354.625 492.158 354.063 492.385 354.75 492.662ZM289.924 499.75L287.5 502.5L290.25 500.076C292.82 497.81 293.459 497 292.674 497C292.495 497 291.258 498.237 289.924 499.75ZM362.762 500.707C364.006 500.946 365.806 500.937 366.762 500.687C367.718 500.437 366.7 500.241 364.5 500.252C362.3 500.263 361.518 500.468 362.762 500.707ZM381.813 501.683C382.534 501.972 383.397 501.936 383.729 501.604C384.061 501.272 383.471 501.036 382.417 501.079C381.252 501.127 381.015 501.364 381.813 501.683ZM114.813 516.683C115.534 516.972 116.397 516.936 116.729 516.604C117.061 516.272 116.471 516.036 115.417 516.079C114.252 516.127 114.015 516.364 114.813 516.683ZM410.75 529.706C411.988 529.944 414.012 529.944 415.25 529.706C416.488 529.467 415.475 529.272 413 529.272C410.525 529.272 409.512 529.467 410.75 529.706ZM227.624 537.539C226.659 540.053 226.943 540.702 228.122 538.675C228.706 537.671 228.973 536.639 228.715 536.382C228.458 536.124 227.966 536.645 227.624 537.539ZM434 536.378C434 536.585 434.788 537.373 435.75 538.128C437.336 539.371 437.371 539.336 436.128 537.75C434.821 536.084 434 535.555 434 536.378ZM411 537.383C411 537.594 412.111 537.979 413.47 538.239C414.828 538.499 415.702 538.326 415.411 537.856C414.899 537.027 411 536.61 411 537.383ZM417.813 544.683C418.534 544.972 419.397 544.936 419.729 544.604C420.061 544.272 419.471 544.036 418.417 544.079C417.252 544.127 417.015 544.364 417.813 544.683ZM232.079 553.583C232.127 554.748 232.364 554.985 232.683 554.188C232.972 553.466 232.936 552.603 232.604 552.271C232.272 551.939 232.036 552.529 232.079 553.583ZM224.079 554.583C224.127 555.748 224.364 555.985 224.683 555.188C224.972 554.466 224.936 553.603 224.604 553.271C224.272 552.939 224.036 553.529 224.079 554.583ZM231.079 561.583C231.127 562.748 231.364 562.985 231.683 562.188C231.972 561.466 231.936 560.603 231.604 560.271C231.272 559.939 231.036 560.529 231.079 561.583ZM223.079 562.583C223.127 563.748 223.364 563.985 223.683 563.188C223.972 562.466 223.936 561.603 223.604 561.271C223.272 560.939 223.036 561.529 223.079 562.583ZM227.079 589.583C227.127 590.748 227.364 590.985 227.683 590.188C227.972 589.466 227.936 588.603 227.604 588.271C227.272 587.939 227.036 588.529 227.079 589.583ZM513.079 602.583C513.127 603.748 513.364 603.985 513.683 603.188C513.972 602.466 513.936 601.603 513.604 601.271C513.272 600.939 513.036 601.529 513.079 602.583ZM324.813 610.683C325.534 610.972 326.397 610.936 326.729 610.604C327.061 610.272 326.471 610.036 325.417 610.079C324.252 610.127 324.015 610.364 324.813 610.683ZM330.813 610.683C331.534 610.972 332.397 610.936 332.729 610.604C333.061 610.272 332.471 610.036 331.417 610.079C330.252 610.127 330.015 610.364 330.813 610.683ZM224.079 612.583C224.127 613.748 224.364 613.985 224.683 613.188C224.972 612.466 224.936 611.603 224.604 611.271C224.272 610.939 224.036 611.529 224.079 612.583ZM342.762 613.707C344.006 613.946 345.806 613.937 346.762 613.687C347.718 613.437 346.7 613.241 344.5 613.252C342.3 613.263 341.518 613.468 342.762 613.707ZM490.264 614.718C491.784 614.947 494.034 614.941 495.264 614.704C496.494 614.467 495.25 614.279 492.5 614.286C489.75 614.294 488.744 614.488 490.264 614.718ZM205.25 625.689C206.212 625.941 207.788 625.941 208.75 625.689C209.712 625.438 208.925 625.232 207 625.232C205.075 625.232 204.288 625.438 205.25 625.689ZM184.813 663.683C185.534 663.972 186.397 663.936 186.729 663.604C187.061 663.272 186.471 663.036 185.417 663.079C184.252 663.127 184.015 663.364 184.813 663.683ZM424.405 710.25L422.5 712.5L424.75 710.595C425.988 709.547 427 708.535 427 708.345C427 707.545 426.195 708.136 424.405 710.25ZM443.75 729.662C444.438 729.94 445.563 729.94 446.25 729.662C446.938 729.385 446.375 729.158 445 729.158C443.625 729.158 443.063 729.385 443.75 729.662ZM112.813 749.683C113.534 749.972 114.397 749.936 114.729 749.604C115.061 749.272 114.471 749.036 113.417 749.079C112.252 749.127 112.015 749.364 112.813 749.683Z" fill="#808080"/>
<path fill-rule="evenodd" clip-rule="evenodd" d="M109.841 82.9261C106.093 84.1271 98.2281 89.7011 96.6041 92.3091C93.3731 97.4931 93.6821 99.7411 98.2851 104.545C101.478 107.876 103.648 109.231 106.549 109.702C108.713 110.053 111.081 110.939 111.813 111.67C113.599 113.456 114.589 113.347 116.711 111.133C117.695 110.106 120.3 108.948 122.5 108.559C127.722 107.638 131.795 105.193 139.605 98.2941C148.606 90.3431 148.023 87.2631 137.355 86.3961C133.868 86.1131 130.827 85.2481 129.686 84.2161C127.552 82.2851 114.492 81.4361 109.841 82.9261ZM364.249 130.539C359.472 135.47 358.918 136.482 359.192 139.766C359.627 144.975 362.432 146.254 372 145.604C379.997 145.062 391.046 142.084 394.75 139.473C397.813 137.313 397.691 132.963 394.476 129.749C391.347 126.62 385.17 125 376.364 125H369.613L364.249 130.539ZM279 159.048C266.403 161.161 263.216 162.794 264.609 166.423C265.505 168.758 267.341 168.902 274.597 167.209C279.589 166.045 286.345 165.607 299 165.629C318.436 165.662 326.798 167.213 338.5 172.957C351.174 179.178 363.026 190.702 370.235 203.814C375.135 212.726 376.973 219.464 376.988 228.568C377.023 249.336 365.225 263.503 336.63 277.029C316.301 286.645 298.669 291.003 280.119 290.996C239.268 290.981 208.65 273.108 206.38 247.951C204.947 232.067 215.419 208.933 230.029 195.712C244.737 182.402 267.806 175.221 282 179.534C285.025 180.453 289.075 181.272 291 181.353C293.894 181.474 294.554 181.121 294.811 179.313C295.212 176.501 292.264 174.561 284.54 172.551C271.563 169.174 258.714 171.152 242.5 179.021C225.592 187.228 215.393 197.679 206.902 215.5C200.482 228.975 198.695 236.315 199.201 247.127C199.723 258.289 203.531 266.48 212.367 275.444C226.03 289.304 250.43 297.779 278.208 298.312C287.455 298.49 287.944 298.606 287.408 300.5C287.096 301.6 286.625 303.276 286.361 304.225C285.439 307.54 288.091 378.702 290.024 402.5C291.096 415.7 292.641 440.343 293.457 457.261C294.274 474.18 295.421 488.918 296.006 490.011C296.591 491.105 297.969 492 299.067 492C301.215 492 302.211 490.339 302.212 486.754C302.213 480.012 298.761 422.956 297.024 401C294.934 374.602 292.787 314.149 293.72 308C294.012 306.075 294.676 303.966 295.195 303.314C295.794 302.561 295.74 301.383 295.047 300.089C294.114 298.344 294.284 297.982 296.228 297.582C318.781 292.943 336.813 286.294 352.74 276.742C374.138 263.909 384 248.923 384 229.242C384 214.362 380.018 203.518 369.346 189.339C358.959 175.538 343.799 165.462 326.5 160.861C320.17 159.177 314.952 158.67 301.5 158.429C292.15 158.262 282.025 158.54 279 159.048ZM462.764 190.25C460.13 192.285 450.132 209.519 446.894 217.606C441.68 230.627 442.037 237.347 448 238.407C449.375 238.651 450.588 238.885 450.696 238.926C451.509 239.234 447.102 250.869 443.914 256.832C431.147 280.714 390 316.462 340.5 346.678C317.231 360.881 314.125 362.394 308.112 362.45C301.571 362.511 299.42 364.596 302.447 367.941C305.039 370.805 312.023 370.668 318.558 367.625C331.928 361.399 372.974 335.028 392 320.44C402.819 312.144 425.487 291.571 434.705 281.681C446.03 269.53 454.028 255.655 457.562 242.03C459.098 236.108 459.932 234.587 462.523 232.986C467.039 230.195 476.418 220.062 478.791 215.409C481.647 209.811 482.408 204.766 481.027 200.581C479.66 196.441 475.733 193 472.374 193C471.077 193 469.455 192.1 468.768 191C467.34 188.714 465.112 188.436 462.764 190.25ZM473.541 201.066C477.39 207.294 466.865 222.928 454.604 229.198L450.708 231.19L451.319 227.425C452.149 222.306 461.819 202.975 463.859 202.355C464.762 202.08 466.175 201.465 467 200.987C469.119 199.759 472.76 199.803 473.541 201.066ZM89.3051 217.468C84.3121 219.639 77.1491 226.801 76.0731 230.698C74.0921 237.872 77.9771 241.592 86.5281 240.709C97.4041 239.587 108.957 231.948 107.65 226.743C107.319 225.423 105.912 223.825 104.524 223.193C103.058 222.525 102 221.21 102 220.057C102 216.165 95.3961 214.819 89.3051 217.468ZM502.938 317.337C501.122 318.237 500.421 319.496 500.19 322.267C499.918 325.529 500.227 326.136 502.69 327.185C504.235 327.843 506.551 329.308 507.836 330.441C511.321 333.512 522.538 333.156 530.04 329.736C533.087 328.347 536.122 326.558 536.784 325.76C538.746 323.396 539.388 318.36 537.851 317.393C535.626 315.993 505.745 315.945 502.938 317.337ZM94.4551 354.455C89.4711 359.439 92.7451 365.332 103.5 370.734C109.246 373.621 122.773 378.127 125.963 378.218C130.05 378.334 135 374.251 135 370.762C135 360.79 120.407 352 103.849 352C97.8141 352 96.5891 352.32 94.4551 354.455ZM111.212 361.003C114.121 362.105 118.3 364.61 120.5 366.57L124.5 370.133L121.516 369.489C115.744 368.242 103.254 362.938 101.482 360.98C99.7321 359.047 99.7641 359 102.807 359C104.522 359 108.304 359.901 111.212 361.003ZM257.61 364.135C255.007 365.859 251.443 369.071 249.689 371.272C247.935 373.474 241.384 379.544 235.132 384.762C228.88 389.98 223.03 395.531 222.132 397.098C221.234 398.667 219.318 400.208 217.87 400.527C214.835 401.195 200.963 396.859 169.5 385.408C157.95 381.204 147.15 377.705 145.5 377.632C142.926 377.519 142.455 377.893 142.181 380.272C141.798 383.611 141.07 383.265 170.5 393.729C210.539 407.966 214.55 409.006 221.833 407.045C225.194 406.14 226.367 405.187 227.762 402.231C228.789 400.053 232.157 396.493 236 393.523C239.575 390.76 247.086 384.054 252.69 378.619C259.199 372.308 263.784 368.639 265.383 368.463C268.775 368.091 270 367.21 270 365.141C270 360.188 264.271 359.723 257.61 364.135ZM285.278 494.254C276.832 502.006 260.249 513.701 238.535 527.217C232.09 531.228 230.647 532.648 228.881 536.717C226.535 542.12 217.112 605.898 216.725 618.991L216.5 626.621L209 626.249C200.596 625.832 194.379 628.001 194.639 631.259C194.735 632.458 192.692 634.106 188.139 636.505C178.688 641.485 171.986 646.886 169.661 651.395C167.851 654.907 167.796 655.546 169.107 657.881C169.906 659.306 171.672 661.033 173.03 661.721C176.361 663.406 188.951 663.333 193.128 661.604C194.983 660.836 198.254 659.977 200.398 659.694C206.43 658.899 220.224 651.601 224.369 647.014C229.039 641.844 229.365 638.597 225.896 631.796C223.452 627.006 223.461 618.111 225.929 599.5C232.542 549.619 233.222 545.388 235.334 541C237.637 536.216 238.866 535.267 259.369 522.434C271.203 515.027 281.387 507.452 290.569 499.224C295.496 494.809 296.281 493.667 295.376 492.224C293.368 489.019 290.31 489.634 285.278 494.254ZM304.323 492.617C301.163 493.347 300.082 495.109 301.118 497.844C301.928 499.984 302.416 500.133 306.752 499.564C309.364 499.222 327.475 499.389 347 499.936C380.195 500.865 395 502.183 395 504.207C395 504.677 391.738 511.631 387.75 519.661C381.422 532.404 380.5 534.954 380.5 539.712C380.5 544.54 380.853 545.479 383.584 547.919C387.293 551.234 397.77 553.729 400.914 552.046C403.86 550.469 414.254 550.79 418.565 552.592C426.987 556.111 439 551.419 439 544.612C439 540.419 433.691 535.448 425.985 532.424C419.611 529.924 418.298 529.753 409.774 530.314C404.674 530.651 398.046 531.601 395.047 532.426C392.047 533.251 389.468 533.801 389.314 533.648C389.161 533.494 391.578 528.457 394.686 522.452C404.276 503.922 404.609 499.717 396.718 496.787C394.133 495.827 387.177 494.579 381.259 494.013C369.69 492.906 307.925 491.785 304.323 492.617ZM92.2631 518.115C90.0951 518.742 88.8261 519.844 88.4231 521.452C88.0911 522.772 86.9611 524.631 85.9101 525.581C83.4111 527.843 83.4821 531.222 86.0791 533.571C87.7271 535.063 89.6521 535.44 95.3621 535.39C113.464 535.231 131.112 524.394 122.777 518.557C121.034 517.335 117.857 517.019 108.027 517.09C101.137 517.14 94.0431 517.601 92.2631 518.115ZM415.215 538.854C414.182 543.772 418.708 545.59 423.198 542.059C425.646 540.133 425.692 540.134 429.083 542.218L432.5 544.317L429 545.797C426.043 547.046 423.094 547.116 410 546.244C401.475 545.677 393.15 544.66 391.5 543.984L388.5 542.754L392 541.199C399.954 537.666 415.802 536.065 415.215 538.854ZM487.589 593.118C481.638 594.514 477.504 597.539 473.924 603.118C469.839 609.484 470.505 613.006 476.01 614.143C483.861 615.766 505 613.482 505 611.012C505 610.601 506.8 609.075 509 607.619C513.924 604.36 514.383 600.931 510.25 598.286C508.737 597.318 506.944 595.996 506.265 595.349C504.976 594.121 496.149 591.926 493.201 592.1C492.265 592.156 489.74 592.614 487.589 593.118ZM336.589 595.21C335.715 595.699 335 596.752 335 597.55C335 598.37 334.022 599.026 332.75 599.059C329.265 599.15 321.564 603.308 321.18 605.306C320.599 608.319 322.925 610 327.672 610C330.107 610 333.445 610.696 335.09 611.547C339.179 613.661 349.868 613.176 351.354 610.809C352.154 609.534 352.014 608.672 350.784 607.309C349.359 605.728 349.332 605.255 350.576 603.559C352.929 600.352 352.338 597.226 349.059 595.531C345.926 593.91 339.219 593.738 336.589 595.21ZM221 638.813C221 642.494 211.184 648.953 199.293 653.097C193.002 655.289 176 656.93 176 655.344C176 652.25 189.449 643.071 199.408 639.369C207.531 636.349 221 636.002 221 638.813ZM311.155 702.679C308.864 703.153 300.756 710.788 298.891 714.227C296.695 718.275 306.418 722.713 314.929 721.547C317.443 721.203 322.875 719.315 327 717.352C331.125 715.388 335.625 713.251 337 712.603C338.67 711.815 339.5 710.606 339.5 708.962C339.5 706.696 339.023 706.446 333.5 705.815C330.2 705.439 325.7 704.609 323.5 703.972C318.442 702.508 314.155 702.058 311.155 702.679ZM124 725.083C113.449 726.906 108 729.508 108 732.722C108 733.498 106.875 735.608 105.5 737.411C97.5871 747.785 108.591 752.318 127.152 746.331C134.141 744.076 136.25 742.846 140.714 738.417C146.529 732.648 147.366 729.546 143.943 726.449C141.502 724.239 132.467 723.62 124 725.083Z" fill="black"/>
</svg>
