<svg width="246" height="57" viewBox="0 0 246 57" fill="none" xmlns="http://www.w3.org/2000/svg">
<path fill-rule="evenodd" clip-rule="evenodd" d="M180.096 2.54906C179.928 2.71665 176.901 3.00793 173.368 3.19634C168.312 3.46615 166.907 3.63694 166.768 3.99936C166.671 4.25218 166.741 4.63991 166.924 4.86037C167.141 5.12088 167.153 5.53713 166.959 6.04662C166.478 7.31042 165.662 13.368 165.434 17.3561L165.223 21.0408H164.277C162.427 21.0408 159.236 22.9157 156.74 25.4689C155.447 26.7914 154.154 28.3189 153.867 28.8633L153.346 29.8528L153.053 28.7313C151.567 23.0272 150.538 20.5867 148.9 18.8839C147.605 17.5384 146.165 17.0751 143.211 17.0533C140.931 17.0363 140.665 17.1135 138.028 18.5609C136.499 19.4002 134.517 20.6652 133.622 21.3721C132.727 22.0793 131.996 22.519 131.996 22.3488C131.996 22.179 132.14 21.9508 132.316 21.8419C132.966 21.4401 132.626 20.4733 131.7 20.0897C130.09 19.4229 124.218 20.6745 121.934 22.171C120.978 22.7971 120.811 24.1228 121.614 24.7098C122.072 25.045 122.101 25.9531 121.89 33.1959C121.689 40.0709 121.592 41.1636 121.257 40.366C120.711 39.0682 118.456 37.2116 115.996 36.0369L113.936 35.0525L115.11 34.4507C117.295 33.3295 117.944 30.5597 116.44 28.7723C114.641 26.6343 109.297 25.0107 105.079 25.3199C100.298 25.6708 96.0564 27.6258 92.454 31.1387C89.134 34.3767 87.2803 38.6331 88.0586 41.2305C89.3355 45.4923 95.469 48.1606 104.758 48.4955C108.719 48.6381 109.852 48.5634 112.433 47.9898C115.924 47.214 118.887 45.9182 120.38 44.5144L121.421 43.5348V44.4455C121.421 44.9463 121.263 45.4539 121.07 45.5731C120.877 45.6926 120.78 46.2059 120.854 46.7135C120.929 47.2214 120.871 47.637 120.725 47.637C120.34 47.637 120.399 48.8435 120.795 49.0883C120.98 49.2023 121.809 49.1389 122.638 48.947C123.467 48.7553 126.478 48.4644 129.33 48.301C132.181 48.1375 134.813 47.844 135.177 47.6489C135.956 47.2326 136.079 45.7859 135.36 45.51C134.449 45.16 134.75 42.2819 135.962 39.7517C137.904 35.7011 140.085 33.2174 141.702 33.2174C142.649 33.2174 142.984 34.9404 143.178 40.8015C143.284 44.0033 143.482 46.7334 143.617 46.8683C143.752 47.0032 143.416 47.3012 142.871 47.5303C141.636 48.0497 141.658 49.1411 142.9 48.97C143.335 48.9101 145.999 48.8242 148.818 48.779C153.608 48.7028 153.945 48.6573 153.945 48.0901C153.945 47.289 152.894 47.0817 148.593 47.034L145.163 46.9961L144.996 45.9547C144.904 45.3821 144.79 42.6635 144.741 39.9139C144.658 35.2204 144.687 34.9356 145.214 35.2643C145.633 35.5264 145.727 35.8687 145.585 36.6223C145.476 37.2075 145.543 37.7205 145.745 37.8458C145.938 37.9646 146.095 38.468 146.095 38.965C146.095 39.4617 146.29 40.0299 146.528 40.2272C146.856 40.4999 146.897 40.9886 146.697 42.2514C146.372 44.3096 146.594 45.2821 147.441 45.5035C148.091 45.6737 149.299 45.1357 149.299 44.6759C149.299 44.5422 149.513 44.4327 149.774 44.4327C150.316 44.4327 150.747 43.0862 150.452 42.3171C150.344 42.0339 150.426 41.2289 150.636 40.5288C150.944 39.5015 150.936 39.2047 150.594 38.9932C150.259 38.7862 150.325 38.5126 150.908 37.6945C151.762 36.4948 151.456 35.5639 150.255 35.7043C149.551 35.7863 149.554 35.7668 150.423 34.6279C151.286 33.4965 151.297 33.4263 150.894 31.7466C150.612 30.5693 150.29 29.9637 149.875 29.832C149.28 29.6432 148.338 30.1585 148.338 30.6734C148.338 31.2233 146.556 33.8384 146.175 33.848C145.955 33.8538 145.774 33.7791 145.774 33.682C145.774 33.0991 147.007 31.2464 148.243 29.9707C149.772 28.3929 149.97 27.3636 148.778 27.1925C148.121 27.0983 147.335 27.8177 146.031 29.7057C145.554 30.3975 145.485 30.419 145.471 29.8823C145.461 29.5388 146.307 28.4519 147.401 27.4015C149.381 25.4987 149.637 24.7877 148.579 24.1215C148.165 23.8606 147.853 23.8731 147.377 24.1702C147.025 24.3906 146.736 24.4342 146.736 24.2666C146.736 24.0994 146.88 23.8735 147.056 23.7645C147.577 23.4428 147.424 22.0002 146.845 21.7781C146.496 21.6442 146.057 21.8733 145.563 22.4469C144.635 23.5264 144.58 23.2287 145.476 21.971C146.418 20.6483 146.199 19.6245 144.948 19.5024C144.187 19.428 143.6 19.7023 142.384 20.7005C141.517 21.4122 140.484 22.4603 140.088 23.0294C139.521 23.843 139.126 24.0724 138.236 24.1032C137.464 24.1301 136.788 24.4393 136.109 25.0751C134.851 26.2533 133.277 28.6768 133.277 29.4349C133.277 29.7528 133.061 30.013 132.797 30.013C131.441 30.013 132.971 26.287 134.787 25.1645C135.367 24.8062 135.841 24.3041 135.841 24.0487C135.841 23.3114 134.948 23.165 134.048 23.7549C133.594 24.0526 133.154 24.2288 133.072 24.1465C132.807 23.8818 135.599 21.8095 138.388 20.2C140.948 18.7228 141.219 18.6385 143.355 18.6577C144.85 18.6712 145.973 18.867 146.674 19.2364C148.815 20.364 150.862 25.0632 151.529 30.3802C151.713 31.8434 151.863 36.1084 151.863 39.8581V46.6757H152.664H153.465V39.8206C153.465 34.0226 153.539 32.937 153.945 32.7809C154.219 32.6762 154.426 32.1984 154.426 31.6732C154.426 30.5472 156.896 27.1669 158.944 25.4904C160.55 24.1756 163.418 22.643 164.272 22.643C165.117 22.643 165.685 23.7821 165.803 25.715C165.955 28.2054 166.582 28.8681 167.299 27.2948C167.632 26.5651 167.695 26.5449 168.064 27.0487C168.397 27.505 168.34 27.8167 167.726 28.8857C166.333 31.3124 166.072 34.5764 167.216 35.2829C167.411 35.404 167.471 36.0513 167.36 36.8579C167.167 38.2703 167.72 39.3057 168.668 39.3057C168.898 39.3057 169.172 39.7344 169.277 40.2583C169.52 41.4731 170.654 41.8124 172.084 41.0992C173.375 40.4554 173.332 40.4474 173.332 41.3244C173.332 42.205 173.887 42.8305 174.67 42.8305C175.152 42.8305 175.19 42.9593 174.918 43.6739C174.498 44.7778 174.805 45.6708 175.676 45.8842C176.686 46.131 178.422 45.8807 178.873 45.4231C179.477 44.8104 178.297 44.0965 177.081 44.3397L176.103 44.5352L177.316 42.3671C178.366 40.4884 178.467 40.1378 178.071 39.7415C177.674 39.3451 177.45 39.4137 176.39 40.2561C174.957 41.3943 174.934 41.4007 174.934 40.663C174.934 40.3519 175.667 39.191 176.564 38.0829C178.077 36.2122 178.409 35.14 177.474 35.14C177.274 35.14 176.008 36.0446 174.661 37.1504C171.289 39.9164 171.094 40.0587 170.919 39.8841C170.434 39.3989 171.696 37.5933 173.666 35.9517C174.894 34.9292 176.406 33.5314 177.025 32.8454C177.962 31.8091 178.095 31.4915 177.813 30.966C176.772 29.0193 172.218 31.9504 170.6 35.6091C169.909 37.1709 168.835 38.2072 168.854 37.293C168.878 36.1686 170.245 34.3309 172.593 32.2657C176.283 29.019 177.05 27.5982 175.546 26.793C174.087 26.0124 171.24 28.383 169.585 31.7575C169.111 32.7249 168.545 33.5849 168.327 33.6682C167.695 33.9108 168.134 31.7068 169.118 29.6926C169.88 28.1349 170.364 27.669 173.283 25.682C177.101 23.0836 177.541 22.5446 176.607 21.6099C175.585 20.5883 173.936 21.3257 171.329 23.9696C170.14 25.1764 169.166 26.0451 169.166 25.9002C169.166 25.3683 171.15 22.6619 172.305 21.6189C172.959 21.0283 174.611 19.9318 175.976 19.1823C177.734 18.2174 178.459 17.6406 178.459 17.2061C178.459 15.6088 176.571 16.0769 173.392 18.4632C172.037 19.4803 170.45 20.5573 169.865 20.8562C168.846 21.3776 168.815 21.376 169.115 20.8162C169.63 19.8533 170.431 19.306 174.392 17.2116C177.6 15.5146 178.16 15.1057 178.077 14.5209C177.95 13.6349 176.693 13.4628 175.127 14.1168C174.492 14.3821 173.973 14.5657 173.973 14.5244C173.973 14.4831 175.054 13.6759 176.376 12.7306C178.809 10.9906 179.296 10.1501 178.395 9.24874C178.096 8.94978 178.096 8.86422 178.395 8.86422C178.951 8.86422 178.868 7.59657 178.298 7.37772C177.557 7.09317 176.524 7.4575 174.802 8.61107C170.425 11.5421 168.205 12.6072 168.205 11.7757C168.205 10.5571 173.326 6.50357 174.905 6.47344C175.588 6.46031 175.733 6.30714 175.725 5.60795C175.715 4.79917 175.812 4.7479 177.753 4.53993C178.874 4.42009 179.867 4.39734 179.959 4.48962C180.051 4.58191 179.972 5.85628 179.783 7.32164C179.031 13.1337 178.71 20.091 178.877 26.933C179.054 34.1947 179.473 37.4539 180.991 43.3646C181.361 44.8037 181.663 46.1204 181.663 46.2905C181.663 46.4604 180.257 46.6972 178.539 46.8164C176.821 46.9356 174.946 47.1128 174.373 47.2105L173.332 47.388L173.3 45.3494C173.257 42.6065 172.98 41.7314 172.118 41.6067C171.233 41.4785 170.768 42.5555 170.768 44.7358V46.2793L169.345 46.6376C168.562 46.835 167.444 46.9961 166.861 46.9961C165.489 46.9961 159.486 45.2808 158.172 44.5128C157.275 43.9892 156.945 43.5345 156.022 41.5487C155.899 41.2844 155.526 41.0681 155.192 41.0681C153.628 41.0681 155.004 44.3301 157.155 45.7218C158.303 46.4645 161.316 47.4931 164.84 48.3455C166.119 48.6547 169.171 48.5019 170.29 48.0725C170.744 47.8982 170.834 47.9639 170.683 48.359C170.305 49.3433 171.188 49.6019 173.209 49.0988C174.246 48.8409 176.866 48.5025 179.031 48.3465C181.229 48.1885 183.133 47.8975 183.342 47.6883C183.629 47.4018 183.626 46.9917 183.332 45.9531C182.367 42.5462 181.028 35.9815 180.72 33.1498C180.083 27.2976 180.345 17.028 181.374 7.50237L181.746 4.05767H182.952C184.135 4.05767 184.919 3.3117 184.317 2.75863C183.914 2.38788 180.43 2.21485 180.096 2.54906ZM172.371 5.68004C171.401 6.21325 169.979 7.25595 169.211 7.99712C168.216 8.9565 167.863 9.1603 167.985 8.704C168.08 8.35152 168.251 7.59465 168.367 7.02171C168.482 6.44877 168.709 5.98029 168.871 5.98029C169.033 5.98029 169.166 5.77169 169.166 5.5163C169.166 5.06961 169.411 5.02539 173.332 4.7636C173.929 4.72386 173.685 4.95682 172.371 5.68004ZM33.7722 5.38556C29.7565 5.84283 24.5904 8.15317 20.1585 11.4735C16.5994 14.1399 11.5682 19.0118 9.51934 21.7752C7.6653 24.2762 4.21996 30.9019 3.40285 33.5378C1.3857 40.0456 2.55241 46.2031 6.47455 49.7474C9.78626 52.7406 14.1016 54.1925 20.8054 54.5693C26.4775 54.8882 29.9683 54.0147 39.069 49.9986C44.561 47.5752 44.3104 47.8161 43.7224 45.5157C43.4574 44.4794 43.0588 41.9733 42.8364 39.9465L42.4323 36.2615L40.7366 36.1641C38.5733 36.0401 34.5002 37.0431 29.8728 38.8398C23.1565 41.4472 19.3122 41.4548 17.2063 38.8651C15.9998 37.3811 16.7961 35.1906 20.1623 30.7321C23.0232 26.9432 24.2677 25.7679 28.0723 23.2601C33.5277 19.6645 35.525 18.6314 36.2027 19.0547C37.1836 19.6674 38.6335 18.7096 38.9037 17.2705C39.267 15.3332 41.3928 10.4456 42.0174 10.1114C42.7934 9.69607 42.7579 8.19803 41.9478 7.16815C40.8462 5.76752 37.2678 4.98726 33.7722 5.38556ZM81.8928 5.56084C81.771 5.68293 79.8362 5.79092 77.5935 5.80117L73.5159 5.82007L73.142 13.1901C72.9362 17.2436 72.7558 23.1243 72.7414 26.2578C72.7187 31.1518 72.7856 31.9831 73.217 32.1484C73.4932 32.2545 73.844 32.2138 73.9966 32.0584C74.1491 31.9026 74.3471 27.7379 74.4372 22.8032C74.5269 17.8685 74.7022 12.3544 74.8271 10.5494L75.0537 7.26781L77.3291 7.31042C78.5804 7.3335 81.623 7.24121 84.0903 7.10502L88.5764 6.85733V20.2778C88.5764 33.4843 88.5867 33.698 89.2173 33.698C89.8447 33.698 89.862 33.425 90.0363 20.5601C90.1341 13.3343 90.335 7.08291 90.4827 6.66859C90.6718 6.13763 90.6192 5.83097 90.3045 5.63198C89.7803 5.30001 82.2177 5.23592 81.8928 5.56084ZM38.1077 7.09797C38.9008 7.20596 39.8656 7.5014 40.2521 7.75423L40.9545 8.21373L39.642 11.015C38.92 12.5556 38.0731 14.5404 37.76 15.4258C37.3063 16.7091 37.0615 17.0158 36.551 16.9389C35.6089 16.7973 32.4446 18.4866 27.335 21.8592C22.6511 24.9511 21.5569 26.0044 18.3647 30.4937C15.8361 34.0502 15.3439 34.9932 15.1462 36.6627C14.8303 39.33 16.3796 41.2485 19.5029 42.0569C20.4139 42.2928 20.9394 42.6001 20.8977 42.8731C20.7564 43.8043 19.6512 47.1916 19.2651 47.8773C18.5121 49.2145 18.2576 48.6111 18.9277 47.0763C19.8557 44.9489 20.1585 43.8312 19.9518 43.2929C19.739 42.7388 18.5178 42.6815 17.9978 43.2015C17.726 43.4733 17.5129 43.4778 17.2002 43.2182C16.053 42.2662 14.2275 44.5967 13.8045 47.5537C13.6581 48.5769 13.4194 49.104 13.0717 49.1709C11.9873 49.3795 12.1995 47.984 13.6331 45.4753C15.647 41.9512 15.9531 40.5643 14.8133 40.1269C14.5021 40.0077 13.9289 40.3516 13.2646 41.0559L12.21 42.1742L12.7215 40.8723C13.1207 39.8555 13.1515 39.4399 12.8615 38.9756C12.5731 38.5139 12.5958 38.1284 12.9621 37.2514C13.66 35.5812 13.569 34.8657 12.6289 34.6295L11.8236 34.4277L12.9576 32.9412C13.5812 32.1237 14.4339 30.8061 14.852 30.013C15.2702 29.2199 16.0598 28.0106 16.6061 27.3252C17.1528 26.6401 17.5998 25.8268 17.5998 25.5176C17.5998 24.797 22.3458 20.0795 23.0709 20.0795C23.3718 20.0795 24.319 19.4979 25.1752 18.7869C26.2916 17.8601 26.9299 17.5429 27.4311 17.666C27.8153 17.7602 28.5238 17.6878 29.0051 17.5045C29.6097 17.2747 29.9837 17.2747 30.2131 17.5041C30.8546 18.1457 31.6493 17.8227 33.14 16.3144C34.8675 14.5667 37.1464 10.9169 37.1464 9.89827C37.1464 8.555 35.1366 8.14868 33.0506 9.06994C32.3953 9.35929 30.9735 9.6118 29.8911 9.6307C28.1011 9.66211 27.7243 9.80086 25.7254 11.1634C24.5167 11.9875 23.1174 12.7636 22.6156 12.8883C22.1134 13.0129 21.1041 13.5682 20.3725 14.1223C18.713 15.3784 16.5321 16.6656 16.8013 16.2298C17.2031 15.5799 23.3641 11.097 25.3739 9.99248C28.8253 8.09517 34.0888 6.52087 36.0249 6.8067C36.3773 6.85861 37.3146 6.98967 38.1077 7.09797ZM78.5698 8.76873C76.6088 9.02476 74.9579 11.9805 74.9579 15.2358C74.9579 15.9404 75.1104 16.6111 75.2972 16.7264C75.501 16.8527 75.5472 17.3394 75.4126 17.947C75.1018 19.3511 75.1739 20.7441 75.5786 21.1488C75.766 21.3362 75.9192 22.0085 75.9192 22.643C75.9192 23.2774 76.0621 23.9395 76.2364 24.1138C76.4428 24.3201 76.4463 24.8059 76.2473 25.5006C76.0467 26.2001 76.0525 26.7795 76.2643 27.1752C76.4425 27.5078 76.5908 28.9578 76.594 30.3966C76.5969 31.8357 76.761 33.3113 76.958 33.6759C77.331 34.3661 77.3842 38.5437 77.034 39.6473C76.9234 39.9959 77.0805 40.929 77.3829 41.7214C78.0049 43.3502 78.7746 43.7248 80.2576 43.1201C80.7796 42.9074 81.5275 42.7651 81.92 42.8039C83.1162 42.9221 86.616 40.0145 86.4301 39.0573C86.2488 38.1213 85.5663 38.2998 84.0301 39.6847L82.4958 41.0681L83.5735 39.8097C84.1663 39.1176 84.8494 38.0768 85.0917 37.4968C85.5714 36.3487 85.6742 35.14 85.292 35.14C84.8635 35.14 85.1199 32.7717 85.6906 31.4575C85.9963 30.7542 86.5904 29.7698 87.0108 29.2702C88.0724 28.0087 88.0381 26.4209 86.931 25.5503C86.4667 25.185 85.8947 24.886 85.6601 24.886C85.3435 24.886 85.3926 24.6162 85.8498 23.8414C86.2465 23.1688 86.367 22.6363 86.1882 22.3469C86.0354 22.0992 85.9851 21.4349 86.0767 20.8706C86.209 20.0542 86.0937 19.7398 85.5124 19.3326L84.7818 18.8211L86.2754 17.2244C87.8058 15.5883 87.9349 14.9115 86.8294 14.32C86.4372 14.1101 86.3199 13.7467 86.4215 13.0562C86.5388 12.2573 86.4196 12.0212 85.7444 11.7135C85.085 11.413 84.9581 11.1752 85.0939 10.4952C85.3484 9.22343 84.3073 8.41401 82.7429 8.66683C81.1282 8.92767 80.992 8.93343 80.2451 8.77225C79.8926 8.69599 79.1386 8.69471 78.5698 8.76873ZM35.2238 10.7868C35.035 11.1393 34.8088 11.4277 34.7207 11.4277C34.6326 11.4277 34.7146 11.1393 34.9033 10.7868C35.0921 10.4344 35.3183 10.146 35.4064 10.146C35.4945 10.146 35.4125 10.4344 35.2238 10.7868ZM83.6097 10.4219C83.6097 10.7596 79.3411 14.9669 78.5618 15.3976C77.8928 15.7674 77.8992 15.7574 80.537 12.4691C81.6637 11.0647 82.6397 10.146 83.005 10.146C83.3376 10.146 83.6097 10.2703 83.6097 10.4219ZM78.9633 11.2576C77.7092 12.2855 77.2 12.2919 78.1622 11.2675C78.5762 10.8269 79.1421 10.467 79.4196 10.468C79.7564 10.469 79.6045 10.732 78.9633 11.2576ZM31.0722 13.5907C30.1609 15.0643 28.9359 16.1413 28.5779 15.7837C28.3607 15.5661 31.3193 12.0686 31.7208 12.0686C31.8816 12.0686 31.59 12.7537 31.0722 13.5907ZM84.3467 13.4862C84.0647 13.9883 78.8031 18.9429 78.8031 18.7061C78.8031 18.3248 82.1437 14.4398 83.0409 13.7778C84.1887 12.9312 84.7257 12.8114 84.3467 13.4862ZM170.127 13.9592C170.127 14.2937 169.614 15.3306 168.986 16.2631C168.262 17.3394 167.903 18.1995 168.004 18.6186C168.091 18.9814 167.889 19.7831 167.556 20.3999L166.95 21.5215L166.937 19.5658C166.929 18.4901 167.015 16.7313 167.127 15.6571L167.331 13.7041L168.489 13.581C169.126 13.5134 169.755 13.434 169.887 13.4042C170.019 13.3747 170.127 13.6243 170.127 13.9592ZM24.2777 14.8724C23.8313 15.3572 23.2276 16.1102 22.936 16.546C22.6447 16.9815 22.4063 17.1533 22.4063 16.9277C22.4063 16.3961 24.3363 13.9912 24.7628 13.9912C24.9426 13.9912 24.7244 14.3876 24.2777 14.8724ZM77.1961 14.2315C77.1872 14.6702 76.5979 15.4178 76.4098 15.2294C76.1573 14.9769 76.5594 13.9912 76.9148 13.9912C77.0721 13.9912 77.1987 14.0995 77.1961 14.2315ZM226.204 14.9525C225.939 15.1233 224.93 15.2685 223.961 15.2752C222.727 15.2835 221.433 15.6004 219.646 16.3329C217.294 17.2965 217.073 17.4663 216.842 18.4888C216.517 19.925 216.626 44.2929 216.96 44.8274C217.151 45.1334 217.354 45.1459 217.783 44.8781C218.304 44.5525 218.343 43.9946 218.235 38.3572C218.119 32.3218 218.129 32.1997 218.742 32.5275C219.201 32.7729 219.333 33.1088 219.234 33.7794C219.153 34.3335 219.284 34.8487 219.566 35.083C219.974 35.421 219.967 35.6524 219.516 36.9082C219.131 37.9765 219.087 38.487 219.344 38.8942C219.599 39.2989 219.567 39.7543 219.222 40.6342C218.964 41.2898 218.844 42.188 218.955 42.6305C219.125 43.305 219.372 43.4505 220.493 43.5332C222.238 43.6617 222.327 44.1311 220.744 44.8614C219.136 45.6029 218.635 46.4309 219.356 47.1519C219.836 47.6322 219.929 47.6229 220.561 47.0291C222.039 45.6404 223.533 45.309 227.733 45.4385C229.227 45.4846 229.408 44.9687 229.416 40.6284C229.424 36.2272 229.738 34.2377 230.512 33.6714C230.786 33.4708 231.01 33.1684 231.01 32.9988C231.01 32.5986 235.246 30.1816 237.072 29.5397C237.85 29.2661 238.731 29.12 239.03 29.2145C239.825 29.467 240.501 28.555 239.983 27.9302C239.119 26.8891 236.363 27.7273 231.834 30.4088C228.285 32.5099 228.145 32.8293 227.895 39.3534L227.715 44.0472L226.784 43.7226C226.271 43.5438 225.415 43.4848 224.882 43.5915L223.912 43.7857L224.898 42.5408C226.005 41.1437 226.113 40.6557 225.381 40.3746C225.058 40.2506 224.54 40.5672 223.926 41.2658L222.973 42.3498L223.444 41.3885C223.703 40.8598 224.358 39.9497 224.899 39.3659C225.907 38.2793 226.128 37.5718 225.566 37.2251C225.373 37.1056 225.46 36.7079 225.789 36.2061C226.298 35.4297 226.296 35.3589 225.754 34.9628C225.439 34.7321 224.942 34.6267 224.651 34.7289C223.898 34.9926 221.982 36.4009 221.299 37.1927C220.802 37.7689 220.813 37.674 221.376 36.5204C222.273 34.6834 224.922 32.7114 224.922 33.8807C224.922 34.0691 225.247 34.1771 225.643 34.121C226.278 34.0307 226.352 33.8605 226.261 32.7012C226.164 31.4681 226.218 31.372 227.1 31.1954C227.794 31.057 228.211 30.668 228.676 29.7278C229.257 28.5541 229.351 28.4913 229.823 28.9633C230.237 29.3766 230.43 29.4 230.814 29.0822C231.153 28.8005 231.466 28.7809 231.902 29.0142C232.602 29.3891 233.894 28.688 233.894 27.9337C233.894 27.6911 234.175 27.4034 234.519 27.2944C234.862 27.1855 235.228 26.8298 235.331 26.5039C235.485 26.0201 235.747 25.9419 236.762 26.0781C237.896 26.2303 238.048 26.1595 238.512 25.2609C239.054 24.2134 239.144 22.5754 238.717 21.5215C238.546 21.1014 238.615 20.7005 238.915 20.358C240.206 18.8827 236.37 18.4075 235.016 19.8747C234.663 20.2567 234.136 20.523 233.844 20.4669C233.552 20.4105 233.219 20.5166 233.104 20.7027C232.989 20.8886 232.547 21.0408 232.12 21.0408C231.657 21.0408 231.144 21.3487 230.843 21.8076C230.556 22.2456 229.93 22.6346 229.383 22.7151L228.426 22.8554L229.478 21.7685C230.056 21.1709 231.683 20.099 233.093 19.3864C235.614 18.113 235.701 18.0941 238.279 18.2671C239.826 18.3709 240.943 18.3177 241.003 18.1373C241.059 17.9691 241.054 19.9234 240.994 22.4805C240.888 26.9782 240.905 27.1291 241.536 27.1291C241.894 27.1291 242.261 27.0112 242.35 26.867C242.439 26.7228 242.541 24.8123 242.578 22.6212C242.614 20.43 242.776 18.4664 242.938 18.2575C243.353 17.7204 242.633 16.5002 241.965 16.6101C241.668 16.6588 241.238 16.5819 241.01 16.439C240.781 16.2951 240.412 16.3317 240.184 16.5204C239.922 16.738 239.424 16.762 238.813 16.5871C236.357 15.8824 231.691 17.6298 228.687 20.3797C227.674 21.3074 226.845 22.0159 226.846 21.954C226.846 21.8925 227.139 20.3387 227.495 18.5017C228.013 15.8324 228.061 15.1089 227.735 14.9016C227.197 14.5603 226.79 14.5738 226.204 14.9525ZM171.891 15.9122C171.783 16.0875 171.377 16.3967 170.991 16.5996C170.292 16.9658 170.292 16.9636 170.898 16.281C171.51 15.5921 172.261 15.313 171.891 15.9122ZM84.0647 17.366C83.41 18.1649 82.2853 19.2826 81.5653 19.8494L80.2563 20.8806L80.9667 19.9193C81.3573 19.3906 81.8594 18.7391 82.0825 18.4715C82.5093 17.9595 84.9597 15.9138 85.1462 15.9138C85.2058 15.9138 84.7193 16.5675 84.0647 17.366ZM19.3263 17.7563C18.1006 19.5857 17.2793 21.4971 17.4658 22.0848C17.5786 22.4408 17.428 22.9426 17.0983 23.3069C16.3879 24.092 15.9976 24.0933 15.9976 23.3105C15.9976 22.1502 19.0943 16.8751 19.7752 16.8751C19.8531 16.8751 19.6509 17.2715 19.3263 17.7563ZM226.082 17.4359C225.991 17.7445 225.74 19.188 225.524 20.6441C225.174 23.0019 225.065 23.2707 224.53 23.1009C223.883 22.8955 222.725 23.5181 221.317 24.8274C220.794 25.3135 220.436 25.4763 220.436 25.227C220.436 24.9963 221.401 23.8843 222.58 22.7564C224.526 20.8944 224.678 20.6588 224.222 20.2032C223.766 19.7478 223.629 19.7482 222.738 20.2089C222.198 20.4884 221.535 21.0331 221.264 21.4202C220.993 21.807 220.687 22.0396 220.584 21.9367C220.481 21.8339 220.96 21.1574 221.649 20.4339C222.517 19.5216 223.168 19.1182 223.773 19.1182C224.495 19.1182 224.629 18.9935 224.544 18.3972C224.304 16.7059 221.715 17.6166 219.959 20.01C218.779 21.6182 218.616 22.303 219.194 23.2278C219.472 23.6735 219.431 24.041 219.013 24.8501C218.535 25.7743 218.526 25.9787 218.936 26.6052C219.35 27.2368 219.334 27.4354 218.791 28.4233L218.181 29.5324L218.267 24.1917C218.314 21.2542 218.448 18.7561 218.564 18.6404C218.68 18.5247 219.617 18.0835 220.646 17.6602C223.023 16.6832 226.344 16.546 226.082 17.4359ZM77.24 18.3732C76.8622 19.0227 76.7712 18.8147 77.0805 18.0092C77.19 17.7227 77.3477 17.5557 77.43 17.6384C77.5127 17.7208 77.4272 18.0514 77.24 18.3732ZM15.3433 20.8005C14.8222 21.9021 14.3957 23.2185 14.3957 23.7257C14.3954 24.4224 13.9734 25.0536 12.6731 26.303C11.7259 27.2134 10.4829 28.7873 9.91059 29.8012C9.33861 30.8151 8.81118 31.5851 8.73876 31.5127C8.32347 31.0974 15.5384 18.7977 16.1976 18.7977C16.2488 18.7977 15.8646 19.6991 15.3433 20.8005ZM56.9199 19.6347C54.2224 20.4637 48.8346 26.188 46.6419 30.5549C44.7715 34.2793 43.8057 37.1853 43.7865 39.1455C43.7573 42.1492 45.2038 44.456 47.7951 45.5388C50.7986 46.7939 54.6743 45.3654 60.1454 40.987C61.3012 40.0622 62.9101 37.7532 62.6874 37.3388C62.6509 37.2709 62.8015 37.4247 63.0216 37.6807C63.2421 37.9368 63.4222 38.2732 63.4222 38.428C63.4222 38.8539 65.2121 41.3667 66.266 42.4206C66.7784 42.933 67.2507 43.6312 67.3158 43.9725C67.5577 45.2408 68.6514 44.8335 70.7829 42.6811C71.9233 41.5295 72.9638 40.5874 73.0949 40.5874C73.2259 40.5874 73.3743 42.0656 73.4246 43.8719L73.5159 47.1564L76.2396 47.1349C81.9764 47.09 89.0318 46.6046 89.5595 46.2188C89.9735 45.916 90.0187 45.6878 89.7595 45.2104C89.5752 44.8707 89.3461 44.3407 89.2506 44.0321C88.9978 43.215 88.1394 43.3461 87.916 44.2359C87.733 44.9649 87.5651 45.0098 84.305 45.2033C82.4247 45.3151 79.552 45.493 77.9219 45.5984L74.9579 45.7907V42.8686C74.9579 40.4849 74.8694 39.9465 74.4772 39.9465C73.9306 39.9465 73.8335 39.4444 74.3215 39.1426C74.5003 39.032 74.9425 38.3617 75.3043 37.6525C75.9375 36.4115 75.9403 36.3471 75.3799 35.9222C75.0598 35.6793 74.3978 35.4761 73.9094 35.4707C73.3314 35.464 72.5476 35.024 71.6664 34.2114C69.4656 32.1824 65.7575 25.4782 65.5723 23.1935C65.5076 22.3966 65.2435 22.0559 64.3088 21.5638C63.3357 21.0514 63.0399 21.0136 62.6336 21.3507C62.3625 21.5759 62.1404 21.9537 62.1404 22.1902C62.1404 22.6539 63.228 23.371 63.5074 23.0919C63.6007 22.9987 63.9839 23.8328 64.3591 24.9456C64.7347 26.0585 65.5829 27.9882 66.2443 29.234C67.4078 31.4261 67.4228 31.4947 66.705 31.3576C66.2654 31.2736 65.6877 31.4604 65.2868 31.8161C64.6187 32.4092 64.6152 32.408 64.9776 31.7165C65.1798 31.3313 65.3448 30.2963 65.3448 29.416C65.3448 27.5011 64.7232 26.6872 63.4626 26.9516C62.466 27.1605 62.0084 26.8836 61.9033 26.0076C61.5518 23.0794 61.3518 22.8481 59.4167 23.13C58.7118 23.2329 57.5825 23.3117 56.9071 23.3056C54.6118 23.2848 53.4816 24.2557 49.843 29.3721C48.3437 31.4803 47.0649 33.9989 46.8678 35.232C46.7595 35.9094 46.3298 37.2834 45.9129 38.2854L45.1551 40.1068L45.3576 38.6648C45.9129 34.7093 49.1083 28.6893 52.6094 25.004C54.9973 22.4898 56.7773 21.2529 58.5339 20.887C59.45 20.696 59.6112 20.7684 59.8878 21.4965C60.2768 22.5196 61.3515 22.6029 61.6059 21.6298C61.8469 20.7085 61.3236 19.7981 60.3377 19.4232C59.3014 19.0294 58.7858 19.0611 56.9199 19.6347ZM195.442 19.719C193.094 20.4733 191.185 21.6951 188.938 23.8805C186.426 26.3245 185.461 27.9424 184.04 32.0959C183.011 35.1006 182.83 36.0462 182.809 38.5046C182.788 41.0559 182.89 41.6035 183.7 43.2528C184.842 45.5785 186.696 47.0045 189.995 48.094C193.388 49.2148 194.405 49.3389 196.745 48.9168C199.455 48.4282 202.111 46.9814 204.02 44.9534L205.566 43.3111L206.91 45.1536C208.339 47.1134 208.941 47.356 210.001 46.3985C210.692 45.774 213.413 44.7531 214.386 44.7531C215.208 44.7531 215.463 44.1289 214.879 43.5447C214.419 43.0855 214.208 43.0846 212.593 43.5338C211.325 43.8866 210.907 43.9164 211.139 43.6373C211.683 42.9811 210.906 41.3404 209.841 40.8992C208.777 40.4586 208.776 40.4567 209.241 39.588C209.573 38.9689 209.6 38.974 210.227 39.7703C211.251 41.0732 213.563 42.51 214.634 42.51C215.719 42.51 216.378 41.666 216.21 40.4906C216.072 39.5213 214.668 39.297 214.668 40.2445C214.668 41.0642 214.522 41.0677 213.249 40.2808C212.175 39.6178 210.784 38.0037 209.586 36.0324C208.835 34.7975 207.17 28.73 206.784 25.8252C206.626 24.6345 206.405 24.1192 206.007 24.0151C205.653 23.9225 205.506 23.6568 205.602 23.2864C205.837 22.3886 204.737 20.3926 203.639 19.7225C202.32 18.9182 197.939 18.9163 195.442 19.719ZM12.3635 21.2811C10.9491 23.5226 6.38451 32.5131 6.38451 33.0568C6.38451 33.3545 6.68444 33.6762 7.05134 33.7721C7.48841 33.8865 7.65921 34.1242 7.54705 34.4632C6.14931 38.6901 5.70102 41.607 6.38451 42.0294C6.56075 42.1383 6.70495 43.0551 6.70495 44.067C6.70495 45.9762 7.06576 46.6757 8.05078 46.6757C8.36801 46.6757 8.62757 46.8446 8.62757 47.0509C8.62757 47.6165 9.61932 48.5974 10.1993 48.6054C10.4803 48.6092 10.9267 49.0777 11.1911 49.6468C11.6275 50.5863 11.7893 50.6738 12.9535 50.5998C15.4166 50.4437 16.5202 50.3117 16.8186 50.1364C16.9839 50.0396 17.4075 50.0659 17.76 50.1951C18.1125 50.3239 18.7248 50.2832 19.1206 50.1041C19.6826 49.8496 19.979 49.9041 20.4741 50.3521C21.0211 50.8471 21.2403 50.8712 22.0692 50.528C23.1805 50.0675 25.901 49.8929 26.1324 50.2668C26.4381 50.7616 27.4968 50.5104 28.4363 49.7198C28.9599 49.2793 29.7841 48.9188 30.2679 48.9188C30.7518 48.9188 31.3193 48.6842 31.5285 48.3977C31.8714 47.9289 31.9915 47.9587 32.7301 48.6973C33.8478 49.815 34.8409 49.5298 35.4776 47.9084C35.7438 47.2304 36.1925 46.6562 36.4741 46.6324C36.7558 46.6087 37.4188 46.5728 37.9475 46.5523C38.7553 46.5213 39.0203 46.2851 39.608 45.0735C39.9928 44.2804 40.3533 42.9176 40.4091 42.0454L40.511 40.4592L39.2485 40.1952C38.3153 40.0001 37.7046 40.0648 36.9077 40.4429C35.6871 41.0222 35.3721 41.6086 34.9373 44.1122C34.7691 45.0815 34.4419 46.3072 34.2102 46.8359C33.7998 47.7735 33.7866 47.7469 33.6892 45.7541C33.6296 44.5387 33.7789 43.1535 34.0577 42.3348C34.5595 40.8624 34.4845 40.5874 33.5809 40.5874C33.1884 40.5874 32.8849 40.9928 32.6231 41.8669C32.3206 42.8766 32.1498 43.0718 31.8134 42.7923C30.5605 41.7528 28.8151 43.6928 28.8151 46.1249C28.8151 46.8974 28.5468 47.4537 27.8537 48.1177C26.6383 49.2821 26.5951 48.6938 27.7236 46.3546C28.8349 44.0507 29.0669 42.5866 28.3636 42.3165C27.4961 41.9839 26.6906 43.0288 25.9148 45.493C25.1759 47.8392 24.7817 48.5983 24.303 48.5983C24.1556 48.5983 24.3991 47.8729 24.8445 46.9865C26.2208 44.2468 26.2115 42.4972 24.8237 43.0298C24.221 43.2608 22.9104 45.7115 22.5855 47.2144C22.3198 48.4429 21.4473 49.3446 21.4409 48.3971C21.4386 48.0674 21.759 46.6331 22.1529 45.21L22.869 42.6228L25.4415 41.9762C26.8562 41.6208 29.595 40.7149 31.5272 39.9635C33.4598 39.2121 35.5506 38.5879 36.1736 38.5767C36.7968 38.5651 37.5912 38.3639 37.9388 38.1297C38.2862 37.8951 39.1087 37.7035 39.7666 37.7035C41.1096 37.7035 40.9115 37.1895 41.6178 42.51C41.8168 44.0081 42.05 45.5942 42.1366 46.0348C42.2811 46.7712 42.0795 46.9314 39.64 48.0196C30.3185 52.177 26.084 53.2857 20.8298 52.9444C12.3776 52.3958 7.53808 50.0823 5.27099 45.5068C4.05878 43.0599 3.78289 38.8644 4.60417 35.3624C5.34117 32.2199 8.49394 25.8486 10.8777 22.6853C12.9666 19.9125 13.6113 19.3037 12.3635 21.2811ZM84.4986 20.7777C84.4293 20.9854 84.165 21.2494 83.9109 21.3644C83.6571 21.4795 82.9448 21.8259 82.3279 22.1341L81.2064 22.6946L82.3106 21.5474C83.3565 20.4608 84.77 19.9635 84.4986 20.7777ZM202.794 21.0315C203.114 21.2026 203.619 21.9515 203.917 22.6955C204.552 24.2817 204.655 24.1612 200.569 26.6183C197.548 28.4352 197.044 28.6297 197.044 27.9782C197.044 27.7024 198.053 26.6715 199.287 25.6871C200.92 24.3839 201.53 23.6927 201.53 23.1441C201.53 21.3106 199.42 22.1345 196.947 24.9335C195.953 26.0595 194.666 27.2502 194.089 27.5793C193.183 28.0958 193.273 27.9359 194.749 26.4136C196.724 24.3762 196.929 23.2021 195.342 23.0201C194.649 22.941 194.19 23.1816 193.362 24.0603C192.732 24.7284 192.092 25.1305 191.825 25.028C191.104 24.7511 189.555 26.2783 188.446 28.3592C187.888 29.4061 187.431 30.4373 187.431 30.6504C187.431 30.8635 186.941 31.8526 186.342 32.8486C184.966 35.1368 184.706 36.2147 185.371 36.8793C185.648 37.1562 186.088 37.3831 186.349 37.3831C186.705 37.3831 186.631 37.641 186.047 38.4245C184.899 39.9677 184.722 41.0831 185.504 41.8644C185.859 42.2194 186.366 42.51 186.63 42.51C186.965 42.51 187.111 42.8471 187.111 43.6203C187.111 44.8085 187.751 45.394 189.049 45.394C189.434 45.394 190.433 45.6372 191.271 45.9345C192.71 46.4459 192.874 46.444 194.297 45.9006C195.731 45.3529 195.822 45.3523 196.213 45.8878C196.505 46.287 196.861 46.3905 197.441 46.2447C197.996 46.1053 198.314 46.1838 198.431 46.4886C198.56 46.8247 198.104 47.0237 196.622 47.2794C191.939 48.0869 186.027 45.3946 184.8 41.8958C183.782 38.9942 184.772 33.3779 187.122 28.7127C188.672 25.6352 192.722 22.286 196.243 21.1696C197.778 20.6829 201.978 20.5944 202.794 21.0315ZM235.856 21.898C235.577 22.3783 235.514 22.3921 235.506 21.9755C235.496 21.4359 235.833 20.9498 236.06 21.177C236.135 21.252 236.043 21.5763 235.856 21.898ZM130.458 22.4469C130.319 23.6389 131.127 25.2065 131.88 25.2065C132.71 25.2065 131.415 26.7164 130.413 26.917C129.824 27.0346 128.884 27.795 127.79 29.0373C125.808 31.2896 125.092 31.5319 125.363 29.8592C125.612 28.3272 127.026 26.5507 128.094 26.427C129.384 26.278 129.286 25.0789 127.973 24.9504C126.662 24.8223 125.525 25.764 124.493 27.834L123.664 29.4981V26.2565V23.015L125.271 22.4815C126.613 22.0354 128.787 21.5628 130.249 21.399C130.447 21.3769 130.533 21.8089 130.458 22.4469ZM168.761 23.1089C168.802 23.1409 168.566 23.6966 168.237 24.3435C167.681 25.4327 167.623 25.4667 167.444 24.8024C167.339 24.4076 167.25 23.6834 167.248 23.1925C167.244 22.369 167.299 22.329 167.965 22.675C168.361 22.8814 168.719 23.0765 168.761 23.1089ZM237.319 24.1651C237.239 24.4736 237.173 24.2211 237.173 23.6043C237.173 22.9875 237.239 22.7349 237.319 23.0435C237.4 23.3521 237.4 23.8565 237.319 24.1651ZM84.571 23.0506C84.571 23.0986 83.3296 24.3602 81.8127 25.8544C80.0233 27.6165 79.2174 28.2477 79.5187 27.6508C79.965 26.767 84.571 22.5731 84.571 23.0506ZM224.742 25.0113C224.636 25.4327 224.7 25.8707 224.885 25.9845C225.192 26.1742 221.013 30.4421 219.888 31.0884C219.502 31.3101 219.452 31.2175 219.627 30.6077C220.192 28.639 221.376 26.8977 223.015 25.6262C223.976 24.8809 224.801 24.2654 224.848 24.2583C224.895 24.2509 224.848 24.59 224.742 25.0113ZM229.603 24.7521C229.496 25.0309 229.408 25.3971 229.408 25.5657C229.408 25.7346 229.206 25.6868 228.96 25.4593C228.646 25.1706 228.61 24.9258 228.839 24.6457C229.305 24.0757 229.834 24.1494 229.603 24.7521ZM145.732 26.0076C145.068 27.1333 144.813 27.3675 144.813 26.8519C144.813 26.5597 146.051 24.886 146.267 24.886C146.337 24.886 146.096 25.3907 145.732 26.0076ZM60.3322 26.004C60.4995 26.4398 59.4446 27.77 58.9316 27.77C58.746 27.77 58.7473 27.4652 58.9351 26.9718C59.1021 26.5324 59.1591 25.9662 59.062 25.7134C58.9341 25.3798 59.0626 25.2994 59.5295 25.4218C59.8836 25.5144 60.245 25.7762 60.3322 26.004ZM160.574 27.1576C160.001 28.316 159.913 28.381 159.819 27.7184C159.749 27.2179 159.501 26.9689 159.072 26.9689C158.546 26.9689 158.337 27.3588 157.902 29.1539C157.34 31.4736 156.99 32.1846 156.99 31.0054C156.99 30.4456 156.832 30.3113 156.269 30.3911C155.622 30.4831 155.552 30.6629 155.588 32.1241C155.626 33.6666 155.588 33.7464 154.882 33.6115C153.846 33.4135 153.504 34.7984 154.217 36.2955C155.122 38.1928 156.99 37.5442 156.99 35.3326C156.99 34.8734 157.245 34.3851 157.579 34.2066C157.903 34.0332 158.388 33.1988 158.657 32.3528C159.017 31.2204 159.327 30.7869 159.834 30.7112C160.215 30.6542 160.75 30.1659 161.035 29.615C161.468 28.7777 161.595 28.7034 161.84 29.1414C162.057 29.5292 162.516 29.6391 163.646 29.5737C165.398 29.4718 165.61 29.0822 164.874 27.3207C164.368 26.1085 163.52 25.799 163.174 26.6997C162.999 27.1554 162.933 27.1323 162.714 26.5395C162.293 25.4039 161.3 25.6907 160.574 27.1576ZM205.999 30.013C206.399 31.8635 206.913 33.8288 207.14 34.3806C207.515 35.2909 207.502 35.3698 206.99 35.2358C206.643 35.1454 205.727 35.6565 204.619 36.5599C203.625 37.3693 202.812 37.9525 202.812 37.856C202.812 37.485 203.935 35.8901 204.982 34.775C206.047 33.6407 206.258 32.6034 205.478 32.3432C205.269 32.274 204.211 33.1273 203.125 34.2396L201.151 36.2615L202.057 34.5334C202.556 33.5827 203.506 32.3692 204.17 31.836C205.429 30.8244 205.731 29.8089 204.872 29.4795C204.557 29.3584 203.928 29.6987 203.19 30.3879C202.542 30.9939 201.754 31.6835 201.44 31.9206C200.914 32.3179 200.894 32.2849 201.192 31.5005C202.077 29.1741 204.588 25.8525 205.053 26.394C205.173 26.534 205.599 28.1625 205.999 30.013ZM54.1882 27.1986C53.9584 27.4284 53.8091 27.4473 53.8091 27.2467C53.8091 26.8189 54.1882 26.4398 54.4019 26.6539C54.4929 26.7449 54.3968 26.99 54.1882 27.1986ZM86.0741 27.0125C86.3837 27.8196 85.7361 28.5521 84.536 28.7521C83.9384 28.8518 83.1447 29.0985 82.7724 29.3007C82.1004 29.6653 80.6059 31.2759 79.8525 32.4471C79.5263 32.9537 79.5161 32.8953 79.7923 32.1023C80.4854 30.113 81.8694 27.9895 82.9537 27.2528C84.2643 26.3623 85.7797 26.2456 86.0741 27.0125ZM227.358 28.9537C226.768 30.0419 226.706 29.3638 227.235 27.6097C227.591 26.4267 227.63 26.3947 227.733 27.1913C227.795 27.6661 227.626 28.4592 227.358 28.9537ZM110.994 27.5899C114.389 28.6114 116.313 30.4837 115.43 31.9052C114.849 32.8399 113.062 33.8233 111.544 34.0428C110.72 34.162 109.901 34.37 109.725 34.5049C109.147 34.9471 105.609 35.5383 103.053 35.6194C100.392 35.704 99.5751 36.0622 100.234 36.8556C100.725 37.4475 105.136 37.2828 108.646 36.5413C110.936 36.0577 111.202 36.0609 112.812 36.5877C116.312 37.7333 118.846 39.3358 119.667 40.9245C120.427 42.3944 119.678 43.5207 117.13 44.7364C116.003 45.2744 114.922 45.7144 114.727 45.7144C114.533 45.7144 115.094 45.02 115.975 44.1712C117.323 42.8712 117.576 42.4427 117.576 41.4548C117.576 39.5934 116.481 39.1285 111.327 38.8019C106.895 38.5212 104.301 38.6827 103.246 39.3047C102.206 39.9183 102.195 39.9183 102.195 39.3021C102.195 38.4434 100.954 37.7096 99.5889 37.7608C98.0072 37.8201 97.7947 37.6054 97.7608 35.9142C97.7166 33.7153 97.4826 33.2738 96.1682 32.9088C94.2603 32.3788 93.9739 32.4916 92.8498 34.2159C90.9784 37.0857 90.5131 38.1492 90.5061 39.5723C90.4962 41.5651 91.7689 42.6558 94.4596 42.9602C95.5446 43.083 96.5752 43.3563 96.7501 43.5678C96.9251 43.779 97.3436 44.3125 97.6804 44.7531C98.2395 45.485 98.4955 45.5516 100.644 45.5253C101.938 45.5096 103.357 45.4638 103.797 45.4231C104.7 45.3401 108.823 45.8656 110.526 46.2806L111.648 46.5539L110.366 46.7715C105.902 47.5293 97.8008 46.5466 94.0238 44.7887C89.3589 42.618 88.488 40.3573 90.6695 36.0808C92.8549 31.7975 98.1248 28.0574 103.266 27.1413C105.281 26.7821 109.034 27 110.994 27.5899ZM191.305 27.3957C191.132 27.7187 190.736 28.1872 190.425 28.4371C190.024 28.7595 190.071 28.589 190.59 27.8501C191.381 26.7218 191.812 26.4475 191.305 27.3957ZM55.9227 28.6774C55.2953 29.3052 55.2219 28.7117 55.7977 27.6687C56.1544 27.023 56.1941 27.015 56.3091 27.5674C56.378 27.8969 56.204 28.3964 55.9227 28.6774ZM142.89 28.6922C142.89 29.0229 143.107 29.4731 143.371 29.6926C143.635 29.9121 143.852 30.3447 143.852 30.6539C143.852 30.9631 144.065 31.3931 144.326 31.6098C144.671 31.8965 144.714 32.1625 144.484 32.5932C144.185 33.1511 144.124 33.1402 143.383 32.3993C142.868 31.8837 142.237 31.6155 141.543 31.6165C139.343 31.619 137.433 33.5734 134.809 38.5046C133.522 40.9242 133.445 41.2174 133.441 43.7251C133.437 46.8526 133.961 46.5555 127.99 46.8186C125.699 46.9196 123.517 47.0852 123.142 47.1868C122.492 47.3624 122.473 47.3041 122.745 45.9823C122.902 45.218 123.123 41.6682 123.235 38.0935C123.348 34.5187 123.527 31.6392 123.632 31.695C123.738 31.7504 124.208 31.9888 124.677 32.2247L125.529 32.6534L125.063 34.2236C124.673 35.538 124.666 35.9366 125.019 36.6685C125.371 37.3965 125.367 37.8384 124.997 39.3015C124.656 40.6489 124.635 41.2905 124.909 42.048C125.106 42.5914 125.266 43.5633 125.266 44.2077C125.266 45.0937 125.455 45.5032 126.043 45.8881C126.737 46.3425 126.917 46.346 127.725 45.9201C128.929 45.2866 131.794 42.2944 132.452 40.9838C132.844 40.2032 132.924 39.512 132.765 38.2601C132.512 36.2759 132.187 35.7809 131.139 35.7809H130.361L131.216 34.6593C132.112 33.4849 132.636 33.2337 132.636 33.9794C132.636 34.8125 133.521 35.247 134.479 34.8846C134.963 34.7013 135.752 34.4658 136.23 34.3617C136.809 34.2354 137.978 33.1539 139.722 31.131C141.164 29.4587 142.466 28.0904 142.617 28.0904C142.767 28.0904 142.89 28.3612 142.89 28.6922ZM200.634 29.1318C200.289 29.7044 199.833 30.7154 199.62 31.3781L199.235 32.5832L198.333 31.9408C196.059 30.3216 191.584 30.0592 192.064 31.5732C192.197 31.9908 192.005 32.3349 191.429 32.7121C190.976 33.0091 190.36 33.641 190.059 34.1159C189.719 34.6549 189.213 34.9916 188.713 35.0109C188.272 35.0282 187.634 35.1611 187.295 35.3069C186.777 35.5293 186.716 35.4733 186.912 34.9554C187.383 33.7118 188.568 32.2602 189.113 32.2583C189.609 32.2564 189.689 32.1398 189.669 31.4495C189.667 31.3582 190.161 30.8481 190.767 30.3158C191.599 29.5846 192.063 29.3965 192.66 29.5465C193.113 29.6599 193.843 29.5417 194.37 29.2693C195.209 28.8351 195.354 28.847 196.042 29.4035C197.044 30.2152 197.551 30.1668 199.447 29.0786C200.329 28.573 201.097 28.1436 201.156 28.1247C201.214 28.1058 200.979 28.5592 200.634 29.1318ZM174.293 28.5082C174.293 28.5618 173.753 29.1023 173.092 29.7099L171.89 30.8141L172.994 29.6125C174.022 28.4942 174.293 28.2634 174.293 28.5082ZM60.1323 30.5847C59.5779 31.9984 59.692 32.5086 60.7648 33.417C61.4028 33.9569 61.5156 34.2546 61.3115 34.859C61.0596 35.605 61.0503 35.6008 60.8744 34.6593C60.6831 33.6381 59.5917 33.1812 58.838 33.8067C58.5487 34.047 58.4823 33.7826 58.5666 32.7239C58.6685 31.4402 58.5922 31.271 57.653 30.7C56.5408 30.0236 56.5754 29.9896 58.8524 29.5317C59.4231 29.4167 59.9903 29.1607 60.1127 28.9626C60.5786 28.2086 60.593 29.409 60.1323 30.5847ZM102.515 29.3497C99.5709 29.9384 97.5429 32.5858 99.1053 33.8015C99.8058 34.3463 100.983 34.4523 102.903 34.1431C106.502 33.5635 108.209 32.1516 107.32 30.4908C106.619 29.1805 105.13 28.8268 102.515 29.3497ZM130.802 29.9938C130.921 30.4523 130.639 30.8305 129.72 31.4383C129.036 31.8911 128.093 32.8399 127.625 33.5471C127.158 34.254 126.715 34.7731 126.643 34.7004C126.261 34.319 127.708 31.9235 129.034 30.7407C129.87 29.9951 130.573 29.3824 130.596 29.3789C130.62 29.375 130.712 29.6519 130.802 29.9938ZM224.074 30.7497C223.747 30.9247 222.844 31.7318 222.066 32.5432C220.726 33.9419 220.684 33.9614 221.265 32.9178C221.602 32.3125 222.453 31.2329 223.156 30.5183C224.245 29.4119 224.451 29.309 224.551 29.8252C224.618 30.1764 224.418 30.5654 224.074 30.7497ZM53.8078 29.8608C53.8084 29.865 53.0237 30.6991 52.064 31.7142C50.4234 33.4491 50.2977 33.5205 49.969 32.9066C49.67 32.348 49.7402 32.1981 50.4525 31.8738C50.9559 31.6444 51.3552 31.1474 51.4609 30.6186C51.6135 29.8566 51.7769 29.7503 52.7212 29.798C53.3179 29.8281 53.8068 29.8563 53.8078 29.8608ZM11.2266 32.6887C9.67123 34.7943 9.00728 35.3028 9.75839 33.8134C10.3291 32.6819 12.1758 30.5706 12.3994 30.7939C12.4712 30.8657 11.9434 31.7184 11.2266 32.6887ZM104.612 30.9961C104.728 31.1845 105.02 31.2627 105.261 31.1704C105.502 31.0778 105.774 31.1233 105.866 31.2717C106.094 31.6412 104.606 32.2176 102.609 32.5333C100.615 32.8486 100.006 32.5964 100.871 31.8136C101.917 30.8667 104.221 30.3636 104.612 30.9961ZM134.793 31.5162C134.471 32.2234 134.38 32.2734 134.288 31.795C134.226 31.4739 134.37 31.0881 134.608 30.9375C135.224 30.5472 135.228 30.5616 134.793 31.5162ZM160.938 31.1666C160.83 31.4486 160.412 32.0087 160.009 32.4115C159.142 33.2789 158.486 35.4781 158.658 36.9457C158.747 37.7163 158.681 37.9108 158.406 37.6823C157.759 37.1456 157.009 37.7221 156.658 39.0256C156.297 40.3676 156.438 40.9079 157.149 40.9079C157.465 40.9079 157.574 41.2959 157.531 42.2697C157.475 43.5226 157.538 43.6396 158.319 43.7299C158.838 43.7899 159.231 44.0702 159.33 44.4509C159.526 45.1969 160.417 45.261 161.166 44.5826C161.659 44.1366 161.758 44.166 162.241 44.9031C162.874 45.8701 163.732 45.9445 164.498 45.0982C164.908 44.6451 165.328 44.5259 166.084 44.6489C166.795 44.764 167.245 44.6573 167.538 44.3038C167.772 44.0222 168.301 43.7918 168.713 43.7918C169.492 43.7918 170.308 42.7411 169.963 42.1829C169.611 41.6128 167.694 41.8349 167.077 42.5177C166.676 42.9599 166.385 43.0618 166.162 42.8382C165.646 42.3226 164.945 42.4504 164.14 43.2067C163.523 43.787 163.398 43.8155 163.398 43.3781C163.398 42.7805 162.264 42.0605 161.787 42.3556C161.613 42.4629 161.24 42.3207 160.959 42.039C160.646 41.7266 160.197 41.6061 159.807 41.7301C159.233 41.9121 159.19 41.8298 159.389 40.9268C159.528 40.2936 159.463 39.744 159.215 39.4451C158.998 39.1836 158.889 38.9013 158.973 38.8176C159.056 38.734 159.307 39.0057 159.529 39.4213C160.294 40.8511 162.969 41.6519 164.408 40.8822C166.669 39.6719 166.283 33.998 163.784 31.7091C162.55 30.5786 161.258 30.3322 160.938 31.1666ZM57.0135 32.7185C57.0135 33.7307 53.8629 37.4709 52.553 38.0134C50.0552 39.048 49.9789 36.8819 52.3995 33.6464C52.9449 32.9175 53.3384 32.681 53.8036 32.8027C54.2548 32.9207 54.45 32.8156 54.45 32.4538C54.45 32.0629 54.7649 31.9356 55.7317 31.9356C56.8773 31.9356 57.0135 32.0186 57.0135 32.7185ZM69.1151 33.7922C70.5259 35.6761 72.2143 37.0626 73.0974 37.0626C73.4156 37.0626 73.6761 37.1491 73.6761 37.2549C73.6761 37.3609 72.7238 38.5113 71.56 39.812C69.7518 41.832 69.3554 42.129 68.8363 41.8512C68.5021 41.6724 68.2287 41.6304 68.2287 41.7576C68.2287 42.2841 66.1744 39.9901 65.3156 38.5046C64.1803 36.5406 64.1553 36.1013 65.1785 36.1013C66.0376 36.1013 66.5253 37.1514 66.2157 38.3348C65.9411 39.3851 66.6419 39.9437 68.0685 39.8107C68.7735 39.745 69.7469 39.6764 70.2314 39.6585C70.9858 39.6309 71.1126 39.4902 71.1126 38.6831C71.1126 38.0755 70.8627 37.5647 70.4106 37.2481C69.9722 36.9412 69.6813 36.3657 69.6364 35.7165C69.5967 35.1448 69.2852 34.4507 68.9436 34.1742C68.3316 33.6785 67.5879 32.5208 67.5879 32.0635C67.5879 31.7594 67.618 31.7934 69.1151 33.7922ZM196.619 32.8771C198.214 33.6013 199.001 34.6984 199.289 36.5964C199.703 39.3255 197.934 42.0259 195.192 42.8471C193.595 43.3255 192.434 42.8375 191.337 41.2283C190.671 40.2503 190.592 39.8338 190.719 37.9765C190.894 35.4316 191.803 33.8583 193.098 33.8583C193.796 33.8583 193.892 33.7423 193.761 33.0572C193.629 32.3669 193.724 32.257 194.445 32.2631C194.905 32.267 195.883 32.5432 196.619 32.8771ZM64.478 33.6179C64.2973 34.559 63.4222 34.8539 63.4222 33.9736C63.4222 33.5503 64.3963 32.4781 64.595 32.6829C64.6238 32.7124 64.5713 33.1334 64.478 33.6179ZM129.436 34.2691C128.839 34.8362 128.552 35.0118 128.797 34.6593C129.649 33.4362 130.177 32.8941 130.348 33.0655C130.443 33.1603 130.033 33.7019 129.436 34.2691ZM164.126 35.9587C164.439 37.451 164.421 37.8855 164.019 38.6049C163.408 39.6963 162.471 39.837 161.405 38.9984C160.353 38.171 160.013 36.3833 160.579 34.6558C160.916 33.6275 161.18 33.3504 161.957 33.2087C163.171 32.9876 163.623 33.5606 164.126 35.9587ZM174.614 33.0181C174.614 33.0844 174.361 33.3369 174.053 33.5788C173.545 33.9771 173.533 33.9659 173.932 33.4577C174.351 32.9239 174.614 32.7544 174.614 33.0181ZM57.9232 35.4704C57.737 36.0045 57.6518 36.6973 57.7335 37.0101C57.8546 37.4737 57.7181 37.5548 56.9955 37.4487C56.0255 37.3065 55.2898 38.1861 55.4734 39.2691C55.601 40.0231 54.8544 40.9079 54.0904 40.9079C53.3765 40.9079 53.372 40.8851 53.8966 39.8744C54.2365 39.2192 57.9981 34.5241 58.1984 34.5052C58.2333 34.5017 58.1097 34.9362 57.9232 35.4704ZM49.2352 35.9584C48.9244 36.5512 48.6994 36.7089 48.5376 36.4474C48.4049 36.2327 48.5491 35.7844 48.8625 35.4383C49.6133 34.6084 49.8033 34.8737 49.2352 35.9584ZM95.7814 36.0212C95.7785 36.1532 95.6366 36.4778 95.4658 36.7422C95.2146 37.1309 95.1544 37.0847 95.1502 36.5019C95.1476 36.1052 95.2896 35.7809 95.4658 35.7809C95.6421 35.7809 95.784 35.8892 95.7814 36.0212ZM208.044 36.5534C208.152 36.8364 207.731 37.327 206.916 37.8663L205.616 38.727L206.671 37.4141C207.251 36.6922 207.758 36.1013 207.798 36.1013C207.838 36.1013 207.949 36.3048 208.044 36.5534ZM8.62757 37.3831C8.43883 37.7355 8.23119 38.0239 8.1655 38.0239C8.10013 38.0239 8.12224 37.7355 8.2142 37.3831C8.30649 37.0306 8.51445 36.7422 8.67627 36.7422C8.83873 36.7422 8.81694 37.029 8.62757 37.3831ZM10.8716 37.9438C9.89938 39.6598 9.30369 40.4093 9.08547 40.191C8.82271 39.928 9.50684 38.6763 10.489 37.6234C11.5935 36.439 11.6823 36.5134 10.8716 37.9438ZM148.272 37.3686C148.057 37.7131 147.819 37.9326 147.743 37.857C147.606 37.7195 148.304 36.7422 148.54 36.7422C148.608 36.7422 148.488 37.0242 148.272 37.3686ZM189.751 41.7089C190.425 42.9965 191.63 44.0843 192.756 44.4218C193.557 44.6614 193.583 44.7015 192.948 44.7255C192.546 44.7406 191.699 44.5368 191.067 44.2724C190.434 44.0081 189.646 43.7918 189.315 43.7918C188.876 43.7918 188.713 43.5595 188.713 42.9359C188.713 41.9246 187.89 40.9079 187.071 40.9079C186.352 40.9079 186.559 40.2981 187.912 38.4325L188.873 37.1072L189.06 38.9276C189.163 39.9286 189.474 41.1802 189.751 41.7089ZM131.031 37.6234C131.024 38.073 127.897 41.3895 127.679 41.178C127.335 40.8444 128.353 39.141 129.445 38.2223C130.435 37.3895 131.037 37.162 131.031 37.6234ZM49.3938 39.6261C49.3066 39.7142 49.1708 39.6062 49.0923 39.3858C49.0134 39.1656 48.7017 38.9852 48.3992 38.9852C48.0967 38.9852 47.6548 39.1656 47.4173 39.3858C47.0642 39.7136 47.0232 39.6796 47.193 39.1993C47.3071 38.8766 47.4004 38.552 47.4004 38.4783C47.4004 38.4046 47.6888 38.3444 48.0412 38.3444C48.3937 38.3444 48.6885 38.1643 48.6965 37.9438C48.7045 37.7237 48.9003 37.9759 49.1317 38.5046C49.363 39.0333 49.4813 39.538 49.3938 39.6261ZM81.0462 37.808C81.0462 37.8653 80.6495 38.2617 80.165 38.6892L79.2838 39.4659L80.0605 38.5847C80.7866 37.7612 81.0462 37.5564 81.0462 37.808ZM93.2122 40.5784L93.2013 41.3885L92.5713 40.632C92.2246 40.216 91.941 39.6046 91.941 39.2733C91.941 38.7016 91.9737 38.6991 92.5819 39.2198C92.9344 39.5216 93.2179 40.133 93.2122 40.5784ZM222.398 39.8972C221.336 41.2369 220.436 42.0771 220.436 41.7272C220.436 41.2059 221.201 40.0529 221.988 39.3874C223.29 38.2867 223.483 38.5267 222.398 39.8972ZM59.7734 39.247C59.6843 39.3912 58.7025 40.1241 57.5915 40.8758C56.4806 41.6276 55.9727 41.9063 56.4633 41.4952C56.9538 41.0841 57.819 40.3554 58.3859 39.8757C59.3796 39.0352 60.1082 38.7052 59.7734 39.247ZM97.632 39.3858C97.5602 39.6062 96.8994 40.1215 96.1634 40.5313C94.8451 41.2651 94.8249 41.2664 94.8249 40.6217C94.8249 40.2369 95.1883 39.77 95.7061 39.489C96.7924 38.8997 97.8079 38.8452 97.632 39.3858ZM207.428 39.911C206.787 40.9973 207.01 41.8692 207.929 41.8692C208.287 41.8692 208.832 42.1473 209.141 42.487C210.519 44.0058 210.524 44.0247 209.66 44.5906C209.212 44.8845 208.808 45.077 208.764 45.0191C207.993 44.0058 206.588 41.7278 206.352 41.1088C206.089 40.4169 206.17 40.2061 206.912 39.6527C208.046 38.8064 208.073 38.8199 207.428 39.911ZM100.534 40.1654C100.459 40.7995 100.145 41.1421 99.3367 41.4702L98.2408 41.9153L98.7878 41.1713C99.0887 40.7621 99.4184 40.175 99.5203 39.8664C99.8282 38.9378 100.65 39.1801 100.534 40.1654ZM202.492 40.3413C203.025 40.0084 203.132 40.0212 203.132 40.4182C203.132 40.681 203.489 40.9851 203.925 41.0947C204.671 41.2818 204.691 41.3433 204.274 42.1422C204.03 42.6087 203.35 43.4233 202.762 43.952C201.814 44.804 201.779 44.8149 202.453 44.0484C203.242 43.1509 203.197 42.1896 202.365 42.1896C202.107 42.1896 201.528 42.6584 201.076 43.231C200.24 44.292 199.984 44.2439 200.576 43.1371C200.835 42.6536 200.773 42.4424 200.28 42.1348C199.708 41.7775 199.694 41.6695 200.119 40.8476C200.527 40.0587 200.66 39.9981 201.217 40.3458C201.721 40.6602 201.982 40.6595 202.492 40.3413ZM111.683 40.7707C111.577 41.0479 111.633 41.543 111.809 41.8708C112.068 42.3546 111.953 42.5914 111.198 43.1294C109.923 44.0369 109.847 43.9748 110.539 42.5901C110.869 41.9294 111.213 41.1363 111.303 40.8277C111.394 40.5192 111.559 40.267 111.672 40.267C111.785 40.267 111.789 40.4939 111.683 40.7707ZM103.687 41.3779C103.483 41.8128 103.267 42.0243 103.206 41.848C103.145 41.6715 103.271 41.3158 103.486 41.0572C104.048 40.3795 104.109 40.4765 103.687 41.3779ZM107.002 41.0447C107.002 41.2965 106.621 41.8012 106.157 42.1662C104.623 43.3736 104.21 42.826 105.603 41.4321C106.547 40.4881 107.002 40.3622 107.002 41.0447ZM115.68 40.9079C116.292 40.9079 115.939 42.1024 115.093 42.8917C114.237 43.6892 113.033 44.4327 112.597 44.4327C112.479 44.4327 112.83 43.9228 113.377 43.2999C113.938 42.661 114.372 41.808 114.372 41.343C114.372 40.7233 114.497 40.5669 114.878 40.7133C115.157 40.8204 115.518 40.9079 115.68 40.9079ZM48.5805 41.9294C48.4783 42.1848 48.4024 42.1088 48.387 41.7355C48.3732 41.3978 48.4488 41.2087 48.5552 41.3151C48.6616 41.4215 48.6731 41.6981 48.5805 41.9294ZM47.1786 42.8532C47.3718 43.5921 46.8979 43.3672 46.4333 42.4995C46.1728 42.0127 46.1994 41.9204 46.5602 42.0589C46.8114 42.155 47.0895 42.5126 47.1786 42.8532ZM55.4113 42.3674C55.4113 42.4655 54.6425 42.8974 53.703 43.3275C51.9259 44.1411 48.4043 44.7973 49.323 44.1436C49.5873 43.9555 50.0366 43.7995 50.3211 43.7966C50.6057 43.794 51.1934 43.513 51.6266 43.1721C52.0598 42.8311 53.0525 42.4959 53.8328 42.427C54.6127 42.3581 55.2873 42.2764 55.3312 42.2457C55.3751 42.2149 55.4113 42.2697 55.4113 42.3674ZM102.394 44.0196C102.071 44.3436 99.2633 44.1926 98.9028 43.8322C98.667 43.5963 98.8464 43.3954 99.4991 43.1631C100.012 42.9804 100.646 42.709 100.906 42.56C101.236 42.3713 101.564 42.5229 101.984 43.0573C102.316 43.4797 102.501 43.9129 102.394 44.0196ZM198.741 42.9593C198.425 43.3826 198.106 43.6719 198.034 43.6021C197.902 43.4749 198.956 42.1896 199.192 42.1896C199.261 42.1896 199.058 42.536 198.741 42.9593ZM128.471 43.0455C128.471 43.3688 127.45 44.4327 127.139 44.4327C126.668 44.4327 126.847 43.7187 127.429 43.2765C128.047 42.8077 128.471 42.7135 128.471 43.0455ZM10.5934 46.5857C10.2881 47.1291 10.2624 47.1294 10.0551 46.5914C9.93366 46.2761 10.0304 45.7942 10.274 45.5003C10.6752 45.0162 10.7187 45.0158 10.812 45.4943C10.8681 45.7804 10.7697 46.2716 10.5934 46.5857ZM16.5279 48.1039C16.4235 48.3759 16.1883 48.5983 16.005 48.5983C15.7941 48.5983 15.8153 48.3686 16.063 47.9719C16.5049 47.264 16.8163 47.3521 16.5279 48.1039Z" fill="black"/>
</svg>
