<svg width="420" height="159" viewBox="0 0 420 159" fill="none" xmlns="http://www.w3.org/2000/svg">
<path fill-rule="evenodd" clip-rule="evenodd" d="M339.131 1.65847C337.896 2.70382 334.845 9.75276 331.488 19.3131C328.415 28.0659 323.358 42.3547 320.249 51.0657L314.597 66.9041L312.818 61.7002C311.839 58.8377 309.182 48.8009 306.913 39.3957C304.643 29.9915 302.024 20.2829 301.093 17.8212C297.925 9.45138 289.176 7.67398 285.541 14.6622C284.714 16.2536 283.591 21.5321 283.047 26.3919C282.503 31.2507 280.025 45.068 277.54 57.0961C275.054 69.1241 272.726 81.9469 272.365 85.5912C271.733 91.9628 271.808 92.2821 274.32 93.9192C277.545 96.0199 281.167 95.2779 282.733 92.1965C286.009 85.7513 290.249 65.9115 293.526 41.6923L294.266 36.2218L296.936 46.6654C301.802 65.6996 305.006 74.4275 308.467 78.0768C312.366 82.1866 315.643 82.4502 319.784 78.9849C322.812 76.4506 325.679 69.517 335.564 40.811L339.464 29.4862L340.126 38.8218C340.49 43.9561 341.312 55.9901 341.951 65.5634C343.597 90.2003 345.073 94.6563 351.585 94.6563C357.823 94.6563 361.725 81.8027 356.033 80.0054C353.965 79.3529 353.931 79.0575 351.456 40.2003C349.337 6.93099 348.972 3.90136 346.823 1.76489C344.493 -0.551596 341.785 -0.5884 339.131 1.65847ZM186.247 7.12893C185.133 8.35928 183.941 10.1566 183.598 11.1214C181.006 18.4219 172.776 86.7987 173.662 93.6835C174.478 100.026 180.19 102.302 185.289 98.3135C188.226 96.0159 188.673 92.7883 186.456 89.8731C185.648 88.8118 184.973 86.4575 184.956 84.6423L184.924 81.3422L187.714 83.3185C192.784 86.9071 202.438 89.4832 211.029 89.5389C219.909 89.5966 221.933 88.6596 221.933 84.4941C221.933 80.1377 219.372 78.8009 209.93 78.232C201.883 77.7456 192.926 75.2511 192.926 73.4945C192.926 72.0414 204.983 64.6493 208.389 64.0137C210.7 63.5821 212.52 63.9123 214.326 65.0889C216.766 66.6783 217.095 66.6803 219.487 65.1228C224.35 61.9539 224.522 56.2974 219.829 53.8914C216.473 52.1707 208.083 52.3368 202.154 54.2405C199.401 55.1247 194.844 57.5825 192.026 59.704L186.903 63.5592L187.416 59.8373C187.699 57.7893 189.094 47.6103 190.516 37.2164C192.278 24.338 193.653 17.5268 194.831 15.8319C197.715 11.6883 198.076 9.74082 196.427 7.23734C194.347 4.08138 189.057 4.02568 186.247 7.12893ZM88.0091 15.5833C85.0214 18.047 84.1932 23.8347 82.9878 50.6608C81.3864 86.3252 81.3434 101 82.8358 102.788C84.3392 104.591 86.6738 104.386 90.1037 102.151L92.6014 100.524L93.3295 73.3463C94.1828 41.4864 95.2851 25.9921 96.8065 24.4792C98.655 22.6412 98.0258 18.8496 95.4451 16.2845C92.5363 13.3911 90.8599 13.233 88.0091 15.5833ZM40.3857 17.7615C30.308 20.2192 20.3604 28.2489 12.0022 40.6728C2.8488 54.2803 -0.771146 65.8936 0.135092 78.7412C0.73825 87.304 3.78806 92.2144 10.5618 95.5305C17.2426 98.8009 29.4438 98.7681 39.3854 95.453C49.5861 92.0503 61.9053 86.5829 65.6423 83.7979C73.1373 78.214 65.8153 70.0462 58.0443 75.3237C54.4744 77.7486 44.8898 81.8425 36.6037 84.4822C28.7176 86.9946 19.2021 87.4909 15.6062 85.5773C10.2017 82.7008 9.44154 74.6513 13.4516 62.7545C19.2611 45.5186 31.7794 31.365 43.5485 28.7263C48.3528 27.6481 51.5016 28.9919 53.9862 33.1783C56.4989 37.4124 59.1886 38.4001 62.4404 36.2815C68.1589 32.5556 63.1336 22.303 53.6571 18.3662C49.7551 16.744 45.376 16.5451 40.3857 17.7615ZM108.559 35.5544C106.625 37.678 106.431 40.9304 108.053 43.9958C110.229 48.1066 114.423 48.9481 117.251 45.8409C119.501 43.3682 119.331 39.514 116.833 36.3561C114.415 33.2996 110.919 32.9604 108.559 35.5544ZM388.529 43.2827C379.704 46.0796 370.374 53.9978 366.109 62.3109C361.353 71.5809 360.834 85.7136 365.026 91.7967C368.481 96.8106 372.313 98.6427 380.43 99.1609C393.776 100.012 406.885 95.3575 415.441 86.7281C420.436 81.6893 421.304 77.9992 418.156 75.1665C415.21 72.5148 412.976 73.217 408.028 78.3493C402.724 83.8506 395.172 87.1836 386.117 88.0191C374.629 89.0794 371.477 85.7175 373.892 74.9845C374.565 71.9907 375.326 69.5419 375.581 69.5419C375.836 69.5419 377.041 70.1804 378.259 70.9622C384.63 75.0452 398.501 74.8273 405.487 70.5325C412.102 66.4675 415.153 55.0999 411.347 48.6945C407.771 42.674 397.864 40.3237 388.529 43.2827ZM112.554 52.6382C109.349 56.4267 108.509 61.6565 108.45 78.1981C108.408 90.1944 108.577 91.4595 110.404 92.8371C112.892 94.711 114.995 94.7915 117.321 93.1007C118.857 91.9837 119.166 89.9248 119.448 78.9272C119.629 71.8504 120.289 64.2704 120.912 62.0822C123.158 54.2017 123.185 53.593 121.375 51.6038C118.811 48.787 115.482 49.1769 112.554 52.6382ZM401.791 56.3024C402.32 59.9895 398.684 62.5795 392.978 62.5795C389.397 62.5795 387.977 62.1906 387.977 61.2089C387.977 60.4559 387.268 59.2534 386.4 58.5383C383.892 56.4685 390.115 53.6 396.479 53.8944C400.776 54.0923 401.524 54.4315 401.791 56.3024ZM140.107 56.743C135.035 59.2405 129.224 66.3611 128.312 71.2009C126.177 82.5108 133.114 90.3107 146.138 91.2477C153.497 91.7768 159.678 90.077 164.366 86.2337C167.364 83.777 167.973 82.673 167.724 80.1476C167.514 78.029 166.588 76.6018 164.763 75.5882C162.288 74.2136 161.848 74.2922 158.262 76.7549C151.969 81.0776 142.119 81.3392 139.528 77.2522C136.688 72.7774 146.39 63.5174 150.952 66.3501C153.78 68.1066 156.643 67.8242 158.917 65.5634C161.649 62.846 161.432 60.9493 157.994 57.5298C155.493 55.0442 154.298 54.6225 149.741 54.6235C146.319 54.6235 142.873 55.3824 140.107 56.743Z" fill="black"/>
<path d="M210.146 158.011L196.185 134.154L223.826 133.992L210.146 158.011Z" fill="#9E9898"/>
</svg>
