<svg width="95" height="57" viewBox="0 0 95 57" fill="none" xmlns="http://www.w3.org/2000/svg">
<path fill-rule="evenodd" clip-rule="evenodd" d="M26.0026 3.29327C24.1932 3.75894 20.5746 4.73586 17.9611 5.46446C15.3476 6.19283 11.1744 7.22335 8.68686 7.75409C6.19961 8.28482 3.86954 8.85357 3.50865 9.01806C2.78419 9.34825 2.65479 9.98913 3.21842 10.457C3.41946 10.6239 3.58394 11.1373 3.58394 11.5979C3.58394 12.0585 3.85321 13.6278 4.18218 15.085C5.375 20.3697 5.55873 21.9365 5.76732 28.6112C5.98322 35.5127 6.21107 37.103 7.31202 39.3919C8.49119 41.844 10.0831 42.0682 14.9151 40.4628C16.9849 39.7752 19.5482 39.202 23.6876 38.5015C28.5707 37.6749 31.3058 37.0757 34.5923 36.1117C34.9278 36.0132 35.0195 36.1356 35.0224 36.6851C35.027 37.5574 35.3472 38.0865 35.7824 37.9415C36.0037 37.8677 36.1153 37.4283 36.1153 36.6324C36.1153 35.4594 36.1319 35.4325 36.9056 35.358C37.5728 35.2937 37.9042 35.4786 39.0309 36.5445C40.1828 37.6337 40.3305 37.8735 40.1065 38.2917C39.9218 38.6367 39.924 38.8531 40.1139 39.0429C40.3069 39.2359 40.6492 39.0468 41.3547 38.3582C41.8908 37.8348 42.3292 37.326 42.3292 37.2273C42.3292 37.1286 42.905 36.2423 43.6085 35.2578C44.3122 34.2731 45.1003 33.0686 45.3598 32.5808C45.6193 32.0931 46.0738 31.5836 46.3696 31.4489C46.8563 31.2271 47.0661 31.4048 48.5781 33.3191C49.497 34.4824 51.0025 36.2925 51.9236 37.3415C53.1625 38.7522 53.5273 39.32 53.3248 39.5225C53.1742 39.6731 53.0511 39.9935 53.0511 40.2348C53.0511 40.7887 53.9154 40.8254 54.1245 40.2803C54.2398 39.9804 54.3533 39.9521 54.6055 40.1617C54.856 40.3695 55.0137 40.342 55.2571 40.0486C55.5191 39.733 55.5203 39.6256 55.2635 39.4669C54.423 38.9474 56.4899 36.7462 59.1485 35.3292C60.5238 34.5962 60.6942 34.5572 60.9018 34.9284C61.0879 35.2608 61.201 35.2822 61.4934 35.0395C62.0405 34.5855 61.7327 33.8698 60.364 32.4133C59.6841 31.6901 58.2032 29.8808 57.0731 28.3926C54.8948 25.5245 53.412 23.8594 53.0358 23.8594C51.8478 23.8594 56.1432 20.6543 59.8934 18.7424C63.1643 17.0746 63.6897 16.6704 63.2591 16.1516C63.0116 15.8531 62.9185 15.8531 62.5807 16.1511C62.3653 16.3409 60.9829 17.099 59.5086 17.8359C55.589 19.7946 51.8639 22.5821 51.8405 23.5738C51.8361 23.752 52.2689 24.3041 52.8018 24.8013C53.7207 25.658 59.8573 33.3237 59.8688 33.6288C59.8717 33.708 59.3534 34.0575 58.7167 34.4052C57.5068 35.0661 55.2628 36.8846 54.5078 37.8155C54.2659 38.1143 54.0266 38.3036 53.9764 38.2366C53.9259 38.1696 53.1924 37.3199 52.3464 36.3481C51.4786 35.3519 50.9615 34.5814 51.1606 34.5814C51.3546 34.5814 51.7096 34.3647 51.9494 34.0999C52.189 33.835 52.485 33.6798 52.6069 33.7553C52.729 33.8306 53.0075 33.7458 53.2258 33.5667C53.575 33.2804 53.6062 33.3062 53.4841 33.7804C53.4018 34.0999 53.4863 34.4369 53.6913 34.6072C54.0982 34.9447 54.0629 34.9744 54.731 33.7285L55.2535 32.7538L55.1879 34.0879C55.1334 35.1967 55.1948 35.4364 55.5501 35.5071C56.1571 35.628 56.3542 34.9028 56.2599 32.8944C56.1839 31.2729 56.1449 31.1698 55.61 31.1698C55.2971 31.1698 54.9859 31.307 54.9182 31.4744C54.8507 31.6421 54.7866 31.3312 54.7761 30.7841C54.7656 30.2368 54.6748 29.7061 54.5741 29.6049C54.4735 29.5036 54.3913 29.1315 54.3913 28.7776C54.3913 28.3734 54.2415 28.1048 53.9876 28.0546C53.6905 27.9961 53.4476 28.349 53.0689 29.3898C51.7689 32.9626 51.7213 33.0598 51.6351 32.3244C51.5413 31.5246 52.1648 29.2648 52.813 28.0551C53.2738 27.1952 53.2568 26.7836 52.7604 26.7836C52.4368 26.7836 51.3912 27.9715 51.2057 28.5503C51.1304 28.7849 50.9769 28.9767 50.8643 28.9767C50.635 28.9767 50.7342 28.4221 51.2691 26.7137C51.658 25.4709 51.5739 24.8342 51.0205 24.8342C50.8334 24.8342 50.0655 25.7938 49.3143 26.9664C48.0352 28.9633 47.9479 29.0479 47.9411 28.2988C47.9328 27.3982 48.7628 24.7589 49.2918 24.0037C49.737 23.3679 49.7332 22.9727 49.2797 22.7987C49.0306 22.7032 48.5642 23.2032 47.7696 24.4175C46.2507 26.7385 46.0653 26.0443 47.4235 23.1211C48.4636 20.8824 48.6568 19.8594 48.0815 19.6386C47.8948 19.567 47.5054 19.7602 47.2164 20.068C46.6991 20.6185 45.5121 23.6026 45.5021 24.378C45.4992 24.5961 45.3145 24.925 45.0915 25.109C44.3456 25.7238 44.8561 23.0587 45.7173 21.843C46.1181 21.2767 46.5188 20.512 46.6072 20.1433C46.6959 19.7746 46.9196 19.4732 47.1046 19.4732C47.5247 19.4732 48.4212 18.7234 48.4212 18.372C48.4212 18.228 48.8759 17.6765 49.4317 17.1468C49.9983 16.607 50.3752 16.3743 50.2892 16.6177C50.0175 17.3885 49.4505 19.8109 49.3072 20.8134C49.0491 22.6159 50.0134 22.951 51.0546 21.4209C51.3731 20.9528 51.7538 20.6039 51.9002 20.6458C52.5798 20.8395 53.3072 20.3495 54.0436 19.2017C54.7693 18.071 54.8641 18.0009 55.0371 18.4687C55.2696 19.0964 55.9923 19.1371 56.6517 18.5594C57.4661 17.8461 58.5164 15.7086 58.3097 15.1854C58.1311 14.7333 58.1172 14.7338 57.7622 15.2088C57.5616 15.4768 57.1359 16.1348 56.816 16.6708C56.005 18.0296 56.016 17.0688 56.8323 15.2227C57.1698 14.4597 57.3825 13.7333 57.3053 13.6083C56.9878 13.0943 56.4773 13.4506 55.8715 14.6096C55.2123 15.8699 53.5821 18.2548 53.3793 18.2548C53.317 18.2548 53.3143 18.1724 53.3732 18.072C53.7765 17.3853 54.5132 15.5319 54.5132 15.2044C54.5132 14.4244 53.6949 14.9746 53.0572 16.1835C52.2548 17.7043 50.376 20.6372 50.3731 20.3741C50.3716 20.2666 50.5422 19.4249 50.7515 18.5036C51.0478 17.2011 51.2747 16.7354 51.7708 16.4104L52.4093 15.992L51.8712 15.5565L51.3332 15.1208L53.1059 13.6263C54.0809 12.8044 55.3627 11.8104 55.9543 11.4176L57.0297 10.7031L58.6891 13.6848C59.6017 15.3248 60.4612 16.704 60.5986 16.7498C61.364 17.0049 60.9756 15.7719 59.3495 12.7858C57.7271 9.80588 57.4963 9.49689 56.8891 9.48982C56.5192 9.48568 56.2121 9.61873 56.2036 9.78687C56.1953 9.95452 55.3817 10.678 54.3957 11.3949C52.5445 12.741 48.3264 16.6935 47.5951 17.7674C47.2391 18.2901 47.1489 18.322 46.9591 17.9921C46.1932 16.6596 40.6317 9.58998 40.2986 9.5254C39.4927 9.36896 39.9206 10.2433 41.9181 12.8346C43.0319 14.2799 44.5194 16.2824 45.2234 17.2847C46.4566 19.0406 46.4829 19.1118 45.9493 19.2378C45.5847 19.3238 45.1978 19.7822 44.8179 20.5783C44.5004 21.2438 44.1119 22.0535 43.955 22.3778C42.9812 24.3887 42.662 20.9906 43.5717 18.2969C44.1582 16.56 44.0637 15.7395 43.3512 16.3843C43.1148 16.5982 42.7758 17.1762 42.5975 17.669C42.1715 18.8472 41.3627 20.2042 41.0866 20.2042C40.7484 20.2042 40.8274 17.8812 41.2477 15.4788C41.5143 13.9545 41.5501 13.2357 41.3686 13.0541C41.0123 12.6979 40.8354 12.9479 39.8858 15.1513C38.9737 17.2674 38.3009 18.1054 38.0465 17.4423C37.9639 17.2272 38.0287 16.2666 38.1905 15.3079C38.4144 13.9792 38.5896 13.5376 38.9279 13.4491C39.9019 13.1943 39.5003 12.0178 38.5029 12.2044C37.9656 12.3051 37.3152 14.1444 37.0793 16.2295C36.9309 17.541 36.9709 17.7701 37.4273 18.2265C38.0986 18.8978 38.5609 18.8774 39.2941 18.1439L39.8924 17.5459V18.9502C39.8924 20.7391 40.271 21.3103 41.3179 21.101L42.0855 20.9474V22.2438C42.0855 23.6411 42.6813 24.5444 43.4167 24.2622C43.7067 24.1509 43.7912 24.2985 43.7912 24.9148C43.7912 25.8315 44.1582 26.2962 44.8824 26.2962C45.161 26.2962 45.5765 26.5155 45.806 26.7836C46.0355 27.0516 46.4191 27.271 46.6586 27.271C47.0188 27.271 47.078 27.4376 47.0017 28.2371C46.9406 28.878 46.7695 29.2477 46.4939 29.3352C46.2653 29.4078 45.8508 29.8654 45.5725 30.3523C45.1749 31.0483 44.8988 31.2505 44.2796 31.2992C43.4998 31.3606 43.4937 31.3526 43.6506 30.4737C44.2723 26.9915 44.2983 26.7027 44.0079 26.5231C43.8461 26.4232 43.5822 26.3918 43.4216 26.4534C43.0163 26.6089 42.5728 28.2084 42.5728 29.515C42.5728 31.1465 41.382 34.3377 40.7733 34.3377C40.3977 34.3377 40.8093 31.3921 41.4639 29.3956C42.2037 27.1394 42.2275 26.7836 41.6403 26.7836C41.3016 26.7836 41.0445 27.2354 40.5656 28.6721C40.2194 29.7107 39.8005 31.1089 39.6345 31.779C39.2342 33.3971 38.9873 33.6162 38.7841 32.5335C38.4997 31.018 38.7663 28.7754 39.2751 28.4036C39.7878 28.0286 39.5899 27.5146 38.933 27.5146C38.1354 27.5146 37.8508 28.213 37.7448 30.4315C37.629 32.8534 37.9575 34.2322 38.7073 34.4703C38.9773 34.5558 39.2622 34.5616 39.3407 34.4832C39.4191 34.4047 39.6055 34.5858 39.7549 34.8852C40.3563 36.0917 41.4607 35.5588 42.4654 33.5772C42.9574 32.6073 43.1211 32.4674 43.6472 32.5681L44.2579 32.6848L43.0802 34.4249C42.4327 35.3821 41.6607 36.3824 41.3649 36.6475C40.8661 37.0949 40.8103 37.0998 40.5949 36.715C40.4672 36.4867 39.7403 35.7932 38.9798 35.1735C37.7957 34.209 37.4814 34.0655 36.7952 34.1769C35.9954 34.3067 35.9935 34.3046 35.9952 33.2867C35.9988 31.1784 36.3073 28.9767 36.5993 28.9767C36.7596 28.9767 37.5389 28.2849 38.3306 27.4393C41.6003 23.9479 41.7007 23.8007 40.9945 23.5297C40.755 23.4379 40.0054 24.1143 38.7519 25.554C37.0778 27.4769 36.8344 27.6713 36.553 27.3109C36.2632 26.9391 36.1964 26.953 35.752 27.4778C35.3204 27.9874 34.74 28.1275 30.4522 28.7564C25.3112 29.5106 22.4731 30.1479 17.8997 31.5748C16.3245 32.0663 14.9763 32.409 14.9036 32.3361C14.8308 32.2632 14.9134 31.3468 15.0869 30.2994L15.4025 28.3951L18.6463 27.3704C20.4306 26.8067 23.2538 25.9885 24.9206 25.5518C27.8211 24.7917 27.9713 24.7762 28.4235 25.1853C28.9282 25.6422 29.5291 25.485 29.3237 24.9499C29.2477 24.7523 29.485 24.5286 29.9382 24.3704C30.8494 24.0529 30.729 23.4866 29.7557 23.5134C28.8132 23.5392 28.6475 23.2358 28.8139 21.7881C29.1322 19.0158 29.4277 18.042 30.0996 17.5493C30.5923 17.1879 30.6854 16.9991 30.476 16.7866C30.1256 16.4311 28.2512 16.8926 20.2151 19.3138L14.3059 21.0941V20.436C14.3059 19.1708 14.5861 18.284 14.9426 18.421C15.129 18.4924 15.4734 18.3264 15.7075 18.052C16.1135 17.5764 17.2045 17.2009 26.0635 14.4855C27.9145 13.9182 28.9267 13.4891 28.9267 13.2713C28.9267 12.5217 28.7323 12.5663 19.7887 15.3708C17.6443 16.0434 15.5608 16.7362 15.1588 16.9106C14.7567 17.0851 14.244 17.2878 14.0193 17.3612C13.7025 17.4648 13.5724 17.937 13.4389 19.4673C13.3022 21.033 13.1728 21.4901 12.8116 21.6836C12.5034 21.8486 12.3564 21.8457 12.3564 21.6748C12.3564 21.5362 12.151 21.4226 11.9 21.4226C11.2477 21.4226 9.58921 23.3185 8.69904 25.082C8.28064 25.911 7.8793 26.5304 7.80742 26.4583C7.30154 25.9524 11.1237 17.7674 11.8657 17.7674C12.4527 17.7674 12.6167 17.5228 12.3562 17.0361C12.1766 16.7006 12.355 16.4011 13.2144 15.5957C14.137 14.7309 14.3727 14.6181 14.7901 14.8415C15.3815 15.1581 16.0195 14.8796 17.1487 13.8113C17.8722 13.1268 17.9538 13.1048 18.4577 13.4577C19.0569 13.8775 19.7215 13.7226 20.8897 12.8906C21.4923 12.4615 21.5939 12.4513 21.8753 12.7905C22.2567 13.2498 23.1461 13.0858 24.1326 12.374C24.7803 11.9066 24.8482 11.9015 25.2747 12.2875C25.8927 12.8468 26.2394 12.559 26.091 11.6101C25.9848 10.9305 26.1622 10.5776 27.3864 9.03414L28.8049 7.24601L28.9267 9.8668C29.0413 12.3326 29.2208 12.8882 29.8125 12.6075C29.9041 12.5639 29.9682 10.7738 29.9546 8.62939C29.9339 5.39623 29.8681 4.71758 29.5688 4.65545C29.3515 4.61012 29.1763 4.79605 29.1283 5.12356C29.0751 5.4864 28.8656 5.68012 28.4983 5.70644C27.6652 5.76614 26.777 6.73867 25.8291 8.62939C24.8436 10.5944 24.4447 11.0991 23.4827 11.5964C22.1154 12.3036 22.4453 11.4283 24.2415 9.58462C25.7896 7.99533 26.2299 6.80178 25.2679 6.80178C24.538 6.80178 23.1047 8.23926 22.2406 9.83804C21.4984 11.2114 19.7595 12.8068 19.2119 12.6167C18.7889 12.47 19.8187 10.5028 21.2391 8.74465C22.6873 6.95238 22.9585 6.26057 22.2686 6.11923C21.6663 5.99569 20.0955 7.72899 19.0004 9.72595C18.1378 11.2984 16.5419 13.1952 15.6885 13.6621C15.3052 13.8717 15.2774 13.8439 15.488 13.4606C15.6223 13.2159 16.3448 12.3029 17.0934 11.4317C18.5676 9.71645 18.9663 8.83091 18.4204 8.48513C17.9111 8.1625 17.8076 8.19978 16.8302 9.05583C16.2936 9.52589 15.6025 10.5469 15.13 11.5679C14.3466 13.2613 12.7237 15.0998 11.3756 15.8211L10.7908 16.1343L11.2582 15.4278C13.2376 12.4371 14.3154 10.5208 14.255 10.0993C14.1482 9.35434 13.0641 9.32827 12.2078 10.0498C11.2835 10.8288 9.50124 14.2004 9.28339 15.5818C9.11281 16.6645 8.53432 17.7452 8.11762 17.7599C7.77208 17.7718 8.1415 14.8662 8.69003 13.2593C9.41863 11.1247 9.66865 10.7411 10.4418 10.5713C11.2501 10.3936 11.3644 9.83049 10.6387 9.60021C9.44714 9.22202 8.28552 10.8518 7.46773 14.0491C6.93212 16.1433 6.8556 18.0174 7.28789 18.4497C7.83544 18.9973 8.65323 18.7726 9.32701 17.8893C9.68473 17.4202 10.129 17.0364 10.3142 17.0364C10.4991 17.0364 10.6507 17.0812 10.6507 17.136C10.6507 17.1909 10.0595 18.3886 9.337 19.798C8.61449 21.2072 7.74577 23.1635 7.40681 24.1455L6.79029 25.9307L6.77104 24.8653C6.74278 23.3048 6.09483 19.1688 5.26583 15.2575C4.84182 13.2574 4.60229 11.5445 4.69025 11.1437C4.80015 10.6437 4.73631 10.4163 4.45632 10.3088C3.87295 10.0851 3.99382 9.80344 4.74143 9.64383C11.3554 8.23122 14.3117 7.52698 18.6921 6.321C27.6601 3.85227 27.9552 3.78867 28.298 4.25751C28.57 4.62937 28.6904 4.61914 29.8391 4.12495C31.0416 3.60762 31.5146 3.10101 31.228 2.63728C30.9771 2.23107 29.3247 2.43844 26.0026 3.29327ZM69.7432 8.7734C68.8051 8.88501 66.9957 9.28367 65.7225 9.65943C63.603 10.2852 63.4075 10.3941 63.4075 10.9483C63.4075 11.3545 63.5369 11.5443 63.8008 11.5253C64.1593 11.4995 64.1863 12.596 64.1047 23.8312C63.9802 40.9636 63.7918 52.5689 63.6208 53.6494L63.476 54.5632L65.1477 54.5622C66.0668 54.5615 68.5736 54.2211 70.7179 53.8058C72.8623 53.3904 75.4393 52.9944 76.4444 52.9257C78.1453 52.8094 78.776 52.5472 78.4853 52.0772C78.4192 51.9702 77.9202 51.8827 77.3763 51.8827C76.4678 51.8827 76.4001 51.8383 76.5417 51.3344C77.0293 49.5997 76.9559 46.0595 76.355 42.3053C76.0161 40.1875 75.8036 38.2853 75.883 38.0784C75.9902 37.7989 76.2215 37.7434 76.7841 37.862C80.7761 38.7044 83.4442 38.7088 85.1166 37.8755C87.6062 36.6349 89.1261 34.4761 90.9344 29.6115C92.0834 26.5209 92.5159 22.6457 92.1043 19.1296C91.7861 16.4099 91.3387 15.3155 89.5922 12.9849C87.1737 9.75763 85.0951 8.90913 80.9033 9.43865C78.3478 9.76128 76.3762 10.503 75.3523 11.527L74.7387 12.1406V11.4366C74.7387 11.0491 74.612 10.4236 74.457 10.0464C74.302 9.66917 74.1992 9.16865 74.2287 8.93399C74.2745 8.56749 74.0824 8.51193 72.8655 8.53923C72.0865 8.55653 70.6814 8.66204 69.7432 8.7734ZM37.7436 10.1568C35.9808 11.3413 33.8245 13.6097 33.5313 14.5884C33.1948 15.7115 33.3256 15.9883 35.2429 18.2036C37.5686 20.8912 39.5943 22.8847 39.9993 22.8847C40.697 22.8847 40.3917 22.1746 39.242 21.1231C38.6162 20.5507 37.2608 19.0677 36.2298 17.8274C34.7548 16.0529 34.3798 15.4459 34.4692 14.978C34.6298 14.1385 35.926 12.703 37.6702 11.4329C39.086 10.4017 39.4269 9.91895 38.9478 9.62288C38.8304 9.55026 38.2884 9.79053 37.7436 10.1568ZM73.6657 10.0306C73.7418 19.2609 73.7725 19.9605 74.1034 19.9605C74.6249 19.9605 74.7387 19.3925 74.7387 16.7871C74.7387 15.4483 74.8466 14.3179 74.9824 14.234C75.1164 14.1512 75.226 13.8364 75.226 13.5342C75.226 12.9569 76.1537 11.9478 77.1643 11.4264C78.1078 10.9392 80.0707 10.4814 81.9453 10.3108C85.3602 10.0001 87.5582 11.255 89.5691 14.6641C90.981 17.0576 91.1467 17.7845 91.1637 21.6663C91.1813 25.5925 90.8413 27.4652 89.5269 30.6825C87.9986 34.424 86.5555 36.2401 84.3933 37.1434C82.4339 37.9622 77.3081 37.3664 74.5635 36.0011C73.1881 35.3168 72.9786 35.2759 72.3004 35.5566C71.2643 35.986 68.884 38.6518 67.8991 40.4862C66.9421 42.2688 66.6729 41.8952 67.439 39.8478C67.9917 38.3706 68.0587 38.287 69.3719 37.4346C70.2535 36.8622 71.804 34.9752 72.3991 33.7499C73.2191 32.0617 71.7836 31.8677 70.1984 33.4526C69.6131 34.0382 69.134 34.4819 69.134 34.4388C69.134 33.9517 69.9898 32.8968 71.4807 31.5468C72.9696 30.198 73.3563 29.9578 73.6477 30.1998C73.8685 30.383 74.322 30.4342 74.8493 30.3352L75.6963 30.1761L75.3394 31.0307C74.8822 32.1248 74.8898 32.5045 75.3781 32.9928C75.6486 33.2633 75.9914 33.3406 76.462 33.2372C77.1341 33.0898 77.147 33.1066 77.0098 33.9512C76.8487 34.944 77.2851 35.288 78.1312 34.8353C78.582 34.594 78.6376 34.6321 78.6376 35.182C78.6376 36.0342 79.3798 35.995 80.2797 35.0948C80.8353 34.5392 81.0766 34.4415 81.4184 34.6328C81.7148 34.7985 81.9377 34.7902 82.1212 34.6067C82.2691 34.4588 82.6639 34.3377 82.9982 34.3377C83.3328 34.3377 83.8865 34.0696 84.2288 33.7419C84.8329 33.1639 84.8685 33.159 85.4214 33.5764L85.9911 34.0068L84.6482 34.3072C83.1274 34.6477 82.5789 35.0855 83.1154 35.531C83.3479 35.724 83.6398 35.7408 84.0322 35.5836C84.3487 35.4569 85.1334 35.2188 85.7757 35.0546C86.4288 34.8874 87.1033 34.5295 87.3063 34.2422C87.6365 33.7741 87.6221 33.6905 87.1447 33.3001L86.6203 32.872L87.6245 31.7827C88.1767 31.1835 88.6285 30.5343 88.6285 30.3399C88.6285 29.8652 87.9598 29.2226 87.4537 29.2111C87.1861 29.2048 87.4588 28.8366 88.2408 28.1475C89.1192 27.3733 89.3936 26.9802 89.2735 26.6676C89.1546 26.3572 88.9155 26.2704 88.3911 26.3474L87.672 26.4529L88.6375 25.4053C89.1687 24.829 89.6032 24.1421 89.6032 23.8787C89.6032 23.3302 88.7418 22.641 88.0558 22.641C87.6801 22.641 87.7831 22.4334 88.5975 21.5498C89.6388 20.4204 89.9227 19.3367 89.2455 19.077C88.9738 18.9727 88.9228 18.6846 89.0332 17.8788C89.1697 16.8824 89.1392 16.8078 88.5305 16.655C88.0283 16.529 87.9162 16.3865 88.0319 16.0217C88.2513 15.3311 87.7135 14.8432 86.7334 14.8432C85.9148 14.8432 85.8922 14.8213 86.2757 14.3976C86.4975 14.1524 86.679 13.7806 86.679 13.5707C86.679 12.8473 85.9604 12.9184 84.6999 13.7667C84.0039 14.235 83.3314 14.6819 83.2049 14.7601C82.7563 15.0372 83.479 13.9811 84.2213 13.2747C85.0444 12.4912 85.1667 12.0453 84.616 11.8343C84.2868 11.7078 83.1125 12.3911 81.1382 13.8571C80.7045 14.1795 80.2732 14.3671 80.1803 14.274C79.9361 14.0298 81.5798 12.4064 82.0708 12.4064C82.4963 12.4064 82.8603 11.8367 82.6008 11.5774C82.2879 11.2646 81.3717 11.4558 80.9494 11.9225C80.6111 12.2963 80.3209 12.3787 79.7307 12.2678C79.0228 12.135 78.8469 12.2449 77.6887 13.5439C76.1589 15.2595 75.1193 17.2627 75.2914 18.1631C75.373 18.5901 75.2202 19.0884 74.8318 19.6606C74.5118 20.1321 74.1261 20.9309 73.975 21.4353C73.7922 22.0455 73.5271 22.3905 73.1838 22.4656C72.8999 22.5275 72.4481 22.6669 72.18 22.775C71.8696 22.9005 72.074 22.554 72.7439 21.8201C73.9043 20.549 73.9596 20.0356 72.9949 19.4941C72.4011 19.1608 72.288 19.1764 71.5345 19.6954C70.5179 20.3958 68.5436 22.8876 67.4673 24.8285C66.9139 25.8267 66.5045 26.2962 66.1879 26.2962C65.4832 26.2962 65.6167 25.6578 66.7735 23.4983C67.7061 21.7572 68.0567 21.3666 70.1195 19.77C71.3869 18.7889 72.4593 17.8271 72.5027 17.6324C72.7593 16.4825 70.4514 17.5228 68.2202 19.5628C67.6507 20.0838 67.1846 20.4545 67.1846 20.3867C67.1846 19.7953 68.1998 18.2782 69.7406 16.5668C71.431 14.6892 71.5557 14.4806 71.1987 14.13C70.8422 13.7801 70.6607 13.9007 69.1182 15.5119C68.1888 16.4827 67.4283 17.1173 67.4283 16.9221C67.4283 15.9902 69.3816 12.0529 69.5675 12.6102C69.7408 13.1302 70.3612 12.9023 70.62 12.2237C71.1259 10.8956 71.1534 10.2923 70.7155 10.1241C70.0839 9.88191 68.7319 11.4848 67.6537 13.7545C66.552 16.0726 66.1753 17.5225 66.5159 18.1312C66.6843 18.4324 66.6275 18.9836 66.3246 19.9834C65.9849 21.1056 65.9559 21.4821 66.1874 21.7611C66.4231 22.045 66.3319 22.3954 65.7257 23.5353L64.9703 24.956L65.0992 18.7421C65.2644 10.7845 65.2534 10.8469 66.5415 10.4541C67.8464 10.0564 71.1403 9.5371 72.5551 9.50639C73.5456 9.48471 73.6618 9.53954 73.6657 10.0306ZM11.8652 12.7493C10.878 14.3128 10.6507 14.5747 10.6507 14.15C10.6507 13.8086 12.6157 10.8786 12.7527 11.0158C12.8226 11.0857 12.4232 11.8657 11.8652 12.7493ZM79.2083 13.9682C78.9904 14.4251 78.8791 14.9734 78.9609 15.1866C79.1439 15.6637 80.0166 15.6742 80.8307 15.2088C81.6668 14.7309 81.8673 14.7597 81.5703 15.3145C80.8453 16.6691 82.0562 16.8492 83.7427 15.6376C84.2861 15.2473 84.3258 15.2456 84.1837 15.6174C83.9003 16.3587 84.5724 16.608 85.67 16.1689C86.971 15.6484 87.3326 15.7848 86.719 16.5648C85.9629 17.5259 85.9473 18.1378 86.679 18.1093C87.0141 18.0961 87.4803 18.0023 87.7147 17.9005C88.3821 17.6107 88.2169 18.0479 87.2685 19.0804C86.5219 19.8935 86.4468 20.0765 86.7402 20.3699C87.0026 20.6321 87.2373 20.6526 87.7503 20.4576L88.4184 20.2035L87.9406 20.8739C87.6776 21.2428 87.2315 21.7533 86.949 22.0087C85.9624 22.9003 86.3934 23.6157 87.9174 23.6157C88.3085 23.6157 88.6285 23.6867 88.6285 23.7732C88.6285 23.8599 88.135 24.4581 87.5319 25.1029C86.332 26.3859 86.1727 26.9459 86.9286 27.2254C87.3911 27.3965 87.3684 27.4596 86.563 28.2401C85.3332 29.4319 85.4813 30.1951 86.9427 30.1951C87.6104 30.1951 87.52 30.7295 86.7236 31.4927C86.1841 32.0096 85.8841 32.1197 85.3215 32.0071C84.7569 31.8941 84.4808 31.9967 84.0158 32.4916C83.2597 33.2967 82.2738 33.3498 82.3566 32.581C82.4597 31.6255 81.7072 31.8278 80.8368 32.9894C80.0049 34.0999 79.3771 34.5014 79.8474 33.6227C80.5507 32.3086 79.7853 31.6682 78.7141 32.6743C78.4041 32.9658 78.1502 33.082 78.1502 32.9324C78.1502 32.783 78.2599 32.5929 78.3939 32.5101C78.7643 32.2813 78.6848 31.4165 78.2791 31.2607C78.0822 31.1852 77.6287 31.3531 77.2717 31.6338C76.1978 32.4784 75.9171 32.3198 76.3428 31.1089C76.5431 30.5392 76.9769 29.6644 77.3068 29.1646C77.9433 28.2006 78.0583 27.6372 77.668 27.396C77.3448 27.1964 76.5938 27.6248 75.4417 28.6655C74.9139 29.1424 74.4192 29.4697 74.3425 29.3929C74.2657 29.3162 74.2818 28.7798 74.378 28.2011C74.516 27.3718 74.8305 26.8703 75.8642 25.8328C76.5855 25.1088 77.1755 24.3685 77.1755 24.1879C77.1755 23.5073 76.1437 23.8994 75.0952 24.9784C74.2584 25.8391 74.0076 25.9907 74.0076 25.6354C74.0076 24.7844 75.4227 22.9298 77.0446 21.6553C78.3352 20.6411 78.5961 20.3261 78.371 20.0548C77.9579 19.5572 77.8103 19.6121 76.3355 20.8134C74.843 22.0291 74.6834 22.1042 74.9093 21.4835C75.2504 20.5463 76.4669 19.0565 77.6414 18.1378C78.3232 17.6044 78.8812 17.0352 78.8812 16.8729C78.8812 16.27 78.3391 16.2771 77.4528 16.8914C76.9508 17.2391 76.4671 17.5237 76.3782 17.5237C75.6873 17.5237 78.785 13.244 79.5475 13.1448C79.5787 13.1409 79.4261 13.5113 79.2083 13.9682ZM81.379 17.3997C80.5485 17.7606 80.4228 17.9931 80.8351 18.4054C81.0035 18.5737 80.846 19.2285 80.3455 20.4425C78.2011 25.6429 78.0301 29.4736 79.8845 30.7724C80.6635 31.3182 82.0908 31.2771 82.8408 30.6871C84.5948 29.3074 86.1985 25.294 86.1817 22.3272C86.1678 19.9001 85.5235 18.6103 83.8767 17.7121C82.4716 16.946 82.4336 16.9413 81.379 17.3997ZM28.3582 18.5594C27.9888 20.0709 27.6667 22.4899 27.7546 23.0904C27.8533 23.7627 27.8367 23.7712 25.1616 24.4482C21.5001 25.3744 15.5177 27.231 14.8907 27.6353C14.4631 27.9111 14.3325 28.3731 14.0973 30.4415C13.9423 31.8034 13.8777 33.0179 13.9533 33.1402C14.2128 33.5599 15.6481 33.3535 18.2542 32.5213C22.3976 31.1986 25.5396 30.4902 30.5716 29.7443L35.2624 29.0489V29.7065C35.2624 30.0682 35.1905 31.377 35.1026 32.6149C34.9512 34.7485 34.9098 34.8787 34.3106 35.1077C32.6835 35.7303 27.8426 36.8042 23.0784 37.5998C20.1969 38.0811 17.4859 38.5772 17.0539 38.7023L16.2682 38.9299L17.0539 37.8769C17.7442 36.9514 17.8858 36.8651 18.224 37.1646C18.8052 37.6798 18.9768 37.6064 20.2758 36.2874C21.2352 35.3134 21.5164 35.1426 21.6799 35.4345C22.015 36.0335 22.6873 35.8539 23.5789 34.9269C24.0407 34.4469 24.5997 33.9554 24.821 33.8347C25.1804 33.6386 25.1952 33.7066 24.9601 34.4724C24.7452 35.1728 24.7666 35.3994 25.0778 35.7103C25.5871 36.2199 26.1982 35.8812 27.0891 34.596C27.904 33.42 28.2727 33.3133 27.9081 34.3587C27.6927 34.9769 27.719 35.183 28.0558 35.5161C28.4925 35.9479 28.657 35.8078 30.9298 33.0659L31.5924 32.2664L31.5999 32.9068C31.6038 33.2589 31.7841 33.6936 32.0003 33.873C32.3397 34.1549 32.4898 34.0908 33.1039 33.4037C33.8488 32.5698 33.8211 32.0186 33.044 32.2218C32.6606 32.322 32.5961 32.2182 32.6451 31.5824C32.6906 30.9934 32.5949 30.8009 32.2176 30.7234C31.8677 30.6518 31.3691 31.0241 30.4366 32.0544C29.2413 33.3744 29.1736 33.4161 29.5562 32.5932C29.9772 31.6874 29.9022 30.9262 29.3919 30.9262C29.2372 30.9262 28.3999 31.6662 27.5314 32.571C25.9762 34.1908 25.9585 34.201 26.3688 33.2411C27.3223 31.0107 26.6744 30.9072 24.4313 32.9314C23.5 33.7719 22.8269 34.2402 22.9354 33.9722C23.6006 32.3278 22.882 32.3198 21.1701 33.9527C20.3862 34.7005 19.6876 35.3124 19.6176 35.3124C19.548 35.3124 19.5431 35.0383 19.6072 34.7032C19.8248 33.565 19.0204 34.0428 17.3519 36.0435C16.4576 37.1157 15.6785 37.9929 15.6205 37.9929C15.4524 37.9929 15.8045 36.7155 16.1761 35.9781C16.4761 35.3828 16.4698 35.2859 16.1218 35.1523C15.8496 35.048 15.2428 35.4815 14.1638 36.5508C12.8053 37.8971 12.6001 38.026 12.6001 37.5316C12.6001 37.2187 12.8345 36.5454 13.1211 36.0357C13.6202 35.1479 13.6136 34.3377 13.1075 34.3377C12.9759 34.3377 12.3694 35.0371 11.7594 35.8919C9.89211 38.5088 9.43301 38.6243 9.88699 36.3632C10.0758 35.4228 10.5359 34.4166 11.293 33.2884C12.577 31.3743 12.7137 30.8382 11.9449 30.7285C11.5131 30.6669 11.2362 30.9571 10.4918 32.2513C9.98592 33.1307 9.47029 33.8503 9.34577 33.8503C9.00803 33.8503 9.36405 31.0214 9.82363 30.0531C10.2342 29.1877 10.5759 28.821 12.9028 26.7461C14.1897 25.5983 14.2715 25.5593 13.9221 26.2597C13.7133 26.6783 13.6109 27.1321 13.6947 27.2678C14.0417 27.8292 14.8807 27.4352 16.152 26.1135C17.2834 24.9375 17.4754 24.8147 17.3468 25.3493C17.2383 25.8016 17.3029 26.0284 17.57 26.1308C17.8244 26.2285 18.3598 25.7994 19.2263 24.803C20.4464 23.4003 21.6838 22.3954 21.2432 23.1649C21.1397 23.346 20.8938 23.6818 20.6969 23.9113C20.2826 24.3941 20.4566 25.0778 20.9937 25.0778C21.196 25.0778 21.8142 24.502 22.3676 23.7985C23.4412 22.4334 24.9725 21.0422 25.1765 21.2464C25.2445 21.3144 25.1268 21.785 24.9148 22.2923C24.6075 23.0275 24.5921 23.2544 24.8395 23.4115C25.2837 23.6932 25.2876 23.6913 26.4495 22.6408C27.4888 21.7009 27.6218 21.0174 26.7197 21.2533C26.4022 21.3361 26.2516 21.2189 26.1987 20.848C26.074 19.9725 24.7722 20.0156 23.731 20.9299C23.2209 21.3778 22.8106 21.5808 22.718 21.4309C22.4675 21.0257 21.9918 21.1351 20.9803 21.8301C20.3962 22.2312 19.7573 22.4622 19.3155 22.4317C18.7311 22.3915 18.3137 22.6647 17.0614 23.906C15.5418 25.4119 15.2233 25.5308 15.8784 24.3475C16.115 23.9196 16.1398 23.6484 15.9617 23.4337C15.5735 22.9659 15.3549 23.0499 14.2067 24.1082C13.3767 24.8734 13.1123 25.0069 13.0015 24.7174C12.9072 24.4718 13.0044 24.3468 13.29 24.3468C13.9409 24.3468 14.3059 23.8514 14.3059 22.9685C14.3059 22.0542 14.0305 22.1632 22.8347 19.6001C25.4482 18.8394 27.6961 18.1792 27.8302 18.1332C28.3743 17.9465 28.4859 18.0367 28.3582 18.5594ZM83.7797 18.8121C85.5311 19.9905 85.7182 23.5309 84.201 26.7836C82.7197 29.959 81.513 30.8774 80.3494 29.7139C79.6791 29.0435 79.5238 28.2242 79.6856 26.2085C79.8891 23.6759 81.8814 18.2548 82.6088 18.2548C82.7974 18.2548 83.3243 18.5055 83.7797 18.8121ZM72.3392 20.8534C71.9853 21.4967 68.8904 24.503 68.8904 24.2033C68.8904 24.0651 69.3909 23.3555 70.0025 22.6264C71.6639 20.6458 73.0185 19.6182 72.3392 20.8534ZM12.8594 23.414C12.2636 23.6343 11.4263 24.7786 10.1716 27.087C9.60748 28.1251 9.0458 29.0362 8.92347 29.1117C8.61327 29.3035 8.64592 28.2384 8.98074 27.2463C9.37672 26.0735 11.8138 23.1225 12.2487 23.2895C12.4422 23.3635 12.6659 23.2405 12.7539 23.0114C12.8784 22.6866 12.9537 22.6681 13.1114 22.9234C13.2437 23.1374 13.1582 23.3033 12.8594 23.414ZM71.1727 25.698C69.164 27.935 68.1798 28.61 69.396 26.9164C70.3312 25.6139 72.511 23.5 72.7115 23.7005C72.7853 23.7744 72.0928 24.6731 71.1727 25.698ZM72.9793 25.8201C72.9676 26.2285 73.0846 26.689 73.2391 26.8435C73.7625 27.367 73.5254 27.9927 72.5763 28.5919C72.057 28.9197 71.2073 29.7407 70.6877 30.4161C69.5617 31.8807 67.4612 33.1176 67.1239 32.5147C67.0099 32.311 67.0355 31.724 67.1819 31.1796C67.3778 30.452 67.7107 30.0243 68.507 29.4763C69.6445 28.6936 72.7892 25.6105 72.7892 25.2779C72.7892 25.1677 72.8368 25.0778 72.8948 25.0778C72.9528 25.0778 72.9908 25.4119 72.9793 25.8201ZM68.7349 26.1135C67.487 28.1765 67.1846 28.5556 67.1846 28.0583C67.1846 27.7686 67.525 27.144 67.941 26.6703C68.6966 25.8094 69.0824 25.5389 68.7349 26.1135ZM66.2099 28.3473C66.2099 28.9078 66.3217 29.4785 66.4582 29.6149C66.627 29.7838 66.5905 30.1929 66.3441 30.8906C65.6969 32.7255 66.3817 34.0611 67.7887 33.708L68.4027 33.5538L67.921 34.616C67.6559 35.2001 67.4365 36.1307 67.4336 36.6841C67.4307 37.2375 67.1478 38.3029 66.8052 39.0514C65.8865 41.0582 65.7883 41.9832 66.4453 42.4432C66.9631 42.8061 66.967 42.8465 66.5937 43.9463C66.0573 45.5263 66.0956 46.6282 66.7016 47.0403C67.1295 47.3312 67.1612 47.485 66.9453 48.2258C66.8088 48.6941 66.6972 49.4915 66.6972 49.9978C66.6972 50.7679 66.8069 50.9669 67.3673 51.215C67.7358 51.378 68.1825 51.6497 68.3594 51.8189C68.5365 51.988 68.7887 52.1264 68.9198 52.1264C69.4321 52.1264 70.5591 51.3802 71.2706 50.5697C71.8211 49.9425 72.0528 49.8112 72.152 50.07C72.3414 50.5632 73.2766 50.5193 73.2766 50.0171C73.2766 49.7953 73.558 49.2446 73.9021 48.7938C74.5313 47.9687 74.6207 47.0069 74.0844 46.8305C73.9258 46.7781 72.7403 47.7409 71.4505 48.9697C68.9617 51.3405 68.0784 51.7609 69.9433 49.6866C71.2565 48.226 73.1357 45.6355 73.5641 44.6949C73.8266 44.119 73.8071 43.9882 73.416 43.7021C73.0717 43.4501 72.8446 43.4367 72.451 43.6448C72.1498 43.8042 72.366 43.4487 72.972 42.788C74.0296 41.635 74.2347 40.998 73.7152 40.4784C72.6187 39.3819 69.6643 41.9089 67.7892 45.547C67.1773 46.7345 67.0435 46.0651 67.5394 44.2974C67.903 43.0018 68.1812 42.6111 70.0875 40.7224C71.2645 39.5564 72.5558 38.1871 72.9571 37.6795C73.619 36.843 73.7474 36.7803 74.3403 37.0055C74.8673 37.2061 74.9658 37.3649 74.8496 37.8279C74.7704 38.1437 74.987 40.1229 75.3313 42.2261C76.0158 46.4094 76.1011 48.4037 75.6842 50.4796L75.4115 51.8381L73.9175 52.2078C71.6252 52.7751 66.0997 53.6353 65.3207 53.5461C64.7397 53.4795 64.6376 53.367 64.6971 52.8574C64.7363 52.5224 64.8314 46.5912 64.9084 39.677L65.0487 27.1057L65.6292 27.2169C66.1307 27.3126 66.2099 27.4666 66.2099 28.3473ZM7.34101 27.9062C7.59736 28.0047 7.72651 28.3592 7.72651 28.965C7.72651 29.552 7.89197 30.0255 8.1917 30.297C8.57209 30.6413 8.61668 30.8589 8.43538 31.4905C8.03818 32.8761 8.15929 34.2417 8.71245 34.6126C9.17568 34.923 9.19055 35.0361 8.92177 36.1943C8.76264 36.8803 8.70441 37.7283 8.79237 38.0789C9.01778 38.9769 9.99494 39.1838 10.8885 38.5232C11.5338 38.046 11.5813 38.0421 11.6892 38.4549C11.8969 39.2486 12.7941 39.2401 13.7101 38.4357L14.5496 37.6988V38.2843C14.5496 38.6065 14.6595 38.9801 14.7937 39.1143C15.121 39.4416 11.9249 40.4692 10.5132 40.4906C9.93012 40.4994 9.27584 40.3595 9.0592 40.1799C8.45268 39.6765 7.76136 38.1657 7.36514 36.4775C7.00571 34.9469 6.55319 27.7583 6.81612 27.7583C6.89288 27.7583 7.12901 27.8248 7.34101 27.9062ZM49.5923 29.8905C49.5192 31.2656 49.5294 31.291 50.1528 31.2505C50.7795 31.2101 50.7849 31.2239 50.5756 32.3449C50.4588 32.9692 50.4164 33.6183 50.4813 33.787C50.5461 33.9558 50.5575 34.094 50.5071 34.094C50.412 34.094 48.1614 31.2649 47.8607 30.7675C47.7316 30.5538 49.15 28.7143 49.5923 28.5218C49.6335 28.504 49.6335 29.12 49.5923 29.8905ZM70.331 35.1906C69.3034 36.5518 69.134 36.7092 69.134 36.3037C69.134 36.0159 70.8968 33.8866 71.1522 33.8659C71.2572 33.8574 70.8876 34.4534 70.331 35.1906ZM72.1508 37.0791C71.719 37.8104 69.7393 39.9925 69.2893 40.2333C68.9344 40.4231 69.0317 40.1992 69.635 39.437C70.9977 37.7146 72.7393 36.0824 72.1508 37.0791ZM73.0329 41.3749C73.0329 41.5655 71.2918 43.1178 69.9889 44.0888C69.722 44.2877 69.9808 43.8724 70.5642 43.166C71.9166 41.5282 73.0329 40.7182 73.0329 41.3749ZM70.0954 46.0543C69.5417 46.8695 68.8055 48.1549 68.4595 48.911C67.7319 50.5003 67.5145 50.2812 67.9134 48.3601C68.1574 47.1843 68.3608 46.8685 69.5644 45.7958C70.3193 45.1228 70.9741 44.5723 71.0194 44.5723C71.0647 44.5723 70.6488 45.2392 70.0954 46.0543ZM71.3939 46.3723C70.754 47.2282 70.187 47.8883 70.1334 47.8388C70.0179 47.7318 71.1327 46.0914 71.8291 45.3438C72.7541 44.351 72.5577 44.8152 71.3939 46.3723Z" fill="black"/>
</svg>
