<svg width="78" height="57" viewBox="0 0 78 57" fill="none" xmlns="http://www.w3.org/2000/svg">
<path fill-rule="evenodd" clip-rule="evenodd" d="M52.6456 1.29371C52.6456 1.37771 52.6899 1.44651 52.744 1.44651C52.7981 1.44651 52.8424 1.40505 52.8424 1.35428C52.8424 1.30351 52.7981 1.23481 52.744 1.20148C52.6899 1.16816 52.6456 1.20971 52.6456 1.29371ZM10.5423 4.84492C10.4085 4.9351 9.98919 5.27853 9.61048 5.60815C9.23177 5.93777 8.6099 6.43499 8.22864 6.71306C7.47653 7.26144 5.1785 8.43975 4.15117 8.80378C3.32971 9.09488 3.08075 9.2565 3.00786 9.54593C2.9274 9.86516 3.09108 10.0292 3.62294 10.1626C4.15914 10.2972 4.3479 10.1938 4.3479 9.76568C4.3479 9.60307 4.40082 9.48359 4.47273 9.48359C4.54139 9.48359 5.39353 9.08968 6.36627 8.60824C8.11453 7.74288 8.71584 7.33779 10.5265 5.80536C10.8139 5.56209 11.0931 5.39017 11.1469 5.4233C11.2007 5.45643 11.3528 5.45643 11.485 5.4234C11.7491 5.35744 11.8174 5.00792 11.6073 4.79856C11.436 4.62783 10.8248 4.65449 10.5423 4.84492ZM12.1471 5.04272C12.0565 5.27824 12.3779 6.13546 13.5107 8.67901C14.7468 11.4545 14.8888 11.7342 15.9837 13.5475C16.8588 14.9967 17.5343 16.3283 17.6637 16.8591C17.7463 17.1981 18.1528 17.2362 18.3222 16.9208C18.5027 16.5847 17.9361 15.3783 16.3243 12.6668C15.9725 12.0751 15.53 11.2821 15.3407 10.9048C14.9575 10.1402 13.3543 6.53516 12.9491 5.5267C12.7278 4.97587 12.6518 4.87698 12.4495 4.87698C12.3163 4.87698 12.1829 4.95009 12.1471 5.04272ZM28.3469 5.96727C26.2436 7.54107 23.207 10.5192 20.7143 13.4531C19.5913 14.7749 18.5126 16.517 18.5126 17.0089C18.5126 17.231 18.6969 17.4227 18.9105 17.4227C19.129 17.4227 19.4348 17.0718 19.3678 16.8979C19.1343 16.2914 23.1348 11.5161 26.1993 8.7433C27.6812 7.40248 28.7207 6.5432 28.8608 6.5432C28.9168 6.5432 29.1234 6.40353 29.3199 6.23289C29.8662 5.75831 29.9172 5.46799 29.4781 5.33166C29.3297 5.28559 29.0412 5.44771 28.3469 5.96727ZM30.0846 5.67872C29.8706 5.79801 29.8807 6.07607 30.1152 6.53428C30.2209 6.7407 30.5308 7.48089 30.8039 8.17914C31.6587 10.3649 32.5543 12.0236 33.7553 13.6459C34.3527 14.4528 34.8414 15.1828 34.8414 15.268C34.8414 15.687 35.375 15.7914 35.5509 15.4068C35.6937 15.0945 35.5857 14.8771 34.6849 13.6631C33.0139 11.4115 32.5667 10.5898 31.3073 7.45864C30.5821 5.65569 30.4558 5.47182 30.0846 5.67872ZM42.9334 8.62598C42.8803 8.69341 42.767 8.95766 42.6817 9.21327C42.5401 9.63718 42.5401 9.69178 42.6825 9.8336C42.8221 9.97268 42.8264 10.1718 42.7238 11.7211C42.4347 16.0818 42.3792 20.8993 42.514 29.9228C42.6168 36.8081 42.6205 39.3463 42.5307 41.5311C42.3645 45.573 42.3567 48.6471 42.5121 48.8336C42.7057 49.0661 43.0498 49.0126 43.8081 48.6321C44.4153 48.3275 44.7223 48.2507 46.1419 48.0482C47.8906 47.7987 50.4698 47.5027 52.9407 47.268C53.7793 47.1883 56.4352 47.0785 58.8427 47.024C64.1317 46.9043 67.1039 46.772 68.876 46.5775C69.6064 46.4973 70.9011 46.4035 71.7532 46.369L73.3025 46.3063V46.7656C73.3025 47.2692 73.4218 47.3819 73.8437 47.2764L74.0894 47.2149L74.0876 45.6241C74.0865 44.7491 74.1395 42.1697 74.2054 39.8922L74.3251 35.7511H74.6176C74.7785 35.7511 74.9837 35.8175 75.0737 35.8986C75.2143 36.0255 75.2902 36.0278 75.6154 35.9157C76.1124 35.7443 76.3061 35.4682 76.1134 35.206C75.9786 35.0225 75.8141 35.0162 71.2692 35.0232C67.4317 35.029 66.2744 35.0627 64.9906 35.206C63.9247 35.3251 62.3323 35.3975 60.0571 35.4305L56.6975 35.4792L56.6386 34.7576C56.4657 32.6374 56.3849 22.3016 56.4994 16.9326C56.6662 9.10967 56.6717 9.63659 56.4241 9.60141C56.3111 9.58533 56.1707 9.62993 56.1118 9.7006C56.0529 9.77126 55.9551 10.5783 55.8942 11.494C55.7301 13.9644 55.6591 25.6436 55.7772 30.7511C55.8687 34.7095 55.8634 35.2278 55.7298 35.3749C55.4904 35.6385 55.6073 35.8845 56.0406 36.0283C56.6075 36.2166 62.2123 36.1969 64.302 35.9994C66.8432 35.7592 70.4669 35.616 71.95 35.6971C73.1704 35.764 73.3025 35.7888 73.3025 35.9514C73.3025 36.0506 73.353 36.1627 73.4147 36.2007C73.4976 36.2517 73.5095 37.3364 73.4603 40.3476C73.4237 42.5903 73.3681 44.6728 73.3369 44.9751L73.2802 45.525L72.0372 45.5927C71.3535 45.63 70.1523 45.7238 69.3679 45.8012C66.6482 46.0698 65.1627 46.1409 60.2198 46.2393C54.8777 46.3457 54.2309 46.3834 50.055 46.8333C45.1248 47.3643 44.6562 47.4493 43.2111 48.0739C43.0919 48.1255 43.0849 47.6739 43.1619 44.9075C43.2113 43.1329 43.2368 36.8995 43.2185 31.0555C43.1872 20.9819 43.1943 20.4389 43.3557 20.5997C43.7308 20.9735 44.3581 20.5388 45.8286 18.886C46.3528 18.2967 46.7967 17.8147 46.8152 17.8147C46.8336 17.8147 46.6666 18.1344 46.444 18.5253C46.2214 18.9161 45.7352 19.8534 45.3637 20.6081C44.4937 22.3755 44.1955 23.4696 44.5009 23.7739C44.651 23.9235 45.1187 23.9254 45.3976 23.7777C46.0257 23.4449 47.0637 22.3598 48.3356 20.7061C48.5844 20.3827 49.0387 19.8534 49.3451 19.5299L49.9021 18.9419L49.6363 19.4319C49.4901 19.7015 49.3158 20.0117 49.2492 20.1213C48.984 20.557 48.1051 22.6761 47.7176 23.8139C47.4919 24.4766 47.0878 25.6141 46.8194 26.3419C46.1404 28.1832 45.6656 29.6767 45.6634 29.9777C45.6611 30.3113 45.9447 30.5564 46.3331 30.5564C46.5544 30.5564 46.7641 30.4499 47.0566 30.1889C47.2831 29.9868 47.4426 29.8875 47.4108 29.9684C47.2655 30.3389 45.5483 34.3059 45.2683 34.918C44.8065 35.9271 44.0878 37.8681 44.0878 38.1061C44.0878 38.4366 44.2736 38.6915 44.5146 38.6915C44.8779 38.6915 45.3194 38.1562 46.8174 35.8991C47.3178 35.1449 47.7273 34.5571 47.7273 34.593C47.7273 34.6888 46.7384 37.4704 46.2006 38.8876C44.8721 42.3878 44.3793 44.4265 44.6745 45.2003C44.8069 45.5471 45.2114 45.6325 45.5472 45.3846C45.9202 45.1092 46.5942 44.2022 47.1589 43.2153C47.4257 42.7488 47.6193 42.4552 47.5888 42.563C47.2308 43.8316 46.8437 45.4702 46.8429 45.7205C46.8417 46.1461 47.1221 46.302 47.5202 46.0969C47.8266 45.939 48.202 45.3759 49.3207 43.3962C50.4278 41.4368 51.0879 40.3411 51.1338 40.3869C51.1572 40.4102 50.8863 41.2135 50.5318 42.172C50.1772 43.1305 49.912 43.9925 49.9422 44.0874C50.0154 44.3174 50.2551 44.399 50.4895 44.2741C50.7805 44.1189 51.4214 43.265 52.0266 42.2259C52.7429 40.9961 53.3521 40.0489 53.3975 40.0941C53.4175 40.1141 53.3443 40.6337 53.2348 41.2487C52.8928 43.1707 52.8949 43.1284 53.1341 43.3442C53.3282 43.5192 53.3706 43.5236 53.5995 43.3929C53.738 43.3138 54.0187 42.9624 54.2232 42.6121C54.9551 41.3584 55.636 40.3284 55.6686 40.4261C55.6869 40.4807 55.4126 41.3075 55.059 42.2634C54.4198 43.9919 54.3216 44.4044 54.5202 44.5267C54.8161 44.7089 55.0904 44.4514 55.6965 43.4225C57.0131 41.1873 57.9847 39.9954 58.8737 39.5248C59.1971 39.3537 59.2561 39.3475 59.3434 39.4758C59.4669 39.6574 59.3777 41.0112 59.1978 41.6848C59.0528 42.2278 58.4673 43.6881 58.3368 43.8323C58.1913 43.9931 58.2447 44.2672 58.4422 44.3725C58.8193 44.5736 58.7428 44.6836 60.3379 41.6509C60.7719 40.8259 61.1374 40.1643 61.1502 40.1807C61.163 40.1972 61.1386 40.5415 61.0962 40.9458C61.0537 41.3501 61.0162 42.0159 61.0129 42.4253C61.0077 43.045 61.039 43.1989 61.1996 43.3436C61.5593 43.6679 61.8515 43.4664 63.5862 41.6983C64.4945 40.7722 65.1964 40.125 65.1458 40.2597C65.0952 40.3945 64.94 40.7888 64.8009 41.136C64.4978 41.8921 64.4917 41.9871 64.7376 42.1182C65.0398 42.2793 65.1747 42.1632 65.6784 41.3091C66.2672 40.3107 67.0102 39.2501 67.0754 39.3151C67.1364 39.3759 66.8819 40.5049 66.618 41.344C66.3648 42.1486 66.3668 42.37 66.6289 42.5529C66.9307 42.7635 67.098 42.6428 67.8061 41.7036C68.1407 41.2599 68.4545 40.8527 68.5036 40.7988C68.5527 40.7449 68.4524 41.0757 68.2805 41.5339C67.8594 42.6572 67.8587 42.6604 67.9885 42.902C68.0701 43.0539 68.1769 43.1053 68.3662 43.0835C68.5744 43.0595 68.7483 42.8773 69.1896 42.22C69.4974 41.7618 69.8888 41.2406 70.0594 41.0616C70.617 40.4766 70.1744 39.9325 69.5865 40.4803L69.3499 40.7008L69.6015 40.1325C70.0991 39.0085 70.1076 38.4955 69.6284 38.4955C69.3453 38.4955 68.9605 38.8986 68.1549 40.0392C67.8407 40.484 67.5691 40.8478 67.5513 40.8478C67.5335 40.8478 67.5988 40.5281 67.6961 40.1372C68.0099 38.8786 68.0293 38.5339 67.7992 38.3047C67.5291 38.0355 67.3966 38.0501 66.9579 38.3975C66.5581 38.714 66.4622 38.7459 66.3677 38.5935C66.3343 38.5396 66.1669 38.4955 65.9958 38.4955C65.7211 38.4955 65.4562 38.7273 63.7392 40.4707L61.7937 42.4457V41.9021C61.7937 41.6032 61.8377 40.924 61.8917 40.3926C62.0141 39.1862 61.9389 38.8494 61.5382 38.8094C61.1754 38.7732 60.9307 39.0165 60.4657 39.8763L60.1259 40.5048L60.1222 39.9167C60.1159 38.9097 59.6844 38.4581 58.9408 38.6801C58.4033 38.8405 57.3579 39.6864 56.7683 40.4379C56.4857 40.7981 56.2873 41.0046 56.3274 40.8968C56.5394 40.3274 56.7675 39.2267 56.7159 39.0221C56.6462 38.7454 56.2931 38.628 56.0002 38.7841C55.7457 38.9198 55.1922 39.6467 54.4661 40.7988C54.1603 41.284 53.9338 41.5707 53.9629 41.4359C54.2366 40.164 54.2134 39.2646 53.9016 39.0675C53.463 38.79 52.9319 39.2585 52.1111 40.6468C51.81 41.1561 51.5636 41.5443 51.5636 41.5094C51.5636 41.4745 51.8515 40.7116 52.2034 39.814C53.0513 37.6511 53.0999 37.2852 52.5501 37.2069C52.3392 37.1769 52.2239 37.2958 51.6812 38.1034C50.9869 39.1364 49.5729 41.4578 48.5081 43.3127C48.1259 43.9786 47.8375 44.4351 47.8672 44.3273C48.6243 41.5809 49.5413 38.3868 49.7245 37.8584C49.8552 37.4811 50.1624 36.7754 50.4071 36.2902C51.1761 34.7657 51.3934 34.1859 51.2572 34.0224C51.1916 33.9435 51.0258 33.8922 50.8889 33.9084C50.6884 33.9322 50.5679 34.0806 50.2679 34.673C50.0632 35.0773 49.758 35.7389 49.5897 36.1432C47.8531 40.3141 46.907 42.2836 45.9291 43.7621C45.6 44.2599 45.3116 44.6483 45.2884 44.6251C45.1042 44.4416 45.8636 41.8728 47.0425 38.6915C47.4121 37.6942 47.9645 36.1726 48.27 35.3101C48.9466 33.4003 49.6807 31.6371 50.0802 30.9617C50.5202 30.2182 51.5436 28.718 51.6596 28.6466C51.8535 28.5273 51.7625 28.2009 51.5024 28.0829C51.2683 27.9765 51.2228 27.9925 51.0087 28.2565C50.536 28.8394 48.72 31.5178 48.0207 32.6637C47.0508 34.2528 45.3492 36.8448 45.305 36.8006C45.2852 36.781 45.8032 35.5333 46.4559 34.0282C47.1086 32.5231 48.0877 30.233 48.6318 28.9392C49.8834 25.9627 50.0048 25.7259 51.1115 24.1038C52.9909 21.3493 53.9106 19.5738 53.6317 19.2387C53.3122 18.8552 52.8391 19.2684 52.048 20.6221C51.3906 21.747 50.2749 23.7119 49.7187 24.7246C48.2712 27.3598 46.3505 30.2114 46.5168 29.4783C46.5474 29.3435 46.8737 28.3952 47.2419 27.371C47.6101 26.3468 48.1376 24.8692 48.4141 24.0876C48.6906 23.3059 49.122 22.2033 49.3727 21.6372C50.052 20.1037 51.9122 16.7922 52.6171 15.8616C53.0384 15.3054 53.1246 14.983 52.8965 14.8168C52.643 14.6321 52.5005 14.7288 51.9648 15.4483C51.6981 15.8064 50.9242 16.6949 50.2451 17.4227C49.5659 18.1504 48.4921 19.3854 47.859 20.167C46.7243 21.5676 45.3074 23.0812 45.2161 22.9902C44.9825 22.7574 48.1993 16.5451 49.5667 14.5883C49.9462 14.0453 49.992 13.928 49.9017 13.7307C49.709 13.3091 49.47 13.465 48.5307 14.6247C47.5118 15.8827 44.9655 18.7863 44.4897 19.2328L44.1798 19.5238L44.3206 19.1348C44.8989 17.5389 45.162 16.9113 45.7666 15.6869C46.2896 14.6275 46.5177 14.2639 46.7199 14.1674C46.9313 14.0664 46.9917 13.9621 47.0151 13.6575C47.0313 13.4469 47.1134 13.13 47.1976 12.9533C47.4123 12.5025 47.3472 12.277 47.0027 12.277C46.7377 12.277 46.6631 12.3931 45.5559 14.5313C44.9139 15.7711 44.2243 17.2487 44.0237 17.8147C43.823 18.3807 43.5544 19.1085 43.4268 19.4319L43.1947 20.02L43.2456 17.1286C43.2936 14.3956 43.4531 10.8555 43.5485 10.4054C43.591 10.2047 43.6534 10.1988 46.3728 10.1399C49.1546 10.0797 52.1669 9.87908 53.9244 9.63699C54.5244 9.55436 54.9012 9.54181 54.9771 9.60209C55.2493 9.81782 55.8584 9.35196 55.7498 9.01117C55.716 8.90532 55.6098 8.79819 55.5137 8.7731C55.4176 8.7481 54.6917 8.8076 53.9004 8.90532C50.4811 9.32785 44.4056 9.5621 44.2295 9.27816C44.1928 9.21906 44.0353 9.18936 43.8795 9.2122C43.6248 9.24944 43.596 9.22572 43.596 8.98C43.596 8.59765 43.1452 8.35684 42.9334 8.62598ZM7.83872 8.99451C7.50466 9.1185 6.80705 9.94485 6.80705 10.2165C6.80705 10.3525 6.8403 10.4644 6.88083 10.4652C6.92135 10.4661 7.01372 10.5041 7.08612 10.5498C7.19147 10.6163 7.16845 10.7293 6.96985 11.1197C6.6177 11.8122 5.72502 14.0409 5.72502 14.2276C5.72502 14.539 5.54285 14.371 5.1305 13.6795C4.89944 13.292 4.27432 12.3146 3.74147 11.5076C3.20853 10.7005 2.72348 9.85987 2.66368 9.63944C2.60377 9.41891 2.53915 9.18348 2.51996 9.11605C2.46399 8.91943 2.0059 8.97148 1.88983 9.1875C1.67126 9.59435 1.84625 9.95896 3.39395 12.3217C4.72995 14.3612 5.6179 16.0078 6.54097 18.1578C6.8882 18.9664 7.42872 20.1793 7.74232 20.8531C8.05581 21.527 8.61404 22.8263 8.98281 23.7407C9.35159 24.6551 9.73511 25.5151 9.83496 25.6519C9.9349 25.7888 10.0942 26.0967 10.1892 26.3362C10.2841 26.5757 10.4413 26.8845 10.5385 27.0223C10.6949 27.2443 10.7063 27.3937 10.6379 28.3274C10.5954 28.9074 10.5306 34.3324 10.4939 40.383C10.4223 52.1553 10.381 53.7103 10.1339 53.9088C9.88384 54.1096 9.85571 54.3427 10.0593 54.5262C10.2241 54.6748 10.3814 54.6892 11.2577 54.6363C11.8124 54.6027 13.0853 54.4238 14.0861 54.2388C15.087 54.0536 16.4814 53.8298 17.1847 53.7411C17.888 53.6525 18.8839 53.5175 19.3979 53.441C19.9119 53.3646 21.2841 53.2109 22.4473 53.0995C23.6104 52.988 24.6205 52.8766 24.6917 52.8517C24.7679 52.8251 24.8084 52.6954 24.79 52.5365C24.7593 52.2711 24.7473 52.2663 24.086 52.2663H23.4132L23.4423 49.2462C23.4661 46.7797 23.4469 46.211 23.3375 46.1436C23.2273 46.0757 23.2152 45.6279 23.2691 43.626C23.3051 42.2866 23.3759 40.5513 23.4264 39.7697C23.4769 38.988 23.5433 36.2314 23.5739 33.6438C23.6046 31.0563 23.6811 28.108 23.7438 27.0921L23.8579 25.245L25.3905 23.8919C26.2333 23.1478 27.2549 22.1996 27.6607 21.7849C28.0664 21.3702 29.0845 20.5099 29.9231 19.8732C30.7617 19.2364 31.9973 18.2481 32.669 17.677C33.3406 17.1059 33.9256 16.6386 33.9689 16.6386C34.0122 16.6386 34.0992 16.5423 34.1625 16.4246C34.2602 16.2425 34.2446 16.1842 34.0573 16.033C33.8472 15.8635 33.8238 15.8632 33.5425 16.0265C33.3804 16.1206 32.7763 16.6112 32.2002 17.1168C31.624 17.6224 30.4666 18.5443 29.628 19.1654C28.7188 19.8389 27.5472 20.8328 26.7258 21.6276C25.9682 22.3607 24.9116 23.3543 24.3779 23.8357C23.4551 24.668 22.644 25.5694 22.644 25.7626C22.644 25.8116 22.738 25.9455 22.853 26.0601C23.0405 26.2469 23.0551 26.3355 22.9942 26.9177C22.9568 27.2749 22.8858 30.2134 22.8364 33.4478C22.787 36.6823 22.6802 40.4313 22.5991 41.7789C22.4121 44.8874 22.4001 47.1789 22.5702 47.2873C22.6654 47.348 22.6821 47.9291 22.644 49.865L22.5948 52.3644L21.7095 52.4365C20.2539 52.5552 15.8432 53.1698 13.7994 53.5388C11.776 53.9041 10.8665 53.9765 11.0064 53.7611C11.0502 53.6937 11.1142 50.2644 11.1487 46.1405C11.2185 37.8118 11.325 32.991 11.4377 33.0604C11.4787 33.0856 11.6263 33.0629 11.7659 33.0101C12.0697 32.8949 12.5399 32.1853 13.3267 30.6544C13.6453 30.0345 13.8823 29.6155 13.8536 29.7233C13.8248 29.8311 13.6475 30.4707 13.4596 31.1445C13.2718 31.8183 13.0216 32.7804 12.9039 33.2825C12.6995 34.1537 12.6976 34.2039 12.8622 34.3851C12.957 34.4895 13.1128 34.575 13.2084 34.575C13.5195 34.575 14.0279 33.8356 14.5663 32.6002C15.1489 31.2633 17.6451 26.1308 17.6906 26.1762C17.7064 26.192 17.5697 26.776 17.3867 27.474C17.1668 28.3133 16.8323 29.2245 16.3992 30.1644C15.4472 32.2302 15.0144 33.2593 14.3764 34.9745C13.6209 37.0054 13.0395 38.4 12.2492 40.0783C11.6309 41.3911 11.6026 41.4819 11.7369 41.7214C11.9573 42.1145 12.4072 42.1136 12.8032 41.719C13.1584 41.365 14.1283 39.951 15.0913 38.3829C15.7662 37.2841 16.5669 36.1942 17.241 35.4571L17.6444 35.016L16.9848 36.2902C16.6219 36.991 16.0014 38.1819 15.6059 38.9366C15.2104 39.6913 14.6783 40.838 14.4235 41.4849C14.1687 42.1318 13.723 43.1638 13.433 43.7781C12.8818 44.9457 12.811 45.2541 13.0486 45.4505C13.3906 45.7334 13.7524 45.3481 14.8191 43.565C15.1343 43.0379 15.4082 42.6224 15.4275 42.6418C15.4467 42.661 15.2893 43.1363 15.0774 43.698C14.5734 45.0343 14.4035 45.847 14.5574 46.1837C14.7092 46.5155 15.0308 46.5084 15.3908 46.165L15.6734 45.8955L15.4267 46.3366C14.9537 47.182 14.2719 48.892 14.3322 49.0812C14.3992 49.2919 14.673 49.4077 14.8994 49.3212C14.9833 49.289 15.2623 48.9904 15.5193 48.6573C16.0893 47.9189 16.7271 47.2386 16.9766 47.1026C17.1274 47.0204 17.1068 47.0995 16.8659 47.5267C15.8831 49.2689 15.3522 50.3194 15.0286 51.1622C14.6187 52.2296 14.6252 52.5114 15.0597 52.5114C15.3039 52.5114 15.3894 52.4049 15.9054 51.4577C16.3958 50.5577 17.2952 49.115 17.528 48.8552C17.5667 48.8119 17.3626 49.4514 17.0744 50.2764C16.5046 51.9072 16.4742 52.2692 16.8981 52.3752C17.4143 52.5043 17.9966 51.7857 17.6685 51.4245C17.5181 51.2589 17.5503 51.1215 18.1576 49.3392C18.5152 48.2898 18.8077 47.3006 18.8077 47.1409C18.8077 46.7947 18.5919 46.5871 18.3086 46.6609C18.154 46.7012 18.1177 46.6776 18.161 46.5653C18.3257 46.1375 18.3189 45.9776 18.1287 45.8061C17.8482 45.5531 17.4945 45.6674 16.8404 46.2224C15.8755 47.0409 15.8969 47.0314 16.1494 46.5318C16.2717 46.2896 16.653 45.6243 16.9966 45.0533C17.3402 44.4822 18.0276 43.1714 18.5241 42.1404C19.2798 40.5717 19.4067 40.2413 19.3021 40.1158C19.2333 40.0332 19.0773 39.9657 18.9555 39.9657C18.7754 39.9657 18.4981 40.3289 17.4773 41.9015C16.2385 43.8102 15.4633 44.9449 15.4633 44.8495C15.4633 44.6475 15.9644 43.3562 16.3888 42.465C16.8822 41.4288 19.135 37.3515 19.5109 36.8142C19.6111 36.6711 19.693 36.511 19.693 36.4585C19.693 36.3623 19.1211 36.0842 19.0681 36.1545C19.0524 36.1752 18.7689 36.6332 18.438 37.1723C17.92 38.0162 16.8721 39.395 15.677 40.8048L15.3498 41.1909L15.4945 40.8478C15.9384 39.7959 16.8586 38.0055 18.4874 35.025C19.1798 33.7579 19.2888 33.3324 19.009 32.988C18.7647 32.6874 18.582 32.7952 17.8137 33.6925C17.4678 34.0965 16.8877 34.7521 16.5248 35.1493C15.8383 35.9006 15.1707 36.8589 13.8013 39.0591C13.0032 40.3412 12.7241 40.7062 13.0892 39.9902C13.5114 39.1622 14.5791 36.5975 15.0171 35.3591C15.5556 33.8366 16.065 32.6147 16.161 32.6147C16.1975 32.6147 16.2504 32.7029 16.2787 32.8107C16.3607 33.123 16.877 33.0744 17.1221 32.7314C17.5021 32.1997 18.3235 30.2693 19.8419 26.3392C21.5439 21.9342 22.2536 20.2729 23.1977 18.4838C23.8514 17.2449 24.1664 16.7749 23.8759 17.4717C23.786 17.6873 23.4446 18.5694 23.1172 19.4319C22.7899 20.2944 22.3934 21.2845 22.2362 21.6319C21.9623 22.2372 21.9576 22.2711 22.125 22.4378C22.4972 22.8087 22.6345 22.6263 24.3574 19.4723C25.2695 17.8029 26.031 16.4523 26.0499 16.4712C26.0688 16.49 25.7484 17.3306 25.338 18.3393C24.4731 20.4649 24.3851 20.8508 24.7132 21.0797C24.9054 21.2139 24.9706 21.2169 25.1916 21.1012C25.7104 20.8297 26.5388 19.7714 27.4861 18.1699C27.6651 17.8673 27.8206 17.7167 27.954 17.7167C28.2455 17.7167 29.2887 15.5505 29.1351 15.2643C28.9898 14.9939 28.7252 15.0224 28.4335 15.3399C28.2974 15.4881 27.6667 16.4575 27.0318 17.4942C26.0132 19.1577 25.6933 19.623 25.6933 19.4414C25.6933 19.4133 26.221 18.0765 26.8659 16.4708C27.5107 14.8649 28.0691 13.3853 28.1067 13.1825C28.1861 12.7526 28.0458 12.522 27.7045 12.522C27.4098 12.522 27.2914 12.6949 26.0031 15.004C24.9852 16.8284 24.9391 16.893 24.9833 16.4341C25.0372 15.8751 24.9079 15.6584 24.5202 15.6584C23.6122 15.6584 21.6747 19.3728 19.3472 25.5755C18.6416 27.456 18.5732 27.5942 18.4021 27.4877C18.3005 27.4245 18.2175 27.3208 18.2175 27.2572C18.2175 27.0354 18.9165 24.7241 19.2597 23.8111C19.6707 22.7176 19.6778 22.2896 19.2856 22.2443C19.0928 22.2221 18.9745 22.286 18.8275 22.4916C18.4705 22.9912 15.5911 28.6069 14.8181 30.3114C14.0111 32.0908 13.9322 32.2403 14.0423 31.7814C14.5244 29.7715 16.2498 24.3275 17.047 22.301C17.1473 22.046 17.2041 21.7721 17.1734 21.6921C17.1076 21.5214 16.7884 21.4011 16.6413 21.4917C16.4273 21.6235 15.1115 24.4112 14.3753 26.2927C13.3061 29.0258 12.5912 30.625 12.0218 31.5578L11.829 31.8737L11.8746 31.5336C12.363 27.8807 13.0724 24.1049 13.8444 21.0492C14.3047 19.2267 14.5047 18.2488 14.5146 17.7716C14.528 17.1282 14.5143 17.0831 14.2628 16.9404C14.0162 16.8006 13.9768 16.8044 13.7218 16.9923C13.2782 17.3193 11.5488 19.4644 11.0634 20.2895C10.8178 20.7073 10.6056 21.0492 10.592 21.0492C10.5783 21.0492 10.7573 20.1339 10.9899 19.0154C11.4538 16.7839 11.974 14.7897 12.4283 13.5021C12.9784 11.9427 12.987 11.321 12.4601 11.1893C12.0772 11.0936 11.797 11.4136 10.1766 13.7962C9.38837 14.9552 8.55669 16.146 8.32828 16.4425C7.86675 17.0417 7.49561 17.4057 7.49561 17.2591C7.49561 16.9871 8.75145 13.2714 9.35463 11.7588C9.61678 11.1015 9.62229 10.6992 9.37106 10.5652C9.2664 10.5094 9.13459 10.4637 9.07813 10.4637C8.9534 10.4637 7.5689 12.1067 7.18291 12.7127C7.03034 12.9524 6.90542 13.1215 6.90542 13.0884C6.90542 12.9687 7.32219 12.0565 7.89951 10.9126C8.34589 10.0283 8.48203 9.66168 8.4596 9.40401C8.42704 9.02911 8.18162 8.86719 7.83872 8.99451ZM7.69756 14.2068C7.37561 15.0972 7.06044 16.0307 6.9971 16.2812C6.93385 16.5316 6.85259 16.7366 6.81649 16.7366C6.78039 16.7366 6.60688 16.4457 6.4309 16.09L6.11092 15.4435L6.49326 15.0302C6.70357 14.8029 7.00093 14.3992 7.15409 14.133C7.51706 13.5025 8.20493 12.5099 8.2487 12.5536C8.26749 12.5724 8.01951 13.3163 7.69756 14.2068ZM11.5689 13.7505C10.7641 16.2688 9.75666 20.8974 9.72439 22.2253C9.70924 22.8451 9.71583 22.8632 9.96795 22.8923C10.2898 22.9294 10.4383 22.7503 11.3336 21.2452C11.9537 20.2026 13.6598 17.9454 13.7556 18.0407C13.8084 18.0934 13.4776 19.5916 13.1025 21.0001C12.6295 22.7755 12.2266 24.6806 11.7655 27.322L11.3291 29.8213L11.3729 28.5962C11.3969 27.9223 11.4433 27.3024 11.4759 27.2185C11.5099 27.1306 11.4354 26.9502 11.2997 26.793C11.032 26.4825 10.545 25.3621 10.545 25.0566C10.545 24.9401 10.4661 24.8328 10.36 24.8051C10.2296 24.7711 10.0514 24.4343 9.75557 23.6627C9.52481 23.0608 8.97435 21.7744 8.53239 20.8041C8.09033 19.8338 7.67366 18.9032 7.60637 18.7361C7.48637 18.4382 7.49581 18.4207 8.1103 17.805C8.47534 17.4393 9.38837 16.2286 10.2996 14.902C11.1594 13.6502 11.8739 12.6374 11.8876 12.651C11.9012 12.6645 11.7578 13.1594 11.5689 13.7505ZM18.2881 28.3307C17.9269 29.2686 17.3913 30.55 17.3696 30.5283C17.3083 30.4672 17.7508 28.9314 17.9311 28.5793C18.1058 28.2381 18.4037 28.0307 18.2881 28.3307ZM19.3979 32.6637C19.3979 32.7446 19.4422 32.8107 19.4963 32.8107C19.5504 32.8107 19.5946 32.7446 19.5946 32.6637C19.5946 32.5829 19.5504 32.5167 19.4963 32.5167C19.4422 32.5167 19.3979 32.5829 19.3979 32.6637ZM19.4057 55.7049C19.4104 55.8191 19.4337 55.8424 19.4651 55.7642C19.4935 55.6935 19.49 55.6089 19.4573 55.5764C19.4247 55.5438 19.4014 55.6016 19.4057 55.7049Z" fill="black"/>
</svg>
