<svg width="153" height="45" viewBox="0 0 153 45" fill="none" xmlns="http://www.w3.org/2000/svg">
<path fill-rule="evenodd" clip-rule="evenodd" d="M126.27 0.0752402C122.866 0.184322 122.222 0.25758 121.41 0.628296C120.233 1.16586 119.629 1.76279 119.629 2.38769C119.629 2.65516 119.517 2.91116 119.381 2.95644C119.071 3.06009 118.617 8.93279 118.842 9.93163C118.927 10.308 119.183 10.8025 119.411 11.0305C119.777 11.3964 119.919 11.4197 120.632 11.2295C121.242 11.0667 121.487 11.0742 121.642 11.2607C121.795 11.4449 122.802 11.4859 125.618 11.4227C127.693 11.3765 129.582 11.2992 129.817 11.2513C130.324 11.148 130.603 10.5115 130.906 8.76534C131.028 8.05752 131.433 6.63886 131.804 5.61264C132.921 2.52616 132.913 1.48565 131.762 0.444146C131.231 -0.0368602 130.756 -0.068659 126.27 0.0752402ZM116.742 1.46432C116.559 1.66679 116.409 1.91997 116.409 2.02704C116.409 2.14518 115.045 2.21803 112.937 2.21239C110.383 2.20555 108.934 2.30155 107.453 2.57607C104.649 3.09551 104.495 3.16938 104.572 3.96555C104.613 4.38819 104.779 4.68142 105.043 4.79755C105.428 4.96661 105.442 5.08595 105.299 6.91075C104.877 12.3061 103.621 22.8268 103.371 23.0599C103.292 23.1341 102.275 23.3424 101.113 23.523C99.9509 23.7035 98.1563 24.0666 97.1252 24.33C95.5685 24.7277 95.232 24.7611 95.142 24.5266C95.0825 24.3713 95.1283 23.2726 95.2441 22.0852C95.4355 20.1205 95.5009 19.8923 95.9694 19.5509C96.6255 19.073 96.6257 18.5064 95.9698 18.0767C95.5286 17.7875 95.0969 17.7577 92.9346 17.8674C90.1323 18.0095 81.9818 19.2162 79.8702 19.8017C78.852 20.0841 78.3954 20.1265 78.053 19.9704C77.4153 19.6799 76.5871 19.9353 76.3287 20.5025C76.2007 20.7832 75.8746 21.027 75.5359 21.0946C74.8726 21.2274 74.905 21.1292 74.3398 24.7273C73.7097 28.7396 73.4861 32.2543 73.622 36.0144C73.69 37.8962 73.7548 40.3415 73.7659 41.4484C73.7773 42.5917 73.8991 43.7351 74.0476 44.0957C74.3978 44.9456 75.0458 45.1392 75.6478 44.5737C76.5649 43.7121 82.5326 42.151 88.3333 41.2554C93.1305 40.5145 94.4716 40.3849 94.4716 40.6625C94.4716 41.2447 95.0237 41.3419 97.5911 41.2119C99.721 41.104 100.237 41.0159 100.545 40.7086C101.072 40.1813 102.331 39.9705 106.245 39.7544C108.716 39.6179 110.03 39.4505 110.975 39.151C112.807 38.5704 112.786 38.5625 112.786 39.824C112.786 40.5488 112.893 41.0229 113.102 41.2328C113.482 41.6128 114.072 41.6436 114.341 41.2974C114.449 41.1592 114.642 38.6911 114.77 35.8132C115.019 30.2265 115.224 28.3618 116.318 21.7404C117.117 16.8974 117.524 13.1739 117.816 8.03961C117.928 6.04716 118.112 3.79388 118.224 3.03232C118.372 2.02623 118.365 1.5722 118.198 1.37194C117.875 0.982712 117.135 1.02981 116.742 1.46432ZM130.729 2.70628C130.691 3.0937 130.451 3.92429 130.196 4.55201C129.941 5.17994 129.576 6.3573 129.384 7.16836C128.763 9.79699 129.162 9.54904 125.557 9.54904C123.637 9.54904 122.257 9.63598 122.001 9.77324C121.666 9.95276 121.546 9.93264 121.401 9.67261C121.301 9.4939 121.088 9.34778 120.927 9.34778C120.75 9.34778 120.635 9.14995 120.635 8.84464C120.635 8.26763 120.898 8.21893 121.715 8.64459C122.384 8.99377 123.28 9.03724 123.582 8.73556C123.728 8.58985 123.871 8.62084 124.049 8.83619C124.465 9.33732 125.307 9.20087 126.171 8.49244C126.807 7.96997 127.149 7.83835 127.871 7.83835C128.664 7.83835 128.809 7.76831 129.05 7.27C129.407 6.53279 129.206 5.77043 128.579 5.48464C128.306 5.36006 128.082 5.10769 128.082 4.92414C128.082 4.74039 127.878 4.39906 127.629 4.1654C127.38 3.93174 127.059 3.59826 126.917 3.42457C126.774 3.25088 126.479 3.1088 126.262 3.1088C126.045 3.1088 125.687 2.92766 125.465 2.70628C125.244 2.4849 124.904 2.29733 124.711 2.28968C124.409 2.2776 124.416 2.25023 124.761 2.09969C124.982 2.00309 126.431 1.9415 127.981 1.96304L130.799 2.00188L130.729 2.70628ZM123.151 2.43559C122.819 2.60988 122.21 3.07539 121.797 3.47026C121.181 4.05974 121.061 4.11368 121.127 3.77174C121.326 2.73727 122.067 2.13411 123.151 2.12424L123.755 2.11861L123.151 2.43559ZM35.095 3.9734C34.4765 4.30044 33.9231 4.86839 33.2018 5.91574L32.1824 7.39579L32.156 10.6054C32.1305 13.7251 32.117 13.8215 31.674 14.0467C30.6836 14.5505 30.9109 15.9893 31.9807 15.9893C32.7123 15.9893 32.7526 16.3006 32.1158 17.0338C30.9368 18.3907 30.8233 18.9753 31.5893 19.7413L32.1029 20.2551L32.0125 23.5059L31.9222 26.7566L31.3478 26.8838C31.032 26.9536 28.3708 27.0216 25.4338 27.0347C21.5427 27.052 19.7956 27.1359 18.9938 27.3438C18.3888 27.5008 17.8686 27.6043 17.838 27.5735C17.8074 27.5429 17.6975 26.3315 17.5938 24.8815C16.8796 14.8876 16.7508 12.4558 16.8478 10.7916C16.945 9.12137 16.9144 8.87221 16.5696 8.52746C16.0749 8.03277 15.6815 8.03739 15.1751 8.54376C14.8396 8.87926 14.706 8.90643 14.3832 8.70497C14.0688 8.50854 13.2928 8.58864 10.3087 9.1256C6.34172 9.83926 3.92039 10.5082 2.52508 11.2764C2.00986 11.56 1.46968 11.7148 1.2169 11.6516C0.98002 11.5922 0.605078 11.6765 0.383694 11.839C0.0232417 12.1034 -0.016406 12.3516 0.00452481 14.2128C0.0174053 15.3559 0.218864 17.3327 0.452122 18.6056C1.25776 22.9993 1.70596 27.1762 1.90963 32.1905C2.02213 34.9578 2.18374 38.4446 2.26887 39.9389C2.39023 42.0717 2.36648 42.7244 2.15818 42.9737C1.82752 43.37 1.81645 44.0082 2.13464 44.3264C2.61262 44.8043 6.35843 44.4882 19.7044 42.8433C30.4296 41.5216 29.2642 41.5965 29.2642 42.2297C29.2642 42.598 29.4133 42.833 29.7419 42.9828C30.4152 43.2897 31.0755 42.9071 31.0755 42.2103C31.0755 41.9177 31.1856 41.3737 31.32 41.0018C31.512 40.4709 31.512 40.241 31.32 39.9335C30.8718 39.2156 31.0878 30.8697 31.5975 29.222C31.9322 28.1398 32.0566 29.4679 32.1162 34.7566C32.185 40.878 32.2426 41.2978 33.0748 41.7432C33.7826 42.122 37.7452 42.3412 40.3335 42.1447C43.9952 41.8668 44.4402 41.4456 43.8718 38.7954C43.5985 37.5206 43.4955 35.1967 43.3301 26.5553C43.1272 15.9673 43.1224 15.8856 42.6854 15.4861C42.1726 15.017 42.1408 14.6117 42.1388 8.47976C42.1374 4.52303 42.1336 4.48822 41.6469 4.00178C41.178 3.53285 41.0432 3.51131 38.5629 3.51131C36.2452 3.51131 35.8759 3.56062 35.095 3.9734ZM115.866 4.22658C116.432 4.44656 116.222 5.32645 115.503 5.74587C114.886 6.10572 114.257 6.27317 114.791 5.93526C115.019 5.79096 115.041 5.62089 114.888 5.18356C114.633 4.45199 113.895 4.35438 112.809 4.90824C111.848 5.39851 111.78 5.40756 111.78 5.0453C111.78 4.89295 111.644 4.65546 111.478 4.5176C110.807 3.96052 111.171 3.85325 113.34 3.96937C114.53 4.03317 115.666 4.1487 115.866 4.22658ZM108.352 4.46729C108.345 4.64822 107.349 5.80343 107.292 5.69798C107.269 5.65752 107.138 5.42205 107 5.17451C106.657 4.56087 106.661 4.55403 107.402 4.46185C107.762 4.41737 108.124 4.36626 108.207 4.34854C108.291 4.33083 108.356 4.38437 108.352 4.46729ZM124.459 4.40993C124.459 4.46125 124.255 4.61199 124.006 4.74482C123.596 4.96359 123.579 4.95473 123.829 4.65124C124.087 4.33949 124.459 4.19679 124.459 4.40993ZM40.214 9.24715C40.2261 11.3503 40.2806 13.2039 40.3349 13.3663C40.4394 13.678 39.9616 13.7557 36.0731 14.0598C34.1104 14.2134 34.2346 14.305 33.9822 12.5176C33.8599 11.6502 33.8848 11.5616 34.2509 11.5616C34.523 11.5616 34.6995 11.7413 34.7931 12.1139C34.9912 12.903 35.2731 13.1717 35.9033 13.1717C36.407 13.1717 37.3998 12.5848 37.7643 12.0716C38.0211 11.7101 37.9305 10.95 37.6164 10.8294C37.1476 10.6495 37.2376 10.3831 38.4198 8.45118C39.4138 6.82663 39.4957 6.60826 39.2498 6.23735C38.939 5.76842 38.4534 5.62069 37.9569 5.84449C37.7695 5.92882 37.2768 6.01013 36.8618 6.02502C36.3289 6.04414 35.9298 6.22205 35.5034 6.6306C35.0908 7.02587 34.8994 7.11382 34.8994 6.90814C34.8994 6.53018 35.2566 6.08298 35.9057 5.64847C36.305 5.381 36.7988 5.32303 38.3004 5.36731L40.1918 5.42326L40.214 9.24715ZM47.6963 6.78175C46.6909 9.14471 46.7494 8.01747 46.8635 22.7847C46.93 31.3708 46.8923 37.4751 46.7635 39.0621C46.5782 41.3451 46.5916 41.6394 46.898 41.9777C47.0851 42.1846 47.3625 42.354 47.5142 42.354C47.6658 42.354 47.871 42.5676 47.9703 42.8286C48.16 43.3279 48.6338 43.3752 56.1321 43.6439C56.7962 43.6676 57.4912 43.7564 57.6763 43.8411C58.0959 44.0333 58.9314 43.2615 58.7671 42.8334C58.7049 42.6712 58.7871 41.2519 58.9499 39.6791C59.3323 35.9814 59.4578 35.2341 59.6627 35.4416C59.7549 35.5352 60.606 36.8194 61.5535 38.2953C63.1948 40.8512 63.522 41.549 63.0793 41.549C62.7567 41.549 62.6045 42.5321 62.8764 42.8598C63.2497 43.3098 63.9537 43.2204 64.4843 42.6559C64.7443 42.3792 65.1041 42.1528 65.284 42.1528C65.7427 42.1528 66.0943 41.7497 66.0943 41.224C66.0943 40.4039 68.2651 38.7875 70.522 37.9274C71.9837 37.3701 72.3659 36.4755 71.4397 35.7796C70.6661 35.1985 67.0893 30.2913 66.1414 28.5105C65.6691 27.6236 65.1424 26.8439 64.9711 26.7781C64.7282 26.6849 64.9506 26.2921 65.9798 24.9968C66.7061 24.0829 68.026 22.2484 68.9125 20.9201C69.7993 19.5918 70.66 18.3281 70.8253 18.1119C71.4512 17.293 70.9682 16.4608 69.9768 16.6504C69.5107 16.7394 69.1983 16.5377 67.8738 15.2917C67.0185 14.4869 66.1376 13.7811 65.9166 13.7233C65.2076 13.538 63.4427 14.5322 62.2704 15.7778C61.1939 16.9217 59.6186 19.3895 57.7948 22.7896L56.9001 24.4578L56.7676 21.3991C56.5758 16.9674 56.6072 11.4447 56.832 10.0715C56.991 9.10084 57.1466 8.78305 57.6805 8.33727C58.2795 7.83734 58.3141 7.74698 58.0929 7.26155C57.9023 6.84333 57.7099 6.73143 57.1812 6.73143C56.8125 6.73143 56.3351 6.86447 56.1202 7.02688C55.6078 7.4145 54.911 7.40907 53.7355 7.00857C53.0426 6.77249 52.3295 6.70769 51.1654 6.77491C49.7584 6.85642 49.525 6.8214 49.3231 6.49797C49.1889 6.28283 48.8576 6.12766 48.5332 6.12766C48.0942 6.12766 47.9149 6.26774 47.6963 6.78175ZM116.006 8.2459C116.006 8.41455 115.791 8.63473 115.527 8.73475C114.982 8.94225 112.48 10.5159 111.277 11.4081C110.676 11.8534 110.775 11.7124 111.664 10.8538C112.861 9.69777 115.285 7.97923 115.755 7.95307C115.893 7.94522 116.006 8.07704 116.006 8.2459ZM53.717 8.92555C54.5572 9.18778 54.9195 9.40112 54.9078 9.62693C54.8986 9.80544 54.8758 10.3434 54.8575 10.8224C54.8249 11.6677 54.8064 11.6906 54.2264 11.6055C53.6328 11.5183 53.6308 11.5135 53.9375 10.9206C54.2163 10.3814 54.2153 10.276 53.9267 9.83563C53.6031 9.34155 52.859 9.18416 52.4994 9.53354C52.3943 9.63578 52.0365 9.74889 51.7044 9.78512C51.2409 9.83563 50.9503 10.0759 50.4534 10.8196C50.0971 11.3523 49.753 12.1221 49.6884 12.5303C49.6238 12.9384 49.3738 13.6799 49.1331 14.178L48.6954 15.0836L48.6217 14.3792C48.5813 13.9918 48.6101 12.8388 48.6857 11.8168C48.789 10.4209 48.9218 9.83342 49.2199 9.45445C49.9545 8.52061 51.7446 8.3101 53.717 8.92555ZM15.4521 21.0207C15.6225 23.4006 15.8226 26.4164 15.8964 27.7226L16.0307 30.0974L15.5446 29.9755C15.1872 29.8857 14.8539 30.0163 14.2848 30.4686C13.8591 30.8069 13.4721 31.0836 13.425 31.0836C13.3777 31.0836 13.7071 30.5589 14.157 29.9177C15.0992 28.5743 15.2415 27.6177 14.5536 27.2496C13.8663 26.882 13.2475 27.1913 12.1287 28.4624C11.5475 29.1226 11.0361 29.6269 10.9922 29.583C10.9483 29.5392 11.6 28.5719 12.4404 27.4336C13.2809 26.2953 13.9686 25.2304 13.9686 25.0672C13.9686 24.904 13.7794 24.3795 13.5482 23.9019C13.1974 23.1774 13.0319 23.0333 12.5499 23.0333C12.1846 23.0333 11.7741 23.2368 11.4329 23.5868L10.8936 24.1402L11.3595 23.3352C11.6159 22.8924 11.993 22.2864 12.1981 21.9884C12.403 21.6903 12.7087 21.1157 12.8778 20.7114C13.1547 20.0489 13.1537 19.9287 12.8677 19.4922C12.6932 19.2259 12.4167 19.0082 12.2533 19.0082C11.8006 19.0082 11.8687 18.8651 13.0629 17.3061C14.2638 15.7381 14.3677 15.3821 13.7925 14.8069C13.585 14.5994 13.4151 14.1762 13.4151 13.8666C13.4151 13.3651 12.9381 12.7692 12.5368 12.7692C12.1852 12.7692 10.9815 14.0109 8.68296 16.745C7.32829 18.3561 6.01971 19.9092 5.77458 20.1964C5.01906 21.0821 5.265 20.3051 6.35742 18.3545C9.94826 11.9426 9.77015 12.3546 9.25654 11.6522C8.98524 11.2811 9.05186 11.2477 10.7157 10.9218C11.6746 10.734 12.7433 10.6284 13.0907 10.6868C13.4612 10.7489 13.9605 10.6678 14.2982 10.4905L14.8742 10.1882L15.0081 13.441C15.0817 15.2299 15.2814 18.6409 15.4521 21.0207ZM115.801 11.1088C115.799 11.1917 115.665 12.5277 115.505 14.0773C115.344 15.627 115.21 16.9543 115.207 17.027C115.192 17.3578 114.346 16.8891 114.182 16.4598C113.923 15.778 113.452 15.6681 112.404 16.0448C111.903 16.2254 111.474 16.3544 111.452 16.3318C111.429 16.3095 112.039 15.7649 112.808 15.1221C113.935 14.1796 114.193 13.8584 114.14 13.4631C114.104 13.1936 113.913 12.8549 113.715 12.7102C113.386 12.4701 113.448 12.3836 114.429 11.7152C115.527 10.9669 115.808 10.8425 115.801 11.1088ZM7.35003 12.0404C7.03043 12.3805 6.61 12.547 5.89674 12.6154C4.59964 12.7402 3.9697 13.3357 2.93061 15.4197C2.07225 17.1415 1.8885 17.1234 1.89957 15.3187C1.90943 13.6929 2.72875 12.9714 5.61639 12.0458C6.39123 11.7975 7.19949 11.587 7.41242 11.5779C7.77569 11.5626 7.77186 11.5914 7.35003 12.0404ZM142.135 13.0723C141.969 13.2377 137.336 13.9679 136.422 13.9725C135.22 13.9787 134.961 14.2732 134.736 15.8887C134.317 18.8914 133.415 32.1348 133.269 37.4232L133.214 39.4358L133.881 39.4998C135.002 39.6075 135.124 39.3499 135.137 36.8452C135.147 34.9612 135.432 32.2479 135.505 33.3407C135.535 33.7911 136.251 34.1653 136.859 34.0489C137.123 33.9984 137.34 33.996 137.34 34.0437C137.34 34.0916 137.068 34.5255 136.736 35.0081C136.404 35.4907 136.132 36.0667 136.132 36.2879C136.132 36.7887 136.646 37.3226 137.128 37.3226C137.328 37.3226 137.604 37.4584 137.742 37.6245C138.103 38.06 138.677 37.9956 139.039 37.479C139.431 36.9187 139.438 36.3272 139.058 35.7846C138.787 35.3984 138.818 35.3016 139.433 34.5825C141.295 32.4055 141.616 31.3247 140.577 30.7286L139.991 30.3923L140.783 29.3985C141.218 28.8519 141.627 28.1921 141.692 27.9327C141.772 27.6173 141.957 27.461 142.252 27.461C142.495 27.461 142.791 27.3626 142.912 27.2422C143.336 26.8175 143.374 27.4105 142.956 27.9418C142.681 28.2914 142.563 28.6903 142.607 29.1226C142.653 29.577 142.128 31.1826 140.88 34.4044C139.894 36.9503 139 39.1466 138.893 39.2849C138.762 39.4547 138.081 39.5364 136.799 39.5364C135.753 39.5364 134.725 39.629 134.513 39.7423C133.935 40.0514 133.664 40.6711 133.907 41.125C134.093 41.4729 134.294 41.4967 136.222 41.3983L138.334 41.2906L138.536 41.8223C138.689 42.2252 138.877 42.354 139.311 42.354C139.76 42.354 140.001 42.1753 140.423 41.5309C140.736 41.0531 140.962 40.4256 140.962 40.0349C140.962 39.6648 141.392 38.2466 141.918 36.8832L142.874 34.4044L142.921 35.6119C143.042 38.7141 143.175 39.3336 143.881 40.0816L144.55 40.7907L145.523 40.4151C146.303 40.1142 146.966 40.0474 148.86 40.0792C150.946 40.114 151.246 40.0766 151.416 39.7598C151.838 38.9711 152.035 35.5757 152.202 26.1997C152.361 17.3524 152.412 16.3471 152.724 16.0024C153.185 15.4928 153.052 14.7485 152.447 14.4477C152.053 14.252 151.82 14.2611 151.265 14.4929C150.433 14.8405 144.588 14.9051 143.968 14.5734C143.754 14.4587 143.579 14.1983 143.579 13.9942C143.579 13.7903 143.465 13.5329 143.327 13.4222C142.99 13.1524 142.267 12.9402 142.135 13.0723ZM129.795 13.4935C128.662 13.9083 125.508 14.5197 123.21 14.7701C121.266 14.9818 121.254 14.9804 120.754 14.4797C120.164 13.89 119.612 13.837 119.182 14.3289C118.651 14.9367 118.376 19.079 118.274 28.0185C118.172 37.0483 118.178 37.1213 119.11 37.1213C120.005 37.1213 120.031 36.9466 120.032 30.8924L120.033 25.1465L120.719 25.1322C121.327 25.1193 121.42 25.1882 121.535 25.736C121.696 26.5012 121.694 26.948 121.527 27.9166C121.445 28.3868 121.485 28.7818 121.631 28.9581C121.818 29.1831 121.739 29.419 121.251 30.0924C120.528 31.09 120.469 31.7492 121.063 32.1656L121.491 32.4652L121.063 33.009C120.828 33.3083 120.635 33.7078 120.635 33.8972C120.635 34.2756 121.239 34.9075 121.6 34.9075C121.726 34.9075 121.925 35.0886 122.044 35.31C122.309 35.8043 123.178 35.8425 123.826 35.3883C124.263 35.0826 124.307 35.0896 124.604 35.5133C124.777 35.7602 124.928 36.3139 124.94 36.7434C124.961 37.4762 124.925 37.5259 124.358 37.5504C118.784 37.7935 118.463 37.8811 118.981 39.0176C119.208 39.5145 119.288 39.5364 120.882 39.5356C124.275 39.5342 128.949 39.1393 129.449 38.8121C130.351 38.221 130.534 37.3302 130.712 32.6937C130.802 30.3138 131.018 27.3251 131.191 26.0522C132.677 15.1148 132.757 14.062 132.141 13.5048C131.697 13.1024 130.875 13.0986 129.795 13.4935ZM55.2598 26.9981C55.3792 27.142 55.6696 27.2609 55.905 27.2625C56.8117 27.2684 57.239 27.4986 57.239 27.981C57.239 28.4226 57.1691 28.4514 56.1983 28.4105C55.0718 28.363 54.2201 27.8212 54.2201 27.1518C54.2201 26.9518 54.078 26.6312 53.9043 26.4394C53.6163 26.121 53.6266 26.0161 54.0209 25.2429C54.5385 24.2284 54.4282 23.4958 53.7313 23.3207L53.2484 23.1995L53.7323 22.1604C54.26 21.0274 54.3362 20.5126 54.007 20.3091C53.8832 20.2326 53.849 19.9267 53.9255 19.5793C54.0195 19.1514 53.9561 18.8697 53.7029 18.5901C53.4191 18.2764 53.3929 18.1101 53.5707 17.7483C53.9927 16.8895 54.0376 16.4393 53.7313 16.133C53.4638 15.8655 53.5026 15.6997 54.0766 14.6527L54.7233 13.4736L54.8831 20.105C54.9845 24.3203 55.1217 26.8318 55.2598 26.9981ZM130.678 15.7377C130.667 16.042 130.597 16.5069 130.524 16.7708C130.402 17.2049 130.363 17.2192 130.116 16.9217C129.777 16.5132 129.163 16.5039 128.411 16.8962C128.094 17.0616 127.777 17.196 127.707 17.1952C127.583 17.1938 127.029 16.1424 127.128 16.097C127.197 16.0652 130.366 15.2448 130.547 15.2118C130.63 15.1965 130.689 15.4334 130.678 15.7377ZM141.763 16.0396C141.761 16.5101 141.671 17.4836 141.564 18.2031C141.108 21.2488 141.11 21.7603 141.578 22.1961C141.816 22.4183 141.947 22.7042 141.868 22.8318C141.769 22.992 141.605 22.9345 141.336 22.6459C141.122 22.4162 140.86 22.2283 140.753 22.2283C140.647 22.2283 140.56 22.0316 140.56 21.7913C140.56 21.1926 139.995 20.6182 139.406 20.6182C138.928 20.6182 138.932 20.6017 139.646 19.7683C140.939 18.2577 140.839 17.2975 139.389 17.2975C138.939 17.2975 138.457 17.1844 138.317 17.0459C137.893 16.6245 137.394 16.7615 136.853 17.4484C136.57 17.8081 136.337 18.0294 136.335 17.9401C136.333 17.7726 136.763 15.9973 136.81 15.9792C137.076 15.8768 140.815 15.2193 141.214 15.2046C141.734 15.1855 141.767 15.2348 141.763 16.0396ZM66.9438 16.939C67.5834 17.572 68.1069 18.2575 68.1069 18.4623C68.1069 18.6672 67.5891 19.5942 66.9559 20.5222C65.8309 22.1719 65.7969 22.2009 65.4422 21.8203C65.0919 21.4442 65.0947 21.4075 65.5215 20.7565C65.7647 20.3854 66.2193 19.9351 66.532 19.7556C67.1823 19.3825 67.2785 18.7332 66.7675 18.1687C66.2265 17.571 65.6085 17.7215 64.7678 18.6559C64.2198 19.2652 63.7958 19.5403 63.2942 19.6119C62.7484 19.69 62.4407 19.9162 61.9257 20.6182C61.5604 21.1163 61.0355 21.7513 60.7596 22.0292C60.4837 22.3072 60.2578 22.6356 60.2578 22.7592C60.2578 22.883 60.122 23.0967 59.956 23.2346C59.4609 23.6455 59.6003 23.2849 60.6851 21.3502C62.5612 18.0043 64.4279 15.7957 65.3841 15.7902C65.6022 15.789 66.3042 16.3059 66.9438 16.939ZM125.667 16.4725C125.667 16.517 125.338 16.747 124.937 16.9839C124.234 17.3987 124.192 17.4013 123.808 17.0541C123.413 16.6979 123.415 16.6923 123.984 16.5665C124.671 16.4147 125.667 16.3592 125.667 16.4725ZM122.346 17.0453C122.014 17.287 121.448 17.7732 121.088 18.1256L120.434 18.7666V18.2142C120.434 17.3373 121.068 16.9193 122.849 16.6226C122.904 16.6134 122.678 16.8036 122.346 17.0453ZM150.421 20.7138V24.8346L149.767 24.7134C149.407 24.6466 148.981 24.4687 148.82 24.3177C148.566 24.0796 148.611 23.9563 149.157 23.3873C149.952 22.5601 149.883 21.7569 148.991 21.446C148.671 21.3343 148.409 21.1519 148.409 21.0407C148.409 20.9294 148.771 20.5474 149.214 20.1915C149.725 19.7808 150.019 19.3785 150.019 19.0895C150.019 18.4517 149.458 17.9473 148.904 18.0864C148.546 18.1764 148.426 18.0981 148.329 17.7119C148.063 16.65 146.604 16.8088 144.662 18.1107L143.325 19.0077L143.449 18.2532C143.518 17.8382 143.575 17.3454 143.576 17.158C143.579 16.75 144.153 16.679 147.855 16.6283L150.421 16.5931V20.7138ZM41.3074 17.4778C41.3634 17.7698 41.2982 17.8278 41.0299 17.7247C40.4702 17.51 39.9835 17.7684 39.5128 18.5302C39.2009 19.0349 39.0125 19.1766 38.8587 19.0228C38.4381 18.6022 37.5703 18.7848 37.0498 19.4032C36.7737 19.7313 36.5064 20.1161 36.4557 20.2586C36.4048 20.4011 36.2989 20.458 36.2202 20.3854C36.1415 20.3127 36.2255 19.9663 36.4068 19.6159C36.8574 18.7443 36.6503 17.8437 35.9592 17.6702C35.1715 17.4726 34.8255 17.8233 34.5224 19.1277C34.1531 20.7176 33.8488 21.3927 33.9867 20.3163C34.0434 19.8736 34.0909 19.182 34.0921 18.7797C34.0937 18.2253 34.2147 17.9693 34.5917 17.7223C35.2999 17.2582 36.9015 17.0314 39.224 17.0662C41.0245 17.093 41.2418 17.1361 41.3074 17.4778ZM49.0283 18.1194C48.9955 18.4422 49.0977 18.8826 49.2557 19.0979C49.4726 19.3938 49.4934 19.631 49.341 20.068C49.2301 20.3862 49.1897 21.0215 49.2513 21.4802C49.3128 21.9387 49.2613 22.7548 49.1369 23.2935C48.9655 24.0368 48.9687 24.3658 49.1504 24.6568C49.4567 25.1475 49.4332 26.7531 49.1062 27.659C48.8803 28.2847 48.8387 27.9619 48.7189 24.6581C48.5134 18.9822 48.54 17.3496 48.8365 17.4486C48.9812 17.4969 49.0627 17.7819 49.0283 18.1194ZM106.601 19.6194C106.542 20.0561 106.594 20.4222 106.725 20.5033C107.096 20.7323 106.97 21.0797 106.211 21.9264L105.488 22.7314L105.624 21.3226C105.88 18.6515 105.947 18.4032 106.346 18.6523C106.616 18.8214 106.677 19.0518 106.601 19.6194ZM41.3396 21.4303C41.3396 23.1331 41.3161 23.2362 40.9697 23.0508C40.7662 22.9417 40.404 22.9039 40.1647 22.9665C39.8131 23.0585 39.7296 22.9926 39.7296 22.6233C39.7296 22.2053 41.0379 19.6119 41.2489 19.6119C41.2988 19.6119 41.3396 20.4302 41.3396 21.4303ZM114.5 21.3846C114.379 21.6992 114.353 21.6974 114.166 21.3625C114.02 21.1028 114.038 20.9078 114.229 20.677C114.473 20.3823 114.503 20.3843 114.564 20.6993C114.601 20.8889 114.572 21.1974 114.5 21.3846ZM129.968 21.2723C129.896 21.7428 129.812 22.1574 129.782 22.1937C129.752 22.2301 129.485 22.1329 129.189 21.9779L128.651 21.6959L129.189 21.0565C129.918 20.1909 130.125 20.2485 129.968 21.2723ZM81.5835 21.8074C80.9435 22.3452 80.858 22.3671 80.5333 22.0769C80.1093 21.6982 80.1644 21.6249 81.0274 21.4204C82.1992 21.1431 82.2949 21.2097 81.5835 21.8074ZM77.4332 22.178C77.4837 22.2609 77.3579 22.6459 77.1534 23.0333C76.3021 24.6464 76.3442 24.5947 76.4561 23.8886C76.6887 22.4209 76.8193 22.027 77.0737 22.027C77.2208 22.027 77.3825 22.095 77.4332 22.178ZM91.2954 23.3855C91.5574 23.7045 92.1499 23.7077 92.6539 23.3932C92.8688 23.2589 93.0977 23.2024 93.1627 23.2674C93.2277 23.3324 93.1735 24.7836 93.0421 26.4925L92.8034 29.5993L90.681 29.936C89.5137 30.1212 86.7015 30.6964 84.4317 31.214C81.1619 31.9599 80.286 32.0988 80.2139 31.8826C80.0191 31.2984 79.1738 30.6547 78.7699 30.7829C78.4107 30.8968 78.3908 30.8566 78.5721 30.3798C78.8343 29.6899 78.8283 28.8074 78.557 28.2123C78.3821 27.8285 78.4228 27.5976 78.7675 27.0132C79.3463 26.032 79.7046 25.9278 79.8583 26.696C80.0342 27.5761 80.0042 28.9241 79.8014 29.2443C79.5645 29.618 79.7565 30.252 80.1743 30.4754C80.5812 30.6934 82.3074 30.3629 85.5157 29.4528C89.3929 28.3529 89.9729 27.8158 89.6233 25.6497C89.5251 25.0408 89.4992 24.2475 89.566 23.8864C89.6427 23.4706 89.5879 23.1108 89.4167 22.9043C89.1745 22.6127 89.211 22.5928 89.7642 22.7141C90.2219 22.8147 90.4559 22.7606 90.6661 22.5058C90.9277 22.1884 90.9551 22.1995 91.0193 22.6479C91.0575 22.9152 91.1819 23.2472 91.2954 23.3855ZM114.195 22.7314C114.195 22.8975 114.048 23.0333 113.868 23.0333C113.601 23.0333 113.587 22.9788 113.792 22.7314C113.93 22.5654 114.077 22.4295 114.119 22.4295C114.161 22.4295 114.195 22.5654 114.195 22.7314ZM120.434 22.5183C120.434 22.5672 120.343 22.663 120.233 22.7314C120.122 22.7998 120.031 22.7598 120.031 22.6427C120.031 22.5255 120.122 22.4295 120.233 22.4295C120.343 22.4295 120.434 22.4694 120.434 22.5183ZM86.8238 22.7195C86.8238 22.7684 86.7333 22.8642 86.6226 22.9327C86.5119 23.0011 86.4213 22.9611 86.4213 22.8439C86.4213 22.7268 86.5119 22.6308 86.6226 22.6308C86.7333 22.6308 86.8238 22.6706 86.8238 22.7195ZM4.53946 23.621C4.85906 23.4499 5.03838 23.4817 5.38152 23.7699C5.62142 23.9712 5.84281 24.1471 5.8736 24.1605C5.90439 24.174 5.83878 24.424 5.72769 24.716C5.43023 25.4981 5.77498 26.2349 6.50696 26.3812L7.10208 26.5002L6.63838 27.235C5.26983 29.4027 4.87315 30.6616 5.30444 31.4674C5.44693 31.7337 5.36663 32.0146 4.98887 32.5705C4.71013 32.9809 4.36336 33.5987 4.21826 33.9439C3.97775 34.5159 3.94233 34.315 3.81896 31.6703C3.68392 28.7764 3.38928 25.3329 3.17011 24.0861C3.057 23.4425 3.06626 23.4326 3.59395 23.6333C3.96749 23.7753 4.2581 23.7715 4.53946 23.621ZM84.0062 23.8383C84.0062 23.949 83.9102 24.0396 83.7931 24.0396C83.676 24.0396 83.6359 23.949 83.7044 23.8383C83.7728 23.7276 83.8686 23.6371 83.9175 23.6371C83.9664 23.6371 84.0062 23.7276 84.0062 23.8383ZM129.54 24.1402C129.474 24.4828 129.311 24.6434 129.029 24.6434C128.627 24.6434 128.629 24.6291 129.088 24.1402C129.348 23.8635 129.578 23.6371 129.598 23.6371C129.619 23.6371 129.593 23.8635 129.54 24.1402ZM136.736 24.5518C136.736 24.6971 136.867 24.9471 137.027 25.1073C137.282 25.3617 137.256 25.4836 136.826 26.0665C136.265 26.8266 136.194 27.4974 136.636 27.8641C136.903 28.0859 136.891 28.1921 136.535 28.7679C136.074 29.5136 136.024 30.1119 136.376 30.6753C136.58 31.0019 136.552 31.1428 136.203 31.528C135.973 31.7816 135.677 32.1704 135.545 32.3918C135.351 32.7174 135.325 32.4872 135.411 31.1842C135.47 30.2987 135.57 28.5327 135.634 27.2597C135.786 24.2372 135.828 24.0505 136.332 24.1823C136.554 24.2402 136.736 24.4067 136.736 24.5518ZM63.8805 24.5172C63.8805 24.5582 63.4208 25.167 62.8591 25.8698C62.2974 26.5726 61.5501 27.6194 61.1987 28.196C60.8473 28.7726 60.4011 29.2874 60.2075 29.3401C59.7736 29.4581 59.7726 29.3868 60.1912 28.1509C60.6157 26.8974 61.2305 26.0522 61.7178 26.0522C62.332 26.0522 62.8021 25.7056 63.0722 25.0535C63.2115 24.7172 63.4504 24.4421 63.6029 24.4421C63.7557 24.4421 63.8805 24.4759 63.8805 24.5172ZM41.5409 28.6762V32.4838L41.0377 32.2545C40.6644 32.0845 40.4066 32.0837 40.0383 32.2515L39.542 32.4775L40.1522 31.2766C40.5368 30.5199 40.7153 29.9274 40.6352 29.6744C40.4847 29.2004 39.5969 28.9219 39.2721 29.2467C38.7537 29.7652 38.7754 29.3991 39.3333 28.2157C40.2047 26.3665 41.2173 24.6742 41.3899 24.7778C41.4729 24.8275 41.5409 26.5819 41.5409 28.6762ZM76.7712 25.9638C76.9626 26.1945 76.8815 26.4438 76.3667 27.2088L75.7227 28.1654L75.8324 27.461C75.8925 27.0735 76.0056 26.2585 76.0837 25.6497C76.2091 24.6705 76.2431 24.6081 76.3786 25.1091C76.4629 25.4206 76.6396 25.8052 76.7712 25.9638ZM87.773 25.8861C87.8682 26.7298 87.8474 26.7701 87.1968 27.0011C86.3567 27.2996 82.1849 28.4673 81.9588 28.4673C81.8673 28.4673 81.7924 28.1149 81.7924 27.6842V26.9011L83.7547 26.0391C86.1337 24.9942 87.2696 24.6333 87.5007 24.8488C87.5963 24.938 87.7188 25.4047 87.773 25.8861ZM105.536 25.5621C105.428 25.8461 105.34 26.3442 105.34 26.669C105.34 27.3944 105.243 27.4038 104.667 26.7346C104.332 26.3452 103.984 26.192 103.319 26.1417C102.825 26.1045 102.143 26.0159 101.803 25.9449C101.431 25.8672 100.904 25.9328 100.482 26.1093C99.9191 26.3444 99.711 26.3537 99.4397 26.155C99.2531 26.0188 99.1006 25.862 99.1006 25.8068C99.1006 25.7219 100.308 25.4987 102.522 25.1745C102.799 25.1338 103.634 25.0883 104.379 25.0733L105.732 25.0459L105.536 25.5621ZM113.666 26.4311C113.569 26.9184 113.37 27.1456 112.848 27.3636C112.469 27.522 111.887 27.845 111.555 28.0812C110.463 28.8591 110.749 28.3558 112.19 26.9651C112.969 26.2128 113.649 25.64 113.701 25.6921C113.753 25.744 113.737 26.0765 113.666 26.4311ZM97.5865 26.3331C97.2518 26.4788 96.5273 26.989 95.9764 27.4666C95.0458 28.2734 94.9702 28.3038 94.9102 27.8957C94.7735 26.9663 94.9438 26.7851 96.2838 26.4338C97.8727 26.0173 98.4058 25.9761 97.5865 26.3331ZM150.22 26.8572C150.22 27.5073 149.94 27.6671 149.735 27.1335C149.628 26.8546 149.907 26.2534 150.144 26.2534C150.186 26.2534 150.22 26.5251 150.22 26.8572ZM34.6868 27.31C34.6806 27.4485 34.5047 27.9691 34.2956 28.4673L33.9156 29.3729L33.9044 28.333C33.8939 27.3714 34.0171 27.1301 34.5472 27.0744C34.6301 27.0657 34.6931 27.1718 34.6868 27.31ZM105.943 28.5997C105.943 28.8199 105.854 28.8362 105.548 28.6725C105.312 28.5462 105.2 28.3389 105.27 28.1571C105.36 27.9229 105.45 27.9062 105.665 28.0843C105.818 28.2113 105.943 28.4433 105.943 28.5997ZM64.5786 29.4884C65.3501 30.956 65.4253 31.3873 64.7873 30.6823C64.5837 30.4573 64.1461 30.2697 63.799 30.2585C63.4564 30.2474 62.969 30.1796 62.716 30.1075L62.2559 29.9767L62.8625 29.0207C63.1962 28.4948 63.5504 28.0647 63.6498 28.0647C63.7493 28.0647 64.1673 28.7053 64.5786 29.4884ZM100.814 28.7188C101.096 29.3631 101.795 29.387 102.591 28.7794C103.186 28.3254 103.304 28.2978 103.523 28.5614C103.732 28.8136 103.679 28.9 103.198 29.0881C101.602 29.7124 100.979 29.8787 99.7677 30.0027C98.8576 30.0958 98.2951 30.2701 97.9528 30.5646C96.7551 31.5948 96.2556 35.2883 97.092 36.9281C97.4257 37.5818 97.6044 37.7251 98.0864 37.7251C98.4098 37.7251 98.7244 37.644 98.7856 37.545C98.8468 37.446 99.7351 37.2135 100.76 37.0284C103.03 36.6186 104.449 36.2171 105.072 35.8091C105.439 35.5686 105.541 35.3195 105.541 34.6614C105.541 34.0075 105.595 33.8744 105.782 34.0622C105.915 34.1951 106.178 34.3037 106.367 34.3037C106.65 34.3037 106.692 34.442 106.605 35.0886C106.511 35.7882 106.562 35.9124 107.077 36.2332C107.837 36.7071 108.579 37.5315 108.443 37.7513C108.383 37.8477 107.366 37.927 106.183 37.9278C103.768 37.9292 98.8355 38.596 98.2048 39.0063C97.978 39.1538 97.185 39.3229 96.4426 39.3817C95.2312 39.4777 95.0641 39.4455 94.8134 39.0677C94.6461 38.8159 94.299 38.6368 93.9492 38.6217L93.3647 38.5968L93.3056 37.0322C93.2621 35.8812 93.3285 35.3424 93.5571 34.9934C93.9121 34.4517 93.9747 32.6657 93.6596 32.0766C93.5263 31.8279 93.5227 31.6874 93.6495 31.6874C93.7584 31.6874 94.2412 31.4217 94.7222 31.0973C95.4367 30.6149 95.7422 30.5261 96.3926 30.6111C97.0838 30.7012 97.2947 30.6245 97.9936 30.0286C98.8379 29.3089 100.326 28.266 100.508 28.266C100.567 28.266 100.705 28.4697 100.814 28.7188ZM29.6119 29.1606C29.6371 29.1803 29.5699 29.9606 29.4624 30.8946C29.3551 31.8287 29.2666 34.1965 29.2658 36.1563L29.2642 39.7194L28.5094 39.8403C28.0945 39.9067 27.5963 39.9929 27.4025 40.0319C27.2087 40.0708 27.0503 40.0543 27.0503 39.9953C27.0503 39.9365 27.3746 39.078 27.7708 38.0874C28.5654 36.1014 28.8637 34.2878 28.473 33.8173C28.3082 33.6186 28.2919 33.4069 28.4225 33.1594C28.8425 32.363 29.235 30.9152 29.1348 30.5318C29.0766 30.3088 28.8107 30.027 28.5441 29.9054C28.1256 29.7149 27.9661 29.7666 27.3774 30.2836C27.0022 30.6129 26.5261 30.8828 26.3194 30.8834C25.9428 30.8846 25.3946 31.1937 24.2718 32.038L23.6718 32.4894L23.5499 32.0038C23.3915 31.3726 22.4154 31.1253 21.7957 31.5594C21.4179 31.8238 21.3235 31.8258 21.072 31.5743C20.604 31.1064 19.8723 31.239 19.0602 31.939L18.3013 32.593L18.6847 31.9893C18.8956 31.6572 19.2902 31.0474 19.5615 30.6344C19.8467 30.2005 20.0113 29.7161 19.9518 29.4876C19.8846 29.2308 19.9643 29.0598 20.1788 28.9998C20.472 28.9177 29.4972 29.0716 29.6119 29.1606ZM128.924 29.6472C128.854 30.3776 128.822 30.4114 128.391 30.2079L127.932 29.9914L128.347 29.4305C128.901 28.681 129.012 28.7229 128.924 29.6472ZM106.722 29.8553C106.943 29.9956 106.894 30.1806 106.47 30.8045L105.943 31.5795V30.9455C105.943 30.2518 106.114 29.673 106.317 29.6778C106.388 29.6796 106.57 29.7593 106.722 29.8553ZM112.986 33.219C112.863 35.083 112.738 36.6329 112.708 36.6629C112.595 36.7758 110.774 37.2795 110.774 37.198C110.774 37.1511 111.012 36.7528 111.303 36.3131C111.758 35.6246 111.814 35.3784 111.703 34.543C111.589 33.6794 111.63 33.5204 112.08 33.098C112.716 32.5001 112.757 31.5922 112.161 31.2734C111.744 31.0502 111.748 31.0349 112.399 30.3637C112.763 29.9882 113.094 29.7142 113.135 29.7553C113.176 29.7962 113.109 31.3549 112.986 33.219ZM150.166 34.0956C150.103 36.1951 150.007 37.9837 149.954 38.0705C149.799 38.3198 147.804 38.1206 147.812 37.8565C147.816 37.7289 148.268 37.0358 148.817 36.3163C149.865 34.9427 150.106 33.9886 149.527 33.508C149.276 33.2999 149.295 33.1548 149.662 32.4506C150.009 31.783 150.048 31.5314 149.873 31.0687C149.658 30.4992 149.717 30.2786 150.083 30.2786C150.211 30.2786 150.24 31.6427 150.166 34.0956ZM61.8679 30.5686C61.8679 30.6175 61.7773 30.7133 61.6666 30.7817C61.556 30.8501 61.4654 30.8101 61.4654 30.693C61.4654 30.5758 61.556 30.4798 61.6666 30.4798C61.7773 30.4798 61.8679 30.5197 61.8679 30.5686ZM76.316 31.5946C76.0775 32.7136 76.4716 33.4987 77.2722 33.4987H77.7741L77.2957 34.4547C76.8032 35.4388 76.8046 35.7727 77.3042 36.3475C77.5579 36.6395 77.5425 36.7812 77.1774 37.4967C76.6316 38.5666 76.6322 39.4533 77.1792 39.7461C77.4092 39.8693 77.7073 39.9277 77.8417 39.8761C77.9762 39.8246 78.2579 39.9081 78.4682 40.0619C79.0308 40.4733 79.3135 40.4097 79.9127 39.7371C80.3981 39.1923 80.4842 39.1625 80.7855 39.4352C81.3444 39.9412 81.9281 39.7888 82.6286 38.9544C83.2662 38.1948 83.2928 38.1842 83.5003 38.6022C83.7392 39.0832 84.539 39.2855 84.8747 38.9498C84.9948 38.8296 85.4146 38.7302 85.8075 38.729C86.4052 38.7268 86.5986 38.6082 86.9909 38.0026C87.4542 37.2878 87.4634 37.2842 87.7571 37.7034C88.2015 38.3377 88.9036 38.2329 89.6117 37.4264C90.137 36.8281 90.3171 36.7432 90.8399 36.8478C91.4192 36.9638 91.4528 37.0227 91.4528 37.9209V38.8717L89.6918 39.1124C86.5848 39.537 80.1479 40.905 77.9357 41.6108L75.7897 42.2955L75.6776 40.9662C75.5593 39.5614 75.4584 33.7925 75.5182 31.8383C75.5508 30.7638 75.5876 30.6811 76.0322 30.6811C76.4947 30.6811 76.5044 30.7121 76.316 31.5946ZM59.4528 31.5868C59.4528 32.0996 59.3649 32.2912 59.1294 32.2912C58.9004 32.2912 58.8482 32.1885 58.9509 31.939C59.0308 31.7451 59.1415 31.4284 59.1972 31.2346C59.3556 30.6839 59.4528 30.8179 59.4528 31.5868ZM103.8 32.5427C103.725 33.5881 103.579 34.2858 103.404 34.4265C103.179 34.6068 99.2115 35.5121 98.6477 35.5115C98.2973 35.5111 98.5191 33.5718 98.9583 32.7963C99.3656 32.077 99.5174 31.978 100.414 31.8474C100.965 31.7671 101.913 31.5236 102.522 31.3066C103.131 31.0894 103.694 30.9051 103.774 30.897C103.853 30.889 103.865 31.6296 103.8 32.5427ZM92.1795 31.9957C92.0099 32.1654 91.8122 32.6182 91.7402 33.002C91.6293 33.5929 91.5262 33.7 91.0682 33.7C90.7705 33.7 90.428 33.799 90.307 33.9199C90.148 34.0789 89.9735 34.0789 89.6763 33.9199C89.0242 33.571 88.4232 33.6603 87.6967 34.2146C87.1555 34.6272 86.7832 34.7324 85.8151 34.7461C84.7575 34.7612 84.5474 34.6976 84.1157 34.2317C83.8446 33.9393 83.5705 33.7 83.5063 33.7C83.1354 33.7 82.0273 34.3245 81.6266 34.7596C81.2619 35.1553 81.0441 35.2366 80.6398 35.1285C80.3544 35.0522 80.0527 34.8055 79.9694 34.5801C79.8273 34.1959 80.0183 34.1248 83.0694 33.4293C89.1192 32.0496 90.746 31.7216 91.618 31.7045C92.3993 31.6892 92.4564 31.7188 92.1795 31.9957ZM66.6478 32.7939C66.8969 33.1785 67.1006 33.5341 67.1006 33.5844C67.1006 33.7118 66.2648 33.5993 65.8586 33.4174C65.5817 33.2932 65.5586 33.1624 65.7274 32.6782C65.8401 32.3546 65.9915 32.0911 66.0637 32.0923C66.136 32.0937 66.3986 32.4095 66.6478 32.7939ZM128.794 34.354C128.613 37.3439 128.643 37.2695 127.571 37.3548L126.672 37.4262L126.803 36.1416C126.914 35.0647 127.084 34.6348 127.86 33.481C128.369 32.7243 128.819 32.1016 128.858 32.0973C128.898 32.0933 128.869 33.1089 128.794 34.354ZM145.576 33.7374C145.88 33.9274 145.902 34.0526 145.713 34.5525C145.512 35.0852 145.546 35.1907 146.051 35.6256C146.592 36.0911 146.6 36.1253 146.28 36.6142C146.086 36.909 145.984 37.3671 146.034 37.7108C146.117 38.2717 145.85 38.5144 145.138 38.5273C145.055 38.5289 145.001 37.1489 145.017 35.461C145.034 33.773 145.086 32.644 145.132 32.9523C145.179 33.2606 145.379 33.6138 145.576 33.7374ZM69.302 36.2996C69.2951 36.364 68.7875 36.6655 68.1739 36.9694C67.2511 37.4264 67.0841 37.4613 67.2073 37.1706C67.6297 36.1748 67.8897 35.3688 67.9052 35.0081C67.9195 34.6734 68.0399 34.7386 68.6185 35.3939C69.0013 35.8275 69.3088 36.235 69.302 36.2996ZM5.03174 35.7125C5.17342 35.7125 5.23461 35.8737 5.17685 36.0945C5.04482 36.5997 5.41574 37.2638 5.91949 37.4236C6.14188 37.4943 6.59471 37.4166 6.92598 37.2513C7.25725 37.0861 7.52834 36.9817 7.52834 37.0195C7.52834 37.0571 7.34721 37.5106 7.12582 38.027C6.57136 39.3205 6.60115 40.0508 7.22484 40.4596C7.50077 40.6403 7.86303 40.7359 8.02987 40.6717C8.24482 40.5894 8.33337 40.6872 8.33337 41.0074C8.33337 41.256 8.46821 41.6521 8.63324 41.8875C8.93171 42.3138 8.92386 42.3162 6.82354 42.4593C5.66329 42.5384 4.65177 42.6151 4.57589 42.6296C4.30158 42.6819 4.15587 41.5512 4.00935 38.2307L3.86022 34.8495L4.32351 35.281C4.57831 35.5183 4.8969 35.7125 5.03174 35.7125ZM41.7184 36.7762C41.7391 37.2638 41.6932 37.3105 41.366 37.1354C41.0279 36.9545 41.0122 36.8364 41.2116 35.9712C41.4258 35.0411 41.4378 35.0289 41.564 35.6119C41.6357 35.944 41.7053 36.4679 41.7184 36.7762ZM63.8257 37.2513C64.185 37.3417 64.4609 37.2274 64.8998 36.807C65.591 36.1448 65.6469 36.2513 65.0888 37.1668C64.6463 37.8928 64.5724 38.5378 64.8952 38.8606C65.0409 39.0063 65.0238 39.1379 64.8399 39.2905C64.633 39.4624 64.3677 39.1969 63.6321 38.0821C63.1137 37.2964 62.747 36.5606 62.8172 36.4469C62.8887 36.3312 63.0324 36.4361 63.1435 36.6852C63.2528 36.9299 63.5597 37.1847 63.8257 37.2513ZM34.6981 37.0877C34.6981 37.2908 34.7623 37.521 34.8408 37.5995C34.9193 37.678 34.9573 38.1053 34.9253 38.5491C34.8933 38.9926 34.9761 39.4869 35.1091 39.6473C35.417 40.0182 36.3883 40.0255 36.6926 39.659C36.8204 39.505 37.1804 39.3414 37.4928 39.2955C37.97 39.2255 38.0962 39.306 38.2823 39.7989L38.5037 40.3855L36.4883 40.3056C35.0054 40.2469 34.4236 40.1479 34.2867 39.9313C34.1843 39.7695 34.0992 38.9806 34.0974 38.1779C34.095 37.0137 34.1553 36.7188 34.3962 36.7188C34.5623 36.7188 34.6981 36.8849 34.6981 37.0877ZM23.5396 37.805C23.7859 37.743 24.048 37.7903 24.122 37.9101C24.3619 38.2981 25.1024 38.1409 25.7029 37.5742C26.2793 37.0306 26.2751 37.0499 25.462 38.6773C24.8606 39.8814 24.5109 40.36 24.182 40.4292C23.5293 40.5669 20.4175 40.9452 19.9393 40.9452C19.5346 40.9452 19.5346 40.944 19.9461 40.4924C20.173 40.2432 20.787 39.3885 21.3109 38.5925C22.2596 37.1507 22.2646 37.1471 22.6772 37.5315C22.9419 37.778 23.2532 37.8769 23.5396 37.805ZM18.4043 38.7517C17.9203 39.8182 17.8897 40.4071 18.3005 40.748C18.4691 40.8881 18.5746 41.0354 18.5345 41.0752C18.4947 41.1153 16.9754 41.3266 15.1586 41.5448C13.3419 41.7629 11.4931 41.993 11.0503 42.056L10.2453 42.1703L10.6645 41.7481C11.0312 41.3785 11.1514 41.3566 11.6263 41.573C12.2998 41.8799 12.8345 41.5307 14.158 39.9198C14.6494 39.3215 14.9775 39.0132 14.8867 39.2345C14.4059 40.4085 14.7112 41.1465 15.6781 41.1465C16.1838 41.1465 17.1945 40.1024 18.1515 38.5913C18.8221 37.5325 18.9272 37.5991 18.4043 38.7517ZM42.1209 39.6751C42.141 40.0486 42.0058 40.1364 41.2297 40.2527C40.7264 40.3282 40.2633 40.3384 40.2005 40.2756C40.0129 40.0883 40.9456 38.7314 41.2617 38.7314C41.4221 38.7314 41.6161 38.573 41.6926 38.3792C41.8033 38.0988 41.8587 38.1502 41.9643 38.6308C42.0374 38.9628 42.1078 39.4328 42.1209 39.6751ZM50.2449 38.6271C49.9102 40.3787 51.5064 41.1733 52.4017 39.7009C52.7368 39.1496 52.8832 39.0886 54.0557 39.0099L55.3419 38.9236L55.5357 39.5821C55.6818 40.0788 55.8906 40.2881 56.3836 40.4334C57.1414 40.6564 57.1915 40.8563 56.6374 41.4462C56.2743 41.8326 56.1101 41.8581 54.8764 41.7209C54.1279 41.6378 52.4064 41.5651 51.0503 41.5593L48.5849 41.549V39.951V38.3532L49.3396 38.2741C49.7548 38.2309 50.1497 38.1802 50.2173 38.1614C50.2851 38.1429 50.2974 38.3524 50.2449 38.6271Z" fill="black"/>
</svg>
