<svg width="93" height="61" viewBox="0 0 93 61" fill="none" xmlns="http://www.w3.org/2000/svg">
<path fill-rule="evenodd" clip-rule="evenodd" d="M79.6585 0.398762C77.4763 0.9973 74.1938 2.73822 73.0044 3.92768C71.3878 5.54427 70.9482 8.0884 72.1566 8.83523C72.3212 8.93701 72.456 9.43236 72.456 9.93645C72.456 11.1902 73.0325 11.9297 73.8166 11.6808C74.2891 11.5308 74.4295 11.2643 74.4295 10.5186C74.4295 9.98635 74.5524 9.55077 74.7027 9.55077C74.8527 9.55077 74.9017 9.74333 74.8115 9.97874C74.5936 10.5463 75.2136 12.0041 75.7622 12.2147C76.0016 12.3064 77.3001 12.46 78.648 12.5556C81.4132 12.7518 83.4149 12.2748 84.833 11.0817C86.0727 10.0385 86.3842 9.01736 86.0041 7.24543C85.3997 4.42641 84.2477 1.04354 83.7087 0.504486C83.0735 -0.130702 81.7177 -0.166225 79.6585 0.398762ZM19.0303 1.37424C14.1898 1.74639 10.7356 2.73653 5.27068 5.31844C3.58925 6.11264 2.68764 6.71202 2.47647 7.17523C2.25459 7.66241 1.9377 7.85919 1.37441 7.85919C0.471105 7.85919 0 8.5175 0 9.7797C0 10.6743 0.376658 11.1214 1.26868 11.2855C1.70765 11.3661 1.90951 11.7631 2.18016 13.0777C2.58812 15.0583 3.73755 23.7366 4.36428 29.5678C4.97832 35.2831 5.55148 38.7725 6.49426 42.5366C7.88361 48.0833 10.2555 53.8138 11.1619 53.8138C11.4044 53.8138 12.0006 53.4157 12.4872 52.9291C13.4844 51.9319 15.7021 50.8682 19.0303 49.7906C21.9888 48.8326 23.1183 48.6139 23.1183 48.9987C23.1183 49.4712 24.5248 49.357 24.712 48.8693C24.8036 48.6308 24.2925 46.6325 23.5764 44.4289C22.0889 39.8509 21.2496 36.4458 20.8766 33.4765C20.5668 31.0079 20.8107 30.4635 21.9054 31.181C23.0004 31.8982 25.6314 31.3285 29.129 29.6166C30.7075 28.8438 32.0365 28.2478 32.0825 28.2918C32.1285 28.336 32.0334 29.4308 31.8711 30.7246C31.3058 35.234 31.6813 44.8865 32.4589 45.823C32.8739 46.3232 34.0123 46.3082 34.2074 45.7999C34.2923 45.5789 34.2531 44.9761 34.1206 44.4608C33.9878 43.9451 33.7935 41.9575 33.6884 40.044C33.511 36.8165 33.533 36.5715 33.9934 36.6609C34.2818 36.7167 34.5105 37.0375 34.539 37.4258C34.566 37.7934 34.7964 38.2109 35.0509 38.3533C35.4341 38.5679 35.4544 38.7077 35.1682 39.1658C34.6842 39.9409 35.228 40.721 36.2026 40.6502L36.9438 40.5963L36.0648 41.8205C35.4211 42.717 35.2387 43.2118 35.3836 43.6685C35.5517 44.1983 35.727 44.2688 36.5455 44.136C37.1006 44.046 37.4414 44.0897 37.349 44.2392C37.0766 44.6798 37.7679 45.6378 38.3585 45.6378C38.6822 45.6378 39.0538 45.3404 39.2396 44.933C39.4161 44.5453 39.7786 44.2282 40.0448 44.2282C40.6416 44.2282 41.027 43.7621 41.2692 42.748C41.537 41.6276 42.0076 41.7957 42.0076 43.0114C42.0076 45.048 43.8438 47.6587 44.9721 47.2259C45.766 46.9212 45.7203 46.2626 44.8195 45.0291C43.9754 43.8735 43.9326 43.695 44.0499 41.8318C44.2007 39.4317 44.9224 37.9033 46.7832 36.0423C48.0874 34.7384 49.1035 34.0708 50.3868 33.6752L51.0127 33.4821L50.2828 35.1196C49.3174 37.2859 49.1006 39.8608 49.7423 41.5414C50.7702 44.2327 54.5594 46.4836 58.0621 46.4836C62.5363 46.4836 70.3159 42.5326 72.719 39.0398C74.255 36.8075 74.5127 33.9769 73.3948 31.6208C72.52 29.7773 70.0179 27.3921 67.8185 26.3053C66.1174 25.4646 65.4537 25.2906 63.8306 25.2616C60.2256 25.1968 56.2645 26.808 54.1771 29.1883C53.4536 30.0135 52.7872 30.6899 52.6958 30.6919C52.6042 30.6938 52.371 30.3465 52.1776 29.9202C51.5486 28.5342 49.2114 25.6645 48.6329 25.5672C48.3228 25.5151 47.1246 25.8193 45.9701 26.2433C44.8156 26.6676 43.8641 26.9865 43.8556 26.9521C43.8472 26.9177 43.6986 26.6357 43.5255 26.3256C43.2427 25.8195 42.9687 25.7708 40.8471 25.85C37.5773 25.9721 35.378 26.4271 34.2021 27.2252C33.6534 27.5974 33.0788 27.8601 32.9255 27.8091C32.7721 27.7581 33.4524 27.1536 34.4372 26.4663C37.1846 24.5492 40.1547 21.3656 41.2252 19.1911C44.0203 13.5141 41.2483 6.3754 35.0315 3.24033C31.663 1.54171 25.7794 0.85549 19.0303 1.37424ZM83.1293 4.23555C83.4676 5.49888 83.6935 6.58318 83.6317 6.6452C83.5697 6.70695 83.4414 6.4487 83.3467 6.07091C83.2517 5.69313 82.9649 5.30378 82.7092 5.20567C82.2539 5.03087 81.9184 5.20623 80.2127 6.51044L79.3706 7.15437L80.1758 6.09713C80.6184 5.51579 81.0898 5.03989 81.2229 5.03989C81.6551 5.03989 82.3413 3.72244 82.1578 3.24457C82.0597 2.98885 81.6641 2.70044 81.279 2.60374C80.758 2.47292 80.6757 2.36635 80.9576 2.18761C81.1662 2.05538 81.6018 1.94543 81.9257 1.94289C82.4253 1.93923 82.6077 2.28657 83.1293 4.23555ZM24.5245 3.27783C24.5214 3.46024 22.8143 4.72075 22.202 4.99281C22.0858 5.04469 21.9905 4.90147 21.9905 4.67508C21.9905 4.44841 21.7791 4.08894 21.5208 3.87609C21.107 3.53552 21.233 3.46954 22.5781 3.32379C23.4179 3.23272 24.2003 3.13771 24.3165 3.11234C24.4326 3.08697 24.5262 3.16168 24.5245 3.27783ZM18.2135 3.77121C17.9192 3.99393 17.547 4.09486 17.3863 3.99534C17.2177 3.89131 17.3249 3.72469 17.6392 3.60149C18.5208 3.25612 18.7889 3.33563 18.2135 3.77121ZM76.3557 4.72611C75.6838 5.48393 75.0873 6.06076 75.03 6.00804C74.9725 5.95504 75.0063 5.59079 75.1047 5.19862C75.2465 4.63392 76.7718 3.45545 77.4834 3.36072C77.535 3.35395 77.0275 3.96828 76.3557 4.72611ZM13.6874 5.13744L12.9397 6.11799L12.3198 5.50846L11.7001 4.89893L12.9688 4.44361C13.6666 4.19326 14.282 4.02636 14.3364 4.07259C14.3908 4.11911 14.0988 4.59839 13.6874 5.13744ZM37.376 7.3551C37.8984 7.93334 38.7406 9.20315 39.2475 10.1767C40.0879 11.791 40.1694 12.171 40.1719 14.4845C40.1747 16.7752 40.0933 17.1694 39.3357 18.5373C37.5432 21.7738 32.6492 25.7756 27.5978 28.135C24.6463 29.514 23.3072 29.797 22.6847 29.1745C22.1185 28.6084 21.8642 28.6067 21.3052 29.1658C20.9012 29.5698 20.8467 29.5633 20.7007 29.0953C20.3748 28.0513 20.0841 27.7333 19.3785 27.6484C18.8425 27.5839 18.606 27.7189 18.4627 28.1703C18.3221 28.6129 18.185 28.6944 17.9592 28.4686C17.7884 28.2977 17.419 28.1582 17.138 28.1582C16.7495 28.1582 17.0413 27.6346 18.3553 25.9732C20.3756 23.4192 20.4794 23.3061 20.0551 24.122C19.5375 25.1184 19.6756 25.53 20.7379 26.1567C22.2674 27.0592 22.9866 26.9357 23.8566 25.6208C24.7419 24.283 24.8651 24.2168 24.4574 25.2974C24.2902 25.7395 24.2339 26.3104 24.332 26.5661C24.5609 27.1621 25.831 27.1708 26.1625 26.5782C26.3805 26.1889 26.5 26.179 27.0258 26.5075C27.8665 27.0324 28.7834 26.4869 30.4157 24.4908C31.4651 23.2072 31.8138 22.9571 32.4541 23.0282C33.089 23.0986 33.394 22.8869 34.1634 21.8409C34.8496 20.9086 35.2968 20.5652 35.8344 20.557C36.7671 20.5429 38.1756 19.2793 37.9407 18.667C37.8463 18.4206 37.9224 18.034 38.1102 17.8077C38.2979 17.5815 38.4908 16.8048 38.5384 16.0814C38.5861 15.3582 38.7014 13.8663 38.795 12.7659C38.9596 10.8279 38.9407 10.7464 38.1871 10.1535C37.5942 9.68751 37.1871 9.58319 36.4775 9.71655L35.5457 9.89134L35.8164 8.94744C35.9652 8.42841 36.087 7.7811 36.087 7.50876C36.087 6.83889 35.0123 5.80505 34.5147 5.99592C34.2489 6.09798 34.1135 5.95645 34.1135 5.57697C34.1135 5.01311 34.1324 5.01452 35.27 5.65366C35.9058 6.01114 36.8536 6.77686 37.376 7.3551ZM9.97609 6.91868C9.26337 8.53019 8.21826 10.0704 7.81792 10.0991C7.53091 10.1197 8.62537 7.95674 9.47679 6.82085C9.84669 6.32719 10.1495 5.78785 10.1495 5.62264C10.1495 5.45715 10.2693 5.32182 10.4159 5.32182C10.5625 5.32182 10.3646 6.04046 9.97609 6.91868ZM20.0365 5.92093C19.9697 6.13406 19.9062 6.88315 19.8955 7.58544L19.8761 8.8623L17.9274 9.34073C15.6034 9.91136 13.0739 11.3619 12.5081 12.4487C12.1506 13.1352 12.1523 13.3272 12.5205 13.9993C13.2414 15.314 13.4529 15.8418 13.9575 17.5858C14.6248 19.892 15.3576 20.8838 16.3119 20.7733C16.8938 20.7059 17.0768 20.5131 17.1481 19.8908C17.218 19.2805 17.1033 19.0589 16.6578 18.9424C16.3381 18.8587 16.1374 18.6915 16.2124 18.5706C16.2871 18.4496 16.1588 17.897 15.9271 17.3428C15.4148 16.1164 15.3863 14.8096 15.856 14.0577C16.1329 13.6139 16.1337 13.3825 15.8588 12.9424C15.4162 12.2339 15.8428 11.9855 18.7991 11.2294C23.6212 9.99594 28.6241 10.9641 28.0481 13.0188C27.7831 13.9635 25.295 16.1761 23.5225 17.0433C22.5848 17.5023 21.2341 17.8846 20.2037 17.9833C18.5829 18.1384 18.4605 18.1998 18.3799 18.8979C18.3063 19.5345 18.4419 19.6949 19.2905 19.9751C19.8391 20.1561 20.4174 20.2244 20.5752 20.1265C21.2085 19.7352 20.8146 20.5646 20.1653 20.9901C19.5265 21.4087 19.4303 21.409 19.0176 20.9966C18.7698 20.7488 18.4732 20.546 18.3584 20.546C18.101 20.546 17.3677 21.2297 16.0424 22.7062C15.4844 23.3276 14.8072 23.9207 14.5374 24.0242C14.2676 24.1277 13.9135 24.5664 13.75 24.9991C13.5868 25.4319 13.154 25.927 12.7881 26.0998C12.4224 26.2723 12.123 26.3938 12.123 26.3696C12.123 26.3453 12.567 25.0834 13.1097 23.5652C14.2964 20.2455 14.3711 19.0473 13.4297 18.4304C12.9327 18.1051 12.5806 18.0631 12.0463 18.2661C11.417 18.5054 11.3088 18.4553 11.1582 17.855C11.0548 17.4428 10.7125 17.1025 10.2958 16.998L9.60479 16.8246L10.3164 15.42C11.1743 13.7273 11.1362 12.5511 10.22 12.4208C9.45875 12.3128 9.40998 11.9548 10.079 11.389C10.3505 11.1597 11.2202 10.398 12.0122 9.69653C13.2428 8.60659 13.5763 8.44589 14.3057 8.59165C15.0116 8.73289 15.3471 8.59306 16.2488 7.78251C18.5411 5.7216 20.3827 4.81632 20.0365 5.92093ZM25.2522 6.13012C24.6607 7.27362 25.2048 8.01989 26.4481 7.77123C26.9305 7.67481 27.4011 7.71851 27.4938 7.8685C27.8389 8.42672 29.0216 8.11096 30.1665 7.15437C32.1293 5.51438 32.1572 6.00691 30.2474 8.59052C29.8928 9.07037 29.6026 9.7563 29.6026 10.1144C29.6026 10.7118 29.5615 10.7298 29.1093 10.3334C27.9548 9.321 26.5888 8.88485 24.0765 8.72613L21.511 8.56402L23.3091 6.94292C25.297 5.15126 25.8857 4.90485 25.2522 6.13012ZM6.76632 7.16847C6.76632 7.33114 5.92363 9.04415 5.74545 9.24375C5.59828 9.4084 4.51088 8.38668 4.51088 8.08389C4.51088 7.94518 4.92334 7.65282 5.42715 7.43376C6.42969 6.9979 6.76632 6.93136 6.76632 7.16847ZM84.0151 8.25897C84.0151 9.05542 83.8446 9.32833 83.0335 9.8296C81.9221 10.5164 78.9404 10.9582 78.9404 10.436C78.9404 10.1352 79.6607 9.97649 80.632 10.0639C81.9198 10.1795 82.6526 9.75122 83.2418 8.53808C83.5739 7.85468 83.8838 7.29533 83.9303 7.29533C83.9771 7.29533 84.0151 7.72894 84.0151 8.25897ZM32.8009 10.6867C31.9517 12.2587 31.7935 12.769 32.036 13.1536C32.5474 13.9658 33.259 13.8795 34.7983 12.8195C36.5415 11.6187 36.9328 11.5638 36.9328 12.5201C36.9328 13.6701 36.1685 15.1725 35.4434 15.4482C35.0741 15.5883 34.3642 16.1902 33.8651 16.7854C32.9765 17.846 32.9669 17.8494 33.3949 16.9655C34.0041 15.707 33.9424 15.2277 33.124 14.855C32.5218 14.5804 32.3196 14.6233 31.7667 15.1429C31.4093 15.4786 30.8319 15.7532 30.4831 15.7532C30.0791 15.7532 29.1507 16.4428 27.9218 17.6563C26.2544 19.3024 25.9142 19.5218 25.4019 19.281C25.0763 19.1279 24.8098 18.9272 24.8098 18.835C24.8098 18.7428 25.4123 18.2754 26.149 17.7961C29.352 15.7115 30.8071 13.248 29.8699 11.4967C29.6074 11.0064 29.648 10.961 30.2223 11.1042C30.725 11.2294 31.1761 10.9773 32.2249 9.98551C32.9692 9.28125 33.6441 8.70498 33.7247 8.70498C33.8054 8.70498 33.3895 9.59673 32.8009 10.6867ZM5.18215 11.078C5.08179 11.4011 4.87485 11.9824 4.72233 12.3701L4.44547 13.0749L4.07671 12.0881C3.53653 10.6427 3.57826 10.4904 4.51483 10.4904C5.24672 10.4904 5.33947 10.5722 5.18215 11.078ZM86.4115 15.9517C85.9464 16.0146 84.1702 16.3825 82.4645 16.7696C80.7588 17.1567 79.078 17.5331 78.7289 17.6055C78.2801 17.6988 78.0946 17.939 78.0946 18.4271C78.0946 19.5037 78.9773 19.8144 80.6455 19.3256C82.1465 18.8855 82.5604 19.135 81.2384 19.6825C80.3949 20.0321 79.544 21.3312 78.9184 23.2244L78.546 24.3521L78.3199 22.8525C78.0075 20.7815 77.6573 20.2105 76.765 20.3177C75.6613 20.4502 75.3528 21.1629 75.9127 22.287C76.557 23.5805 77.6334 34.4669 77.6548 39.9065C77.6745 44.8803 77.4439 45.4808 75.2496 46.1684C74.566 46.3824 73.7864 46.668 73.5172 46.8027C73.2479 46.9372 72.7111 47.0475 72.3243 47.0475C71.3441 47.0475 71.2651 47.5713 71.3751 53.3509C71.469 58.2835 71.4673 58.3001 70.8349 58.4583C70.0551 58.6537 69.9587 59.8739 70.6939 60.2463C70.9652 60.3836 72.7732 60.4687 74.7114 60.4355C78.7591 60.3655 80.2801 59.9562 84.4141 57.8242C87.6633 56.1484 89.7437 54.1214 91.1341 51.2764C93.6309 46.1667 93.6258 42.6587 91.0952 25.0569C90.6382 21.8782 90.1979 18.5917 90.1167 17.7538C90.0355 16.9156 89.8029 16.1245 89.5999 15.996C89.2272 15.7597 87.9658 15.7422 86.4115 15.9517ZM88.2441 18.2875C88.2441 18.4409 87.9588 18.5644 87.6097 18.5621C86.2066 18.5534 85.0239 18.7882 84.9213 19.0961C84.7811 19.5164 84.2971 19.2218 84.2971 18.7166C84.2971 18.2771 84.9774 18.1023 86.9049 18.047C87.6416 18.0259 88.2441 18.1341 88.2441 18.2875ZM5.9163 19.9117C5.91376 20.1832 5.80325 20.5765 5.67046 20.786C5.49933 21.0563 5.39163 20.9128 5.30085 20.2926C5.21232 19.6895 5.28844 19.4183 5.54641 19.4183C5.75222 19.4183 5.91856 19.6402 5.9163 19.9117ZM88.6419 22.4491C88.7482 23.4959 88.9097 24.6512 89.0008 25.0169C89.1527 25.6275 89.1158 25.6546 88.5472 25.3501C88.2066 25.168 87.9819 24.8689 88.0479 24.6853C88.2463 24.1342 87.698 23.3653 87.1065 23.3653C86.8017 23.3653 86.5525 23.2813 86.5525 23.1787C86.5525 22.8176 87.9886 20.546 88.217 20.546C88.3442 20.546 88.5353 21.4023 88.6419 22.4491ZM7.79339 25.4093C7.57884 25.9131 7.16497 26.8187 6.87345 27.4215L6.34342 28.5173L6.14833 27.4215C5.74545 25.1607 5.83116 24.8218 6.8368 24.6969C7.34061 24.6346 7.85006 24.563 7.96819 24.5382C8.0866 24.5134 8.00794 24.9055 7.79339 25.4093ZM9.90251 26.2599C9.62396 26.5362 9.59182 26.5038 9.74463 26.102C9.85063 25.8241 10.0082 25.6676 10.0951 25.7544C10.1819 25.841 10.0953 26.0685 9.90251 26.2599ZM90.6275 37.0048C90.8672 39.1568 91.0634 41.9445 91.0634 43.1994C91.0634 45.3694 91.0414 45.4498 90.6131 44.8388C89.9802 43.935 89.0873 44.1585 88.2686 45.4261C87.8931 46.0077 87.5308 46.4281 87.4631 46.3604C87.2105 46.1078 88.5849 42.5467 89.5514 40.9507C90.473 39.4283 90.5226 39.2374 90.1654 38.5896C89.9278 38.1585 89.4772 37.8498 89.0053 37.7951L88.2334 37.7054L88.8026 36.9817C89.4919 36.1055 89.5026 35.9411 88.9083 35.3471C88.6103 35.0491 88.2052 34.9439 87.773 35.0525L87.1009 35.2211L87.9675 33.5041C88.9495 31.5591 88.8928 30.6955 87.7831 30.6955C87.1835 30.6955 87.1071 30.6008 87.2697 30.0612C87.3752 29.7121 87.8561 28.7291 88.3385 27.8762L89.2156 26.3256L89.7036 29.7088C89.972 31.5695 90.3879 34.8526 90.6275 37.0048ZM67.6919 28.4587C69.2801 29.4776 71.2257 31.519 71.6398 32.6008C72.1718 33.9899 72.0252 36.1616 71.3139 37.4272C70.1746 39.4545 65.2375 42.7816 61.8594 43.7988C59.8613 44.4001 57.3482 44.6446 57.1108 44.2603C57.004 44.0878 57.0505 43.9462 57.2143 43.9462C57.3781 43.9462 58.0203 43.487 58.6417 42.9256C59.5284 42.1247 59.8546 41.9744 60.1591 42.2273C60.4117 42.4368 61.0948 42.485 62.1142 42.3652C63.3302 42.2225 63.8546 42.0001 64.4562 41.3722C64.9694 40.8365 65.5233 40.5588 66.0948 40.5504C67.3345 40.5318 70.1839 37.947 69.7419 37.2417C69.233 36.43 68.2471 36.4895 67.2784 37.3905C66.7923 37.8427 66.0948 38.2273 65.7286 38.245C65.3624 38.2628 64.8284 38.4895 64.5417 38.7489C64.1771 39.0787 63.7883 39.1619 63.2459 39.0257L62.4712 38.8315L63.3832 38.3897C64.6138 37.7937 65.6897 36.459 65.6897 35.5286C65.6897 34.9397 65.8831 34.6933 66.538 34.446C67.266 34.1712 67.425 34.1974 67.6573 34.6315C67.9347 35.1495 69.1845 35.536 69.8084 35.2966C70.392 35.0728 70.5059 34.3502 70.0827 33.5599C69.8617 33.1475 69.6108 32.5861 69.5251 32.3124C69.4394 32.0386 69.0489 31.693 68.6573 31.5441C68.2657 31.3953 67.9451 31.0815 67.9451 30.8469C67.9451 30.1063 65.7762 28.9546 64.5484 29.0431C63.284 29.1345 63.2851 29.1353 63.0686 27.9958L62.9039 27.1283L64.6293 27.3642C65.7726 27.5207 66.8056 27.8898 67.6919 28.4587ZM41.6427 31.7528L41.5847 35.6293H42.4305H43.2763L43.442 33.2095C43.6185 30.6338 43.7772 30.1317 44.4152 30.1317C44.6357 30.1317 44.8965 29.8111 44.9949 29.4195C45.1973 28.6123 45.6642 28.3081 47.0823 28.0589C48.3011 27.8446 48.4325 27.9326 49.7279 29.8294L50.7731 31.3597L49.5619 31.8221C46.0437 33.1655 43.3498 36.053 42.2827 39.6254C41.9723 40.6646 41.8711 40.7647 41.4164 40.4805C41.0008 40.2211 40.7366 40.2811 40.0448 40.7923C39.0098 41.5577 38.9306 41.1946 39.8852 40.0601C40.9746 38.7655 41.2365 37.8379 40.7304 37.0657C40.3487 36.483 40.349 36.3758 40.7324 36.0575C41.6174 35.3231 41.0783 33.7968 39.934 33.7968C39.4178 33.7968 39.4124 33.764 39.8494 33.2811C40.4228 32.6476 40.4603 31.3753 39.9123 31.1647C39.6901 31.0795 39.4679 30.5901 39.4189 30.0773C39.3306 29.161 39.3033 29.1435 37.8088 29.0584C36.9726 29.0107 36.1544 29.1057 35.9903 29.2698C35.5736 29.6865 35.2412 29.6408 35.2412 29.1669C35.2412 28.8046 36.0887 28.4161 37.6377 28.0682C37.9478 27.9986 38.9887 27.927 39.9512 27.9089L41.7005 27.8762L41.6427 31.7528ZM45.5726 29.8077C44.4358 30.9718 44.3247 31.6826 45.1959 32.216C45.5982 32.4624 45.7823 32.4249 46.0693 32.0392C46.2695 31.7702 46.5012 31.6183 46.5847 31.7014C46.8999 32.0166 47.9526 30.2831 47.8711 29.5833C47.7381 28.4412 46.8193 28.5311 45.5726 29.8077ZM79.9613 31.2924L79.2686 32.81L79.2415 31.8232C79.2268 31.2805 79.1406 30.5608 79.0503 30.2236C78.9128 29.7113 79.0179 29.5954 79.6884 29.5187C80.1299 29.4683 80.5277 29.5052 80.5725 29.6008C80.6173 29.6964 80.3421 30.4576 79.9613 31.2924ZM34.4792 30.5269C34.2006 30.8994 33.9306 31.1641 33.8792 31.115C33.7033 30.9467 34.4152 29.8497 34.7005 29.8497C34.8573 29.8497 34.7577 30.1545 34.4792 30.5269ZM18.6074 30.9941C18.6074 31.5472 18.4966 31.788 18.2987 31.6656C18.1289 31.5608 17.6215 31.7474 17.1709 32.0804C16.2262 32.7787 16.1791 32.6964 16.8143 31.4567C17.6192 29.8853 18.6074 29.6301 18.6074 30.9941ZM8.4579 31.6682C8.4579 32.0482 8.67329 32.4796 8.9369 32.627C9.37671 32.8731 9.34936 33.0649 8.60337 34.967C7.79057 37.0398 7.33018 37.8681 7.33018 37.2566C7.33018 36.8808 6.81989 32.8667 6.63043 31.7528C6.50751 31.0305 6.5653 30.9775 7.47819 30.9775C8.3299 30.9775 8.4579 31.0677 8.4579 31.6682ZM60.9786 31.8232C61.1743 32.572 62.2899 32.5622 63.2552 31.8027C63.8681 31.3208 63.9981 31.2958 63.9981 31.6594C63.9981 31.9019 64.2518 32.2588 64.562 32.4525C64.8721 32.6462 65.1258 33.0324 65.1258 33.3107C65.1258 33.7511 65.0438 33.7714 64.4915 33.4663C63.8414 33.1074 61.1185 32.6487 59.6547 32.6516C57.3482 32.6561 55.7762 36.534 57.2972 38.4675C57.6431 38.9076 57.8016 39.2033 57.6496 39.1249C57.4974 39.0469 56.9053 38.7429 56.3341 38.4503C55.7629 38.1574 55.1452 37.6364 54.9611 37.2924C54.6693 36.7471 54.7463 36.5185 55.565 35.4996C56.3685 34.4999 56.4545 34.2532 56.163 33.786C55.6809 33.0144 55.7392 32.669 56.3516 32.669C56.6425 32.669 57.0435 32.4731 57.2422 32.2337C57.4886 31.9366 57.856 31.8537 58.3976 31.9727C58.909 32.0849 59.4167 31.989 59.825 31.7031C60.6471 31.1272 60.8007 31.1432 60.9786 31.8232ZM34.1135 33.7968C34.1135 33.9518 33.9867 34.0787 33.8316 34.0787C33.6765 34.0787 33.5497 33.9518 33.5497 33.7968C33.5497 33.6417 33.6765 33.5148 33.8316 33.5148C33.9867 33.5148 34.1135 33.6417 34.1135 33.7968ZM81.1228 36.7598C80.431 38.3699 79.8866 39.3251 79.8293 39.028C79.7453 38.5918 82.0512 33.7125 82.2483 33.9095C82.2863 33.9476 81.7797 35.2301 81.1228 36.7598ZM19.67 37.8698C20.0218 39.6423 20.7049 42.3139 21.1882 43.8064C21.6815 45.3308 21.9573 46.615 21.8171 46.7362C21.4859 47.0229 18.006 47.9496 17.8493 47.7932C17.7819 47.7258 18.1002 47.2448 18.5563 46.7246C19.1509 46.0466 19.3971 45.4593 19.4261 44.6511C19.4481 44.0308 19.4949 42.9524 19.5301 42.2546C19.5913 41.0415 19.5578 40.9817 18.7613 40.8912C17.655 40.7652 16.8363 40.1608 16.7044 39.3725C16.6082 38.7971 18.5265 34.6479 18.8893 34.6471C18.9668 34.6468 19.3181 36.097 19.67 37.8698ZM62.0246 34.9513C63.1667 34.9281 63.8746 35.2856 63.5921 35.7426C63.1932 36.3882 61.1709 37.1799 59.9214 37.1799C58.7773 37.1799 58.6414 37.1117 58.6414 36.538C58.6414 36.1847 58.8472 35.6019 59.0987 35.2428C59.4585 34.7291 59.7142 34.6307 60.2969 34.7807C60.7043 34.8856 61.4819 34.9622 62.0246 34.9513ZM14.9423 37.4618C14.6105 38.1123 14.2837 38.589 14.2163 38.5213C14.1487 38.454 14.3779 37.8794 14.7255 37.245C15.5476 35.744 15.7269 35.9236 14.9423 37.4618ZM8.33216 38.896C8.43619 39.0646 8.76097 39.1399 9.05362 39.0635C9.63186 38.9121 9.71954 39.4943 9.32173 40.845C9.20755 41.2327 9.21206 41.8216 9.3316 42.154C9.56109 42.7929 9.37389 43.9462 9.04037 43.9462C8.93182 43.9462 8.61944 42.9629 8.34597 41.7613C8.07278 40.5597 7.78719 39.3544 7.71163 39.0829C7.56136 38.5436 8.02767 38.4032 8.33216 38.896ZM62.1656 39.1534C62.0697 39.3085 61.8402 39.4334 61.6555 39.4311C61.4537 39.4283 61.4886 39.3175 61.7427 39.1534C62.2843 38.8033 62.3818 38.8033 62.1656 39.1534ZM80.3526 41.4041C79.9052 42.2403 79.7862 42.1097 79.7862 40.7821C79.7862 39.6285 79.7997 39.611 80.2218 40.2135C80.5547 40.6891 80.5855 40.969 80.3526 41.4041ZM52.2388 40.845C52.3389 41.2281 52.6234 41.4089 53.1263 41.4089C53.5334 41.4089 53.9394 41.5992 54.0285 41.8318C54.1179 42.0643 54.4311 42.2546 54.7246 42.2546C55.0587 42.2546 55.2583 42.4526 55.2583 42.7841C55.2583 43.0751 55.4517 43.4737 55.6879 43.6699C56.3727 44.238 55.9741 44.2992 54.7953 43.807C53.5354 43.2803 52.2808 42.1653 51.7017 41.0564C51.3552 40.3931 51.3541 40.2811 51.6941 40.2811C51.9126 40.2811 52.1576 40.5349 52.2388 40.845ZM12.7379 44.913C11.6688 47.509 11.6417 47.6508 12.1024 48.2197C12.7982 49.079 13.6169 48.54 14.6474 46.5439C15.6519 44.5978 15.7111 44.8199 14.8777 47.4078C14.2848 49.2488 14.1721 49.3979 12.8763 50.0545C12.121 50.4374 11.4633 50.7103 11.4145 50.661C11.3657 50.6119 10.9451 49.6201 10.4799 48.4571L9.63411 46.3426L10.3316 46.0398C10.715 45.8732 11.3702 45.2321 11.7875 44.6152C12.8749 43.0074 13.6595 42.0144 13.7641 42.1142C13.8137 42.1619 13.3519 43.4213 12.7379 44.913ZM90.2385 48.2533C89.4434 50.6423 87.6523 53.2987 86.0467 54.4695C84.6641 55.478 80.8705 57.4789 80.341 57.4789C80.1733 57.4789 80.3591 56.9395 80.7538 56.2807C81.4118 55.182 81.5553 55.0904 82.4814 55.1772C83.3148 55.2556 83.5187 55.1679 83.6472 54.6759C83.7634 54.2319 83.9463 54.1253 84.3647 54.2581C84.6816 54.3588 85.4022 54.2088 86.0182 53.9136C86.9667 53.4597 87.1688 53.187 87.5556 51.8403C88.0783 50.0196 90.5985 45.4368 90.7324 46.0627C90.7831 46.2992 90.5607 47.2848 90.2385 48.2533ZM36.1381 46.4983C34.2353 46.8385 33.5497 47.2082 33.5497 47.8932C33.5497 48.4732 34.4679 49.1366 34.8045 48.7997C34.9153 48.6889 36.7902 48.5346 38.9706 48.4571C42.3264 48.3379 42.9822 48.2412 43.2419 47.8281C43.4761 47.4554 43.4437 47.2352 43.1051 46.8963C42.5537 46.3449 38.3419 46.1044 36.1381 46.4983ZM77.1651 47.9866C74.7771 51.6311 74.1989 52.8713 74.0278 54.7168C73.871 56.4073 73.911 56.6376 74.407 56.9029C75.3464 57.4056 76.1687 56.7487 77.7597 54.2251C79.5277 51.4208 81.7758 48.3793 81.9511 48.5547C82.0193 48.6226 81.1022 50.5369 79.9131 52.8081C78.4174 55.6655 77.7912 57.1473 77.8812 57.617C77.9993 58.2358 77.908 58.3038 76.8547 58.381C76.2186 58.4276 75.1693 58.4219 74.5228 58.3686L73.3475 58.2714L73.3153 53.4022L73.2832 48.5327L74.5087 48.3945C75.1825 48.3184 76.1067 48.0613 76.562 47.8228C77.0173 47.5843 77.436 47.3756 77.4927 47.3593C77.5493 47.3429 77.4019 47.6251 77.1651 47.9866Z" fill="black"/>
</svg>
