<svg width="540" height="1559" viewBox="0 0 540 1559" fill="none" xmlns="http://www.w3.org/2000/svg">
<path fill-rule="evenodd" clip-rule="evenodd" d="M426.878 2.52002C422.218 3.99802 420.463 5.43202 418.513 9.35702C417.588 11.218 416.461 11.538 409.938 11.788L402.429 12.076L400.177 23.288C398.11 33.578 397.955 36.639 398.295 60.5L398.666 86.5L404.583 86.487C420.109 86.454 469.588 82.086 479.167 79.904C481.734 79.319 484.658 77.93 485.665 76.818C488.47 73.719 488.574 62.105 485.942 46C484.728 38.575 483.417 27.325 483.029 21C482.641 14.675 481.977 8.71202 481.555 7.75002C480.89 6.23702 479.306 6.00002 469.853 6.00002C460.081 6.00002 458.596 5.76102 455.879 3.75002C453.232 1.79002 451.462 1.47102 442.17 1.27702C434.999 1.12702 429.984 1.53502 426.878 2.52002ZM480.405 10.25C480.678 12.038 481.172 17.1 481.504 21.5C481.835 25.9 482.982 34.9 484.053 41.5C485.124 48.1 486 58.112 486 63.75C486 72.435 485.714 74.286 484.127 75.873C480.93 79.07 463.566 81.5 426.183 83.981C417.759 84.541 408.493 85.277 405.591 85.618L400.316 86.238L399.661 60.869C399.042 36.892 399.132 34.896 401.295 24.5L403.583 13.5L410.042 13.211C415.901 12.95 416.593 13.13 417.5 15.156C418.836 18.139 423.131 19.198 431 18.482C446.494 17.073 455.211 14.392 458.209 10.112C459.825 7.80502 462.133 7.31402 472.205 7.13602L479.909 7.00002L480.405 10.25ZM461.599 30.935C457.874 31.661 457.245 33.651 458.156 41.835C458.564 45.501 458.92 50.862 458.949 53.75C458.977 56.638 459.337 59.001 459.75 59.002C460.163 59.003 460.351 55.966 460.169 52.252C459.901 46.776 460.08 45.736 461.119 46.75C462.892 48.481 468.105 48.315 470.777 46.443C473.718 44.384 473.706 39.33 470.75 34.998C468.171 31.217 465.726 30.132 461.599 30.935ZM427.849 32.484C427.582 32.751 423.795 33.696 419.432 34.584C415.07 35.472 411.05 36.656 410.5 37.216C409.496 38.237 411.933 37.991 418.378 36.419L421.257 35.718L420.686 48.609C419.998 64.151 420.782 62.987 421.785 46.979L422.5 35.559L426.75 34.72C429.087 34.259 431 33.459 431 32.941C431 31.966 428.701 31.633 427.849 32.484ZM467.266 33.25C471.747 36.649 472.622 44.061 468.784 46.115C463.454 48.968 458.364 43.728 459.447 36.502C460.059 32.422 460.38 32 462.87 32C464.381 32 466.359 32.563 467.266 33.25ZM158.813 36.683C159.534 36.972 160.397 36.936 160.729 36.604C161.061 36.272 160.471 36.036 159.417 36.079C158.252 36.127 158.015 36.364 158.813 36.683ZM439.295 37.107C435.386 38.237 433 41.419 433 45.5C433 50.505 435.44 53 440.334 53C447.85 53 452.015 48.364 449.629 42.654C448.384 39.675 444.522 35.835 443.027 36.09C442.737 36.14 441.058 36.597 439.295 37.107ZM443.872 39.105C451.023 41.598 450.595 49.209 443.176 51.473C440.107 52.409 435.326 50.353 434.661 47.811C433.997 45.272 435.569 40.896 437.736 39.25C439.741 37.728 439.909 37.724 443.872 39.105ZM131.269 44.693C132.242 44.947 133.592 44.93 134.269 44.656C134.946 44.382 134.15 44.175 132.5 44.195C130.85 44.215 130.296 44.439 131.269 44.693ZM164.32 51C164.32 54.575 164.502 56.037 164.723 54.25C164.945 52.463 164.945 49.537 164.723 47.75C164.502 45.963 164.32 47.425 164.32 51ZM112.328 57.5C112.333 61.35 112.513 62.802 112.73 60.728C112.946 58.653 112.943 55.503 112.722 53.728C112.501 51.952 112.324 53.65 112.328 57.5ZM124.813 55.683C125.534 55.972 126.397 55.936 126.729 55.604C127.061 55.272 126.471 55.036 125.417 55.079C124.252 55.127 124.015 55.364 124.813 55.683ZM132 56C129.673 56.745 129.651 56.808 131.691 56.9C132.896 56.955 134.16 56.55 134.5 56C134.84 55.45 134.979 55.045 134.809 55.1C134.639 55.155 133.375 55.56 132 56ZM57.8131 57.683C58.5341 57.972 59.3971 57.936 59.7291 57.604C60.0611 57.272 59.4711 57.036 58.4171 57.079C57.2521 57.127 57.0151 57.364 57.8131 57.683ZM63.1581 60C63.1581 61.375 63.3851 61.938 63.6621 61.25C63.9401 60.563 63.9401 59.438 63.6621 58.75C63.3851 58.063 63.1581 58.625 63.1581 60ZM88.0791 59.583C88.1271 60.748 88.3641 60.985 88.6831 60.188C88.9721 59.466 88.9361 58.603 88.6041 58.271C88.2721 57.939 88.0361 58.529 88.0791 59.583ZM166.195 61.5C166.215 63.15 166.439 63.704 166.693 62.731C166.947 61.758 166.93 60.408 166.656 59.731C166.382 59.054 166.175 59.85 166.195 61.5ZM90.8131 60.683C91.5341 60.972 92.3971 60.936 92.7291 60.604C93.0611 60.272 92.4711 60.036 91.4171 60.079C90.2521 60.127 90.0151 60.364 90.8131 60.683ZM152.079 61.583C152.127 62.748 152.364 62.985 152.683 62.188C152.972 61.466 152.936 60.603 152.604 60.271C152.272 59.939 152.036 60.529 152.079 61.583ZM103.158 63C103.158 64.375 103.385 64.938 103.662 64.25C103.94 63.563 103.94 62.438 103.662 61.75C103.385 61.063 103.158 61.625 103.158 63ZM149.158 65C149.158 66.375 149.385 66.938 149.662 66.25C149.94 65.563 149.94 64.438 149.662 63.75C149.385 63.063 149.158 63.625 149.158 65ZM90.0791 67.583C90.1271 68.748 90.3641 68.985 90.6831 68.188C90.9721 67.466 90.9361 66.603 90.6041 66.271C90.2721 65.939 90.0361 66.529 90.0791 67.583ZM105.336 73C105.336 77.125 105.513 78.813 105.728 76.75C105.944 74.688 105.944 71.313 105.728 69.25C105.513 67.188 105.336 68.875 105.336 73ZM74.8131 67.683C75.5341 67.972 76.3971 67.936 76.7291 67.604C77.0611 67.272 76.4711 67.036 75.4171 67.079C74.2521 67.127 74.0151 67.364 74.8131 67.683ZM154.232 71C154.232 72.925 154.438 73.713 154.689 72.75C154.941 71.787 154.941 70.213 154.689 69.25C154.438 68.287 154.232 69.075 154.232 71ZM126.195 71.5C126.215 73.15 126.439 73.704 126.693 72.731C126.947 71.758 126.93 70.408 126.656 69.731C126.382 69.054 126.175 69.85 126.195 71.5ZM140.813 72.683C141.534 72.972 142.397 72.936 142.729 72.604C143.061 72.272 142.471 72.036 141.417 72.079C140.252 72.127 140.015 72.364 140.813 72.683ZM167.232 76C167.232 77.925 167.438 78.713 167.689 77.75C167.941 76.787 167.941 75.213 167.689 74.25C167.438 73.287 167.232 74.075 167.232 76ZM111.3 79C111.3 82.025 111.487 83.263 111.716 81.75C111.945 80.237 111.945 77.763 111.716 76.25C111.487 74.737 111.3 75.975 111.3 79ZM156.25 81.689C157.213 81.941 158.787 81.941 159.75 81.689C160.713 81.438 159.925 81.232 158 81.232C156.075 81.232 155.287 81.438 156.25 81.689ZM132.269 82.693C133.242 82.947 134.592 82.93 135.269 82.656C135.946 82.382 135.15 82.175 133.5 82.195C131.85 82.215 131.296 82.439 132.269 82.693ZM119.75 83.662C120.438 83.94 121.563 83.94 122.25 83.662C122.938 83.385 122.375 83.158 121 83.158C119.625 83.158 119.063 83.385 119.75 83.662ZM147.25 83.689C148.213 83.941 149.787 83.941 150.75 83.689C151.713 83.438 150.925 83.232 149 83.232C147.075 83.232 146.287 83.438 147.25 83.689ZM59.7501 84.662C60.4381 84.94 61.5631 84.94 62.2501 84.662C62.9381 84.385 62.3751 84.158 61.0001 84.158C59.6251 84.158 59.0631 84.385 59.7501 84.662ZM126.813 84.683C127.534 84.972 128.397 84.936 128.729 84.604C129.061 84.272 128.471 84.036 127.417 84.079C126.252 84.127 126.015 84.364 126.813 84.683ZM115.813 85.683C116.534 85.972 117.397 85.936 117.729 85.604C118.061 85.272 117.471 85.036 116.417 85.079C115.252 85.127 115.015 85.364 115.813 85.683ZM404.45 177.407C402.773 178.137 400.186 180.179 398.7 181.944C392.554 189.249 397.735 197.028 408.718 196.985C414.108 196.964 417.011 195.138 419.674 190.093C422.645 184.464 422.612 181.521 419.545 178.455C417.606 176.515 416.085 176.008 412.295 176.039C409.658 176.061 406.128 176.676 404.45 177.407ZM273 307.228C267.71 310.033 262 317.783 262 322.158C262 323.971 262.977 326.068 264.558 327.649C266.943 330.034 267.635 330.18 274.808 329.821C281.107 329.505 283.761 328.807 289.465 325.968C301.678 319.886 302.953 314.302 293.425 308.609C286.534 304.491 279.11 303.989 273 307.228ZM157.4 427.046C153.495 427.444 149.367 428.268 148.227 428.878C144.833 430.695 142 435.054 142 438.461C142 442.987 145.397 445.769 152.564 447.11C159.181 448.348 172.571 447.608 176.575 445.784C179.337 444.525 183 438.027 183 434.385C183 431.235 178.686 428.208 173.18 427.496C170.606 427.163 167.6 426.763 166.5 426.607C165.4 426.45 161.305 426.648 157.4 427.046ZM427.872 444.75C426.629 446.336 426.664 446.371 428.25 445.128C429.916 443.821 430.445 443 429.622 443C429.415 443 428.627 443.788 427.872 444.75ZM263.813 589.683C264.534 589.972 265.397 589.936 265.729 589.604C266.061 589.272 265.471 589.036 264.417 589.079C263.252 589.127 263.015 589.364 263.813 589.683ZM357.5 630.422C348.854 632.126 341.45 635.384 339.517 638.333C337.6 641.259 338.786 645.751 342.136 648.252C346.007 651.143 361.682 651.83 371.211 649.528C379.989 647.408 382.895 645.993 388.06 641.327C393.211 636.673 393.358 633.465 388.511 631.44C383.449 629.325 365.976 628.752 357.5 630.422ZM244.55 866.103C239.461 867.325 237 869.606 237 873.1C237 875.158 236.278 876.237 234.25 877.209C232.044 878.266 231.5 879.203 231.5 881.943C231.5 885.046 232.003 885.638 237 888.413C244.503 892.581 252.348 892.525 263 888.227C267.125 886.563 272.643 884.442 275.261 883.513C277.88 882.585 280.495 880.943 281.073 879.863C282.684 876.854 281.771 872.896 279 870.871C273.748 867.033 252.765 864.129 244.55 866.103ZM302.813 974.683C303.534 974.972 304.397 974.936 304.729 974.604C305.061 974.272 304.471 974.036 303.417 974.079C302.252 974.127 302.015 974.364 302.813 974.683ZM271.75 987.662C272.438 987.94 273.563 987.94 274.25 987.662C274.938 987.385 274.375 987.158 273 987.158C271.625 987.158 271.063 987.385 271.75 987.662ZM364.872 1067.75C363.629 1069.34 363.664 1069.37 365.25 1068.13C366.916 1066.82 367.445 1066 366.622 1066C366.415 1066 365.627 1066.79 364.872 1067.75ZM217 1079.38C217 1079.59 217.788 1080.37 218.75 1081.13C220.336 1082.37 220.371 1082.34 219.128 1080.75C217.821 1079.08 217 1078.56 217 1079.38ZM428.872 1086.75C427.629 1088.34 427.664 1088.37 429.25 1087.13C430.916 1085.82 431.445 1085 430.622 1085C430.415 1085 429.627 1085.79 428.872 1086.75ZM275.75 1100.66C276.438 1100.94 277.563 1100.94 278.25 1100.66C278.938 1100.38 278.375 1100.16 277 1100.16C275.625 1100.16 275.063 1100.38 275.75 1100.66ZM286.813 1100.68C287.534 1100.97 288.397 1100.94 288.729 1100.6C289.061 1100.27 288.471 1100.04 287.417 1100.08C286.252 1100.13 286.015 1100.36 286.813 1100.68ZM416.872 1108.75C415.629 1110.34 415.664 1110.37 417.25 1109.13C418.916 1107.82 419.445 1107 418.622 1107C418.415 1107 417.627 1107.79 416.872 1108.75ZM531.75 1125.66C532.438 1125.94 533.563 1125.94 534.25 1125.66C534.938 1125.38 534.375 1125.16 533 1125.16C531.625 1125.16 531.063 1125.38 531.75 1125.66ZM294.158 1152C294.158 1153.38 294.385 1153.94 294.662 1153.25C294.94 1152.56 294.94 1151.44 294.662 1150.75C294.385 1150.06 294.158 1150.62 294.158 1152ZM287.232 1162C287.232 1163.92 287.438 1164.71 287.689 1163.75C287.941 1162.79 287.941 1161.21 287.689 1160.25C287.438 1159.29 287.232 1160.08 287.232 1162ZM295.195 1181.5C295.215 1183.15 295.439 1183.7 295.693 1182.73C295.947 1181.76 295.93 1180.41 295.656 1179.73C295.382 1179.05 295.175 1179.85 295.195 1181.5ZM258.405 1182.25L256.5 1184.5L258.75 1182.59C260.864 1180.8 261.455 1180 260.655 1180C260.465 1180 259.453 1181.01 258.405 1182.25ZM244.872 1185.75C243.629 1187.34 243.664 1187.37 245.25 1186.13C246.916 1184.82 247.445 1184 246.622 1184C246.415 1184 245.627 1184.79 244.872 1185.75ZM288.195 1188.5C288.215 1190.15 288.439 1190.7 288.693 1189.73C288.947 1188.76 288.93 1187.41 288.656 1186.73C288.382 1186.05 288.175 1186.85 288.195 1188.5ZM296.079 1198.58C296.127 1199.75 296.364 1199.98 296.683 1199.19C296.972 1198.47 296.936 1197.6 296.604 1197.27C296.272 1196.94 296.036 1197.53 296.079 1198.58ZM289.079 1202.58C289.127 1203.75 289.364 1203.98 289.683 1203.19C289.972 1202.47 289.936 1201.6 289.604 1201.27C289.272 1200.94 289.036 1201.53 289.079 1202.58ZM297.079 1210.58C297.127 1211.75 297.364 1211.98 297.683 1211.19C297.972 1210.47 297.936 1209.6 297.604 1209.27C297.272 1208.94 297.036 1209.53 297.079 1210.58ZM290.158 1214C290.158 1215.38 290.385 1215.94 290.662 1215.25C290.94 1214.56 290.94 1213.44 290.662 1212.75C290.385 1212.06 290.158 1212.62 290.158 1214ZM298.079 1222.58C298.127 1223.75 298.364 1223.98 298.683 1223.19C298.972 1222.47 298.936 1221.6 298.604 1221.27C298.272 1220.94 298.036 1221.53 298.079 1222.58ZM291.158 1227C291.158 1228.38 291.385 1228.94 291.662 1228.25C291.94 1227.56 291.94 1226.44 291.662 1225.75C291.385 1225.06 291.158 1225.62 291.158 1227ZM299.158 1237C299.158 1238.38 299.385 1238.94 299.662 1238.25C299.94 1237.56 299.94 1236.44 299.662 1235.75C299.385 1235.06 299.158 1235.62 299.158 1237ZM292.079 1241.58C292.127 1242.75 292.364 1242.98 292.683 1242.19C292.972 1241.47 292.936 1240.6 292.604 1240.27C292.272 1239.94 292.036 1240.53 292.079 1241.58ZM300.195 1253.5C300.215 1255.15 300.439 1255.7 300.693 1254.73C300.947 1253.76 300.93 1252.41 300.656 1251.73C300.382 1251.05 300.175 1251.85 300.195 1253.5ZM293.232 1260C293.232 1261.92 293.438 1262.71 293.689 1261.75C293.941 1260.79 293.941 1259.21 293.689 1258.25C293.438 1257.29 293.232 1258.08 293.232 1260ZM301.079 1278.58C301.127 1279.75 301.364 1279.98 301.683 1279.19C301.972 1278.47 301.936 1277.6 301.604 1277.27C301.272 1276.94 301.036 1277.53 301.079 1278.58ZM294.079 1285.58C294.127 1286.75 294.364 1286.98 294.683 1286.19C294.972 1285.47 294.936 1284.6 294.604 1284.27C294.272 1283.94 294.036 1284.53 294.079 1285.58ZM306.651 1301.75C306.394 1302.16 309.405 1302.38 313.342 1302.23C326.205 1301.74 327.69 1301.34 317.309 1301.17C311.704 1301.08 306.908 1301.34 306.651 1301.75ZM366.25 1302.69C367.212 1302.94 368.788 1302.94 369.75 1302.69C370.712 1302.44 369.925 1302.23 368 1302.23C366.075 1302.23 365.288 1302.44 366.25 1302.69ZM282.405 1306.25L280.5 1308.5L282.75 1306.59C283.988 1305.55 285 1304.53 285 1304.34C285 1303.54 284.195 1304.14 282.405 1306.25ZM357.269 1309.69C358.242 1309.95 359.592 1309.93 360.269 1309.66C360.946 1309.38 360.15 1309.17 358.5 1309.19C356.85 1309.21 356.296 1309.44 357.269 1309.69ZM379.813 1310.68C380.534 1310.97 381.397 1310.94 381.729 1310.6C382.061 1310.27 381.471 1310.04 380.417 1310.08C379.252 1310.13 379.015 1310.36 379.813 1310.68ZM136.73 1373.95C128.916 1376.45 126 1378.5 126 1381.5C126 1383.38 126.984 1384.46 130.153 1386.08C134.061 1388.07 134.784 1388.12 142.403 1386.96C146.856 1386.28 151.491 1385.35 152.702 1384.9C155.485 1383.87 158.305 1378.54 157.466 1375.89C156.131 1371.69 146.608 1370.8 136.73 1373.95ZM497.813 1423.68C498.534 1423.97 499.397 1423.94 499.729 1423.6C500.061 1423.27 499.471 1423.04 498.417 1423.08C497.252 1423.13 497.015 1423.36 497.813 1423.68ZM436.324 1513.38C423.175 1517.68 417.903 1527.37 425.072 1534.07C428.711 1537.47 432.565 1538.35 444 1538.41C452.833 1538.45 454.863 1537.82 459.728 1533.48C461.253 1532.13 463.513 1530.13 464.75 1529.04C466.246 1527.73 467 1525.94 467 1523.71C467 1519.99 464.747 1517.38 459 1514.45C454.45 1512.13 441.96 1511.54 436.324 1513.38ZM51.0001 1529.44C39.2201 1531.91 30.7241 1536.12 29.7101 1540C29.3721 1541.29 30.3321 1543.77 32.3391 1546.77C36.4621 1552.93 40.5781 1553.99 51.1611 1551.6C60.3311 1549.53 65.5691 1547.01 71.4121 1541.87C76.5661 1537.33 77.4191 1533.59 74.0061 1530.51C71.3781 1528.13 59.8011 1527.59 51.0001 1529.44Z" fill="#1749B3"/>
<path fill-rule="evenodd" clip-rule="evenodd" d="M212.835 14.425C200.978 16.67 197.173 19.531 199.103 24.75C199.857 26.788 199.633 27.001 196.718 27.014C189.759 27.043 189.527 27.327 189.225 36.153C189.073 40.577 189.636 49.118 190.475 55.133C191.314 61.147 192 70.917 192 76.843C192 83.911 192.43 88.189 193.25 89.278C194.35 90.74 197.702 90.972 221.251 91.219C235.964 91.374 248.001 91.162 248.001 90.75C248 90.338 244.288 89.968 239.75 89.929C212.932 89.699 195.516 88.838 194.798 87.707C194.376 87.043 194.022 82.225 194.012 77C194.003 71.775 193.433 63.45 192.747 58.5C192.061 53.55 191.5 45 191.5 39.5V29.5L197.5 28.91C202.486 28.419 204.361 28.715 208.596 30.66C216.757 34.407 226.398 33.614 233.5 28.61C236.086 26.789 237.642 26.542 244.765 26.825L253.03 27.153L252.476 33.327C251.665 42.359 250.192 55.858 248.527 69.5C246.786 83.763 246.645 89 248 89C248.55 89 249 87.085 249 84.744C249 82.403 249.688 74.641 250.529 67.494C254.525 33.53 255.058 26.654 253.758 25.829C253.066 25.39 249.012 25.024 244.75 25.015L237 25L236.968 22.25C236.882 14.816 227.256 11.694 212.835 14.425ZM354.36 38C354.36 43.225 354.529 45.362 354.735 42.75C354.941 40.138 354.941 35.862 354.735 33.25C354.529 30.638 354.36 32.775 354.36 38ZM352.365 39.5C352.368 45 352.536 47.122 352.738 44.216C352.941 41.311 352.939 36.811 352.734 34.216C352.528 31.622 352.363 34 352.365 39.5ZM326 44.378C326 44.585 326.788 45.373 327.75 46.128C329.336 47.371 329.371 47.336 328.128 45.75C326.821 44.084 326 43.555 326 44.378ZM293.079 47.583C293.127 48.748 293.364 48.985 293.683 48.188C293.972 47.466 293.936 46.603 293.604 46.271C293.272 45.939 293.036 46.529 293.079 47.583ZM325 46.378C325 46.585 325.788 47.373 326.75 48.128C328.336 49.371 328.371 49.336 327.128 47.75C325.821 46.084 325 45.555 325 46.378ZM295.079 48.583C295.127 49.748 295.364 49.985 295.683 49.188C295.972 48.466 295.936 47.603 295.604 47.271C295.272 46.939 295.036 47.529 295.079 48.583ZM233.233 49.167C231.483 50.917 233.176 69 235.091 69C235.671 69 235.848 67.635 235.513 65.75C234.992 62.817 235.256 62.354 238.218 61C242.648 58.975 243.282 54.191 239.608 50.517C236.852 47.761 235.026 47.374 233.233 49.167ZM316.459 50.067C316.096 50.653 316.014 51.348 316.276 51.61C316.538 51.872 317.019 51.392 317.345 50.543C318.021 48.781 317.445 48.471 316.459 50.067ZM202.75 50.735C199.489 50.992 198 51.555 198 52.53C198 53.574 198.793 53.791 201 53.35L204 52.75V61.875C204 73.873 205.839 73.769 206.212 61.75C206.484 53.001 206.623 52.483 208.765 52.179C210.01 52.002 210.771 51.439 210.456 50.929C210.14 50.418 209.346 50.081 208.691 50.18C208.036 50.279 205.363 50.529 202.75 50.735ZM240 55.62C240 57.574 237.544 60 235.566 60C234.765 60 234.859 51.474 235.669 50.664C236.806 49.527 240 53.181 240 55.62ZM217.715 54.34C215.268 56.336 213 60.351 213 62.687C213 67.39 220.154 68.425 224.923 64.411C228.22 61.637 228.749 59.398 226.75 56.687C224.984 54.293 219.514 52.872 217.715 54.34ZM292.158 57C292.158 58.375 292.385 58.938 292.662 58.25C292.94 57.563 292.94 56.438 292.662 55.75C292.385 55.063 292.158 55.625 292.158 57ZM224.8 57.2C226.88 59.28 226.11 61.892 222.932 63.535C216.88 66.665 213.032 63.652 216.44 58.451C218.194 55.774 222.7 55.1 224.8 57.2ZM294.079 57.583C294.127 58.748 294.364 58.985 294.683 58.188C294.972 57.466 294.936 56.603 294.604 56.271C294.272 55.939 294.036 56.529 294.079 57.583ZM310.079 59.583C310.127 60.748 310.364 60.985 310.683 60.188C310.972 59.466 310.936 58.603 310.604 58.271C310.272 57.939 310.036 58.529 310.079 59.583ZM340.079 59.583C340.127 60.748 340.364 60.985 340.683 60.188C340.972 59.466 340.936 58.603 340.604 58.271C340.272 57.939 340.036 58.529 340.079 59.583ZM308.079 60.583C308.127 61.748 308.364 61.985 308.683 61.188C308.972 60.466 308.936 59.603 308.604 59.271C308.272 58.939 308.036 59.529 308.079 60.583ZM291.382 77.5C291.384 84.1 291.546 86.67 291.741 83.211C291.937 79.752 291.936 74.352 291.738 71.211C291.54 68.07 291.38 70.9 291.382 77.5ZM293.36 77C293.36 82.225 293.529 84.362 293.735 81.75C293.941 79.138 293.941 74.862 293.735 72.25C293.529 69.638 293.36 71.775 293.36 77ZM356.195 72.5C356.215 74.15 356.439 74.704 356.693 73.731C356.947 72.758 356.93 71.408 356.656 70.731C356.382 70.054 356.175 70.85 356.195 72.5ZM362.123 134.374C358.359 135.736 355 139.311 355 141.956C355 145.592 363.371 149.884 372 150.673C383.984 151.769 389.969 140.086 380.024 135.012C375.534 132.721 367.484 132.434 362.123 134.374ZM466.331 202.937C461.511 205.125 460.467 206.702 459.479 213.289C458.899 217.159 459.102 218.455 460.536 220.039C464.212 224.102 474.156 221.062 479.25 214.318C482.781 209.644 482.82 205.79 479.365 203.073C476.106 200.509 471.778 200.464 466.331 202.937ZM211.079 237.583C211.127 238.748 211.364 238.985 211.683 238.188C211.972 237.466 211.936 236.603 211.604 236.271C211.272 235.939 211.036 236.529 211.079 237.583ZM214.318 269.885C208.16 274.346 204.153 279.8 203.414 284.727C202.271 292.348 207.123 294.935 215.943 291.406C220.415 289.617 231 278.063 231 274.971C231 273.943 229.538 271.731 227.75 270.055C223.544 266.113 219.593 266.063 214.318 269.885ZM377.813 342.683C378.534 342.972 379.397 342.936 379.729 342.604C380.061 342.272 379.471 342.036 378.417 342.079C377.252 342.127 377.015 342.364 377.813 342.683ZM253.897 448.982C248.423 449.978 241.45 454.53 237.525 459.672C233.17 465.375 232.942 469.016 236.75 472.034C239.136 473.924 240.361 474.144 246 473.689C252.995 473.124 266.47 468.253 273.75 463.658C279.14 460.255 281.081 453.671 277.668 450.37C276.293 449.039 259.101 448.035 253.897 448.982ZM77.9998 479.378C77.9998 479.585 78.7868 480.373 79.7498 481.128C81.3358 482.371 81.3708 482.336 80.1278 480.75C78.8208 479.084 77.9998 478.555 77.9998 479.378ZM78.1448 681.148C69.8438 685.389 64.7498 690.096 64.7498 693.527C64.7498 698.155 69.8528 700.309 75.4998 698.064C76.5998 697.627 78.4628 697.629 79.6398 698.068C82.4338 699.111 86.5118 696.87 92.9778 690.738C96.7308 687.179 97.9998 685.251 97.9998 683.11C97.9998 679.108 96.3688 678.152 89.6378 678.212C85.2348 678.252 82.3938 678.978 78.1448 681.148ZM33.8128 849.535C25.3878 852.211 22.2638 859.682 27.7498 864.039C30.1538 865.948 31.3368 866.154 37.1618 865.677C44.2638 865.095 52.7968 861.987 55.5038 858.996C57.8768 856.373 57.0798 851.786 53.9998 850.345C49.6728 848.321 38.9878 847.892 33.8128 849.535ZM461.5 878.712C455.445 881.147 448.073 886.859 447.37 889.661C446.508 893.095 448.439 896.832 451.738 898.113C453.267 898.707 458.171 899.001 462.726 898.773C470.189 898.399 471.858 897.904 480.726 893.431C489.809 888.849 490.522 888.271 490.813 885.26C491.052 882.781 490.489 881.431 488.417 879.51C485.886 877.165 485.042 877.003 475.604 877.052C468.749 877.086 464.214 877.62 461.5 878.712ZM295.75 937.392C294.788 938.123 293.986 939.346 293.968 940.11C293.951 940.875 293.276 942.374 292.468 943.441C288.994 948.034 291.719 952.526 297.881 952.364C302.456 952.244 311.128 948.557 313.984 945.517C316.739 942.585 316.305 938.956 313 937.29C309.677 935.615 298 935.684 295.75 937.392ZM495 954.929C486.659 956.157 483 960.102 483 967.869C483 973.233 483.743 974.816 487.072 976.537C493.561 979.893 504.846 977.112 511.548 970.505C513.997 968.091 516 965.278 516 964.254C516 961.947 510.468 956.488 506.685 955.061C503.658 953.92 501.986 953.901 495 954.929ZM19.3998 995.855C17.2548 997.425 14.3748 1000.6 12.9998 1002.91C11.6248 1005.21 9.24083 1008.74 7.70083 1010.75C3.52683 1016.19 4.21683 1019.85 9.96183 1022.75C12.4158 1023.99 16.2098 1025 18.3938 1025C27.3278 1025 45.7148 1018.12 48.3938 1013.78C49.1468 1012.55 49.1408 1011.21 48.3728 1009.18C47.4528 1006.74 47.5708 1006.12 49.1438 1005.14C51.2708 1003.81 51.5898 1000.72 49.7498 999.246C49.0628 998.696 45.8138 997.922 42.5318 997.524C39.1368 997.113 35.5208 995.982 34.1468 994.901C30.4268 991.975 24.1448 992.381 19.3998 995.855ZM88.6478 1182.03C83.8828 1183.45 79.1688 1187.28 77.6168 1190.99C74.7078 1197.93 74.7498 1199.69 77.9098 1203.22L80.8438 1206.5L91.1718 1206.43C102.948 1206.34 111.44 1203.8 114.977 1199.3C117.962 1195.51 117.501 1193.59 112.396 1188.55C105.888 1182.14 96.7008 1179.61 88.6478 1182.03ZM218.691 1249.5C212.651 1251.16 207.329 1254.75 206.083 1258C201.573 1269.77 206.499 1275.78 219.856 1274.82C230.686 1274.03 246 1263.74 246 1257.25C246 1249.93 231.793 1245.9 218.691 1249.5ZM460.459 1252.37C455.334 1254.75 450.675 1259.3 449.474 1263.08C448.412 1266.43 449.824 1271.49 452.529 1274.03C454.413 1275.8 456.499 1276.48 461.009 1276.81C466.486 1277.2 469.353 1276.77 480.238 1273.91C486.81 1272.18 491.267 1262.56 487.68 1257.85C485.603 1255.12 473.667 1250 469.403 1250.01C467.256 1250.02 463.232 1251.08 460.459 1252.37ZM238 1257.38C238 1257.59 237.325 1258.31 236.5 1259C235.271 1260.02 235 1259.95 235 1258.62C235 1257.73 235.675 1257 236.5 1257C237.325 1257 238 1257.17 238 1257.38ZM404.5 1360.93C397.548 1362.61 388.476 1369.56 387.512 1373.94C386.583 1378.17 388.222 1380.42 394.075 1382.94C398.671 1384.91 400.599 1385.12 411.865 1384.83C423.43 1384.53 424.796 1384.29 428 1382.02C434.299 1377.55 436 1375.69 436 1373.25C436 1369.86 431.123 1365.39 425.917 1364.01C423.488 1363.36 419.311 1362.2 416.635 1361.42C411.395 1359.89 409.173 1359.8 404.5 1360.93ZM23.7308 1383.55C14.6848 1386.44 0.0518347 1402.87 0.0098347 1410.19C-0.0101653 1413.59 4.31583 1417.17 9.10383 1417.71C15.0858 1418.38 27.0398 1415.1 37.8588 1409.81C44.6688 1406.48 46.4748 1405.11 47.6028 1402.41C49.2278 1398.52 48.2018 1394.71 45.0768 1393.04C43.5108 1392.2 43.1878 1391.31 43.6378 1389.06C44.1388 1386.56 43.7878 1385.94 41.0548 1384.53C36.5148 1382.18 29.2968 1381.77 23.7308 1383.55ZM195.5 1470.54C193.3 1471.37 190.15 1472.64 188.5 1473.37C186.85 1474.1 184.02 1475.28 182.21 1475.99C177.827 1477.7 176 1480.56 176 1485.68C176 1492.18 178.46 1493.91 187.903 1494.05C192.081 1494.12 198.875 1494.22 203 1494.29C216.493 1494.5 227 1488.9 227 1481.5C227 1476.62 223.291 1474 216.404 1474C212.296 1474 210.634 1473.52 209.138 1471.92C206.633 1469.23 200.617 1468.62 195.5 1470.54Z" fill="#FA9D00"/>
<path fill-rule="evenodd" clip-rule="evenodd" d="M343.813 14.683C344.534 14.972 345.397 14.936 345.729 14.604C346.061 14.272 345.471 14.036 344.417 14.079C343.252 14.127 343.015 14.364 343.813 14.683ZM339.813 16.683C340.534 16.972 341.397 16.936 341.729 16.604C342.061 16.272 341.471 16.036 340.417 16.079C339.252 16.127 339.015 16.364 339.813 16.683ZM313.269 23.693C314.242 23.947 315.592 23.93 316.269 23.656C316.946 23.382 316.15 23.175 314.5 23.195C312.85 23.215 312.296 23.439 313.269 23.693ZM352.195 27.5C352.215 29.15 352.439 29.704 352.693 28.731C352.947 27.758 352.93 26.408 352.656 25.731C352.382 25.054 352.175 25.85 352.195 27.5ZM309.158 49C309.158 50.375 309.385 50.938 309.662 50.25C309.94 49.563 309.94 48.438 309.662 47.75C309.385 47.063 309.158 47.625 309.158 49ZM354.195 49.5C354.215 51.15 354.439 51.704 354.693 50.731C354.947 49.758 354.93 48.408 354.656 47.731C354.382 47.054 354.175 47.85 354.195 49.5ZM337.768 50.168C338.35 50.75 339.415 51.028 340.137 50.788C340.886 50.538 340.432 50.085 339.08 49.731C337.417 49.296 337.026 49.426 337.768 50.168ZM308.079 57.583C308.127 58.748 308.364 58.985 308.683 58.188C308.972 57.466 308.936 56.603 308.604 56.271C308.272 55.939 308.036 56.529 308.079 57.583ZM353.158 58C353.158 59.375 353.385 59.938 353.662 59.25C353.94 58.563 353.94 57.438 353.662 56.75C353.385 56.063 353.158 56.625 353.158 58ZM355.079 62.583C355.127 63.748 355.364 63.985 355.683 63.188C355.972 62.466 355.936 61.603 355.604 61.271C355.272 60.939 355.036 61.529 355.079 62.583ZM293.158 66C293.158 67.375 293.385 67.938 293.662 67.25C293.94 66.563 293.94 65.438 293.662 64.75C293.385 64.063 293.158 64.625 293.158 66ZM354.079 69.583C354.127 70.748 354.364 70.985 354.683 70.188C354.972 69.466 354.936 68.603 354.604 68.271C354.272 67.939 354.036 68.529 354.079 69.583ZM336.813 85.683C337.534 85.972 338.397 85.936 338.729 85.604C339.061 85.272 338.471 85.036 337.417 85.079C336.252 85.127 336.015 85.364 336.813 85.683ZM293.404 88.991C293.466 90.607 294.122 91.538 295.27 91.64C296.392 91.739 296.505 91.628 295.58 91.337C294.778 91.084 293.938 89.892 293.714 88.688C293.379 86.886 293.324 86.939 293.404 88.991ZM328.813 86.683C329.534 86.972 330.397 86.936 330.729 86.604C331.061 86.272 330.471 86.036 329.417 86.079C328.252 86.127 328.015 86.364 328.813 86.683ZM319.813 87.683C320.534 87.972 321.397 87.936 321.729 87.604C322.061 87.272 321.471 87.036 320.417 87.079C319.252 87.127 319.015 87.364 319.813 87.683ZM334.813 87.683C335.534 87.972 336.397 87.936 336.729 87.604C337.061 87.272 336.471 87.036 335.417 87.079C334.252 87.127 334.015 87.364 334.813 87.683ZM325.813 88.683C326.534 88.972 327.397 88.936 327.729 88.604C328.061 88.272 327.471 88.036 326.417 88.079C325.252 88.127 325.015 88.364 325.813 88.683ZM53.405 478.25L51.5 480.5L53.75 478.595C54.988 477.547 56 476.535 56 476.345C56 475.545 55.195 476.136 53.405 478.25ZM432.813 586.683C433.534 586.972 434.397 586.936 434.729 586.604C435.061 586.272 434.471 586.036 433.417 586.079C432.252 586.127 432.015 586.364 432.813 586.683ZM400.25 809.689C401.212 809.941 402.788 809.941 403.75 809.689C404.712 809.438 403.925 809.232 402 809.232C400.075 809.232 399.288 809.438 400.25 809.689ZM217.813 1123.68C218.534 1123.97 219.397 1123.94 219.729 1123.6C220.061 1123.27 219.471 1123.04 218.417 1123.08C217.252 1123.13 217.015 1123.36 217.813 1123.68ZM221.872 1135.75C220.629 1137.34 220.664 1137.37 222.25 1136.13C223.916 1134.82 224.445 1134 223.622 1134C223.415 1134 222.627 1134.79 221.872 1135.75Z" fill="#F1685B"/>
<path fill-rule="evenodd" clip-rule="evenodd" d="M311.5 13.643C308.75 15.045 306.05 16.714 305.5 17.352C304.95 17.99 303.15 18.967 301.5 19.524C299.195 20.302 298.427 21.227 298.185 23.518C298.012 25.158 297.196 29.149 296.372 32.388C292.455 47.781 290.314 91.416 293.418 92.607C294.197 92.906 300.385 92.248 307.168 91.145C313.95 90.042 325.8 88.387 333.5 87.468C356.276 84.748 356.909 83.96 355.162 60.5C354.507 51.7 353.975 39.55 353.98 33.5C353.989 22.787 352.872 15.657 351.005 14.503C350.498 14.19 346.603 14.366 342.349 14.894C334.93 15.815 334.498 15.755 331.731 13.427C327.625 9.97201 318.508 10.069 311.5 13.643ZM351.493 17.75C351.882 18.712 352.578 29.625 353.04 42C353.502 54.375 354.175 66.319 354.535 68.542C355.392 73.834 353.511 80.639 350.711 82.378C348.142 83.973 340.548 85.439 326.543 87.043C321.067 87.671 311.664 89.028 305.647 90.061C299.63 91.093 294.324 91.7 293.854 91.41C291.153 89.74 294.143 48.55 298.254 30.802C300.707 20.213 301.838 18.99 306.794 21.576C312.241 24.418 329.426 22.785 333.5 19.039C335.974 16.764 337.967 16.264 345.143 16.116C349.651 16.023 350.928 16.352 351.493 17.75ZM334.967 39.54C333.979 40.731 333.941 41.901 334.801 44.705C335.413 46.699 335.67 48.725 335.371 49.209C335.072 49.692 335.266 50.63 335.801 51.294C336.336 51.957 337.1 54.525 337.5 57C338.519 63.325 339.931 65.501 339.97 60.809C339.986 58.779 339.55 56.84 339 56.5C338.45 56.16 338 55.009 338 53.941C338 52.571 338.69 52 340.345 52C344.112 52 346.376 48.707 345.657 44.276C345.321 42.203 344.274 39.943 343.332 39.253C340.972 37.528 336.51 37.681 334.967 39.54ZM341.687 39.786C343.741 41.091 345.106 45.934 344.001 47.998C342.845 50.157 339.175 51.593 337.99 50.349C337.245 49.568 336.532 43.189 336.86 40.25C337.014 38.872 339.826 38.602 341.687 39.786ZM306.5 44.847C299.513 47.808 299.489 47.823 300.24 48.574C300.556 48.889 302.184 48.439 303.857 47.574C305.531 46.708 307.148 46 307.45 46C307.753 46 308.039 47.912 308.088 50.25C308.136 52.588 308.561 56.75 309.032 59.5C309.775 63.83 309.849 63.361 309.59 56C309.258 46.575 309.535 45 311.524 45C312.271 45 313.141 44.581 313.457 44.069C314.658 42.127 312.295 42.391 306.5 44.847ZM318.176 46.133C314.772 49.46 313.626 52.324 314.167 56.148C314.707 59.959 320.82 60.972 326.531 58.197C330.337 56.348 331 55.584 331 53.048C331 49.623 325.784 43 323.086 43C322.148 43 319.938 44.41 318.176 46.133ZM325.841 46.601C328.417 48.406 330.209 52.291 329.417 54.356C328.143 57.675 318.341 59.321 316.079 56.596C314.48 54.668 315.673 50.6 318.735 47.537C321.701 44.572 322.747 44.434 325.841 46.601ZM274.9 138.09C269.058 138.981 259.397 143.68 256.91 146.841C253.033 151.77 254.951 156.828 261.779 159.681C264.778 160.934 265.939 160.864 272.641 159.025C286.801 155.14 291 151.773 291 144.301C291 137.498 287.542 136.164 274.9 138.09ZM195 231.978C193.075 232.444 188.963 233.335 185.863 233.959C182.659 234.603 179.445 235.956 178.416 237.093C177.42 238.193 175.136 239.791 173.34 240.643C171.543 241.496 169.818 242.998 169.506 243.981C168.634 246.73 170.67 254.282 172.694 255.8C176.749 258.845 189.992 254.174 204 244.758C209.401 241.127 210.552 239.86 210.808 237.261C211.026 235.05 210.587 233.849 209.308 233.165C206.517 231.671 198.886 231.038 195 231.978ZM389 319.949C379.954 320.912 380.021 320.876 369.908 330.173C366.355 333.439 366.216 336.307 369.455 339.545C371.556 341.647 372.842 342 378.395 342C389.308 342 409.327 333.528 410.624 328.361C411.319 325.594 408.732 322 406.045 322C405.14 322 403.972 321.585 403.45 321.078C401.975 319.646 396.133 319.189 389 319.949ZM59.468 473.95C55.827 475.427 50 482.768 50 485.881C50 492.579 54.775 499 59.757 499C63.583 499 77.776 493.905 79.617 491.871C81.575 489.707 81.9 483.789 80.174 481.71C78.509 479.704 65.385 472.988 63.277 473.063C62.3 473.098 60.586 473.497 59.468 473.95ZM439 566.114C431.637 569.02 420 579.162 420 582.673C420 586.1 422.633 586.802 432.668 586.05C440.593 585.456 442.336 584.981 445.524 582.55C449.058 579.854 452 574.828 452 571.487C452 570.619 450.895 568.805 449.545 567.455C446.945 564.854 443.35 564.397 439 566.114ZM394.25 811.491C392.462 812.268 391 813.268 391 813.714C391 814.16 388.101 815.355 384.558 816.37C377.091 818.508 374.479 820.789 375.381 824.382C376.311 828.088 381.427 829.356 392.898 828.725C407.963 827.896 415.759 824.156 413.035 819.066C412.466 818.002 412 816.272 412 815.221C412 814.17 411.177 812.565 410.171 811.655C407.878 809.58 398.861 809.487 394.25 811.491ZM155.204 823.128C152.841 824.298 149.803 826.702 148.454 828.472C142.712 835.999 147.496 841.518 159 840.639C162.575 840.365 168.095 839.145 171.267 837.925C179.669 834.697 179.979 831.56 172.669 823.75C170.488 821.42 169.287 821 164.798 821.001C161.41 821.001 157.951 821.768 155.204 823.128ZM202 1123.65C197.392 1125.29 191.479 1129.09 189.25 1131.84C187.117 1134.47 187.756 1138.66 190.635 1140.93C192.7 1142.55 194.701 1143 199.885 1142.99C208.737 1142.99 212.834 1141.71 220.258 1136.64C229.459 1130.35 229.275 1125.86 219.732 1123.82C211.591 1122.08 206.554 1122.03 202 1123.65ZM405.749 1176.2C400.931 1177.48 396 1182.06 396 1185.25C396 1189.09 398.026 1193.94 400.085 1195.05C402.399 1196.28 405.277 1195.68 415.5 1191.79C423.283 1188.84 428 1185.33 428 1182.49C428 1181.73 426.538 1179.73 424.75 1178.06C421.838 1175.33 420.877 1175.02 415.5 1175.11C412.2 1175.16 407.812 1175.66 405.749 1176.2ZM110.5 1427.39C104.388 1429.31 102.071 1430.83 99.95 1434.31C97.459 1438.4 97.472 1442.21 99.984 1444.48C102.82 1447.05 112.486 1446.08 118.363 1442.63C123.773 1439.46 129.328 1433.3 128.565 1431.31C128.254 1430.5 128 1429.49 128 1429.08C128 1427.65 122.906 1426 118.703 1426.07C116.391 1426.1 112.7 1426.7 110.5 1427.39Z" fill="#ED3624"/>
<path fill-rule="evenodd" clip-rule="evenodd" d="M438.25 0.716049C439.763 0.945049 442.237 0.945049 443.75 0.716049C445.263 0.487049 444.025 0.300049 441 0.300049C437.975 0.300049 436.737 0.487049 438.25 0.716049ZM466.728 7.72205C468.503 7.94305 471.653 7.94605 473.728 7.73005C475.802 7.51305 474.35 7.33305 470.5 7.32805C466.65 7.32405 464.952 7.50105 466.728 7.72205ZM406.25 11.7281C408.313 11.9441 411.688 11.9441 413.75 11.7281C415.813 11.5131 414.125 11.336 410 11.336C405.875 11.336 404.188 11.5131 406.25 11.7281ZM481.195 25.5C481.215 27.15 481.439 27.704 481.693 26.731C481.947 25.758 481.93 24.408 481.656 23.731C481.382 23.054 481.175 23.85 481.195 25.5ZM483.079 29.583C483.127 30.748 483.364 30.985 483.683 30.188C483.972 29.466 483.936 28.603 483.604 28.271C483.272 27.939 483.036 28.529 483.079 29.583ZM461.813 30.683C462.534 30.972 463.397 30.936 463.729 30.604C464.061 30.272 463.471 30.036 462.417 30.079C461.252 30.127 461.015 30.364 461.813 30.683ZM140.75 32.662C141.438 32.94 142.563 32.94 143.25 32.662C143.938 32.385 143.375 32.1581 142 32.1581C140.625 32.1581 140.063 32.385 140.75 32.662ZM154.269 36.6931C155.242 36.9471 156.592 36.93 157.269 36.656C157.946 36.382 157.15 36.175 155.5 36.195C153.85 36.215 153.296 36.4391 154.269 36.6931ZM422.3 41C422.3 44.025 422.487 45.263 422.716 43.75C422.945 42.237 422.945 39.763 422.716 38.25C422.487 36.737 422.3 37.975 422.3 41ZM153.762 38.7071C155.006 38.9461 156.806 38.937 157.762 38.687C158.718 38.437 157.7 38.241 155.5 38.252C153.3 38.263 152.518 38.4681 153.762 38.7071ZM397.32 44C397.32 47.575 397.502 49.037 397.723 47.25C397.945 45.463 397.945 42.537 397.723 40.75C397.502 38.963 397.32 40.425 397.32 44ZM439.813 38.683C440.534 38.972 441.397 38.936 441.729 38.604C442.061 38.272 441.471 38.0361 440.417 38.0791C439.252 38.1271 439.015 38.364 439.813 38.683ZM459.079 40.583C459.127 41.748 459.364 41.9851 459.683 41.1881C459.972 40.4661 459.936 39.6031 459.604 39.2711C459.272 38.9391 459.036 39.529 459.079 40.583ZM97.813 40.683C98.534 40.972 99.397 40.936 99.729 40.604C100.061 40.272 99.471 40.0361 98.417 40.0791C97.252 40.1271 97.015 40.364 97.813 40.683ZM112.269 40.6931C113.242 40.9471 114.592 40.93 115.269 40.656C115.946 40.382 115.15 40.175 113.5 40.195C111.85 40.215 111.296 40.4391 112.269 40.6931ZM96.813 42.683C97.534 42.972 98.397 42.936 98.729 42.604C99.061 42.272 98.471 42.0361 97.417 42.0791C96.252 42.1271 96.015 42.364 96.813 42.683ZM112.75 42.6621C113.438 42.9401 114.563 42.9401 115.25 42.6621C115.938 42.3851 115.375 42.158 114 42.158C112.625 42.158 112.063 42.3851 112.75 42.6621ZM102.158 48C102.158 49.375 102.385 49.938 102.662 49.25C102.94 48.563 102.94 47.438 102.662 46.75C102.385 46.063 102.158 46.625 102.158 48ZM104.079 47.583C104.127 48.748 104.364 48.9851 104.683 48.1881C104.972 47.4661 104.936 46.6031 104.604 46.2711C104.272 45.9391 104.036 46.529 104.079 47.583ZM458.079 47.583C458.127 48.748 458.364 48.9851 458.683 48.1881C458.972 47.4661 458.936 46.6031 458.604 46.2711C458.272 45.9391 458.036 46.529 458.079 47.583ZM486.079 47.583C486.127 48.748 486.364 48.9851 486.683 48.1881C486.972 47.4661 486.936 46.6031 486.604 46.2711C486.272 45.9391 486.036 46.529 486.079 47.583ZM110.252 50.5C110.263 52.7 110.468 53.482 110.707 52.238C110.946 50.994 110.937 49.194 110.687 48.238C110.437 47.282 110.241 48.3 110.252 50.5ZM112.079 49.583C112.127 50.748 112.364 50.9851 112.683 50.1881C112.972 49.4661 112.936 48.6031 112.604 48.2711C112.272 47.9391 112.036 48.529 112.079 49.583ZM399.195 52.5C399.215 54.15 399.439 54.7041 399.693 53.7311C399.947 52.7581 399.93 51.4081 399.656 50.7311C399.382 50.0541 399.175 50.85 399.195 52.5ZM460.252 54.5C460.263 56.7 460.468 57.482 460.707 56.238C460.946 54.994 460.937 53.194 460.687 52.238C460.437 51.282 460.241 52.3 460.252 54.5ZM485.079 52.583C485.127 53.748 485.364 53.9851 485.683 53.1881C485.972 52.4661 485.936 51.6031 485.604 51.2711C485.272 50.9391 485.036 51.529 485.079 52.583ZM421.079 53.583C421.127 54.748 421.364 54.9851 421.683 54.1881C421.972 53.4661 421.936 52.6031 421.604 52.2711C421.272 51.9391 421.036 52.529 421.079 53.583ZM439.75 53.6621C440.438 53.9401 441.563 53.9401 442.25 53.6621C442.938 53.3851 442.375 53.158 441 53.158C439.625 53.158 439.063 53.3851 439.75 53.6621ZM90.507 54.989C90.157 55.555 90.558 55.7231 91.448 55.3821C93.18 54.7171 93.497 54 92.059 54C91.541 54 90.843 54.445 90.507 54.989ZM118.762 55.7071C120.006 55.9461 121.806 55.937 122.762 55.687C123.718 55.437 122.7 55.241 120.5 55.252C118.3 55.263 117.518 55.4681 118.762 55.7071ZM166.079 57.583C166.127 58.748 166.364 58.9851 166.683 58.1881C166.972 57.4661 166.936 56.6031 166.604 56.2711C166.272 55.9391 166.036 56.529 166.079 57.583ZM120.25 57.6891C121.213 57.9411 122.787 57.9411 123.75 57.6891C124.713 57.4381 123.925 57.2321 122 57.2321C120.075 57.2321 119.287 57.4381 120.25 57.6891ZM140.813 57.683C141.534 57.972 142.397 57.936 142.729 57.604C143.061 57.272 142.471 57.0361 141.417 57.0791C140.252 57.1271 140.015 57.364 140.813 57.683ZM154.232 60C154.232 61.925 154.438 62.713 154.689 61.75C154.941 60.787 154.941 59.213 154.689 58.25C154.438 57.287 154.232 58.075 154.232 60ZM164.158 59C164.158 60.375 164.385 60.938 164.662 60.25C164.94 59.563 164.94 58.438 164.662 57.75C164.385 57.063 164.158 57.625 164.158 59ZM419.158 59C419.158 60.375 419.385 60.938 419.662 60.25C419.94 59.563 419.94 58.438 419.662 57.75C419.385 57.063 419.158 57.625 419.158 59ZM79 59.378C79 59.585 79.787 60.373 80.75 61.128C82.336 62.371 82.371 62.336 81.128 60.75C79.821 59.084 79 58.555 79 59.378ZM398.158 62C398.158 63.375 398.385 63.938 398.662 63.25C398.94 62.563 398.94 61.438 398.662 60.75C398.385 60.063 398.158 60.625 398.158 62ZM61.158 63C61.158 64.375 61.385 64.938 61.662 64.25C61.94 63.563 61.94 62.438 61.662 61.75C61.385 61.063 61.158 61.625 61.158 63ZM63.158 64C63.158 65.375 63.385 65.938 63.662 65.25C63.94 64.563 63.94 63.438 63.662 62.75C63.385 62.063 63.158 62.625 63.158 64ZM90.345 63.543C90.019 64.392 89.976 65.3101 90.249 65.5831C90.523 65.8561 90.986 65.1611 91.279 64.0401C91.903 61.6571 91.21 61.289 90.345 63.543ZM88.079 65.5831C88.127 66.7481 88.364 66.985 88.683 66.188C88.972 65.466 88.936 64.6031 88.604 64.2711C88.272 63.9391 88.036 64.5291 88.079 65.5831ZM152.195 67.5C152.215 69.15 152.439 69.704 152.693 68.731C152.947 67.758 152.93 66.408 152.656 65.731C152.382 65.054 152.175 65.85 152.195 67.5ZM154.079 66.5831C154.127 67.7481 154.364 67.985 154.683 67.188C154.972 66.466 154.936 65.6031 154.604 65.2711C154.272 64.9391 154.036 65.5291 154.079 66.5831ZM400.286 69.5C400.294 72.25 400.488 73.2561 400.718 71.7361C400.947 70.2161 400.941 67.9661 400.704 66.7361C400.467 65.5061 400.279 66.75 400.286 69.5ZM165.195 73.5C165.215 75.15 165.439 75.704 165.693 74.731C165.947 73.758 165.93 72.408 165.656 71.731C165.382 71.054 165.175 71.85 165.195 73.5ZM464.813 80.683C465.534 80.972 466.397 80.936 466.729 80.604C467.061 80.272 466.471 80.0361 465.417 80.0791C464.252 80.1271 464.015 80.364 464.813 80.683ZM151.75 81.662C152.438 81.94 153.563 81.94 154.25 81.662C154.938 81.385 154.375 81.1581 153 81.1581C151.625 81.1581 151.063 81.385 151.75 81.662ZM455.813 81.683C456.534 81.972 457.397 81.936 457.729 81.604C458.061 81.272 457.471 81.0361 456.417 81.0791C455.252 81.1271 455.015 81.364 455.813 81.683ZM469.813 81.683C470.534 81.972 471.397 81.936 471.729 81.604C472.061 81.272 471.471 81.0361 470.417 81.0791C469.252 81.1271 469.015 81.364 469.813 81.683ZM57.813 82.683C58.534 82.972 59.397 82.936 59.729 82.604C60.061 82.272 59.471 82.0361 58.417 82.0791C57.252 82.1271 57.015 82.364 57.813 82.683ZM444.813 82.683C445.534 82.972 446.397 82.936 446.729 82.604C447.061 82.272 446.471 82.0361 445.417 82.0791C444.252 82.1271 444.015 82.364 444.813 82.683ZM461.813 82.683C462.534 82.972 463.397 82.936 463.729 82.604C464.061 82.272 463.471 82.0361 462.417 82.0791C461.252 82.1271 461.015 82.364 461.813 82.683ZM152.75 83.662C153.438 83.94 154.563 83.94 155.25 83.662C155.938 83.385 155.375 83.1581 154 83.1581C152.625 83.1581 152.063 83.385 152.75 83.662ZM429.75 83.662C430.438 83.94 431.563 83.94 432.25 83.662C432.938 83.385 432.375 83.1581 431 83.1581C429.625 83.1581 429.063 83.385 429.75 83.662ZM451.813 83.683C452.534 83.972 453.397 83.936 453.729 83.604C454.061 83.272 453.471 83.0361 452.417 83.0791C451.252 83.1271 451.015 83.364 451.813 83.683ZM56.813 84.683C57.534 84.972 58.397 84.936 58.729 84.604C59.061 84.272 58.471 84.0361 57.417 84.0791C56.252 84.1271 56.015 84.364 56.813 84.683ZM129.813 84.683C130.534 84.972 131.397 84.936 131.729 84.604C132.061 84.272 131.471 84.0361 130.417 84.0791C129.252 84.1271 129.015 84.364 129.813 84.683ZM413.75 84.662C414.438 84.94 415.563 84.94 416.25 84.662C416.938 84.385 416.375 84.1581 415 84.1581C413.625 84.1581 413.063 84.385 413.75 84.662ZM438.75 84.662C439.438 84.94 440.563 84.94 441.25 84.662C441.938 84.385 441.375 84.1581 440 84.1581C438.625 84.1581 438.063 84.385 438.75 84.662ZM401.762 85.707C403.006 85.946 404.806 85.937 405.762 85.687C406.718 85.437 405.7 85.241 403.5 85.252C401.3 85.263 400.518 85.468 401.762 85.707ZM423.269 85.6931C424.242 85.9471 425.592 85.9301 426.269 85.6561C426.946 85.3821 426.15 85.1751 424.5 85.1951C422.85 85.2151 422.296 85.4391 423.269 85.6931ZM410.813 86.683C411.534 86.972 412.397 86.936 412.729 86.604C413.061 86.272 412.471 86.0361 411.417 86.0791C410.252 86.1271 410.015 86.364 410.813 86.683ZM128.079 169.583C128.127 170.748 128.364 170.985 128.683 170.188C128.972 169.466 128.936 168.603 128.604 168.271C128.272 167.939 128.036 168.529 128.079 169.583ZM398.872 180.75C397.629 182.336 397.664 182.371 399.25 181.128C400.212 180.373 401 179.585 401 179.378C401 178.555 400.179 179.084 398.872 180.75ZM342.813 236.683C343.534 236.972 344.397 236.936 344.729 236.604C345.061 236.272 344.471 236.036 343.417 236.079C342.252 236.127 342.015 236.364 342.813 236.683ZM271.269 330.693C272.242 330.947 273.592 330.93 274.269 330.656C274.946 330.382 274.15 330.175 272.5 330.195C270.85 330.215 270.296 330.439 271.269 330.693ZM132.079 374.583C132.127 375.748 132.364 375.985 132.683 375.188C132.972 374.466 132.936 373.603 132.604 373.271C132.272 372.939 132.036 373.529 132.079 374.583ZM160.269 426.693C161.242 426.947 162.592 426.93 163.269 426.656C163.946 426.382 163.15 426.175 161.5 426.195C159.85 426.215 159.296 426.439 160.269 426.693ZM166.813 426.683C167.534 426.972 168.397 426.936 168.729 426.604C169.061 426.272 168.471 426.036 167.417 426.079C166.252 426.127 166.015 426.364 166.813 426.683ZM168.813 447.683C169.534 447.972 170.397 447.936 170.729 447.604C171.061 447.272 170.471 447.036 169.417 447.079C168.252 447.127 168.015 447.364 168.813 447.683ZM274.872 583.75C273.629 585.336 273.664 585.371 275.25 584.128C276.916 582.821 277.445 582 276.622 582C276.415 582 275.627 582.788 274.872 583.75ZM130.872 733.75C129.629 735.336 129.664 735.371 131.25 734.128C132.916 732.821 133.445 732 132.622 732C132.415 732 131.627 732.788 130.872 733.75ZM141.872 745.75C140.629 747.336 140.664 747.371 142.25 746.128C143.916 744.821 144.445 744 143.622 744C143.415 744 142.627 744.788 141.872 745.75ZM277.733 802.124C278.412 802.808 279.219 803.115 279.526 802.807C279.834 802.499 279.279 801.94 278.293 801.564C276.868 801.022 276.753 801.136 277.733 802.124ZM97.872 899.75C96.629 901.336 96.664 901.371 98.25 900.128C99.916 898.821 100.445 898 99.622 898C99.415 898 98.627 898.788 97.872 899.75ZM135.872 911.75C134.629 913.336 134.664 913.371 136.25 912.128C137.916 910.821 138.445 910 137.622 910C137.415 910 136.627 910.788 135.872 911.75ZM284.813 967.683C285.534 967.972 286.397 967.936 286.729 967.604C287.061 967.272 286.471 967.036 285.417 967.079C284.252 967.127 284.015 967.364 284.813 967.683ZM264.079 974.583C264.127 975.748 264.364 975.985 264.683 975.188C264.972 974.466 264.936 973.603 264.604 973.271C264.272 972.939 264.036 973.529 264.079 974.583ZM297.25 974.689C298.212 974.941 299.788 974.941 300.75 974.689C301.712 974.438 300.925 974.232 299 974.232C297.075 974.232 296.288 974.438 297.25 974.689ZM482.079 1014.58C482.127 1015.75 482.364 1015.99 482.683 1015.19C482.972 1014.47 482.936 1013.6 482.604 1013.27C482.272 1012.94 482.036 1013.53 482.079 1014.58ZM464.924 1030.75L462.5 1033.5L465.25 1031.08C467.82 1028.81 468.459 1028 467.674 1028C467.495 1028 466.258 1029.24 464.924 1030.75ZM377.195 1038.5C377.215 1040.15 377.439 1040.7 377.693 1039.73C377.947 1038.76 377.93 1037.41 377.656 1036.73C377.382 1036.05 377.175 1036.85 377.195 1038.5ZM451 1037.94C451 1038.46 451.445 1039.16 451.989 1039.49C452.555 1039.84 452.723 1039.44 452.382 1038.55C451.717 1036.82 451 1036.5 451 1037.94ZM421.966 1093.75L416.5 1099.5L422.25 1094.03C427.592 1088.96 428.458 1088 427.716 1088C427.56 1088 424.972 1090.59 421.966 1093.75ZM427.946 1098.75L424.5 1102.5L428.25 1099.05C431.74 1095.85 432.46 1095 431.696 1095C431.529 1095 429.842 1096.69 427.946 1098.75ZM279.75 1100.66C280.438 1100.94 281.563 1100.94 282.25 1100.66C282.938 1100.38 282.375 1100.16 281 1100.16C279.625 1100.16 279.063 1100.38 279.75 1100.66ZM408.405 1106.25L406.5 1108.5L408.75 1106.59C409.988 1105.55 411 1104.53 411 1104.34C411 1103.54 410.195 1104.14 408.405 1106.25ZM266.813 1107.68C267.534 1107.97 268.397 1107.94 268.729 1107.6C269.061 1107.27 268.471 1107.04 267.417 1107.08C266.252 1107.13 266.015 1107.36 266.813 1107.68ZM413.872 1111.75C412.629 1113.34 412.664 1113.37 414.25 1112.13C415.916 1110.82 416.445 1110 415.622 1110C415.415 1110 414.627 1110.79 413.872 1111.75ZM286.37 1126C286.37 1131.78 286.535 1134.14 286.737 1131.25C286.939 1128.36 286.939 1123.64 286.737 1120.75C286.535 1117.86 286.37 1120.22 286.37 1126ZM515.813 1125.68C516.534 1125.97 517.397 1125.94 517.729 1125.6C518.061 1125.27 517.471 1125.04 516.417 1125.08C515.252 1125.13 515.015 1125.36 515.813 1125.68ZM294.31 1144.5C294.315 1147.8 294.502 1149.03 294.725 1147.23C294.947 1145.44 294.943 1142.74 294.715 1141.23C294.486 1139.73 294.304 1141.2 294.31 1144.5ZM515.269 1142.69C516.242 1142.95 517.592 1142.93 518.269 1142.66C518.946 1142.38 518.15 1142.17 516.5 1142.19C514.85 1142.21 514.296 1142.44 515.269 1142.69ZM287.252 1168.5C287.263 1170.7 287.468 1171.48 287.707 1170.24C287.946 1168.99 287.937 1167.19 287.687 1166.24C287.437 1165.28 287.241 1166.3 287.252 1168.5ZM295.232 1176C295.232 1177.92 295.438 1178.71 295.689 1177.75C295.941 1176.79 295.941 1175.21 295.689 1174.25C295.438 1173.29 295.232 1174.08 295.232 1176ZM297.079 1207.58C297.127 1208.75 297.364 1208.98 297.683 1208.19C297.972 1207.47 297.936 1206.6 297.604 1206.27C297.272 1205.94 297.036 1206.53 297.079 1207.58ZM298.079 1219.58C298.127 1220.75 298.364 1220.98 298.683 1220.19C298.972 1219.47 298.936 1218.6 298.604 1218.27C298.272 1217.94 298.036 1218.53 298.079 1219.58ZM299.079 1233.58C299.127 1234.75 299.364 1234.98 299.683 1234.19C299.972 1233.47 299.936 1232.6 299.604 1232.27C299.272 1231.94 299.036 1232.53 299.079 1233.58ZM292.158 1245C292.158 1246.38 292.385 1246.94 292.662 1246.25C292.94 1245.56 292.94 1244.44 292.662 1243.75C292.385 1243.06 292.158 1243.62 292.158 1245ZM300.079 1249.58C300.127 1250.75 300.364 1250.98 300.683 1250.19C300.972 1249.47 300.936 1248.6 300.604 1248.27C300.272 1247.94 300.036 1248.53 300.079 1249.58ZM293.252 1266.5C293.263 1268.7 293.468 1269.48 293.707 1268.24C293.946 1266.99 293.937 1265.19 293.687 1264.24C293.437 1263.28 293.241 1264.3 293.252 1266.5ZM301.232 1274C301.232 1275.92 301.438 1276.71 301.689 1275.75C301.941 1274.79 301.941 1273.21 301.689 1272.25C301.438 1271.29 301.232 1272.08 301.232 1274ZM286.405 1302.25L284.5 1304.5L286.75 1302.59C288.864 1300.8 289.455 1300 288.655 1300C288.465 1300 287.453 1301.01 286.405 1302.25ZM328.75 1301.71C329.988 1301.94 332.012 1301.94 333.25 1301.71C334.488 1301.47 333.475 1301.27 331 1301.27C328.525 1301.27 327.512 1301.47 328.75 1301.71ZM371.813 1302.68C372.534 1302.97 373.397 1302.94 373.729 1302.6C374.061 1302.27 373.471 1302.04 372.417 1302.08C371.252 1302.13 371.015 1302.36 371.813 1302.68ZM291.872 1307.75C290.629 1309.34 290.664 1309.37 292.25 1308.13C293.916 1306.82 294.445 1306 293.622 1306C293.415 1306 292.627 1306.79 291.872 1307.75ZM349.75 1309.71C350.988 1309.94 353.012 1309.94 354.25 1309.71C355.488 1309.47 354.475 1309.27 352 1309.27C349.525 1309.27 348.512 1309.47 349.75 1309.71ZM376.813 1310.68C377.534 1310.97 378.397 1310.94 378.729 1310.6C379.061 1310.27 378.471 1310.04 377.417 1310.08C376.252 1310.13 376.015 1310.36 376.813 1310.68ZM396.813 1354.68C397.534 1354.97 398.397 1354.94 398.729 1354.6C399.061 1354.27 398.471 1354.04 397.417 1354.08C396.252 1354.13 396.015 1354.36 396.813 1354.68ZM408.269 1355.69C409.242 1355.95 410.592 1355.93 411.269 1355.66C411.946 1355.38 411.15 1355.17 409.5 1355.19C407.85 1355.21 407.296 1355.44 408.269 1355.69ZM225.079 1359.58C225.127 1360.75 225.364 1360.98 225.683 1360.19C225.972 1359.47 225.936 1358.6 225.604 1358.27C225.272 1357.94 225.036 1358.53 225.079 1359.58ZM224.079 1367.58C224.127 1368.75 224.364 1368.98 224.683 1368.19C224.972 1367.47 224.936 1366.6 224.604 1366.27C224.272 1365.94 224.036 1366.53 224.079 1367.58ZM231.079 1373.58C231.127 1374.75 231.364 1374.98 231.683 1374.19C231.972 1373.47 231.936 1372.6 231.604 1372.27C231.272 1371.94 231.036 1372.53 231.079 1373.58ZM493.269 1401.69C494.242 1401.95 495.592 1401.93 496.269 1401.66C496.946 1401.38 496.15 1401.17 494.5 1401.19C492.85 1401.21 492.296 1401.44 493.269 1401.69ZM224.158 1427C224.158 1428.38 224.385 1428.94 224.662 1428.25C224.94 1427.56 224.94 1426.44 224.662 1425.75C224.385 1425.06 224.158 1425.62 224.158 1427ZM216.232 1433C216.232 1434.92 216.438 1435.71 216.689 1434.75C216.941 1433.79 216.941 1432.21 216.689 1431.25C216.438 1430.29 216.232 1431.08 216.232 1433ZM217.813 1446.68C218.534 1446.97 219.397 1446.94 219.729 1446.6C220.061 1446.27 219.471 1446.04 218.417 1446.08C217.252 1446.13 217.015 1446.36 217.813 1446.68ZM217.872 1452.75C216.629 1454.34 216.664 1454.37 218.25 1453.13C219.212 1452.37 220 1451.59 220 1451.38C220 1450.56 219.179 1451.08 217.872 1452.75ZM224.405 1457.25L222.5 1459.5L224.75 1457.59C225.988 1456.55 227 1455.53 227 1455.34C227 1454.54 226.195 1455.14 224.405 1457.25ZM181.813 1465.68C182.534 1465.97 183.397 1465.94 183.729 1465.6C184.061 1465.27 183.471 1465.04 182.417 1465.08C181.252 1465.13 181.015 1465.36 181.813 1465.68ZM131.75 1533.66C132.438 1533.94 133.563 1533.94 134.25 1533.66C134.938 1533.38 134.375 1533.16 133 1533.16C131.625 1533.16 131.063 1533.38 131.75 1533.66ZM436.269 1538.69C437.242 1538.95 438.592 1538.93 439.269 1538.66C439.946 1538.38 439.15 1538.17 437.5 1538.19C435.85 1538.21 435.296 1538.44 436.269 1538.69ZM146.079 1540.58C146.127 1541.75 146.364 1541.98 146.683 1541.19C146.972 1540.47 146.936 1539.6 146.604 1539.27C146.272 1538.94 146.036 1539.53 146.079 1540.58Z" fill="#808080"/>
<path fill-rule="evenodd" clip-rule="evenodd" d="M75.753 31.982C72.218 32.645 69.442 34.3789 66 38.0749C65.175 38.9609 61.45 40.485 57.722 41.462C53.887 42.466 50.58 43.946 50.107 44.869C49.647 45.766 49.014 53.7 48.702 62.5C48.389 71.3 47.843 79.2529 47.489 80.1729C46.206 83.5049 50.399 84.1879 75.377 84.7129C91.86 85.0599 100.393 84.868 102.32 84.108L105.139 82.997L104.89 62.748C104.729 49.766 104.256 42.236 103.57 41.765C102.981 41.361 101.339 41.024 99.919 41.015C98.202 41.005 96.892 40.167 96.006 38.511C93.845 34.474 82.307 30.754 75.753 31.982ZM134.5 33.7C133.4 33.957 129.614 35.553 126.088 37.246C122.561 38.939 117.52 40.532 114.887 40.785L110.098 41.245L110.526 47.373C110.761 50.743 111.189 60.449 111.478 68.942C111.767 77.435 112.445 84.6569 112.985 84.9909C113.525 85.3249 117.237 85.288 121.234 84.91C125.23 84.532 136.476 83.8929 146.224 83.4909C156.728 83.0569 164.581 82.295 165.504 81.621C166.869 80.622 166.976 77.7409 166.373 58.2289L165.684 35.9769L159.243 36.637C154.638 37.108 152.586 36.9479 152.047 36.0759C150.621 33.7689 140.226 32.361 134.5 33.7ZM164.747 48.75C164.869 54.662 165.251 64.055 165.596 69.623C166.085 77.531 165.928 79.9259 164.881 80.5729C164.144 81.0289 156.107 81.719 147.02 82.106C137.934 82.493 126.635 83.1339 121.912 83.5289L113.323 84.249L112.662 68.9649C112.298 60.5599 112 51.117 112 47.981V42.28L117.66 41.696C121.755 41.273 123.891 41.511 125.383 42.556C129.456 45.408 144.683 43.756 150 39.884C151.744 38.614 154.319 38.0539 158.512 38.0319L164.524 38L164.747 48.75ZM79.836 45.487C87.116 45.477 90.363 45.034 92.996 43.691C95.374 42.478 97.614 42.1 99.996 42.508L103.5 43.109L103.814 60.732C103.986 70.425 103.865 79.4 103.545 80.678L102.962 83H80.621C68.333 83 56.148 82.7079 53.544 82.3509C48.877 81.7109 48.818 81.6579 49.431 78.6009C49.773 76.8949 50.336 68.648 50.682 60.273L51.311 45.0469L55.406 43.558C61.658 41.286 64.24 41.2689 67.336 43.4769C69.716 45.1749 71.723 45.498 79.836 45.487ZM152.746 52.5879C152.088 53.2449 152.825 74.701 153.582 76.917C153.951 77.997 154.343 78.057 155.233 77.167C156.122 76.278 156.115 75.715 155.2 74.8C154.54 74.14 154 71.7009 154 69.3789C154 65.4999 154.243 65.105 157.008 64.498C161.904 63.423 162.702 60.43 159.74 54.25C158.719 52.119 154.271 51.0619 152.746 52.5879ZM88.723 54.279C87.962 56.263 89.036 70.259 90.082 71.971C90.69 72.968 90.795 71.687 90.384 68.291L89.753 63.083L93.799 61.4639C98.687 59.5079 99.615 57.6149 96.977 54.9769C94.762 52.7619 89.477 52.314 88.723 54.279ZM158.42 54.912C159.443 56.042 160.017 57.983 159.825 59.662C159.567 61.911 158.933 62.565 156.767 62.815C154.094 63.123 154.036 63.016 154.147 58.065C154.271 52.573 155.49 51.673 158.42 54.912ZM60.5 55.5189C54.512 56.7789 54.28 57.063 59 57.349C61.419 57.495 61.5 57.73 61.5 64.65C61.5 74.368 62.682 74.9719 62.905 65.3669C63.105 56.7249 63.345 56 66 56C67.035 56 68.16 55.55 68.5 55C69.236 53.809 68.357 53.8659 60.5 55.5189ZM94.453 55.161C95.854 55.799 97 56.852 97 57.5C97 58.635 92.915 61 90.953 61C89.878 61 89.638 55.695 90.667 54.667C91.526 53.807 91.466 53.8 94.453 55.161ZM122 56C116.701 56.649 116.656 56.68 120.75 56.837L125 57V66.5C125 71.725 125.338 75.9999 125.75 76.0009C126.162 76.0009 126.518 74.5389 126.541 72.7509C126.563 70.9629 126.675 66.732 126.791 63.349L127 57.1989L130.75 56.203L134.5 55.207L131 55.266C129.075 55.299 125.025 55.629 122 56ZM74.5 58.155C67.178 62.16 69.336 70.1829 77.307 68.5889C80.792 67.8919 84 65.356 84 63.3C84 61.53 79.507 56.99 77.795 57.03C77.083 57.047 75.6 57.553 74.5 58.155ZM136.073 60.635C133.45 63.969 133.438 67.0199 136.039 69.8109C138.468 72.4179 143.532 72.716 146.777 70.443C149.637 68.44 149.869 62.096 147.171 59.655C144.246 57.008 138.529 57.513 136.073 60.635ZM80.75 60.334C81.438 60.765 82 62.172 82 63.461C82 65.19 81.175 66.092 78.851 66.902C74.777 68.322 74.44 68.297 72.573 66.431C69.937 63.795 73.412 58.758 77.5 59.29C78.6 59.434 80.063 59.903 80.75 60.334ZM146.571 61.059C149.962 63.874 146.563 71 141.829 71C136.837 71 134.186 64.661 137.6 60.889C139.362 58.943 144.13 59.033 146.571 61.059ZM142.5 151.389C135.039 154.648 129.071 162.701 129.022 169.576C128.964 177.696 140.142 180.047 152 174.41C160.988 170.136 165 166.574 165 162.866C165 159.247 161.223 155.195 157.077 154.365C155.441 154.038 153.334 152.922 152.396 151.885C150.422 149.704 146.776 149.521 142.5 151.389ZM337.5 236.582C336.95 236.728 333.858 237.146 330.63 237.51C325.405 238.101 324.335 238.632 320.904 242.337C315.479 248.195 314.321 251.314 316.394 254.478C318.593 257.834 322.218 258.558 329.45 257.086C335.959 255.76 337.674 254.883 345.75 248.746C351.387 244.463 352.412 241.543 349.25 238.782C347.656 237.39 339.918 235.941 337.5 236.582ZM58.926 267.443C55.07 269.595 45 282.611 45 285.443C45 291.933 52.288 292.567 61.268 286.86C67.854 282.674 75.273 277.106 76.235 275.629C77.367 273.889 77.135 270.564 75.75 268.693C74.634 267.186 73.033 266.841 68 267.025C67.175 267.056 65.375 266.839 64 266.543C62.625 266.248 60.342 266.652 58.926 267.443ZM147.219 355.121C140.481 358.456 132.983 368.792 133.015 374.7C133.034 378.059 133.79 379.327 136.684 380.85C142.23 383.769 149.927 381.182 158.776 373.424C166.772 366.415 169.007 360.311 165.443 355.223C164.119 353.332 162.96 353 157.693 353.001C153.399 353.001 150.188 353.651 147.219 355.121ZM449 437.161C447.625 437.73 444.287 438.404 441.581 438.659C438.876 438.914 435.501 439.732 434.081 440.476C427.393 443.982 420.296 455.345 421.585 460.483C423.067 466.389 430.629 467.653 439.467 463.472C444.669 461.011 455.222 452.523 459.745 447.161C465.746 440.048 458.445 433.254 449 437.161ZM270.342 561.468C265.702 563.464 251.303 573.767 250.603 575.593C248.687 580.586 252.395 585.915 256.956 584.722C258.274 584.377 259.418 584.989 260.477 586.606C261.52 588.197 262.994 589 264.873 589C268.261 589 275.729 583.843 276.935 580.671C277.408 579.427 279.979 576.64 282.648 574.477C285.316 572.315 288.048 569.86 288.718 569.023C290.392 566.93 290.301 563.494 288.532 562.026C286.356 560.22 274.115 559.844 270.342 561.468ZM59.81 565.901C52.383 570.618 47 576.513 47 579.929C47 583.673 49.34 586 53.107 586C54.737 586 57.095 586.672 58.348 587.492C60.436 588.86 61.058 588.762 65.801 586.319C68.778 584.785 71.218 582.77 71.546 581.576C71.859 580.434 72.834 577.811 73.711 575.748C75.202 572.239 75.188 571.865 73.492 569.991C72.494 568.888 71.177 566.977 70.566 565.743C68.926 562.435 65.181 562.49 59.81 565.901ZM456.543 707.128C454.366 707.638 452.012 707.835 451.311 707.566C449.125 706.727 439.885 712.174 438.842 714.915C436.537 720.978 443.005 725.023 451.942 723.106C454.649 722.525 459.708 720.68 463.182 719.006C472.133 714.693 473.877 711.877 470 708C467.816 705.816 463.373 705.528 456.543 707.128ZM144.845 720.795C137.22 726.557 129.873 734.674 128.573 738.771C128.197 739.955 128.377 741.837 128.974 742.952C130.456 745.72 135.488 748.167 138.266 747.469C141.722 746.602 156 730.683 156 727.697C156 726.349 156.675 724.685 157.5 724C158.325 723.315 159 721.91 159 720.878C159 718.753 155.643 714.998 153.75 715.005C153.063 715.007 149.055 717.613 144.845 720.795ZM282.324 786.937C278.927 789.093 275.627 791.829 274.99 793.019C273.358 796.067 275.373 800.498 279.092 802.038C282.75 803.553 286.62 802.797 294.674 798.991C300.333 796.318 301 795.692 301 793.058C301 791.338 300.234 789.57 299.159 788.807C298.146 788.088 296.78 786.487 296.124 785.25C294.27 781.756 289.588 782.328 282.324 786.937ZM111.071 892.105C102.891 894.597 95.012 902.452 95.004 908.123C94.999 911.778 102.867 919 106.855 919C108.45 919 110.315 919.675 111 920.5C112.569 922.39 116.887 922.457 117.599 920.602C117.895 919.832 120.191 918.686 122.702 918.053C129.085 916.446 133.964 913.774 137.675 909.854C139.421 908.009 142.009 905.691 143.425 904.703C146.166 902.791 146.821 899.221 144.8 897.2C144.14 896.54 141.381 896 138.668 896C135.388 896 132.587 895.29 130.306 893.88C126.308 891.409 116.367 890.492 111.071 892.105ZM371 934.662C368.325 935.796 363.821 939.985 361.327 943.66C357.896 948.715 358.509 952.016 363.313 954.362C366.704 956.019 367.944 956.103 374.533 955.123C385.593 953.478 395.189 949.882 396.979 946.711C398.331 944.319 398.282 943.849 396.415 941.296C395.291 939.758 392.792 937.713 390.862 936.752C387.253 934.954 373.681 933.526 371 934.662ZM282.658 968.132C278.895 968.616 273.495 969.597 270.658 970.312C266.192 971.439 265.457 971.976 265.183 974.312C264.772 977.815 267.005 978.681 272.596 977.186C281.139 974.901 299.204 973.851 310.394 974.989C331.117 977.097 343.976 982.875 357.045 995.951C374.606 1013.52 381.081 1032.72 375.663 1051.15C370.343 1069.25 344.524 1086.95 309 1096.86C291.421 1101.76 269.512 1101.8 250.203 1096.97C232.671 1092.58 215.527 1080.85 209.942 1069.43C207.026 1063.47 206.139 1051.43 208.002 1043.1C209.594 1035.99 214.737 1024.75 219.842 1017.23C234.904 995.053 264.275 982.884 285.949 989.844C292.748 992.026 295 991.568 295 988C295 985.326 292.997 984.178 284.392 981.92C274.575 979.343 265.275 979.851 254.202 983.568C231.787 991.093 217.862 1003.27 207.411 1024.5C202.775 1033.92 199 1046.72 199 1053.02C199 1075.34 215.426 1093.5 243.602 1102.33C253.718 1105.5 270.187 1108 281.001 1108C288.326 1108 289.102 1108.17 287.961 1109.55C286.941 1110.78 286.816 1118.32 287.353 1146.3C287.725 1165.66 288.477 1187.12 289.025 1194C292.014 1231.49 293.02 1246.99 294.018 1270.93C294.624 1285.46 295.559 1298.17 296.095 1299.18C297.11 1301.07 301.458 1301.69 302.455 1300.07C302.77 1299.56 302.582 1292.7 302.037 1284.82C301.492 1276.94 300.564 1261.05 299.975 1249.5C299.385 1237.95 298.247 1220.91 297.444 1211.64C294.344 1175.81 293.02 1116.54 295.241 1112.99C296.186 1111.47 296.207 1110.56 295.33 1109.16C294.278 1107.47 294.724 1107.21 300.517 1106.15C326.697 1101.32 355.499 1087.7 369.632 1073.46C388.474 1054.48 389.991 1028.6 373.69 1004.23C363.579 989.111 349.038 977.508 333.876 972.459C319.014 967.509 300.004 965.903 282.658 968.132ZM464.174 998.688C460.456 1000.17 446.958 1025.28 444.398 1035.47C442.372 1043.53 443.323 1046.71 448.039 1047.66C450.854 1048.22 451.049 1048.52 450.467 1051.38C449.218 1057.53 441.018 1072.65 434.621 1080.6C414.567 1105.51 372.442 1138.23 326 1164.96C314.38 1171.64 313.19 1172.11 309.104 1171.57C304.36 1170.95 302 1172.09 302 1175C302 1180.22 311.592 1180.86 320.646 1176.25C334.464 1169.22 369.78 1146.72 387 1133.99C399.309 1124.89 413.699 1112.31 428.153 1098.01C445.722 1080.64 454.519 1066.72 458.064 1050.68C459.183 1045.61 459.882 1044.49 463.425 1042.05C477.303 1032.5 485.106 1016.91 480.483 1007.97C478.993 1005.09 474.453 1002 471.705 1002C470.938 1002 469.495 1001.1 468.5 1000C466.607 997.908 466.333 997.825 464.174 998.688ZM473.531 1010.67C478.532 1015.67 467.673 1032.09 455.157 1038.45C453.318 1039.38 451.585 1039.92 451.305 1039.64C449.513 1037.85 461.734 1012.31 464.838 1011.36C465.752 1011.08 467.175 1010.46 468 1009.99C470.285 1008.66 471.695 1008.84 473.531 1010.67ZM91.841 1025.97C87.542 1027.27 80.345 1032.71 78.09 1036.35C75.438 1040.64 75.361 1046.11 77.921 1048.43C80.152 1050.45 86.591 1050.73 92.741 1049.07C97.156 1047.88 105.754 1042.48 107.322 1039.9C108.716 1037.62 107.343 1033.24 104.998 1032.5C103.899 1032.15 103 1031.22 103 1030.43C103 1028.2 99.244 1024.99 96.75 1025.09C95.512 1025.13 93.304 1025.53 91.841 1025.97ZM504.235 1126.54C502.439 1127.3 500.703 1128.61 500.377 1129.46C499.291 1132.29 500.907 1135.72 503.915 1136.96C505.532 1137.63 507.633 1139.04 508.583 1140.09C512.413 1144.32 530.841 1141.25 536.687 1135.4C539.197 1132.89 539.879 1127.21 537.75 1126.55C537.063 1126.34 529.975 1125.94 522 1125.66C511 1125.28 506.712 1125.49 504.235 1126.54ZM96.5 1162.12C93.657 1163.84 93.033 1165.05 93.015 1168.86C92.986 1175.23 102.941 1181.36 121.809 1186.61L127.927 1188.31L131.457 1185.9C134.293 1183.97 134.988 1182.85 134.993 1180.2C135.008 1173.09 129.635 1167.49 119.405 1163.96C112.126 1161.44 99.328 1160.42 96.5 1162.12ZM113.29 1171.11C118.455 1173.71 124 1177.79 124 1179C124 1179.49 121.515 1179.04 118.479 1177.99C110.322 1175.19 101 1170.85 101 1169.86C101 1168.2 109.125 1169.02 113.29 1171.11ZM260.394 1172.03C258.136 1173.15 253.186 1177.31 249.394 1181.28C245.602 1185.25 238.143 1192.05 232.818 1196.38C227.479 1200.72 222.603 1205.54 221.947 1207.13C219.835 1212.23 217.149 1211.65 176.502 1197.32C163.303 1192.66 150.987 1188.14 149.133 1187.26C145.249 1185.42 142.697 1186.38 142.177 1189.88C141.772 1192.6 144.027 1193.63 172.352 1203.69C204.419 1215.08 210.822 1217 216.766 1217C223.983 1217 228.88 1214.18 228.968 1209.98C228.986 1209.14 233.172 1205.23 238.271 1201.28C243.371 1197.34 250.959 1190.52 255.134 1186.13C261.285 1179.66 263.368 1178.09 266.113 1177.82C268.968 1177.55 269.55 1177.07 269.816 1174.75C270.069 1172.56 269.601 1171.8 267.501 1171C264.285 1169.78 265.23 1169.64 260.394 1172.03ZM286.207 1303.36C278.469 1310.52 264.602 1320.32 239.5 1336.38C228.999 1343.1 227.654 1345.86 224.925 1366.32C223.811 1374.67 221.776 1389.15 220.403 1398.5C219.03 1407.85 217.638 1420.05 217.311 1425.6L216.715 1435.71L209.108 1435.6C200.112 1435.48 195.002 1437.21 194.996 1440.37C194.994 1441.96 193.424 1443.32 188.746 1445.77C171.101 1455 164.605 1464.66 172.237 1470.34C175.986 1473.12 185.652 1473.79 191.284 1471.64C193.603 1470.76 197.887 1469.58 200.804 1469.03C212.225 1466.88 226.928 1457.12 228.56 1450.61C229.099 1448.47 228.607 1446.35 226.642 1442.34C224.911 1438.81 224 1435.31 224 1432.2C224 1426.99 225.957 1410.02 228.982 1389C230.05 1381.57 231.636 1370.41 232.505 1364.19C234.585 1349.31 235.705 1347.17 244.183 1341.84C272.733 1323.88 294.912 1307.35 295.833 1303.35C296.25 1301.53 294.213 1299 292.335 1299C291.553 1299 288.796 1300.96 286.207 1303.36ZM302.111 1303.37C301.409 1304.21 300.99 1305.71 301.18 1306.7C301.502 1308.38 304 1308.54 339.012 1309.12C359.631 1309.46 378.975 1310.06 382 1310.45C390.346 1311.53 395 1312.94 395 1314.38C395 1315.1 392.097 1321.29 388.548 1328.14C380.604 1343.49 379.209 1348.74 381.721 1353.83C385.106 1360.7 392.169 1362.54 407.503 1360.55C412.14 1359.94 414.387 1360.14 417.375 1361.38C424.66 1364.43 435.471 1362.73 437.92 1358.15C441.001 1352.39 437.589 1347.05 428.077 1342.73C419.331 1338.77 412.834 1338.33 400.545 1340.87C395.07 1342 390.443 1342.78 390.263 1342.6C390.083 1342.42 392.932 1336.17 396.594 1328.71C402.281 1317.14 403.158 1314.65 402.6 1311.68C401.237 1304.42 392.143 1303.02 341.943 1302.34C308.054 1301.89 303.232 1302.01 302.111 1303.37ZM95.5 1326.86C90.697 1327.71 89 1328.66 89 1330.48C89 1331.23 87.875 1333.18 86.5 1334.82C83.448 1338.44 83.365 1340.12 86.113 1342.59C87.866 1344.17 89.704 1344.49 96.863 1344.42C107.825 1344.32 116.962 1341.44 122.25 1336.43C126.575 1332.33 126.65 1332.02 124.097 1328.87C122.32 1326.68 121.438 1326.51 110.847 1326.33C104.606 1326.23 97.7 1326.47 95.5 1326.86ZM416.234 1349.86C415.655 1353.8 418.204 1354.57 422.969 1351.9C426.578 1349.87 426.845 1349.85 429.368 1351.51C430.815 1352.45 432 1353.61 432 1354.07C432 1355.71 424.432 1356.28 411.06 1355.66C387.193 1354.54 383.958 1351.51 402.5 1347.65C403.6 1347.42 407.235 1347.18 410.577 1347.12L416.654 1347L416.234 1349.86ZM485.791 1402.99C475.98 1405.95 467.983 1419.78 474.171 1423.09C475.635 1423.87 480.491 1424.1 489.1 1423.79C501.422 1423.35 501.977 1423.23 505.346 1420.42C507.265 1418.81 509.997 1416.69 511.417 1415.7C512.838 1414.72 514 1413.1 514 1412.11C514 1410.14 511.032 1407 509.171 1407C508.527 1407 508 1406.6 508 1406.11C508 1403.07 492.66 1400.92 485.791 1402.99ZM336.006 1405.99C335.421 1407.08 333.718 1408.27 332.221 1408.63C327.915 1409.67 322.303 1412.77 321.646 1414.48C320.556 1417.32 324.515 1420 329.8 1420C332.44 1420 335.062 1420.46 335.627 1421.03C337.198 1422.6 346.159 1423.31 349.25 1422.12C352.129 1421 352.874 1418.27 350.851 1416.25C349.986 1415.39 350.107 1414.49 351.34 1412.6C354.59 1407.64 351.031 1404.08 342.785 1404.03C338.086 1404.01 336.881 1404.35 336.006 1405.99ZM220.907 1447.39C224.323 1451.5 205.807 1462 190.452 1464.65C181.984 1466.11 177 1465.89 177 1464.07C177 1460.69 195.741 1449.2 204.698 1447.1C210.829 1445.65 219.598 1445.81 220.907 1447.39ZM309.5 1513.13C305.724 1515.16 298.901 1523.32 299.207 1525.44C299.673 1528.69 304.622 1530.5 313 1530.5C319.816 1530.5 321.108 1530.16 327.162 1526.75C330.827 1524.69 334.489 1523 335.302 1523C336.114 1523 337.788 1522.18 339.022 1521.18C340.947 1519.62 341.097 1519.05 340.078 1517.15C339.114 1515.34 338.103 1514.96 334.695 1515.09C332.388 1515.19 327.891 1514.53 324.701 1513.63C318.066 1511.76 312.398 1511.58 309.5 1513.13ZM128.021 1534.17C115.756 1535.52 109.22 1538.29 108.617 1542.4C108.496 1543.23 107.69 1544.71 106.827 1545.7C102.355 1550.82 102.277 1554.83 106.594 1557.65C109.683 1559.68 118.015 1558.89 128.032 1555.62C137.136 1552.65 146 1545.04 146 1540.19C146 1534.6 140.569 1532.78 128.021 1534.17Z" fill="black"/>
</svg>
