<svg width="298" height="418" viewBox="0 0 298 418" fill="none" xmlns="http://www.w3.org/2000/svg">
<path fill-rule="evenodd" clip-rule="evenodd" d="M120.753 0.871632C116.122 3.27863 115.865 11.1246 120.325 13.9096C122.161 15.0566 121.937 15.5006 116.461 21.5676C109.027 29.8046 99.6554 45.5396 94.4364 58.5486C85.1144 81.7856 84.3224 101.778 92.0714 118.289C95.4034 125.389 104.079 134.467 110.466 137.537C116.639 140.504 129.267 143.486 139.2 144.321L147.45 145.014L147.438 162.135C147.423 181.458 145.779 197.591 138.99 244.993C132.15 292.755 126.419 312.223 108.736 347.756C100.248 364.813 81.7124 394.243 75.5814 400.398C69.6724 406.33 70.9664 411.647 79.2394 415.431C83.6624 417.454 86.2314 417.895 93.8294 417.937C104.935 417.997 113.812 415.782 128.628 409.253C141.17 403.725 147.739 399.069 150.426 393.804C153.119 388.525 152.978 385.536 149.861 381.833C147.727 379.296 146.535 378.756 143.071 378.756C137.1 378.756 128.934 381.078 114.643 386.841C107.807 389.597 102.054 391.693 101.858 391.498C101.663 391.302 102.713 389.368 104.191 387.199C110.843 377.444 123.757 353.585 129.706 340.063C137.197 323.036 146.618 294.858 148.906 282.633C149.769 278.026 151.612 265.931 153.002 255.756C154.392 245.581 156.932 227.356 158.646 215.256C161.175 197.404 161.874 188.549 162.356 168.292L162.95 143.327L166.95 142.46C175.7 140.561 184.394 137.304 193.427 132.539C206.465 125.661 210.502 122.731 221.32 112.295C237.154 97.0196 241.506 87.8996 241.592 69.8146C241.683 50.7596 236.793 38.8276 223.479 25.6116C216.51 18.6946 213.086 16.1526 206.337 12.8856C194.337 7.07764 187.608 4.95763 173.95 2.68163C159.426 0.261629 124.231 -0.935368 120.753 0.871632ZM177.608 19.1676C194.558 23.3526 202.952 27.3886 211.541 35.4846C222.55 45.8626 227.404 58.1856 226.144 72.5586C225.244 82.8176 223.034 87.8546 215.986 95.7156C207.969 104.656 202.004 109.614 191.798 115.817C175.699 125.602 161.112 129.316 142.016 128.49C125.663 127.784 117.934 125.335 111.385 118.786C98.7354 106.137 99.5564 81.3976 113.55 53.5526C123.887 32.9826 130.781 26.3616 150.45 18.1106C157.77 15.0396 161.468 15.1836 177.608 19.1676ZM171.764 52.6546C167.852 55.1026 166.45 57.5826 166.45 62.0546C166.45 67.2846 169.691 70.7556 174.572 70.7556C182.462 70.7556 187.279 65.9906 186.044 59.4066C184.635 51.8956 177.993 48.7546 171.764 52.6546ZM127.249 63.5056C123.822 67.1666 123.068 70.0686 124.454 74.2686C126.942 81.8056 134.028 82.9796 140.408 76.9106C145.459 72.1056 145.936 67.5146 141.814 63.3916C137.994 59.5726 130.88 59.6286 127.249 63.5056ZM276.95 81.2916C273.197 83.1986 270.45 86.3986 270.45 88.8666C270.45 89.9056 269.975 90.7556 269.394 90.7556C268.813 90.7556 267.421 92.8266 266.302 95.3576C263.707 101.224 264.427 105.717 268.513 109.156C281.827 120.358 304.793 100.968 295.164 86.6536C291.054 80.5436 283.058 78.1896 276.95 81.2916ZM192.105 82.5846C191.195 83.5906 190.45 85.1126 190.45 85.9676C190.45 89.7116 177.053 98.8816 163.45 104.448C152.021 109.125 144.45 109.848 144.45 106.261C144.45 104.323 139.591 100.756 136.95 100.756C133.792 100.756 129.786 104.216 129.162 107.483C128.035 113.376 133.798 120.648 141.231 122.712C153.003 125.982 173.747 119.525 190.95 107.237C204.251 97.7346 208.846 88.7776 203.411 82.9446C200.8 80.1416 194.497 79.9406 192.105 82.5846ZM264.679 118.425C262.7 119.221 260.279 124.643 260.954 126.768C261.387 128.134 260.33 130.016 257.255 133.351C251.417 139.686 229.772 158.18 219.957 165.22C209.254 172.898 188.68 182.756 183.36 182.756C174.292 182.756 170.922 193.363 178.711 197.391C184.044 200.149 190.796 198.469 207.246 190.291C224.728 181.601 232.634 176.049 253.213 158.009C271.594 141.897 277.45 134.663 277.45 128.069C277.45 120.8 270.959 115.899 264.679 118.425ZM101.45 190.593C82.8164 198.57 62.9214 211.556 49.1104 224.756C29.0184 243.959 15.5654 268.09 13.0074 289.516C12.4444 294.23 12.6374 295.034 14.8694 297.266C17.6944 300.091 21.9194 300.517 25.0904 298.296C26.5224 297.293 27.5474 294.868 28.3654 290.546C31.7774 272.52 40.4154 256.562 55.5104 240.399C67.4234 227.643 82.8074 216.814 102.633 207.23C111.842 202.778 112.428 202.627 114.606 204.152C117.7 206.32 120.655 206.169 123.815 203.683C128.761 199.793 126.631 191.983 119.851 189.15C114.767 187.026 108.664 187.504 101.45 190.593ZM159.789 258.691C154.639 261.831 153.576 269.125 157.636 273.465C159.638 275.604 160.557 275.862 164.45 275.378C168.191 274.913 169.385 275.202 171.531 277.094C184.469 288.501 204.996 324.279 214.026 351.161C216.445 358.363 218.43 365.464 218.437 366.941C218.466 372.952 222.749 378.072 227.939 378.299C229.124 378.351 231.174 379.15 232.495 380.075C233.815 380.999 235.628 381.756 236.524 381.756C238.49 381.756 253.07 372.508 263.57 364.602C276.184 355.104 280.372 346.265 275.141 340.183C269.399 333.507 248.283 337.592 235.274 347.896C233.12 349.601 231.199 350.83 231.006 350.627C230.812 350.423 228.542 344.856 225.961 338.256C223.38 331.656 217.884 319.731 213.747 311.756C199.443 284.184 186.99 267.989 174.336 260.506C167.18 256.274 164.335 255.919 159.789 258.691ZM15.7464 306.58C6.52737 309.615 0.100356 318.522 0.00135556 328.399C-0.0596444 334.529 1.93037 337.27 7.53937 338.78C20.6014 342.297 37.9174 318 29.2004 308.386C26.1914 305.068 22.0334 304.51 15.7464 306.58Z" fill="black"/>
</svg>
