<svg width="163" height="125" viewBox="0 0 163 125" fill="none" xmlns="http://www.w3.org/2000/svg">
<path fill-rule="evenodd" clip-rule="evenodd" d="M131.264 0.645563C130.786 1.05247 129.605 3.79629 128.306 7.51769C127.117 10.9247 125.159 16.4867 123.956 19.8775L121.768 26.0426L121.08 24.017C120.701 22.9027 119.672 18.9959 118.794 15.3349C117.915 11.6743 116.902 7.89518 116.541 6.93695C115.315 3.67898 111.929 2.98712 110.522 5.70732C110.201 6.32678 109.767 8.38145 109.556 10.2731C109.346 12.1644 108.386 17.5429 107.425 22.2248C106.463 26.9068 105.561 31.8981 105.422 33.3166C105.177 35.7968 105.206 35.9211 106.178 36.5583C107.427 37.376 108.829 37.0872 109.435 35.8878C110.703 33.379 112.344 25.6562 113.612 16.2288L113.899 14.0995L114.932 18.1647C116.816 25.5738 118.056 28.9711 119.395 30.3916C120.905 31.9914 122.173 32.094 123.776 30.7451C124.948 29.7586 126.057 27.0597 129.884 15.8858L131.393 11.4776L131.649 15.1115C131.79 17.11 132.108 21.7943 132.356 25.5207C132.993 35.1107 133.564 36.8452 136.085 36.8452C138.499 36.8452 140.009 31.8419 137.807 31.1423C137.006 30.8884 136.993 30.7734 136.035 15.6481C135.214 2.69791 135.073 1.51861 134.242 0.68699C133.34 -0.214711 132.291 -0.229036 131.264 0.645563ZM72.0889 2.77496C71.6576 3.25387 71.1964 3.95348 71.0636 4.32902C70.0601 7.17079 66.8749 33.7866 67.2176 36.4666C67.5335 38.9355 69.7446 39.8213 71.7179 38.2688C72.855 37.3745 73.0277 36.1181 72.1698 34.9834C71.8569 34.5703 71.5956 33.6539 71.589 32.9473L71.5766 31.6627L72.6568 32.432C74.619 33.8288 78.3558 34.8316 81.6812 34.8533C85.118 34.8757 85.9016 34.511 85.9016 32.8896C85.9016 31.1938 84.9101 30.6735 81.2557 30.452C78.141 30.2627 74.6739 29.2917 74.6739 28.608C74.6739 28.0423 79.3408 25.1649 80.6591 24.9175C81.5538 24.7495 82.2581 24.878 82.9573 25.3361C83.9016 25.9547 84.0289 25.9555 84.9546 25.3492C86.837 24.1157 86.9036 21.9139 85.087 20.9774C83.7881 20.3076 80.5406 20.3723 78.2459 21.1133C77.1804 21.4575 75.4165 22.4141 74.3259 23.24L72.3428 24.7406L72.5414 23.2918C72.651 22.4947 73.1907 18.5325 73.7413 14.4866C74.4231 9.47364 74.9554 6.82235 75.4115 6.16262C76.5277 4.54971 76.6674 3.79164 76.029 2.81716C75.2241 1.58869 73.1764 1.56701 72.0889 2.77496ZM34.0649 6.06583C32.9084 7.02483 32.5879 9.27773 32.1213 19.7199C31.5015 33.6024 31.4848 39.3145 32.0625 40.0107C32.6444 40.7122 33.548 40.6325 34.8756 39.7625L35.8423 39.1291L36.1242 28.5503C36.4544 16.1487 36.8811 10.1175 37.47 9.52861C38.1854 8.81314 37.9419 7.33728 36.943 6.33878C35.8172 5.21253 35.1683 5.15097 34.0649 6.06583ZM15.6317 6.91372C11.731 7.8704 7.88071 10.996 4.64558 15.832C1.10266 21.1288 -0.29848 25.6493 0.0522887 30.6502C0.285748 33.9833 1.46621 35.8947 4.08807 37.1855C6.67393 38.4585 11.3965 38.4458 15.2445 37.1553C19.1928 35.8309 23.9611 33.7026 25.4075 32.6186C28.3086 30.445 25.4745 27.2657 22.4667 29.32C21.0849 30.2639 17.3751 31.8574 14.1678 32.8849C11.1154 33.8629 7.43238 34.0561 6.04053 33.3112C3.94869 32.1915 3.65445 29.0582 5.20658 24.4274C7.45522 17.7183 12.3006 12.2089 16.8559 11.1818C18.7154 10.7621 19.9342 11.2852 20.8959 12.9147C21.8685 14.5629 22.9096 14.9473 24.1682 14.1227C26.3816 12.6724 24.4365 8.6815 20.7686 7.14911C19.2582 6.51765 17.5632 6.44022 15.6317 6.91372ZM42.0187 13.8397C41.2704 14.6663 41.1952 15.9323 41.8232 17.1255C42.6653 18.7256 44.2887 19.0532 45.3832 17.8437C46.2543 16.8812 46.1885 15.381 45.2213 14.1517C44.2856 12.962 42.9324 12.8299 42.0187 13.8397ZM150.384 16.8479C146.968 17.9366 143.357 21.0188 141.706 24.2547C139.865 27.8631 139.665 33.3643 141.287 35.7321C142.624 37.6838 144.108 38.397 147.249 38.5987C152.415 38.9301 157.489 37.1182 160.801 33.7592C162.734 31.7978 163.07 30.3614 161.852 29.2588C160.711 28.2266 159.847 28.4999 157.932 30.4977C155.879 32.6391 152.955 33.9365 149.451 34.2617C145.004 34.6744 143.784 33.3658 144.719 29.1879C144.979 28.0226 145.274 27.0694 145.372 27.0694C145.471 27.0694 145.938 27.3179 146.409 27.6222C148.875 29.2115 154.244 29.1268 156.948 27.455C159.509 25.8727 160.689 21.4478 159.216 18.9545C157.832 16.611 153.998 15.6961 150.384 16.8479ZM43.5651 20.4896C42.3246 21.9643 41.9994 24 41.9765 30.4389C41.9603 35.1084 42.0257 35.6009 42.7331 36.1371C43.6959 36.8665 44.5101 36.8979 45.4103 36.2397C46.005 35.8049 46.1246 35.0035 46.2338 30.7226C46.3038 27.968 46.559 25.0174 46.8002 24.1657C47.6698 21.0982 47.6802 20.8612 46.9794 20.0869C45.9871 18.9905 44.6987 19.1422 43.5651 20.4896ZM155.518 21.9159C155.722 23.3511 154.315 24.3592 152.106 24.3592C150.72 24.3592 150.171 24.2079 150.171 23.8257C150.171 23.5327 149.896 23.0646 149.56 22.7862C148.589 21.9805 150.998 20.864 153.461 20.9786C155.125 21.0556 155.414 21.1876 155.518 21.9159ZM54.2298 22.0874C52.2665 23.0595 50.0175 25.8312 49.6644 27.7152C48.8382 32.1176 51.5232 35.1537 56.5644 35.5184C59.4128 35.7244 61.805 35.0627 63.6197 33.5667C64.78 32.6104 65.0158 32.1807 64.9194 31.1977C64.8381 30.373 64.4796 29.8175 63.7734 29.4229C62.8152 28.8879 62.6448 28.9185 61.2568 29.8771C58.8212 31.5597 55.0088 31.6615 54.0057 30.0707C52.9065 28.3288 56.662 24.7243 58.4274 25.827C59.5223 26.5107 60.6304 26.4008 61.5104 25.5207C62.5681 24.463 62.4841 23.7247 61.1531 22.3936C60.1852 21.4261 59.7225 21.262 57.959 21.2623C56.6345 21.2623 55.3003 21.5577 54.2298 22.0874ZM66.8811 57.1345C66.4707 57.6296 66.3476 59.543 66.3391 65.5552C66.3329 69.8342 66.1769 76.4101 65.9922 80.1687L65.6562 87.0017L66.6632 88.0087C67.9087 89.2542 69.2436 89.2945 70.3478 88.1194C71.3211 87.083 71.4233 86.0446 70.6378 85.1743C70.1627 84.6485 70.1546 83.0751 70.577 73.916C71.1252 62.0352 71.0199 58.1926 70.1186 57.1712C69.3632 56.3152 67.5776 56.2947 66.8811 57.1345ZM87.1599 57.4581C85.8633 58.0215 85.5772 58.5704 86.3356 59.0393C86.7964 59.3243 86.6775 63.7104 85.8397 77.3091C85.4324 83.9242 85.449 84.4298 86.1003 85.1491C86.9148 86.0493 88.702 86.1616 89.3714 85.3547C89.6285 85.045 89.9126 83.2594 90.0028 81.3863C90.0934 79.5136 90.3381 75.1065 90.5472 71.593C90.7563 68.0795 90.9289 63.3322 90.9309 61.0429L90.9347 56.8809L89.6765 56.896C88.9842 56.9045 87.8522 57.1573 87.1599 57.4581ZM102.737 94.3446C102.52 94.501 102.085 95.0024 101.769 95.4585C101.453 95.9142 99.328 97.8825 97.0465 99.8323C94.7653 101.782 89.5499 107.034 85.4568 111.504C78.3911 119.219 77.9822 119.595 77.3639 118.938C77.0058 118.557 74.6232 115.894 72.0699 113.019C69.5162 110.145 65.7336 106.094 63.6646 104.018C60.3996 100.742 59.731 100.243 58.6048 100.243C56.9214 100.243 56.015 101.16 56.166 102.711C56.2593 103.67 56.5737 104.056 57.686 104.578C59.0589 105.222 72.9619 119.977 74.9434 122.894C76.7902 125.611 78.3562 125.69 80.6432 123.182C91.5581 111.214 97.2188 105.339 100.614 102.457C105.487 98.32 106.034 97.7218 106.034 96.522C106.034 94.8596 103.939 93.4758 102.737 94.3446Z" fill="black"/>
</svg>
