<svg width="161" height="57" viewBox="0 0 161 57" fill="none" xmlns="http://www.w3.org/2000/svg">
<path fill-rule="evenodd" clip-rule="evenodd" d="M52.8881 1.68712C51.9889 1.82332 50.9972 2.01824 50.6844 2.12018C49.8579 2.38946 48.7651 2.95985 48.7651 3.12207C48.7651 3.19898 48.6077 3.26183 48.4152 3.26183C48.2227 3.26183 47.9439 3.39205 47.7956 3.55129C47.5642 3.79966 47.5146 4.14671 47.4446 6.00376C47.3998 7.19346 47.2629 9.5103 47.1404 11.1524C47.018 12.7945 46.7878 15.8654 46.6288 17.9767C46.0606 25.5304 46.0488 28.0288 46.5531 33.9711C46.6759 35.4177 46.8128 37.8781 46.8574 39.4387C46.9021 40.9993 46.9995 42.3901 47.074 42.5293C47.4032 43.1446 48.5991 42.9937 48.7808 42.314C48.8396 42.0936 48.8299 40.6222 48.7593 39.044C48.6885 37.4659 48.6289 35.9952 48.6268 35.7758L48.6229 35.3769L48.9495 35.7566C49.2117 36.0613 49.4096 36.1402 49.9511 36.1555C50.5568 36.1727 50.6171 36.2039 50.538 36.4591C50.4897 36.6155 50.4157 37.0366 50.3738 37.3948C50.3044 37.9871 50.3354 38.0774 50.716 38.3901L51.1346 38.7338L50.5165 40.0071C49.3996 42.3085 49.2647 43.1432 49.906 43.7845C50.2429 44.1213 51.1221 44.1554 51.5291 43.8475C51.9624 43.5198 52.0169 43.5951 51.8002 44.224C51.6893 44.5458 51.5608 45.0845 51.5147 45.421C51.4422 45.9504 51.4805 46.0827 51.7976 46.3998C52.4201 47.0223 53.4116 46.8231 54.4113 45.8747L54.8683 45.4412L54.716 45.9923C54.5177 46.7111 54.631 47.8361 54.9358 48.1729C55.1703 48.4321 55.1015 48.4411 52.3618 48.5087C49.2314 48.5861 48.2851 48.7739 47.7777 49.4191C47.4853 49.7909 47.398 50.3965 47.5943 50.6905C47.6518 50.7765 47.8468 50.925 48.0275 51.0202C48.3043 51.1659 48.4491 51.145 48.9425 50.8879C49.7728 50.4551 51.3343 50.3264 55.8026 50.3229C59.4097 50.32 59.6699 50.3024 60.1157 50.0306C60.5441 49.7694 60.587 49.6832 60.5587 49.1425C60.5091 48.198 60.5364 48.1078 61.063 47.4774C61.6026 46.8317 61.6425 46.6753 61.4028 46.1491C61.0464 45.3672 60.0758 45.398 59.5803 46.2071C59.4575 46.4077 59.2132 46.7916 59.0376 47.0602C58.8619 47.3287 58.718 47.7245 58.7177 47.9395C58.7172 48.3063 58.6788 48.3305 58.0952 48.3305C57.7531 48.3305 57.2632 48.3724 57.0067 48.4237L56.5402 48.5171L56.8468 48.2105C57.2345 47.8228 57.2372 47.3381 56.8542 46.8512C56.6233 46.5576 56.5761 46.3588 56.6473 45.9789C56.7542 45.4091 56.7188 45.4257 57.2437 45.6994C57.7737 45.9758 58.2022 45.9688 58.8244 45.6737C59.5096 45.3484 60.4232 44.4573 60.4232 44.1141C60.4232 43.7056 59.901 43.2123 59.4688 43.2123H59.0941L59.4033 42.8833C59.9794 42.2699 59.6629 41.4664 58.78 41.3007C58.26 41.2032 57.6495 41.4576 57.3997 41.8757C57.3162 42.0156 57.1885 42.0228 56.8557 41.9068C56.3891 41.7442 56.265 41.8114 54.7375 43.0559L54.1441 43.5391L54.5893 42.8155C54.8343 42.4175 55.5645 41.4962 56.2121 40.7683C57.4932 39.3282 57.6689 38.9631 57.3641 38.3738C57.1484 37.9566 56.8917 37.8097 56.378 37.8097C56.0136 37.8097 54.3717 38.8405 53.1543 39.8334L52.3541 40.486L52.8543 39.5861C53.1294 39.0912 54.0883 37.7693 54.9853 36.6486C55.8823 35.5278 56.7299 34.4672 56.8691 34.2917C57.1106 33.9868 57.1452 33.9821 57.6354 34.187C58.0562 34.3627 58.2668 34.3718 58.8011 34.2373C59.6082 34.034 60.8793 33.0887 61.627 32.1358C61.9965 31.6646 62.2392 31.465 62.3308 31.5565C62.4077 31.6335 62.6954 31.6963 62.9703 31.6963C63.3996 31.6963 63.5843 31.5733 64.2792 30.8246L65.0883 29.953L65.3042 30.3704C65.7074 31.1498 66.8689 31.3625 67.8873 30.8433C68.1941 30.6869 68.4475 30.5591 68.4504 30.5593C68.4536 30.5596 68.4611 30.7909 68.4674 31.0736C68.4823 31.7488 68.9607 32.1471 69.6865 32.0887L70.2063 32.0468L70.0064 32.4332C69.8965 32.6457 69.8066 32.924 69.8066 33.0515C69.8066 33.2535 69.7453 33.2455 69.3309 32.9894C69.0692 32.8276 68.3523 32.5264 67.738 32.3201C66.8184 32.0114 66.4633 31.9596 65.7298 32.0281C64.6297 32.1309 64.3222 32.2872 62.9024 33.4661C60.2994 35.6272 59.0263 38.2089 59.5684 40.2266C59.8123 41.1347 60.7359 41.9964 61.6829 42.1994C63.2321 42.5317 65.965 41.8444 67.7656 40.6696C68.8551 39.9588 70.3093 38.4215 70.6757 37.5932C71.0418 36.7656 71.1726 35.5608 70.9619 34.9565C70.7761 34.4236 70.7545 34.466 71.2753 34.341C71.6475 34.2516 71.6689 34.2686 71.562 34.5697C71.3596 35.1404 71.4473 35.817 71.7649 36.1348C72.0586 36.4285 72.0598 36.4457 71.8093 36.8031C71.4314 37.3422 71.2026 38.155 71.3091 38.5796C71.5418 39.5065 72.6221 39.7577 73.8725 39.1754C74.8736 38.7094 75.0751 38.0892 74.4336 37.4479L74.0847 37.0988H74.4116C74.8776 37.0988 75.2318 36.6393 75.3115 35.9313C75.4002 35.1447 75.0553 34.7868 74.2197 34.7984C73.9037 34.8028 73.6453 34.7804 73.6453 34.749C73.6453 34.7176 73.8388 34.3866 74.0754 34.0137C74.6021 33.183 74.8122 32.4484 74.6932 31.8534C74.5729 31.2517 73.9915 30.8049 73.4162 30.8721L72.9708 30.9242L73.237 30.3031C73.563 29.5427 73.5705 29.23 73.2735 28.7768C72.9839 28.3348 72.1775 28.3018 71.6549 28.7107C71.0958 29.1479 71.0292 29.0462 71.4281 28.3655C71.871 27.6098 71.9014 26.9668 71.5127 26.5781C71.0279 26.0933 70.6072 26.221 69.52 27.1823C68.1667 28.3791 67.3931 28.995 67.2433 28.995C67.0527 28.995 67.8395 27.5611 68.1296 27.3801C68.7038 27.0214 68.274 25.9875 67.4663 25.7849C67.1017 25.6934 66.8274 25.879 64.9804 27.4694L64.3482 28.0137L64.1593 27.6532C63.7939 26.9557 62.9406 26.9802 62.4542 27.702C62.2024 28.0756 62.1293 28.1217 62.1293 27.9071C62.1293 27.7549 62.0494 27.5486 61.9516 27.4489C61.6907 27.1829 62.3871 26.6685 63.6932 26.1627C65.2464 25.5611 66.3591 25.3946 68.074 25.507C70.7696 25.6837 72.0348 26.2059 73.593 27.7854C75.9222 30.146 76.7064 33.3414 75.7743 36.6723C74.7643 40.2821 70.9923 44.5615 68.0083 45.4832C66.9292 45.8166 64.9085 45.8713 63.4706 45.6064C62.6896 45.4626 62.5288 45.4719 62.2102 45.6808C61.7683 45.9703 61.7042 46.7418 62.0938 47.0819C62.7938 47.6931 66.3661 47.8954 68.1006 47.4221C70.6069 46.7384 72.8461 45.0467 74.9504 42.2475L75.5834 41.4054L75.8414 42.4155C76.1912 43.7844 76.8739 45.0828 77.8473 46.2309C81.1771 50.1579 86.1714 51.1826 92.1897 49.1734C96.2183 47.8286 99.4197 45.7151 101.003 43.3556C101.668 42.3636 101.949 41.6528 102.152 40.4432L102.247 39.8777L102.657 41.1525C102.882 41.8534 103.158 42.6197 103.27 42.8551C103.382 43.0907 103.629 43.6695 103.819 44.1413C104.236 45.1774 105.415 46.8219 106.157 47.4046C106.985 48.0541 108.845 48.9018 109.963 49.1387C111.681 49.5031 114.067 49.1475 115.586 48.3007C116.61 47.7299 117.081 47.3259 117.876 46.3349C118.356 45.7369 118.586 45.5507 118.73 45.642C119.061 45.8518 119.652 45.7859 119.9 45.5113C120.166 45.2173 120.214 44.4847 119.982 44.2527C119.871 44.1423 119.88 44.0157 120.012 43.8047C120.267 43.3949 120.029 42.7815 119.506 42.5058C119.279 42.3861 118.976 42.1762 118.832 42.0393C118.485 41.7081 118.124 41.7256 117.652 42.0968C117.311 42.3655 117.274 42.4701 117.351 42.9515C117.453 43.595 117.171 44.2413 116.361 45.2125C115.085 46.7437 113.462 47.4042 111.207 47.3102C109.969 47.2588 109.734 47.203 108.904 46.7644C107.07 45.7951 105.456 43.6661 104.648 41.1508C103.887 38.7827 103.786 37.875 103.786 33.4045C103.786 29.1508 103.839 28.4263 104.149 28.4263C104.251 28.4263 104.484 28.2348 104.667 28.001C104.963 27.6228 105.205 27.5287 106.845 27.1545C108.743 26.7217 110.935 26.4274 111.172 26.5737C111.255 26.6253 111.255 26.8688 111.172 27.2214C110.691 29.2575 110.764 32.6639 111.321 34.1515C111.477 34.5686 111.813 35.136 112.067 35.4121L112.529 35.9143L112.019 36.1309C111.37 36.4065 110.993 36.9142 109.902 38.9826C109.053 40.5923 108.652 41.0811 108.852 40.2622C109.098 39.2565 109.383 38.7159 110.063 37.9732C110.829 37.135 111.313 36.2623 111.318 35.7063C111.325 34.9899 110.307 34.4534 109.63 34.8161C109.381 34.9491 108.292 36.4918 107.868 37.3121C107.746 37.5467 107.514 37.8499 107.351 37.986C107.062 38.2284 107.056 38.224 107.056 37.7634C107.056 37.5047 107.126 36.9159 107.211 36.4548C107.343 35.7374 107.476 35.4974 108.129 34.7922C108.939 33.9173 109.149 33.3559 108.988 32.4977C108.783 31.4029 107.463 31.1452 106.88 32.0861C106.401 32.8587 106.64 32.1737 107.165 31.2692C107.669 30.4007 107.737 30.3414 108.298 30.2746C109.358 30.1483 109.967 28.8934 109.343 28.1222C109.125 27.8531 108.935 27.7866 108.383 27.7866C107.232 27.7866 106.326 28.7101 105.154 31.0803C104.176 33.0575 104.126 34.3019 104.99 35.166C105.451 35.6269 105.461 35.6605 105.322 36.3109C105.244 36.6793 105.202 37.5245 105.229 38.1889C105.277 39.3467 105.298 39.4141 105.743 39.8118C105.998 40.04 106.366 40.2266 106.56 40.2266C106.895 40.2266 106.914 40.2697 106.914 41.0228C106.914 41.7386 106.962 41.8677 107.397 42.3024C107.783 42.6885 107.993 42.7857 108.44 42.7857C108.9 42.7857 109.03 42.8496 109.163 43.1415C109.355 43.5641 110.123 44.064 110.58 44.0647C110.775 44.065 111.124 44.2943 111.447 44.634C111.939 45.1516 112.053 45.2027 112.709 45.2027C113.827 45.2027 115.235 44.1903 116.988 42.1251C117.742 41.2373 118.454 40.5106 118.572 40.5101C118.689 40.5096 118.961 40.4174 119.176 40.3053L119.567 40.1014V40.8147C119.567 41.4136 119.634 41.5948 119.983 41.9436C120.262 42.2229 120.542 42.3592 120.836 42.3592C121.076 42.3592 121.273 42.4202 121.273 42.4949C121.273 42.7252 122.575 43.6388 122.904 43.6388C123.325 43.6388 123.832 43.0672 123.832 42.5924C123.832 42.3702 123.684 42.0555 123.485 41.8566L123.137 41.5092L123.463 41.1166C123.943 40.5401 124.116 40.156 124.116 39.6706C124.116 39.1494 123.587 38.7371 123.05 38.8397C122.742 38.8986 122.695 38.8565 122.695 38.5228C122.695 38.3113 122.57 38.025 122.417 37.8868C122.143 37.6387 122.146 37.6209 122.683 36.5496C123.232 35.4545 123.548 34.3396 123.547 33.502C123.546 32.8359 123.088 32.1693 122.549 32.0509C122.221 31.9789 122.141 31.9091 122.254 31.7957C122.34 31.7097 122.41 31.4297 122.41 31.1735C122.41 30.5549 121.904 30.2041 121.182 30.3215C120.497 30.4325 120.198 30.7319 119.854 31.65C119.494 32.612 119.494 32.9026 119.851 33.2602C120.188 33.5971 120.206 33.6867 119.934 33.6867C119.616 33.6867 119.169 34.5434 119.06 35.3588C118.98 35.9643 118.911 36.1036 118.689 36.1036C118.538 36.1036 118.237 36.1959 118.019 36.3088C117.573 36.5391 117.054 37.7056 116.909 38.8002C116.836 39.3499 116.649 39.6461 115.635 40.8144C114.982 41.5677 114.213 42.3628 113.927 42.5813L113.406 42.9785L113.985 42.2068C114.821 41.0926 115.167 40.3503 115.257 39.4785C115.331 38.7654 115.309 38.6888 114.945 38.4024C114.493 38.047 113.928 38.0053 113.512 38.2966C113.228 38.4954 113.225 38.4864 113.367 37.7936C113.468 37.3022 113.465 36.9651 113.359 36.6821C113.206 36.2771 113.206 36.2764 113.648 36.4031C114.38 36.6129 114.787 36.5518 115.702 36.0945C117.064 35.4137 118.699 33.3846 119.189 31.7674C119.594 30.4281 119.598 30.1502 119.216 29.7686C119.025 29.5778 118.711 29.4215 118.517 29.4215C118.127 29.4215 117.577 30.012 117.577 30.4305C117.577 31.0255 116.957 32.2712 116.212 33.1743C114.058 35.7859 112.743 34.6966 112.743 30.301C112.743 28.88 112.787 28.5534 113.042 28.0777C113.299 27.5975 113.318 27.4468 113.182 26.9912C113.063 26.5939 112.914 26.4244 112.582 26.3088C112.34 26.2242 112.069 26.1956 111.98 26.2453C111.886 26.2979 111.892 26.2558 111.996 26.144C112.27 25.8493 112.207 25.2304 111.874 24.9296C111.335 24.4439 108.814 24.6788 105.452 25.5276C104.721 25.7121 104.595 25.7108 104.319 25.5168C103.891 25.2176 103.468 25.2432 103.02 25.5954C102.154 26.2768 101.972 27.3819 101.848 32.7177L101.764 36.3691L101.158 34.6086C100.302 32.1231 99.5361 30.864 97.756 29.0139C95.3257 26.488 92.0246 25.0099 88.8281 25.0166C86.8144 25.0209 84.553 25.6874 84.2536 26.3648C84.1845 26.5212 83.5174 27.0622 82.771 27.567C81.3089 28.5561 79.0609 30.6121 78.4022 31.5624L77.9956 32.1494L77.6224 30.9631C77.177 29.5469 76.8053 28.7924 75.9776 27.6242C74.731 25.8647 72.7982 24.4883 70.8018 23.9382C69.5346 23.5891 66.4003 23.5079 65.0157 23.7885C63.7666 24.0416 62.0872 24.697 61.2786 25.2469L60.7787 25.5869L60.6759 25.1228C60.6193 24.8676 60.5039 23.7311 60.4191 22.5973C60.2625 20.4987 60.4163 15.0543 60.7084 12.3609C61.2333 7.52358 61.3131 3.79995 60.9075 3.08297C60.6567 2.63996 60.2043 2.26662 59.9183 2.26662C59.7459 2.26662 59.5293 2.17534 59.4366 2.06374C58.874 1.38572 55.9767 1.21909 52.8881 1.68712ZM24.0327 3.14652C23.646 3.56152 23.6666 4.08998 24.0868 4.53356C24.2761 4.73331 24.936 5.85647 25.5533 7.02939C26.1708 8.20231 26.8477 9.43267 27.0577 9.76337C27.5209 10.4934 27.5251 10.5425 27.1194 10.486C26.9109 10.457 26.7004 10.2435 26.5151 9.87284C26.0229 8.88844 25.0693 8.73745 24.5311 9.55878C24.3406 9.84967 23.7311 13.1674 23.3507 15.9863L23.2354 16.8393L22.6149 15.6561C21.8 14.1025 21.3377 13.6404 20.5976 13.6404C19.4345 13.6404 19.0542 14.496 19.0497 17.1236C19.0481 18.062 18.9998 18.7593 18.9423 18.6733C18.7886 18.4433 18.2586 18.1899 17.9311 18.1899C17.7738 18.1899 17.4657 18.3442 17.2464 18.5328L16.8474 18.8758L16.8009 23.4733L16.7544 28.0709L16.3456 27.289C16.1208 26.8589 15.9337 26.3609 15.93 26.1821C15.9263 26.0034 15.8226 25.7036 15.6995 25.5158C15.2026 24.7574 13.9329 25.0237 13.9329 25.8863C13.9329 26.1133 14.3141 28.0093 14.78 30.0996C15.6421 33.9674 15.9519 35.8157 15.6196 35.1084C14.2619 32.2186 13.3083 30.3063 13.1231 30.1015C12.8276 29.7751 12.0515 29.7724 11.7729 30.0969C11.2008 30.7629 11.3542 31.2957 13.0126 34.4027C13.681 35.6547 14.4124 37.2712 14.7013 38.1346C15.2018 39.6302 15.639 41.6882 15.639 42.5479V42.9836L15.2288 42.3369C14.2693 40.8238 13.0938 38.6708 12.779 37.8498C12.4077 36.8813 12.0067 36.5793 11.3208 36.7515C10.9013 36.8569 10.6629 37.194 10.6629 37.682C10.6629 37.8568 10.9758 38.6767 11.3581 39.5041C12.2902 41.521 12.9982 43.4542 13.5684 45.5382C14.0741 47.3873 14.3395 48.9263 14.1112 48.6859C13.8314 48.3913 12.6555 46.6562 12.1818 45.839C11.0071 43.8124 9.36731 41.1449 9.18277 40.9604C8.70749 40.4851 7.67731 40.9199 7.67731 41.5958C7.67731 41.9833 8.83487 44.2083 9.90628 45.8803C10.9106 47.4473 11.1681 47.9729 11.4339 48.9992C11.7214 50.1082 11.7261 50.0857 11.2672 49.798C9.69288 48.8107 8.21244 47.3119 8.51399 47.0104C8.76094 46.7634 8.70066 46.1252 8.40494 45.8577C8.25779 45.7244 7.90208 45.5506 7.61461 45.4712C7.17387 45.3495 7.01265 45.3734 6.58955 45.6231L6.08739 45.9192L6.18748 45.3121C6.2425 44.9783 6.68764 43.1056 7.17643 41.1508C8.14747 37.2686 8.79407 35.4617 12.012 27.6397C14.8036 20.854 15.1891 20.0366 17.8913 15.1742C19.2942 12.6493 20.944 9.57598 21.5572 8.34449C22.1705 7.11299 22.7541 6.10527 22.8542 6.10527C23.1855 6.10527 23.5995 5.21726 23.6 4.50583C23.6009 3.42148 22.8553 2.93184 22.0558 3.492C21.8664 3.62451 21.3143 4.58943 20.7525 5.7696C19.6056 8.179 17.8176 11.533 15.9884 14.7067C13.6581 18.7501 12.924 20.367 8.86786 30.3906C6.27606 36.7959 5.98659 37.7186 4.42227 44.5629C3.57108 48.2867 3.2421 49.2921 2.20566 51.3371C1.77445 52.1877 1.42172 53.0139 1.42172 53.173C1.42172 53.3321 1.58707 53.6156 1.78924 53.8028C2.03733 54.0327 2.12889 54.2313 2.07117 54.4136C2.01828 54.5799 2.10415 54.8344 2.29466 55.0767L2.60389 55.4698L7.52205 55.4195C10.2269 55.3917 13.3358 55.3937 14.4305 55.4239C16.1933 55.4723 16.5184 55.4436 17.2734 55.1729C17.7961 54.9855 18.1447 54.9238 18.1747 55.0136C18.3819 55.6351 19.3832 55.7816 19.8689 55.2614C20.2603 54.8421 20.3953 54.2616 20.1906 53.879C19.8733 53.2863 20.7535 46.4785 21.6064 42.9279C22.1142 40.8144 22.1224 40.6566 21.7468 40.2535C21.1396 39.6016 20.0463 40.0491 20.0463 40.9493C20.0463 41.1904 19.9137 41.9073 19.7516 42.5422C19.3556 44.0926 18.685 48.1469 18.4764 50.2498C18.2403 52.6303 18.2541 52.5979 17.2665 53.077L16.4209 53.4873L9.79468 53.5168L3.16845 53.5462L3.64956 52.695C4.56231 51.0801 5.33089 49.1029 5.70026 47.4187C5.87698 46.6134 5.89034 46.5955 6.01702 46.9922C6.49671 48.4944 9.73397 51.4432 11.394 51.8902C12.0578 52.0689 12.9515 51.7506 13.2262 51.2373C13.3985 50.9153 13.4313 50.9062 13.6633 51.1162C13.8012 51.241 14.154 51.4256 14.4471 51.5264C15.1793 51.7781 15.6911 51.5797 16.0025 50.9234C16.2972 50.3024 16.2202 48.5734 15.8094 46.5888L15.5519 45.3448H16.0028C16.5898 45.3448 17.1393 44.9017 17.3521 44.2568C17.5925 43.5287 17.4468 41.006 17.0756 39.4659L16.7722 38.2074L17.1896 37.7321C17.9079 36.9139 17.9119 35.4791 17.2047 32.2387C16.8449 30.5902 16.846 30.5589 17.266 30.5589C17.8487 30.5589 18.3246 30.0093 18.4828 29.1534C18.5609 28.7321 18.6246 26.9212 18.6246 25.1289V21.8703L18.9406 22.0916C19.3437 22.3741 20.0361 22.3753 20.4371 22.0944C20.9562 21.7309 21.0847 20.8982 20.9735 18.6164C20.9184 17.4826 20.9026 16.5869 20.9386 16.626C20.9745 16.6651 21.3112 17.2924 21.6867 18.0199C22.4669 19.5315 22.9679 20.0382 23.6826 20.0382C24.6363 20.0382 24.7152 19.8248 25.2873 15.7019C25.5131 14.075 25.5566 13.9218 25.6509 14.4224C25.9419 15.9682 26.0746 16.256 26.5602 16.3953C26.9405 16.5043 27.0955 16.4762 27.415 16.24L27.8051 15.9516L28.2619 16.7763C28.5132 17.23 28.7188 17.7699 28.7188 17.9762C28.7188 18.2995 28.6747 18.3376 28.3989 18.2526C28.2229 18.1983 27.9063 18.0661 27.6952 17.9586C26.7517 17.4789 25.8754 17.9064 25.8754 18.8465C25.8754 19.2544 25.9895 19.475 26.4273 19.9128L26.9793 20.4647H26.5798C26.0822 20.4647 25.591 21.0457 25.591 21.6343C25.591 22.2229 26.8579 23.4527 29.3586 25.2919C30.4533 26.097 31.4059 26.8078 31.4755 26.8715C31.5468 26.9369 31.4364 27.1842 31.2222 27.4388C30.5449 28.2436 30.9956 28.9318 33.7918 31.3618C34.9482 32.3668 36.2153 33.4993 36.6072 33.8784L37.3202 34.5676L35.9696 33.6509C34.2013 32.4505 32.8892 31.6963 32.569 31.6963C32.4274 31.6963 32.1429 31.8289 31.9369 31.991C31.0905 32.6567 31.5587 33.4238 34.1214 35.5696C35.802 36.977 39.6661 40.3873 39.6661 40.4632C39.6661 40.4941 39.0068 40.0105 38.2013 39.3885C36.5963 38.1496 34.5068 36.8145 34.1727 36.8145C33.803 36.8145 33.4015 37.104 33.2621 37.4709C33.078 37.9549 33.3697 38.4829 34.2236 39.2117C35.9442 40.68 37.2524 41.8339 38.1022 42.6328L39.0263 43.5016L37.7062 42.7171C36.2001 41.8221 35.7148 41.7406 35.2691 42.3073C34.7127 43.0146 34.8703 43.4077 36.3161 44.9183C37.9313 46.6059 38.0911 46.8639 38.002 47.6408C37.9333 48.2407 37.9614 48.3248 38.3073 48.5515C38.517 48.6889 38.978 48.8073 39.332 48.8147C39.8462 48.8254 40.03 48.7607 40.2473 48.4924C40.5726 48.0908 40.5965 47.4157 40.305 46.857C40.1881 46.6329 40.0926 46.4299 40.0926 46.4057C40.0926 46.3816 40.5454 46.624 41.0988 46.9444C42.3556 47.6719 43.3909 47.8192 43.8957 47.3421C44.4173 46.8493 44.2999 46.002 43.6044 45.2382L43.3129 44.9183H43.754C44.3421 44.9183 44.8409 44.3124 44.7259 43.7376C44.5882 43.0495 43.2454 41.2794 41.8463 39.9419C41.1104 39.2383 40.5777 38.6627 40.6624 38.6627C40.747 38.6627 40.9734 38.5056 41.1653 38.3137C41.8577 37.6215 41.5675 36.7893 39.9732 34.8952L39.2552 34.0421L39.6384 33.9947C40.0717 33.9411 40.5039 33.6041 40.6535 33.2035C40.8265 32.7401 42.7272 37.2987 44.7166 42.9481C45.3675 44.7966 46.0384 46.5802 46.2073 46.9113C46.8031 48.0791 47.7027 48.5281 48.2455 47.9283C48.5348 47.6085 48.5529 46.8612 48.2768 46.6321C48.0082 46.4091 47.4159 44.9532 46.4227 42.0749C44.7804 37.3161 43.3665 34.0001 40.9363 29.2083C39.6276 26.6279 38.1417 23.6135 37.6346 22.5095C36.5221 20.0885 35.2044 17.887 33.4035 15.44C32.6645 14.4359 31.583 12.9644 31.0001 12.1701C29.504 10.1313 27.8824 7.51349 26.8141 5.41261C26.311 4.42309 25.737 3.4384 25.5387 3.22443C25.0883 2.73849 24.4438 2.70508 24.0327 3.14652ZM57.8595 3.38793C58.107 3.45688 58.2375 3.61967 58.3033 3.94155C58.4146 4.4855 58.6387 4.78165 59.0342 4.90719C59.3149 4.99619 59.322 5.06628 59.2269 6.79651C59.1726 7.78475 59.0045 10.0648 58.8534 11.8633C58.7024 13.6617 58.5771 15.5171 58.575 15.9863C58.5697 17.1599 58.4657 17.4791 58.0886 17.4791C57.427 17.4791 56.5634 18.1881 53.9673 20.8632C53.1924 21.6616 52.5284 22.2849 52.4917 22.2482C52.3614 22.1179 52.7711 20.822 53.2596 19.8202C53.5324 19.2608 54.0973 18.3931 54.5148 17.8922C55.2931 16.9587 56.9204 15.535 57.145 15.5912C57.2751 15.6237 57.5798 14.885 57.5798 14.5368C57.5798 14.4276 57.4189 14.1774 57.222 13.9805C56.7814 13.5399 56.7232 13.5534 54.5635 14.5978C53.6472 15.0409 52.8553 15.361 52.8035 15.3092C52.6245 15.1302 53.6318 13.78 54.6579 12.8235C55.2243 12.2953 56.1404 11.5439 56.6938 11.1537C57.7615 10.4007 57.982 9.98601 57.6593 9.3387C57.2465 8.51069 56.2563 8.73731 54.076 10.1585C52.6214 11.1066 52.795 10.8225 54.7746 9.01568C56.026 7.87347 56.2121 7.75205 56.6541 7.79016C57.0772 7.82655 57.1847 7.76741 57.4365 7.3598C57.7878 6.79069 57.7153 6.30701 57.2112 5.85647C56.5816 5.29404 56.166 5.42341 54.6272 6.66131C52.8918 8.05716 50.9298 10.1023 50.3444 11.1255C49.745 12.1732 49.6349 13.019 50.0326 13.5228C50.1975 13.7318 50.5195 13.9439 50.7483 13.9943L51.164 14.0855L50.8886 14.7277C50.3125 16.072 50.7193 17.1602 51.8592 17.3242L52.4413 17.408L51.9556 18.1899C51.2725 19.2895 50.6196 21.2195 50.6162 22.1493C50.6134 22.9086 50.9475 23.8768 51.2123 23.8768C51.2892 23.8768 51.2069 24.1168 51.0292 24.41C50.0076 26.0956 49.4812 27.3458 49.4775 28.0955C49.4754 28.5219 50.1223 29.2521 50.5498 29.306C50.9024 29.3505 50.9023 29.351 50.2635 30.3012C49.4123 31.5671 48.6281 33.483 48.6045 34.3539C48.5944 34.7298 48.4715 33.7898 48.3315 32.265C47.9948 28.5982 47.9947 25.3017 48.3312 20.8912C48.4833 18.8972 48.6751 16.1462 48.7576 14.7778C48.9775 11.1259 49.3449 6.08238 49.418 5.7143C49.4616 5.49422 49.5829 5.39441 49.807 5.39441C50.2903 5.39441 50.6252 5.08575 50.7375 4.53668C50.8343 4.06339 50.8704 4.0405 51.8983 3.80023C53.737 3.37045 56.9898 3.14553 57.8595 3.38793ZM28.7915 12.3253C29.0882 12.7749 30.1701 14.2624 31.1959 15.6308C33.5562 18.7797 34.5723 20.4812 36.4666 24.4575C37.3018 26.2103 38.4959 28.636 39.1201 29.8481C40.219 31.9811 40.2361 32.029 39.651 31.3409C38.5311 30.0238 37.1479 28.7579 35.381 27.4327C34.4145 26.708 33.5918 26.0857 33.5527 26.0499C33.5136 26.0141 33.9883 26.2156 34.6077 26.4976C35.5971 26.9483 35.7896 26.9922 36.1925 26.8593C36.7173 26.686 37.0395 26.0923 36.8639 25.6218C36.7362 25.2798 35.5435 24.205 34.0149 23.0545C33.0633 22.3382 32.9945 22.2526 33.1934 22.0328C33.5065 21.6869 33.4604 21.1291 33.0906 20.7873C32.9146 20.6246 32.3456 20.2595 31.826 19.9757C31.0037 19.5266 30.8692 19.3957 30.7884 18.9652C30.7244 18.6237 30.7638 18.3733 30.9157 18.1565C31.3675 17.5115 31.1202 16.6978 30.3947 16.4409C30.1255 16.3455 29.4418 15.0701 28.8945 13.6423C28.4891 12.5846 28.1427 11.5078 28.2078 11.5078C28.2322 11.5078 28.4947 11.8758 28.7915 12.3253ZM137.379 16.7989C137.205 16.8819 137.002 17.1488 136.928 17.3922C136.854 17.6355 136.751 19.4979 136.7 21.531C136.649 23.564 136.564 25.2712 136.511 25.3247C136.3 25.5372 133.095 25.8672 131.241 25.8672C129.353 25.8672 129.262 25.8807 128.9 26.2158C128.693 26.4076 128.524 26.6615 128.524 26.7801C128.524 26.9145 128.442 26.9645 128.308 26.9129C127.951 26.7757 127.272 27.1451 127.136 27.5511C127.066 27.7588 127.056 28.0887 127.112 28.2842C127.288 28.889 127.25 29.8458 126.971 31.7674C126.674 33.8174 126.605 34.1614 126.294 35.1508C126.035 35.974 126.124 36.4154 126.612 36.7352C126.962 36.9643 127.146 36.9467 130.772 36.3365C132.859 35.9854 134.998 35.6539 135.526 35.5999L136.485 35.5018V36.6486C136.485 37.9279 136.925 40.4406 137.346 41.566C137.498 41.9708 137.809 42.5971 138.038 42.9576C139.37 45.0589 144.032 46.8425 147.489 46.5735C149.816 46.3924 152.771 45.4623 155.039 44.1971C157.036 43.083 157.02 43.1301 156.879 38.7017C156.804 36.3479 156.823 35.4353 156.952 35.1246C157.184 34.5645 156.975 34.1964 156.216 33.8302C155.451 33.4604 155.09 33.47 154.492 33.8761C153.374 34.6346 150.41 35.3156 149.366 35.0536C148.965 34.9529 148.57 34.3219 148.57 33.7822C148.57 33.4605 148.645 33.4261 149.672 33.2753C150.721 33.121 154.378 32.8381 155.359 32.8351C156.254 32.8324 156.738 31.7718 156.107 31.2C155.851 30.9685 155.636 30.9534 153.867 31.043C152.791 31.0975 151.303 31.2109 150.561 31.2951C149.818 31.3793 148.89 31.4655 148.499 31.4867C147.505 31.5406 146.417 31.8127 146.12 32.0819C145.785 32.3851 145.801 33.0506 146.153 33.4024C146.31 33.5588 146.493 33.6867 146.561 33.6867C146.629 33.6867 146.726 33.9971 146.777 34.3764C146.887 35.2095 147.57 36.299 148.196 36.6418C148.55 36.8355 148.992 36.8839 150.347 36.8771C151.933 36.8691 152.156 36.832 153.511 36.3543L154.968 35.8402V37.0158C154.968 37.6623 155.009 39.049 155.059 40.0975L155.15 42.0038L153.886 42.6622C149.332 45.0345 145.556 45.3269 141.86 43.594C140.57 42.9895 139.74 42.2768 139.345 41.4367C138.622 39.9001 138.134 36.4781 138.455 35.203C138.544 34.8494 138.578 34.4573 138.529 34.3315C138.423 34.0544 137.668 33.6422 137.479 33.7585C137.405 33.8044 137.224 33.7774 137.076 33.6984C136.729 33.5128 135.013 33.6995 131.299 34.3269C129.737 34.5909 128.44 34.7881 128.417 34.7651C128.395 34.7422 128.436 34.4102 128.51 34.0274C128.934 31.8275 129.116 30.2227 129.071 29.0661L129.021 27.7866H130.814C132.36 27.7866 132.55 27.8106 132.193 27.9607C131.65 28.1885 130.227 29.6187 129.672 30.4931C129.096 31.4021 129.07 32.255 129.602 32.787C129.944 33.1291 130.037 33.1494 130.988 33.0869C131.615 33.0455 132.349 32.8807 132.897 32.6584L133.787 32.297L134.319 32.5758C135.225 33.0506 136.94 32.7133 138.231 31.8068L138.625 31.5295L138.544 32.075C138.417 32.9279 138.974 33.7655 139.862 34.0535C139.881 34.0598 139.641 34.5591 139.328 35.163C138.589 36.5911 138.544 37.4729 139.176 38.105C139.45 38.3797 139.736 38.5206 140.018 38.5206C140.43 38.5206 140.444 38.5412 140.421 39.1402C140.379 40.2101 141.02 40.9375 142.004 40.9375C142.385 40.9375 142.426 40.9874 142.5 41.5414C142.652 42.6726 143.792 43.1228 145.109 42.5725C145.713 42.3201 145.772 42.3127 145.654 42.5042C145.605 42.5839 145.639 42.8757 145.73 43.1528C146.106 44.2912 147.606 44.1594 149.227 42.8455L149.812 42.3709L150.352 42.6461C151.235 43.0961 152.222 42.6933 152.71 41.6838C152.999 41.0868 153 41.0649 152.743 40.7011C152.328 40.1135 152.288 40.0357 152.206 39.6405C152.102 39.1417 151.438 38.8504 150.964 39.0957C150.781 39.1903 150.519 39.3661 150.382 39.4859C150.149 39.6895 150.138 39.6736 150.224 39.2459C150.399 38.3703 149.748 37.7816 148.943 38.0875C148.746 38.1623 148.342 38.4429 148.044 38.7109C147.747 38.9791 146.864 39.5395 146.082 39.9562C144.85 40.6129 144.691 40.6674 144.889 40.3637C145.014 40.171 145.578 39.7575 146.142 39.4447C147.326 38.7877 147.704 38.3055 147.497 37.7163C147.422 37.5023 147.15 37.2042 146.892 37.0539C146.439 36.7895 146.404 36.7888 145.764 37.033C145.401 37.1718 144.837 37.5306 144.512 37.8305C143.944 38.3542 142.65 39.0453 142.506 38.9016C142.468 38.8636 142.567 38.5776 142.726 38.2661C142.928 37.869 143.29 37.5259 143.935 37.1185C144.441 36.7987 145.02 36.3603 145.22 36.1442C146.172 35.1181 145.086 33.9998 143.663 34.5406C143.456 34.6192 142.922 35.0312 142.477 35.4562C141.74 36.1589 140.951 36.6356 140.79 36.4748C140.755 36.44 140.946 36.0684 141.215 35.649C141.726 34.849 142.589 34.0168 143.621 33.3289C144.437 32.7838 144.589 32.5806 144.589 32.0327C144.589 31.5557 144.187 31.1276 143.739 31.1276C143.618 31.1276 143.009 31.3508 142.384 31.6235C141.311 32.0921 140.466 32.2617 140.466 32.0086C140.466 31.9458 140.661 31.6298 140.899 31.3062C141.256 30.8207 141.659 30.5591 143.209 29.8078C144.982 28.9487 145.091 28.9143 145.158 29.1951C145.431 30.3377 146.71 30.7244 148.355 30.1617C149.062 29.9203 149.067 29.9207 149.422 30.2554C149.746 30.5613 149.868 30.5849 150.774 30.5174C151.407 30.4702 152.171 30.2831 152.875 30.0034C153.483 29.7616 154.224 29.5637 154.523 29.5637C155.535 29.5637 155.943 28.548 155.191 27.9011C154.703 27.4812 154.207 27.4876 153.035 27.9287C152.516 28.1242 152.066 28.2842 152.036 28.2842C152.007 28.2842 151.982 28.0702 151.982 27.8086C151.982 26.8118 151.158 26.601 149.98 27.2962C149.285 27.7059 149.248 27.7129 149.324 27.423C149.625 26.2716 148.088 25.8533 146.657 26.6975C146.328 26.8916 146.129 26.9389 146.067 26.8378C145.885 26.5444 143.982 26.7803 143.256 27.1863C142.508 27.6039 142.544 27.5146 143.594 26.3336C143.976 25.9038 144.577 25.4417 145.087 25.1862C146.283 24.5865 146.64 24.1732 146.52 23.5311C146.411 22.9518 146.103 22.7394 145.371 22.7394C144.758 22.7394 144.447 22.8889 143.594 23.5942C142.999 24.0864 141.897 24.7299 141.649 24.7299C141.589 24.7299 141.943 24.3237 142.435 23.8273C143.153 23.1034 143.398 22.9379 143.675 22.9908C144.201 23.0915 144.731 22.6749 144.731 22.1604C144.731 21.4379 144.371 20.9164 143.796 20.8086C143.517 20.7561 143.14 20.7806 142.96 20.8628C142.115 21.2475 139.55 24.0285 139.14 25.0037C138.959 25.4346 138.946 25.44 138.711 25.1805C138.494 24.9406 138.479 24.6494 138.565 22.3611L138.66 19.8093L141.945 19.498C143.751 19.3269 145.959 19.1446 146.851 19.0933L148.472 18.9997L148.375 19.4834C148.062 21.0419 147.683 23.275 147.692 23.5043C147.697 23.6513 147.834 23.9119 147.995 24.0835C148.157 24.2551 148.253 24.4304 148.211 24.4732C148.069 24.615 148.454 25.265 148.763 25.4053C148.967 25.4976 149.587 25.4808 150.632 25.3547C151.492 25.2511 153.14 25.122 154.294 25.0679L156.393 24.9698L156.332 27.5156C156.299 28.9157 156.232 30.1617 156.183 30.2842C156.045 30.6317 156.628 31.2698 157.084 31.2698C158.003 31.2698 158.236 30.5006 158.241 27.4473C158.243 26.3827 158.314 25.2559 158.398 24.9431C158.736 23.6876 158.722 23.3526 158.32 23.089C158.047 22.9105 157.806 22.8714 157.418 22.9426C157.126 22.9961 155.864 23.0971 154.612 23.1671C153.361 23.237 151.714 23.3388 150.951 23.3931L149.564 23.4921L149.64 23.0802C149.923 21.5328 150.161 20.0862 150.299 19.0684C150.447 17.9732 150.438 17.8578 150.18 17.5122C149.848 17.0679 149.246 16.8765 148.761 17.0612C148.567 17.1346 147.852 17.1947 147.17 17.1947C146.129 17.1947 144.069 17.366 139.507 17.8318C138.842 17.8997 138.76 17.8787 138.76 17.6383C138.76 17.2969 138.35 16.8151 137.978 16.7204C137.822 16.6806 137.552 16.7159 137.379 16.7989ZM58.7975 25.4183C58.9228 26.0953 59.06 26.953 59.1025 27.3245C59.1724 27.9346 59.1519 27.9998 58.8901 27.9998C58.5144 27.9998 57.9857 28.6356 57.6668 29.4706C57.4176 30.1234 57.2542 30.2686 57.0822 29.9902C57.0339 29.912 56.8984 29.8481 56.7811 29.8481C56.4822 29.8481 53.1996 31.9683 51.7647 33.088C50.6253 33.9772 50.5748 34.0011 50.6712 33.6047C50.8337 32.9366 51.8999 31.1651 52.7476 30.1544C53.1787 29.6408 54.2504 28.587 55.129 27.8127C56.5105 26.5957 56.7268 26.3462 56.7268 25.9697C56.7268 25.4012 56.3628 25.0142 55.828 25.0142C55.4471 25.0142 53.8772 25.7687 52.2695 26.7242L51.722 27.0497L52.0056 26.4939C52.3753 25.7698 53.8603 23.6964 54.1146 23.5493C54.5055 23.3229 56.406 21.7479 57.3738 20.8481L58.3617 19.9297L58.4658 22.0586C58.5231 23.2294 58.6724 24.7414 58.7975 25.4183ZM24.1748 22.1976C23.8051 22.5946 23.8068 23.0282 24.18 23.5026C24.3422 23.7088 25.2647 25.5016 26.2299 27.4864C27.1953 29.4712 28.1257 31.2261 28.2974 31.3862L28.6098 31.6772L28.1311 31.7509C27.8679 31.7916 26.1057 31.8537 24.2151 31.8891L20.7775 31.9535L20.6841 31.3999C20.5182 30.4182 22.0627 26.2872 23.2303 24.59C23.5122 24.1802 23.7428 23.785 23.7428 23.7116C23.7428 23.4059 23.2986 22.7531 23.0335 22.6688C22.5134 22.5039 22.1836 22.748 21.4751 23.8225C20.2399 25.6959 18.3317 31.137 18.5478 32.1697C18.5996 32.4175 18.6369 32.8442 18.6305 33.1176C18.6243 33.3911 18.6935 33.7943 18.7844 34.0137C18.9647 34.4487 19.8282 34.9663 20.374 34.9663C20.7727 34.9663 21.1895 34.5545 21.2216 34.1292C21.2415 33.8641 21.3365 33.8275 22.0315 33.8167C22.4644 33.81 24.2262 33.7582 25.9465 33.7019C28.8038 33.6081 29.1475 33.5693 29.9219 33.2521C30.6481 32.9545 30.7988 32.8277 30.974 32.3665C31.1468 31.9108 31.1487 31.7729 30.9858 31.4685C30.88 31.2708 30.6295 31.0761 30.4293 31.036C30.1115 30.9725 29.7902 30.4069 27.9049 26.5925C26.1863 23.1153 25.6692 22.1872 25.3766 22.0539C24.8364 21.8078 24.5006 21.8479 24.1748 22.1976ZM124.109 26.2003C123.91 26.3044 123.174 26.4325 122.474 26.4848C120.812 26.6091 119.232 26.9628 118.792 27.309C118.59 27.4677 118.399 27.806 118.343 28.1023C118.259 28.5529 118.297 28.6625 118.642 28.9595C119.068 29.3261 119.636 29.3089 119.935 28.9205C120.123 28.6757 122.416 28.2856 123.671 28.2847C124.543 28.2842 124.573 28.296 124.483 28.604C123.995 30.2763 123.916 31.0217 123.91 33.9711C123.906 36.6708 123.942 37.1723 124.22 38.2659C124.614 39.8166 125.233 41.194 125.981 42.1839C126.299 42.605 126.537 42.9671 126.511 42.9886C126.484 43.0101 125.535 43.4744 124.401 44.0205C121.979 45.1867 119.55 46.7346 119.308 47.2647C119.051 47.8286 119.105 48.1398 119.515 48.4623C120.031 48.868 120.318 48.8332 120.894 48.2949C121.628 47.6084 124.092 46.1827 126.102 45.281C127.077 44.8438 128.04 44.3275 128.242 44.1335C128.445 43.9396 128.751 43.7809 128.923 43.7809C129.663 43.7809 130.092 42.6649 129.543 42.168C129.4 42.0386 129.088 41.9327 128.85 41.9327C127.899 41.9327 126.704 40.1789 126.088 37.8808C125.832 36.9218 125.782 36.331 125.774 34.1132C125.763 31.306 125.937 29.9499 126.403 29.1915C126.553 28.9477 126.676 28.5868 126.676 28.3898C126.676 27.9004 126.247 27.4097 125.796 27.3825C125.591 27.3701 125.451 27.315 125.485 27.2599C125.635 27.0173 125.328 26.4081 124.96 26.2177C124.476 25.9677 124.552 25.9693 124.109 26.2003ZM140.307 26.8624H140.739L140.299 27.5703C139.985 28.0746 139.848 28.4873 139.82 29.0051C139.794 29.4795 139.685 29.8385 139.506 30.0389C139.355 30.2076 139.133 30.4924 139.013 30.6718L138.796 30.9979V30.6367C138.796 29.9629 138.063 29.5363 137.461 29.8589C137.283 29.954 137.198 29.9602 137.251 29.8742C137.412 29.6139 137.075 29.0131 136.643 28.7896C136.178 28.549 135.974 28.5922 135.149 29.1063C134.706 29.3827 134.614 29.4038 134.687 29.212C134.859 28.765 134.618 28.2809 134.087 28.0082L133.571 27.7426L134.069 27.6676C137.873 27.0933 138.413 26.9797 138.722 26.6891C138.9 26.5226 139.045 26.3064 139.045 26.2089C139.045 26.1112 139.232 26.2183 139.46 26.4469C139.737 26.7237 140.02 26.8624 140.307 26.8624ZM89.6068 27.5022C90.0633 28.0177 90.4903 28.1252 90.9997 27.8527C91.151 27.7716 91.2747 27.6037 91.2747 27.4795C91.2747 26.9398 93.4061 27.8656 95.0925 29.1378C96.9935 30.5719 98.3146 32.3564 99.178 34.6569C100.296 37.6363 100.541 39.8148 99.9393 41.4236C99.3745 42.9332 97.1998 44.8637 94.5833 46.1787C93.9399 46.502 93.3744 46.7666 93.3266 46.7666C93.2788 46.7666 93.4054 46.5697 93.6078 46.3291C93.8238 46.0726 93.9759 45.7165 93.9759 45.4678C93.9759 45.2347 94.0504 44.4372 94.1415 43.6956L94.3073 42.3474L94.8169 42.8371C96.0386 44.0108 96.9222 44.3135 97.8005 43.8593C98.673 43.4082 98.9777 42.4198 99.2447 39.1757L99.4306 36.9162L99.0946 36.644C98.8873 36.4763 98.594 36.3887 98.3294 36.4156C97.9091 36.4582 97.8973 36.4417 97.7451 35.6005C97.6595 35.1282 97.5032 34.5335 97.3977 34.2787C97.0717 33.4916 96.034 33.1705 95.2555 33.6156C95.06 33.7274 94.8521 33.8211 94.7934 33.8239C94.7347 33.8266 94.6855 33.333 94.6839 32.727C94.6807 31.4478 94.4713 29.8108 94.2368 29.2319C94.0661 28.8102 93.6299 28.5685 93.0394 28.5685C92.5343 28.5685 91.5071 29.5775 91.1375 30.4368L90.8258 31.1612L90.4001 29.9004C89.9118 28.4535 89.5231 27.9998 88.7723 27.9998C88.2903 27.9998 87.7044 28.4032 87.5608 28.8339C87.5143 28.9734 87.4169 28.9683 87.1123 28.8102C85.9992 28.2327 85.131 29.422 84.7238 32.0817L84.5485 33.2264L84.1084 32.568C83.7297 32.0011 83.5928 31.9033 83.1245 31.8648C82.799 31.838 82.4428 31.9103 82.2376 32.0446C81.8126 32.3231 81.3601 33.1883 81.2371 33.958C81.155 34.4712 81.0991 34.5397 80.7626 34.5397C80.138 34.5397 79.8069 34.9835 79.6103 36.0836L79.4333 37.0742L78.9783 37.0005C78.6028 36.9396 78.469 36.9958 78.212 37.3225C77.8455 37.7885 77.8837 38.3022 78.4264 40.1932C78.6118 40.8395 78.7635 41.5702 78.7635 41.817C78.7635 42.383 79.1202 42.7857 79.6213 42.7857C79.9761 42.7857 80.0911 42.9484 80.9855 44.7167C81.9682 46.6594 82.3063 47.0509 83.0008 47.0509C83.4201 47.0509 84.0229 46.41 84.0308 45.9559C84.0368 45.6201 84.1119 45.7021 84.5129 46.4822C85.0785 47.5825 85.3883 47.8894 86.04 47.9952C86.4296 48.0585 86.6171 47.9991 86.9727 47.6998C87.4144 47.3281 87.5405 46.9602 87.7957 45.2995L87.8792 44.7564L88.2796 45.2995C88.5 45.598 88.9075 46.0584 89.1853 46.3224C89.8275 46.9329 90.6053 46.9996 91.2785 46.5018L91.7256 46.1713L92.0333 46.4575C92.2025 46.615 92.5329 46.7649 92.7675 46.7907C93.1347 46.8311 93.0457 46.8917 92.1277 47.2261C85.2662 49.7253 79.5948 47.7026 77.6847 42.0749C77.3196 40.9993 77.3174 38.6879 77.6801 37.241C78.4284 34.2558 80.1679 31.8476 83.2419 29.5407C85.2515 28.0325 87.414 27.0143 88.621 27.0076C89.0674 27.0052 89.2461 27.0949 89.6068 27.5022ZM148.073 28.2842C147.681 28.4523 147.542 28.4523 147.646 28.2842C147.694 28.206 147.874 28.1465 148.045 28.1519C148.346 28.1616 148.347 28.1663 148.073 28.2842ZM61.7028 28.9146C61.7028 29.1965 59.0955 32.1228 58.8443 32.1228C58.5759 32.1228 59.1552 30.7703 59.5593 30.4541C59.8214 30.249 60.0212 29.9338 60.0768 29.6372C60.1614 29.1864 60.2158 29.1454 60.8995 29.0205C61.3022 28.9468 61.6478 28.879 61.6673 28.8698C61.6867 28.8604 61.7028 28.8807 61.7028 28.9146ZM133.949 29.801C134.16 29.7458 134.191 29.7713 134.079 29.9071C133.895 30.1279 131.663 31.1865 131.572 31.0955C131.536 31.0594 131.858 30.6971 132.288 30.2906C132.977 29.6391 133.105 29.5705 133.37 29.7126C133.536 29.8011 133.796 29.8409 133.949 29.801ZM89.1547 32.2836C89.5101 33.6627 89.992 34.3976 90.5405 34.3976C91.3969 34.3976 91.9265 33.8312 92.3685 32.4427C92.4992 32.0322 92.6486 31.6963 92.7005 31.6963C92.7524 31.6963 92.8374 32.736 92.8892 34.0066L92.9834 36.3169L93.4108 36.7079C93.6459 36.9228 93.9879 37.0988 94.1707 37.0988C94.5594 37.0988 95.0798 36.6344 95.4376 35.968C95.5769 35.7087 95.7276 35.5332 95.7727 35.5782C95.8176 35.6232 96.0344 36.6574 96.2544 37.8765C96.479 39.1221 96.7716 40.2937 96.922 40.5509C97.1794 40.9905 97.1671 41.7745 96.8988 42.0429C96.8461 42.0955 96.3902 41.7112 95.8853 41.1887C95.2167 40.4966 94.8334 40.2137 94.4727 40.146C93.7465 40.0098 93.2918 40.1759 92.9769 40.6925C92.744 41.0744 92.6974 41.1011 92.6969 40.8529C92.6957 40.148 91.6429 39.7951 91.1153 40.3229C90.8921 40.5461 90.8166 40.9244 90.7075 42.3666C90.5676 44.2151 90.4665 44.7761 90.2729 44.7761C90.2095 44.7761 89.8534 44.2884 89.4819 43.6921C89.1102 43.0958 88.6098 42.4883 88.3699 42.342C87.7624 41.9717 87.0736 41.9978 86.6643 42.4071C86.3447 42.7267 86.0143 43.826 86.0143 44.5699C86.0143 45.4009 85.5532 44.66 85.0809 43.0701C84.9531 42.64 84.7221 41.8891 84.5674 41.4011C84.1282 40.0162 83.3258 39.578 82.5114 40.2785C82.1714 40.571 82.1124 40.7423 82.0582 41.5919L81.9961 42.5691L81.6592 41.8062C81.414 41.2504 81.3226 40.7832 81.3226 40.0859C81.3226 39.145 81.3286 39.1298 81.6733 39.1957C81.9294 39.2446 82.1402 39.1464 82.4553 38.8315L82.8865 38.4003V36.6206C82.8865 35.6417 82.9431 34.8059 83.0122 34.7632C83.0813 34.7204 83.2175 34.878 83.315 35.1131C83.5632 35.7124 84.2435 36.2458 84.7599 36.2458C85.0563 36.2458 85.3314 36.1024 85.6466 35.7838C86.0249 35.4012 86.1338 35.1384 86.2801 34.2554C86.6073 32.2799 86.5588 32.4023 86.9451 32.5782C87.1737 32.6824 87.4425 32.6901 87.7529 32.6014C88.1244 32.495 88.2543 32.3548 88.3989 31.9046C88.6649 31.0763 88.7009 30.9854 88.7633 30.9854C88.7944 30.9854 88.9706 31.5696 89.1547 32.2836ZM121.297 33.6377C121.563 33.8776 121.66 34.5397 121.431 34.5397C121.361 34.5397 121.264 34.3808 121.215 34.1864C121.158 33.9585 120.99 33.799 120.743 33.7369C120.395 33.6497 120.385 33.6304 120.638 33.5315C121.027 33.3795 121.009 33.3765 121.297 33.6377ZM66.3818 34.4182C67.1533 34.187 67.4982 34.2137 68.2136 34.5601C69.618 35.2399 69.483 36.5459 67.8451 38.1273C67.3196 38.6346 66.5704 39.2112 66.18 39.4087C64.3729 40.323 62.1488 40.6559 61.6358 40.089C61.2781 39.6938 61.3991 38.4982 61.9003 37.4738C62.2947 36.6676 63.5866 35.252 64.5953 34.5208C65.1146 34.1444 65.1596 34.1358 65.4904 34.3526C65.7799 34.5424 65.9303 34.5534 66.3818 34.4182ZM87.8978 34.5869C87.3063 34.8015 85.4311 36.4204 84.8706 37.2002C83.6698 38.8712 83.7506 40.1469 85.0985 40.7994C86.3417 41.4013 87.694 41.0373 89.924 39.5008C91.7583 38.2369 92.412 37.4806 92.412 36.622C92.412 35.5883 91.8108 35.0656 90.4082 34.8804C89.9856 34.8245 89.4338 34.6931 89.1822 34.5882C88.6443 34.3642 88.5124 34.364 87.8978 34.5869ZM101.893 36.8412C101.847 36.9545 101.813 36.9208 101.807 36.7552C101.801 36.6054 101.834 36.5215 101.881 36.5687C101.928 36.6159 101.934 36.7386 101.893 36.8412ZM89.924 37.1829C89.279 37.7243 87.6352 38.7772 87.059 39.018C85.7225 39.5763 85.6146 39.1053 86.7898 37.8428C87.5857 36.9878 87.9276 36.864 89.5686 36.8374L90.3505 36.8247L89.924 37.1829ZM30.496 37.4793C29.4334 37.6124 27.2135 38.1397 25.5892 38.6448C24.6127 38.9484 23.614 39.2398 23.3697 39.2926C22.8825 39.3976 22.4062 39.8401 22.2598 40.3237C22.1911 40.5505 22.2727 40.7477 22.5633 41.0564C23.1228 41.6509 23.6212 41.7321 24.1228 41.3107C24.3439 41.1249 25.1483 40.7734 25.9103 40.5295C27.4967 40.0216 28.2966 39.8197 29.607 39.5964C29.7831 39.5664 30.0393 39.4971 30.1761 39.4426C30.3592 39.3695 30.4253 39.413 30.4266 39.6072C30.4287 39.9463 32.036 44.6195 32.9132 46.8377C34.4626 50.7554 36.1402 53.3065 37.167 53.3065C37.3559 53.3065 37.6952 53.4126 37.9209 53.5421C38.4454 53.8431 38.9827 53.7154 39.2437 53.2276C39.6433 52.481 42.9308 50.8778 45.2574 50.2949C45.8964 50.1348 46.4993 49.9393 46.597 49.8605C46.6948 49.7818 46.7747 49.4708 46.7747 49.1694C46.7747 48.7493 46.6958 48.5697 46.4368 48.4C46.1305 48.1992 45.9945 48.2001 44.9795 48.4091C43.0933 48.7975 40.79 49.7708 38.9487 50.9574C37.7819 51.7093 37.6073 51.6589 36.74 50.318C35.6258 48.5958 34.4084 45.7033 32.7767 40.9018C32.2942 39.4819 32.273 39.3509 32.4784 39.0574C32.8179 38.5729 32.7561 38.0169 32.325 37.6779C31.9605 37.391 31.5529 37.3468 30.496 37.4793ZM121.839 39.7324C121.74 39.8516 121.63 39.9198 121.594 39.8841C121.495 39.7855 121.696 39.5158 121.867 39.5158C121.962 39.5158 121.951 39.5974 121.839 39.7324ZM111.554 41.2574C111.226 42.1336 110.752 42.5529 110.752 41.9664C110.752 41.7385 111.681 40.3688 111.836 40.3688C111.863 40.3688 111.736 40.7687 111.554 41.2574ZM149.139 40.4225C149.139 40.452 149.027 40.564 148.89 40.6713C148.665 40.8481 148.66 40.8431 148.836 40.6176C149.022 40.3807 149.139 40.3055 149.139 40.4225ZM58.9304 43.3544C58.8821 43.4326 58.7786 43.4966 58.7004 43.4966C58.6222 43.4966 58.5978 43.4326 58.6461 43.3544C58.6944 43.2762 58.7979 43.2123 58.8761 43.2123C58.9543 43.2123 58.9788 43.2762 58.9304 43.3544Z" fill="black"/>
</svg>
