<svg width="565" height="716" viewBox="0 0 565 716" fill="none" xmlns="http://www.w3.org/2000/svg">
<path fill-rule="evenodd" clip-rule="evenodd" d="M180.197 8.057C179.134 9.41321 179.164 9.44314 180.52 8.38023C181.945 7.2626 182.397 6.56055 181.693 6.56055C181.516 6.56055 180.843 7.23438 180.197 8.057ZM178.877 18.1046C178.881 21.3968 179.035 22.6384 179.22 20.8649C179.405 19.0906 179.403 16.3969 179.214 14.8791C179.025 13.3604 178.873 14.8124 178.877 18.1046ZM197.249 23.3918C197.865 23.6389 198.603 23.6081 198.887 23.3242C199.171 23.0403 198.667 22.8385 197.765 22.8753C196.769 22.9163 196.566 23.119 197.249 23.3918ZM204.945 23.3918C205.561 23.6389 206.299 23.6081 206.583 23.3242C206.867 23.0403 206.363 22.8385 205.461 22.8753C204.465 22.9163 204.263 23.119 204.945 23.3918ZM193.363 27.6759C194.195 27.8931 195.35 27.8786 195.929 27.6443C196.507 27.41 195.827 27.233 194.416 27.2501C193.005 27.2672 192.531 27.4587 193.363 27.6759ZM201.059 27.6759C201.891 27.8931 203.046 27.8786 203.625 27.6443C204.204 27.41 203.523 27.233 202.112 27.2501C200.701 27.2672 200.227 27.4587 201.059 27.6759ZM225.165 41.6776C224.855 42.1787 224.784 42.773 225.008 42.997C225.233 43.2211 225.644 42.8106 225.923 42.0846C226.501 40.5779 226.008 40.3128 225.165 41.6776ZM156.431 47.2495C156.472 48.2457 156.674 48.4484 156.947 47.7669C157.194 47.1495 157.164 46.4115 156.88 46.1276C156.596 45.8437 156.394 46.3482 156.431 47.2495ZM404.187 79.8294C404.803 80.0765 405.541 80.0458 405.825 79.7619C406.109 79.478 405.605 79.2761 404.703 79.3129C403.707 79.354 403.504 79.5566 404.187 79.8294ZM385.425 89.293C384.362 90.6492 384.392 90.6791 385.748 89.6162C386.571 88.9706 387.244 88.2968 387.244 88.1198C387.244 87.416 386.542 87.8683 385.425 89.293ZM404.988 89.2177C405.576 89.4554 406.538 89.4554 407.126 89.2177C407.714 88.9809 407.233 88.7867 406.057 88.7867C404.881 88.7867 404.401 88.9809 404.988 89.2177ZM74.6997 90.9972C71.4639 91.3615 67.409 92.8665 65.6474 94.3561C64.9018 94.9872 61.9628 96.6316 59.1169 98.01C51.4713 101.714 48.4665 106.972 51.5021 111.335C52.1477 112.263 52.9456 114.262 53.2756 115.778C53.6049 117.295 55.0338 119.509 56.449 120.701L59.0237 122.867L62.4724 119.915C64.3699 118.291 67.061 116.712 68.4531 116.406C71.9915 115.629 76.3261 116.599 78.1065 118.565C79.4473 120.047 79.8543 120.101 81.8604 119.064C84.9175 117.484 86.7508 115.233 87.4777 112.167C87.8129 110.756 89.0186 107.743 90.1585 105.47C92.7538 100.293 92.7418 99.6527 89.99 96.3827C86.384 92.0977 81.1892 90.2678 74.6997 90.9972ZM394.831 92.7134C393.768 94.0696 393.798 94.0996 395.154 93.0367C395.977 92.3911 396.651 91.7172 396.651 91.5402C396.651 90.8365 395.949 91.2888 394.831 92.7134ZM105.286 92.6647C106.118 92.8819 107.273 92.8674 107.852 92.6331C108.431 92.3988 107.75 92.2217 106.339 92.2388C104.928 92.256 104.454 92.4475 105.286 92.6647ZM324.239 100.623C324.239 103.68 324.395 104.93 324.584 103.402C324.774 101.874 324.774 99.3722 324.584 97.8441C324.395 96.316 324.239 97.5662 324.239 100.623ZM330.697 99.5544C329.634 100.911 329.664 100.941 331.021 99.8776C331.843 99.232 332.517 98.5582 332.517 98.3811C332.517 97.6774 331.815 98.1297 330.697 99.5544ZM360.047 106.181C360.065 107.592 360.256 108.066 360.473 107.234C360.69 106.402 360.676 105.248 360.442 104.669C360.207 104.09 360.03 104.771 360.047 106.181ZM373.563 110.885C373.059 111.825 372.84 112.595 373.075 112.595C373.31 112.595 373.914 111.825 374.418 110.885C374.921 109.944 375.14 109.174 374.905 109.174C374.67 109.174 374.066 109.944 373.563 110.885ZM397.396 116.657C396.333 118.013 396.363 118.043 397.72 116.98C398.542 116.334 399.216 115.66 399.216 115.483C399.216 114.78 398.514 115.232 397.396 116.657ZM350.365 121.787C349.302 123.144 349.332 123.174 350.688 122.111C351.511 121.465 352.185 120.791 352.185 120.614C352.185 119.91 351.483 120.363 350.365 121.787ZM340.213 121.469C340.213 121.646 340.887 122.32 341.709 122.966C343.066 124.029 343.096 123.999 342.033 122.642C340.915 121.218 340.213 120.765 340.213 121.469ZM202.706 195.969C202.723 197.38 202.915 197.853 203.132 197.021C203.349 196.189 203.335 195.035 203.1 194.456C202.866 193.877 202.689 194.558 202.706 195.969ZM90.3594 359.452C90.976 359.699 91.7139 359.669 91.9978 359.385C92.2817 359.101 91.7772 358.899 90.8759 358.936C89.8797 358.977 89.677 359.179 90.3594 359.452ZM74.2721 361.757C74.2721 361.934 74.9451 362.608 75.7686 363.253C77.1248 364.316 77.1547 364.286 76.0918 362.93C74.9742 361.505 74.2721 361.053 74.2721 361.757ZM59.5753 362.873C60.1918 363.12 60.9298 363.089 61.2137 362.805C61.4976 362.521 60.9931 362.319 60.0918 362.356C59.0956 362.397 58.8929 362.6 59.5753 362.873ZM249.411 365.438C250.027 365.685 250.765 365.654 251.049 365.37C251.333 365.087 250.829 364.885 249.927 364.921C248.931 364.963 248.729 365.165 249.411 365.438ZM272.499 365.438C273.116 365.685 273.854 365.654 274.137 365.37C274.421 365.087 273.917 364.885 273.015 364.921C272.019 364.963 271.817 365.165 272.499 365.438ZM280.195 366.293C280.812 366.54 281.55 366.509 281.833 366.226C282.117 365.942 281.613 365.74 280.712 365.777C279.715 365.818 279.513 366.02 280.195 366.293ZM69.8367 370.569C70.4532 370.816 71.1912 370.785 71.4751 370.501C71.759 370.217 71.2544 370.015 70.3531 370.052C69.3569 370.093 69.1543 370.296 69.8367 370.569ZM269.88 373.971C270.468 374.209 271.43 374.209 272.018 373.971C272.606 373.734 272.124 373.54 270.949 373.54C269.773 373.54 269.292 373.734 269.88 373.971ZM278.485 374.844C279.101 375.091 279.839 375.061 280.123 374.777C280.407 374.493 279.903 374.291 279.001 374.328C278.005 374.369 277.802 374.571 278.485 374.844ZM251.121 378.265C251.738 378.512 252.476 378.481 252.76 378.197C253.043 377.913 252.539 377.711 251.638 377.748C250.641 377.789 250.439 377.992 251.121 378.265ZM80.0296 380.352C80.6103 380.937 81.3003 381.199 81.5629 380.936C81.8262 380.673 81.3516 380.195 80.5085 379.873C79.29 379.41 79.1916 379.507 80.0296 380.352ZM259.832 380.582C259.832 380.767 260.429 381.147 261.159 381.428C261.92 381.719 262.263 381.576 261.964 381.092C261.462 380.279 259.832 379.889 259.832 380.582ZM66.0015 387.514C66.0057 390.807 66.1597 392.048 66.3452 390.275C66.5299 388.5 66.5274 385.807 66.3384 384.289C66.1494 382.77 65.998 384.222 66.0015 387.514ZM211.946 388.37C209.869 390.486 208.362 392.218 208.597 392.218C208.832 392.218 210.724 390.486 212.801 388.37C214.878 386.253 216.385 384.522 216.149 384.522C215.914 384.522 214.023 386.253 211.946 388.37ZM280.423 386.73C280.464 387.727 280.666 387.929 280.939 387.248C281.186 386.63 281.155 385.892 280.871 385.608C280.588 385.325 280.386 385.829 280.423 386.73ZM275.919 391.091C276.536 391.339 277.274 391.308 277.558 391.024C277.842 390.74 277.337 390.538 276.436 390.575C275.44 390.616 275.237 390.819 275.919 391.091ZM213.205 399.272L207.243 405.472L213.442 399.509C219.201 393.971 220.033 393.073 219.405 393.073C219.275 393.073 216.485 395.862 213.205 399.272ZM323.966 395.961C323.966 396.138 324.64 396.812 325.462 397.458C326.818 398.521 326.848 398.491 325.786 397.135C324.668 395.71 323.966 395.258 323.966 395.961ZM201.176 399.272L199.547 401.196L201.471 399.567C203.278 398.037 203.784 397.348 203.1 397.348C202.937 397.348 202.072 398.214 201.176 399.272ZM334.46 417.871C334.46 419.988 334.627 420.853 334.831 419.795C335.034 418.737 335.034 417.005 334.831 415.947C334.627 414.889 334.46 415.755 334.46 417.871ZM277.725 418.512L275.652 420.864L278.003 418.791C279.296 417.65 280.355 416.593 280.355 416.44C280.355 415.768 279.662 416.315 277.725 418.512ZM218.627 420.165C219.243 420.412 219.981 420.382 220.265 420.098C220.549 419.814 220.045 419.612 219.143 419.649C218.147 419.69 217.944 419.893 218.627 420.165ZM221.993 420.147C222.582 420.385 223.544 420.385 224.131 420.147C224.719 419.911 224.238 419.716 223.062 419.716C221.886 419.716 221.406 419.911 221.993 420.147ZM342.846 420.935C342.887 421.931 343.09 422.134 343.362 421.452C343.61 420.835 343.579 420.097 343.295 419.813C343.011 419.529 342.809 420.034 342.846 420.935ZM275.359 423.002C275.359 424.178 275.553 424.659 275.79 424.071C276.028 423.483 276.028 422.521 275.79 421.933C275.553 421.345 275.359 421.826 275.359 423.002ZM177.809 445.733C177.85 446.73 178.052 446.932 178.325 446.251C178.572 445.633 178.541 444.895 178.258 444.611C177.974 444.328 177.772 444.832 177.809 445.733ZM186.36 447.444C186.401 448.44 186.604 448.642 186.876 447.961C187.123 447.343 187.093 446.606 186.809 446.322C186.525 446.038 186.323 446.542 186.36 447.444ZM328.176 450.152L326.104 452.503L328.455 450.43C330.653 448.493 331.199 447.8 330.528 447.8C330.375 447.8 329.317 448.858 328.176 450.152ZM470.031 461.211C470.647 461.458 471.385 461.427 471.669 461.143C471.953 460.859 471.448 460.658 470.547 460.694C469.551 460.735 469.348 460.938 470.031 461.211ZM510.809 461.482C510.518 461.952 510.903 462.337 511.664 462.337C512.425 462.337 512.81 461.952 512.519 461.482C512.228 461.012 511.843 460.627 511.664 460.627C511.484 460.627 511.099 461.012 510.809 461.482ZM464.9 462.066C465.516 462.313 466.254 462.282 466.538 461.998C466.822 461.715 466.318 461.513 465.416 461.55C464.42 461.591 464.218 461.793 464.9 462.066ZM458.914 462.921C459.531 463.168 460.269 463.137 460.553 462.854C460.836 462.57 460.332 462.368 459.431 462.405C458.434 462.446 458.232 462.648 458.914 462.921ZM453.783 463.776C454.4 464.023 455.138 463.993 455.422 463.709C455.706 463.425 455.201 463.223 454.3 463.26C453.304 463.301 453.101 463.503 453.783 463.776ZM447.798 464.631C448.414 464.878 449.152 464.848 449.436 464.564C449.72 464.28 449.215 464.078 448.314 464.115C447.318 464.156 447.115 464.359 447.798 464.631ZM442.667 465.486C443.283 465.734 444.021 465.703 444.305 465.419C444.589 465.135 444.085 464.933 443.183 464.97C442.187 465.011 441.985 465.214 442.667 465.486ZM436.681 466.342C437.298 466.589 438.036 466.558 438.32 466.274C438.603 465.99 438.099 465.788 437.198 465.825C436.201 465.866 435.999 466.069 436.681 466.342ZM167.32 468.052C167.936 468.299 168.674 468.268 168.958 467.984C169.242 467.7 168.738 467.499 167.836 467.535C166.84 467.576 166.637 467.779 167.32 468.052ZM414.448 469.762C415.065 470.009 415.803 469.978 416.087 469.695C416.37 469.411 415.866 469.209 414.965 469.246C413.968 469.287 413.766 469.489 414.448 469.762ZM470.886 469.762C471.502 470.009 472.24 469.978 472.524 469.695C472.808 469.411 472.304 469.209 471.402 469.246C470.406 469.287 470.203 469.489 470.886 469.762ZM409.317 470.617C409.934 470.864 410.672 470.834 410.956 470.55C411.24 470.266 410.735 470.064 409.834 470.101C408.838 470.142 408.635 470.344 409.317 470.617ZM465.755 470.617C466.372 470.864 467.11 470.834 467.393 470.55C467.677 470.266 467.173 470.064 466.272 470.101C465.275 470.142 465.073 470.344 465.755 470.617ZM459.769 471.472C460.386 471.719 461.124 471.689 461.408 471.405C461.692 471.121 461.187 470.919 460.286 470.956C459.29 470.997 459.087 471.199 459.769 471.472ZM399.911 472.327C400.528 472.575 401.266 472.544 401.55 472.26C401.833 471.976 401.329 471.774 400.428 471.811C399.431 471.852 399.229 472.055 399.911 472.327ZM454.639 472.327C455.255 472.575 455.993 472.544 456.277 472.26C456.561 471.976 456.056 471.774 455.155 471.811C454.159 471.852 453.956 472.055 454.639 472.327ZM449.508 473.183C450.124 473.43 450.862 473.399 451.146 473.115C451.43 472.831 450.926 472.629 450.024 472.666C449.028 472.707 448.825 472.91 449.508 473.183ZM443.522 474.038C444.139 474.285 444.877 474.254 445.16 473.97C445.444 473.686 444.94 473.484 444.039 473.521C443.042 473.562 442.84 473.765 443.522 474.038ZM188.43 476.019C189.281 476.96 190.17 477.729 190.405 477.729C190.641 477.729 190.136 476.96 189.285 476.019C188.434 475.078 187.545 474.309 187.31 474.309C187.075 474.309 187.579 475.078 188.43 476.019ZM437.536 474.893C438.153 475.14 438.891 475.109 439.175 474.825C439.459 474.541 438.954 474.339 438.053 474.376C437.057 474.417 436.854 474.62 437.536 474.893ZM165.704 478.371L163.632 480.722L166.197 478.584C167.608 477.409 168.923 476.351 169.119 476.233C169.315 476.115 169.093 476.019 168.626 476.019C168.16 476.019 166.845 477.077 165.704 478.371ZM415.303 478.313C415.92 478.56 416.658 478.53 416.942 478.246C417.226 477.962 416.721 477.76 415.82 477.797C414.824 477.838 414.621 478.04 415.303 478.313ZM410.173 479.168C410.789 479.415 411.527 479.385 411.811 479.101C412.095 478.817 411.59 478.615 410.689 478.652C409.693 478.693 409.49 478.896 410.173 479.168ZM400.766 480.879C401.383 481.126 402.121 481.095 402.405 480.811C402.689 480.527 402.184 480.325 401.283 480.362C400.287 480.403 400.084 480.606 400.766 480.879ZM395.636 481.734C396.252 481.981 396.99 481.95 397.274 481.666C397.558 481.382 397.053 481.18 396.152 481.217C395.156 481.258 394.953 481.461 395.636 481.734ZM265.03 492.765C265.071 493.761 265.274 493.964 265.547 493.282C265.794 492.665 265.763 491.927 265.479 491.643C265.195 491.359 264.994 491.863 265.03 492.765ZM514.075 497.397C514.075 500.454 514.231 501.705 514.42 500.176C514.61 498.647 514.61 496.147 514.42 494.618C514.231 493.089 514.075 494.34 514.075 497.397ZM505.524 499.107C505.524 502.164 505.68 503.415 505.869 501.886C506.058 500.357 506.058 497.857 505.869 496.328C505.68 494.799 505.524 496.05 505.524 499.107ZM263.143 496.328C262.08 497.684 262.11 497.714 263.466 496.651C264.891 495.534 265.343 494.831 264.64 494.831C264.463 494.831 263.789 495.505 263.143 496.328ZM248.207 499.321L246.578 501.245L248.502 499.616C250.31 498.085 250.815 497.397 250.131 497.397C249.968 497.397 249.103 498.263 248.207 499.321ZM314.4 499.691C315.016 499.938 315.754 499.907 316.038 499.624C316.322 499.34 315.817 499.138 314.916 499.175C313.92 499.216 313.717 499.418 314.4 499.691ZM256.758 502.741L255.129 504.665L257.053 503.036C258.861 501.506 259.366 500.817 258.682 500.817C258.52 500.817 257.654 501.684 256.758 502.741ZM303.578 506.803C303.578 507.979 303.772 508.46 304.009 507.872C304.247 507.285 304.247 506.323 304.009 505.734C303.772 505.147 303.578 505.627 303.578 506.803ZM240.91 508.3C239.847 509.656 239.877 509.686 241.233 508.623C242.658 507.505 243.11 506.803 242.407 506.803C242.23 506.803 241.556 507.477 240.91 508.3ZM252.027 508.3C250.964 509.656 250.994 509.686 252.35 508.623C253.775 507.505 254.227 506.803 253.523 506.803C253.346 506.803 252.672 507.477 252.027 508.3ZM312.129 508.513C312.129 509.689 312.323 510.171 312.56 509.582C312.798 508.995 312.798 508.033 312.56 507.444C312.323 506.857 312.129 507.338 312.129 508.513ZM238.345 511.72C237.282 513.076 237.312 513.106 238.668 512.043C240.093 510.926 240.545 510.224 239.841 510.224C239.664 510.224 238.99 510.897 238.345 511.72ZM302.755 514.072C302.772 515.483 302.963 515.956 303.181 515.124C303.398 514.292 303.383 513.138 303.149 512.559C302.915 511.98 302.738 512.661 302.755 514.072ZM311.306 515.782C311.323 517.193 311.514 517.667 311.732 516.834C311.949 516.002 311.934 514.848 311.7 514.269C311.466 513.69 311.289 514.371 311.306 515.782ZM234.924 515.996C233.861 517.352 233.891 517.382 235.248 516.319C236.672 515.201 237.125 514.499 236.421 514.499C236.244 514.499 235.57 515.173 234.924 515.996ZM246.041 515.996C244.978 517.352 245.008 517.382 246.364 516.319C247.789 515.201 248.241 514.499 247.537 514.499C247.36 514.499 246.687 515.173 246.041 515.996ZM243.476 519.416C242.413 520.772 242.443 520.802 243.799 519.739C245.223 518.622 245.676 517.92 244.972 517.92C244.795 517.92 244.121 518.593 243.476 519.416ZM231.105 520.699L229.476 522.623L231.4 520.994C233.207 519.463 233.713 518.775 233.029 518.775C232.866 518.775 232.001 519.641 231.105 520.699ZM184.422 521.069C185.039 521.316 185.777 521.285 186.061 521.001C186.344 520.718 185.84 520.516 184.939 520.552C183.942 520.594 183.74 520.796 184.422 521.069ZM301.9 522.623C301.917 524.034 302.108 524.507 302.325 523.675C302.543 522.843 302.528 521.689 302.294 521.11C302.059 520.531 301.882 521.212 301.9 522.623ZM188.698 521.924C189.314 522.171 190.052 522.14 190.336 521.857C190.62 521.573 190.115 521.371 189.214 521.408C188.218 521.449 188.015 521.651 188.698 521.924ZM505.417 523.478C505.434 524.889 505.626 525.363 505.843 524.531C506.06 523.698 506.046 522.544 505.811 521.965C505.577 521.386 505.4 522.067 505.417 523.478ZM240.055 523.692C238.992 525.048 239.022 525.078 240.378 524.015C241.803 522.897 242.255 522.195 241.552 522.195C241.375 522.195 240.701 522.869 240.055 523.692ZM310.451 524.333C310.468 525.744 310.659 526.218 310.877 525.386C311.094 524.554 311.079 523.399 310.845 522.82C310.611 522.241 310.434 522.922 310.451 524.333ZM196.394 523.634C197.01 523.881 197.748 523.851 198.032 523.567C198.316 523.283 197.812 523.081 196.91 523.118C195.914 523.159 195.711 523.362 196.394 523.634ZM200.669 524.489C201.286 524.737 202.024 524.706 202.308 524.422C202.592 524.138 202.087 523.936 201.186 523.973C200.19 524.014 199.987 524.217 200.669 524.489ZM513.869 526.969C513.91 527.966 514.113 528.168 514.386 527.487C514.633 526.869 514.602 526.131 514.318 525.847C514.034 525.563 513.832 526.068 513.869 526.969ZM182.712 529.62C183.328 529.867 184.066 529.836 184.35 529.553C184.634 529.269 184.13 529.067 183.228 529.104C182.232 529.145 182.03 529.347 182.712 529.62ZM301.044 532.029C301.062 533.44 301.253 533.914 301.47 533.082C301.688 532.25 301.673 531.095 301.439 530.516C301.204 529.937 301.027 530.618 301.044 532.029ZM112.643 533.098C111.58 534.454 111.61 534.484 112.966 533.421C114.391 532.303 114.843 531.601 114.139 531.601C113.962 531.601 113.288 532.275 112.643 533.098ZM194.684 532.185C195.3 532.433 196.038 532.402 196.322 532.118C196.606 531.834 196.101 531.632 195.2 531.669C194.204 531.71 194.001 531.913 194.684 532.185ZM309.627 534.167C309.627 535.813 309.803 536.486 310.018 535.663C310.234 534.841 310.234 533.493 310.018 532.67C309.803 531.848 309.627 532.521 309.627 534.167ZM198.959 533.041C199.576 533.288 200.314 533.257 200.597 532.973C200.881 532.689 200.377 532.487 199.476 532.524C198.479 532.565 198.277 532.768 198.959 533.041ZM300.221 542.718C300.221 544.364 300.397 545.037 300.612 544.214C300.827 543.392 300.827 542.044 300.612 541.221C300.397 540.399 300.221 541.072 300.221 542.718ZM97.7476 545.497L94.3674 549.131L98.0016 545.751C101.381 542.608 102.029 541.863 101.382 541.863C101.242 541.863 99.6066 543.499 97.7476 545.497ZM308.772 544.428C308.772 546.074 308.948 546.747 309.163 545.925C309.378 545.102 309.378 543.754 309.163 542.932C308.948 542.109 308.772 542.782 308.772 544.428ZM502.753 547.492C502.794 548.488 502.996 548.691 503.269 548.009C503.516 547.392 503.485 546.654 503.201 546.37C502.918 546.086 502.716 546.591 502.753 547.492ZM511.304 549.202C511.345 550.199 511.547 550.401 511.82 549.72C512.067 549.102 512.037 548.364 511.753 548.08C511.469 547.796 511.267 548.301 511.304 549.202ZM501.897 552.623C501.938 553.619 502.141 553.822 502.414 553.14C502.661 552.523 502.63 551.785 502.346 551.501C502.062 551.217 501.861 551.721 501.897 552.623ZM510.449 554.333C510.49 555.329 510.692 555.532 510.965 554.85C511.212 554.233 511.181 553.495 510.898 553.211C510.614 552.927 510.412 553.432 510.449 554.333ZM299.235 555.188C299.276 556.184 299.479 556.387 299.752 555.705C299.999 555.088 299.968 554.35 299.684 554.066C299.4 553.782 299.198 554.287 299.235 555.188ZM307.786 557.753C307.827 558.75 308.03 558.952 308.303 558.271C308.55 557.653 308.519 556.915 308.235 556.632C307.951 556.348 307.749 556.852 307.786 557.753ZM82.0357 558.609C82.0768 559.605 82.2794 559.807 82.5522 559.126C82.7994 558.509 82.7686 557.771 82.4847 557.487C82.2008 557.203 81.999 557.707 82.0357 558.609ZM124.004 562.386C124.004 563.561 124.198 564.043 124.435 563.454C124.673 562.867 124.673 561.905 124.435 561.317C124.198 560.729 124.004 561.21 124.004 562.386ZM132.555 564.096C132.555 565.272 132.749 565.753 132.986 565.165C133.224 564.577 133.224 563.615 132.986 563.027C132.749 562.439 132.555 562.92 132.555 564.096ZM87.5264 568.371C88.3773 569.312 89.2666 570.082 89.5017 570.082C89.7369 570.082 89.2324 569.312 88.3815 568.371C87.5307 567.431 86.6414 566.661 86.4062 566.661C86.1711 566.661 86.6756 567.431 87.5264 568.371ZM298.447 569.227C298.447 570.402 298.642 570.884 298.878 570.295C299.116 569.708 299.116 568.746 298.878 568.158C298.642 567.57 298.447 568.051 298.447 569.227ZM307.062 571.792C307.062 573.438 307.238 574.111 307.453 573.288C307.668 572.466 307.668 571.118 307.453 570.295C307.238 569.473 307.062 570.146 307.062 571.792ZM495.912 587.682C495.953 588.679 496.155 588.881 496.428 588.2C496.675 587.582 496.644 586.844 496.361 586.561C496.077 586.277 495.875 586.781 495.912 587.682ZM297.673 591.887C297.682 593.768 297.857 594.437 298.062 593.373C298.266 592.309 298.259 590.77 298.045 589.953C297.831 589.135 297.663 590.006 297.673 591.887ZM168.175 591.188C168.791 591.436 169.529 591.405 169.813 591.121C170.097 590.837 169.593 590.635 168.691 590.672C167.695 590.713 167.493 590.916 168.175 591.188ZM172.451 592.044C173.067 592.291 173.805 592.26 174.089 591.976C174.373 591.692 173.868 591.49 172.967 591.527C171.971 591.568 171.768 591.771 172.451 592.044ZM495.056 592.813C495.098 593.809 495.3 594.012 495.573 593.331C495.82 592.713 495.789 591.975 495.505 591.691C495.222 591.407 495.02 591.912 495.056 592.813ZM176.726 592.899C177.343 593.146 178.081 593.115 178.364 592.831C178.648 592.547 178.144 592.345 177.243 592.382C176.246 592.423 176.044 592.626 176.726 592.899ZM306.296 598.3C306.296 601.828 306.447 603.271 306.631 601.507C306.816 599.744 306.816 596.858 306.631 595.094C306.447 593.331 306.296 594.773 306.296 598.3ZM186.132 594.609C186.749 594.856 187.487 594.825 187.771 594.541C188.055 594.257 187.55 594.056 186.649 594.092C185.653 594.133 185.45 594.336 186.132 594.609ZM184.422 603.16C185.039 603.407 185.777 603.376 186.061 603.093C186.344 602.809 185.84 602.607 184.939 602.644C183.942 602.685 183.74 602.887 184.422 603.16ZM501.897 603.93C501.938 604.926 502.141 605.129 502.414 604.447C502.661 603.83 502.63 603.092 502.346 602.808C502.062 602.524 501.861 603.028 501.897 603.93ZM501.042 609.06C501.083 610.057 501.286 610.259 501.559 609.578C501.806 608.96 501.775 608.222 501.491 607.938C501.207 607.655 501.006 608.159 501.042 609.06ZM282.065 615.67C282.065 615.817 283.315 617.069 284.844 618.45L287.623 620.961L285.112 618.182C282.771 615.592 282.065 615.009 282.065 615.67ZM499.332 620.177C499.373 621.173 499.576 621.376 499.849 620.694C500.096 620.077 500.065 619.339 499.781 619.055C499.497 618.771 499.295 619.276 499.332 620.177ZM288.974 626.163C289.015 627.159 289.217 627.362 289.49 626.68C289.737 626.063 289.706 625.325 289.423 625.041C289.139 624.757 288.937 625.261 288.974 626.163ZM498.608 628.229C498.608 629.876 498.784 630.549 498.999 629.726C499.214 628.903 499.214 627.556 498.999 626.733C498.784 625.91 498.608 626.583 498.608 628.229ZM306.282 631.65C306.282 634.707 306.438 635.958 306.627 634.429C306.816 632.9 306.816 630.4 306.627 628.871C306.438 627.342 306.282 628.593 306.282 631.65ZM145.888 627.94C146.476 628.178 147.438 628.178 148.026 627.94C148.614 627.704 148.133 627.51 146.957 627.51C145.781 627.51 145.301 627.704 145.888 627.94ZM287.086 630.581C286.024 631.937 286.053 631.967 287.41 630.904C288.834 629.787 289.287 629.085 288.583 629.085C288.406 629.085 287.732 629.758 287.086 630.581ZM297.731 635.07C297.731 638.127 297.887 639.378 298.075 637.85C298.265 636.321 298.265 633.82 298.075 632.291C297.887 630.762 297.731 632.013 297.731 635.07ZM286.341 634.583C286.341 634.818 287.11 635.422 288.051 635.926C288.992 636.429 289.761 636.648 289.761 636.413C289.761 636.178 288.992 635.574 288.051 635.07C287.11 634.567 286.341 634.348 286.341 634.583ZM263.143 637.422C262.08 638.778 262.11 638.808 263.466 637.745C264.891 636.628 265.343 635.926 264.64 635.926C264.463 635.926 263.789 636.599 263.143 637.422ZM264.454 638.705L262.825 640.629L264.749 639C266.557 637.469 267.062 636.781 266.378 636.781C266.216 636.781 265.35 637.647 264.454 638.705ZM275.919 645.061C276.536 645.308 277.274 645.277 277.558 644.993C277.842 644.709 277.337 644.507 276.436 644.544C275.44 644.585 275.237 644.788 275.919 645.061ZM307.03 650.035C307.047 651.446 307.239 651.92 307.456 651.088C307.673 650.256 307.659 649.101 307.424 648.522C307.19 647.943 307.013 648.624 307.03 650.035ZM230.988 649.345C231.82 649.562 232.975 649.548 233.554 649.313C234.133 649.079 233.452 648.902 232.041 648.919C230.63 648.936 230.156 649.128 230.988 649.345ZM298.511 651.318C298.511 652.964 298.687 653.637 298.902 652.814C299.117 651.991 299.117 650.644 298.902 649.821C298.687 648.999 298.511 649.672 298.511 651.318ZM238.684 658.751C239.516 658.968 240.671 658.954 241.25 658.719C241.829 658.485 241.148 658.308 239.737 658.325C238.326 658.342 237.852 658.534 238.684 658.751ZM270.324 658.751C271.156 658.968 272.31 658.954 272.889 658.719C273.468 658.485 272.787 658.308 271.376 658.325C269.965 658.342 269.492 658.534 270.324 658.751ZM174.962 659.617C176.021 659.821 177.751 659.821 178.81 659.617C179.869 659.413 179.002 659.246 176.886 659.246C174.77 659.246 173.903 659.413 174.962 659.617ZM169.258 664.643C169.299 665.639 169.501 665.842 169.774 665.16C170.021 664.543 169.99 663.805 169.706 663.521C169.423 663.237 169.221 663.742 169.258 664.643ZM271.59 667.313C272.649 667.517 274.379 667.517 275.438 667.313C276.497 667.109 275.63 666.942 273.514 666.942C271.398 666.942 270.531 667.109 271.59 667.313ZM284.471 667.294C285.087 667.541 285.825 667.51 286.109 667.226C286.393 666.942 285.888 666.74 284.987 666.777C283.991 666.818 283.788 667.021 284.471 667.294ZM179.681 668.157C180.513 668.375 181.668 668.36 182.247 668.126C182.826 667.891 182.145 667.714 180.734 667.732C179.323 667.749 178.849 667.94 179.681 668.157ZM291.638 671.413C291.655 672.824 291.847 673.298 292.064 672.465C292.281 671.633 292.267 670.479 292.032 669.9C291.798 669.321 291.621 670.002 291.638 671.413ZM300.189 673.123C300.206 674.534 300.398 675.008 300.615 674.176C300.832 673.344 300.818 672.189 300.584 671.61C300.349 671.031 300.172 671.712 300.189 673.123ZM306.65 673.262C307.238 673.499 308.2 673.499 308.788 673.262C309.376 673.025 308.894 672.831 307.719 672.831C306.543 672.831 306.062 673.025 306.65 673.262ZM175.311 675.261C175.311 676.437 175.505 676.918 175.742 676.33C175.98 675.742 175.98 674.78 175.742 674.192C175.505 673.604 175.311 674.085 175.311 675.261ZM302.934 675.475L301.305 677.399L303.229 675.77C305.037 674.239 305.542 673.551 304.858 673.551C304.696 673.551 303.83 674.417 302.934 675.475ZM165.837 680.035C165.878 681.031 166.081 681.234 166.354 680.552C166.601 679.935 166.57 679.197 166.286 678.913C166.002 678.629 165.8 679.134 165.837 680.035ZM174.388 681.745C174.429 682.741 174.632 682.944 174.905 682.263C175.152 681.645 175.121 680.907 174.837 680.623C174.553 680.339 174.351 680.844 174.388 681.745ZM248.946 685.26C249.778 685.477 250.932 685.462 251.511 685.228C252.09 684.994 251.409 684.817 249.998 684.834C248.587 684.851 248.114 685.043 248.946 685.26ZM280.195 685.251C280.812 685.498 281.55 685.468 281.833 685.184C282.117 684.9 281.613 684.698 280.712 684.735C279.715 684.776 279.513 684.978 280.195 685.251ZM238.241 686.088C238.829 686.326 239.791 686.326 240.378 686.088C240.967 685.851 240.485 685.657 239.309 685.657C238.134 685.657 237.653 685.851 238.241 686.088ZM199.814 686.961C200.431 687.209 201.169 687.178 201.453 686.894C201.737 686.61 201.232 686.408 200.331 686.445C199.334 686.486 199.132 686.689 199.814 686.961ZM227.552 686.967C228.374 687.182 229.722 687.182 230.544 686.967C231.367 686.752 230.694 686.576 229.048 686.576C227.402 686.576 226.729 686.752 227.552 686.967ZM172.451 692.947C173.067 693.194 173.805 693.164 174.089 692.88C174.373 692.596 173.868 692.394 172.967 692.431C171.971 692.472 171.768 692.674 172.451 692.947ZM250.64 693.807C251.462 694.023 252.81 694.023 253.633 693.807C254.455 693.593 253.782 693.417 252.136 693.417C250.49 693.417 249.817 693.593 250.64 693.807ZM278.431 693.822C279.49 694.025 281.22 694.025 282.279 693.822C283.338 693.618 282.471 693.451 280.355 693.451C278.239 693.451 277.372 693.618 278.431 693.822ZM239.096 694.639C239.684 694.877 240.646 694.877 241.233 694.639C241.822 694.403 241.34 694.209 240.165 694.209C238.989 694.209 238.508 694.403 239.096 694.639ZM197.195 695.495C197.783 695.732 198.745 695.732 199.333 695.495C199.921 695.258 199.44 695.064 198.264 695.064C197.088 695.064 196.608 695.258 197.195 695.495ZM228.407 695.518C229.229 695.733 230.577 695.733 231.4 695.518C232.222 695.303 231.549 695.127 229.903 695.127C228.257 695.127 227.584 695.303 228.407 695.518Z" fill="#8C54D0"/>
<path fill-rule="evenodd" clip-rule="evenodd" d="M192.273 1.37334C188.664 2.47131 184.274 4.93319 181.803 7.24542C179.599 9.30796 179.451 9.89542 179.451 16.6337V23.8218L193.582 23.467C203.837 23.2096 207.946 23.3917 208.558 24.1288C209.135 24.8249 208.966 25.5081 208.022 26.2914C207.007 27.1337 202.415 27.5125 190.695 27.7229C177.267 27.9632 173.755 28.3069 168.459 29.8974C159.75 32.5132 157.791 35.6421 156.869 48.4115C156.178 57.9777 160.804 78.4244 164.607 82.6085C165.19 83.2506 171.217 83.5747 173.893 83.1087C176.003 82.741 176.746 81.9406 178.074 78.6022C181.779 69.2917 185.566 62.0985 187.39 60.9022C188.462 60.201 193.291 58.8474 198.122 57.8956C209.975 55.5594 214.911 53.0736 221.336 46.2045C224.228 43.1132 226.943 39.6663 227.369 38.5452C227.795 37.4242 228.399 31.7898 228.712 26.0229C229.024 20.2569 229.641 14.8388 230.081 13.9829C230.728 12.7284 230.083 11.6322 226.759 8.33398C220.757 2.37896 215.254 0.554139 203.576 0.648202C198.538 0.688392 193.451 1.01505 192.273 1.37334ZM192.492 11.4971C194.487 13.2492 194.378 15.0141 192.129 17.4085C188.698 21.0598 183.727 19.188 183.727 14.2437C183.727 9.64658 188.634 8.10908 192.492 11.4971ZM515.512 19.3966C512.455 19.7523 505.913 20.0995 500.975 20.1696C488.82 20.3415 475.147 22.2536 471.696 24.2639C468.379 26.1965 466.381 31.0801 467.599 34.2816C468.431 36.469 466.802 56.3633 464.98 66.274C464.433 69.2516 464.175 74.3438 464.408 77.5898C464.792 82.9556 465.17 83.9339 468.579 88.3548C474.322 95.8037 488.837 109.889 496.441 115.392C497.89 116.44 500.45 118.391 502.131 119.726C505.793 122.637 511.194 123.598 514.491 121.926C515.758 121.283 518.911 119.175 521.498 117.241C524.084 115.306 530.708 110.997 536.217 107.666C551.65 98.3315 561.088 91.4589 562.671 88.4001C563.911 86.0067 564.041 82.7102 563.747 61.2964C563.563 47.8873 563.161 35.7627 562.854 34.3517C562.547 32.9408 562.346 30.4344 562.406 28.7824C562.557 24.6325 559.851 20.4877 556.376 19.5471C552.937 18.6159 523.181 18.5064 515.512 19.3966ZM534.324 33.9242C538.109 37.7089 536.432 40.1323 526.201 45.6632C521.968 47.9515 516.877 51.0077 514.889 52.4562L511.273 55.0891L514.481 55.6022C516.246 55.8844 521.581 55.9135 526.337 55.6663C534.475 55.2431 535.116 55.3328 537.211 57.1833C539.358 59.0808 539.449 59.5486 539.77 70.4034C540.047 79.7584 539.868 82.0133 538.71 83.7671C537.051 86.282 531.327 91.157 526.852 93.8695C525.083 94.9418 520.998 97.862 517.776 100.359C514.553 102.856 511.404 104.899 510.777 104.899C508.324 104.899 505.167 103.1 500.719 99.1695C498.166 96.912 494.1 93.4086 491.685 91.3837C487.541 87.9093 487.294 87.4749 487.302 83.6876C487.32 76.2917 488.196 73.1988 490.524 72.3137C492.094 71.7168 493.186 71.8528 494.677 72.8285C496.413 73.9667 496.7 74.8474 496.703 79.0512L496.706 83.9484L501.506 87.7964C504.146 89.9129 507.192 92.3696 508.273 93.2555C510.229 94.8571 510.263 94.8486 513.945 91.8933C515.983 90.2575 519.574 87.6477 521.925 86.0939C530.434 80.4724 530.735 79.9909 530.823 71.8639L530.9 64.6493L514.869 65.0564C506.052 65.2804 496.474 65.7285 493.585 66.0517C488.546 66.6152 488.271 66.5468 486.836 64.356C484.856 61.3332 486.199 58.2368 490.22 56.5574C494.027 54.9668 510.177 45.2074 510.877 44.0752C511.241 43.4844 507.543 43.398 499.483 43.8067C487.751 44.4027 487.526 44.3797 486.203 42.4899C484.735 40.3957 485.301 37.4515 487.376 36.3792C488.509 35.7934 498.18 34.8725 520.643 33.2119C526.051 32.8125 530.958 32.4243 531.545 32.3499C532.134 32.2746 533.384 32.9835 534.324 33.9242ZM100.097 94.3081C95.1259 96.8436 89.2077 105.166 87.4795 112.051C86.5757 115.652 90.7153 119.124 96.8225 119.886C103.961 120.778 110.716 120.01 113.429 117.999C116.494 115.727 119.566 110.234 119.561 107.037C119.553 103.191 116.725 97.7124 113.598 95.4856C109.985 92.9135 103.876 92.3807 100.097 94.3081ZM210.236 189.702C204.139 191.917 203.395 192.608 203.395 196.053C203.395 198.17 203.956 199.29 205.532 200.323C207.049 201.316 207.676 202.502 207.691 204.404C207.725 208.696 209.338 214.697 210.745 215.766C211.602 216.416 212.054 218.258 212.077 221.193C212.117 226.352 214.026 228.944 217.731 228.867C221.025 228.798 230.187 230.547 231.052 231.409C231.448 231.804 231.352 232.913 230.838 233.873C230.324 234.834 229.888 236.51 229.87 237.599C229.806 241.393 217.824 248.075 207.243 250.218C204.891 250.694 197.258 251.677 190.28 252.403C172.718 254.228 170.64 255.605 173.849 263.283C174.529 264.913 174.883 267.023 174.635 267.972C174.252 269.436 174.799 269.853 178.223 270.716C184.51 272.299 198.114 272.852 204.295 271.775C212.217 270.396 235.946 262.78 240.313 260.216C245.499 257.171 251.744 250.551 253.77 245.951C255.393 242.27 255.414 241.79 254.172 236.972C251.834 227.905 247.506 222.406 238.217 216.705C235.182 214.843 233.341 214.354 229.365 214.353L224.345 214.351L224.227 207.591C224.092 199.883 222.206 193.292 219.213 190.061C216.809 187.468 216.427 187.452 210.236 189.702Z" fill="#006FFF"/>
<path fill-rule="evenodd" clip-rule="evenodd" d="M65.9084 117.829C59.3471 121.076 53.7555 129.637 52.0496 139.047C50.8772 145.512 51.858 148.785 55.5376 150.688C61.1044 153.567 73.8619 150.9 79.1781 145.748C83.0073 142.036 83.788 138.649 82.7405 130.296C81.7982 122.781 80.0315 119.392 75.9577 117.285C72.6202 115.559 70.2319 115.689 65.9084 117.829ZM391.727 217.383C388.467 219.667 389.725 224.115 394.086 225.719C395.174 226.119 395.162 226.2 394.004 226.257C391.872 226.363 389.81 229.198 389.81 232.024C389.81 234.687 398.504 249.138 407.109 260.778C409.47 263.973 411.258 266.695 411.081 266.828C410.905 266.961 407.575 267.924 403.682 268.967C390.086 272.612 383.045 275.813 378.109 280.594C374.066 284.509 373.563 285.388 373.563 288.518C373.563 293.017 376.337 296.439 382.382 299.396C387.577 301.939 396.996 304.105 402.949 304.126L407.108 304.141L401.764 309.854C389.698 322.752 382.969 334.585 382.969 342.904C382.969 347.209 383.214 347.789 386.095 350.319C389.016 352.884 389.565 353.042 394.433 352.73C397.956 352.503 401.445 351.538 405.202 349.75C410.286 347.331 428.302 335.073 446.077 321.941L453.176 316.697L456.766 320.181C462.65 325.89 478.889 339.158 482.915 341.547C488.234 344.702 497.067 347.751 500.889 347.751C505.014 347.751 508.338 344.841 509.149 340.517C510.386 333.918 505.527 319.345 497.873 306.707C495.452 302.708 493.569 299.328 493.689 299.195C493.809 299.061 499.057 298.401 505.351 297.727C516.411 296.544 525.076 294.77 528.342 293.022C530.671 291.776 533.275 288.158 533.903 285.299C535.109 279.812 528.996 272.028 519.095 266.44L514.471 263.83L516.158 261.966C519.073 258.746 528.403 244.312 530.546 239.71C533.076 234.277 533.16 230.67 530.825 227.702C527.622 223.629 524.333 222.883 512.282 223.494C502.542 223.987 500.996 224.292 496.732 226.548C494.127 227.927 489.303 230.028 486.01 231.218C479.073 233.725 468.726 238.748 466.557 240.662C464.605 242.383 464.663 244.177 466.741 246.389L468.422 248.178L464.173 251.838L459.924 255.498L451.511 247.947C431.414 229.908 417.588 221.613 402.209 218.365C398.917 217.67 395.644 216.862 394.934 216.57C394.225 216.278 392.782 216.644 391.727 217.383ZM404.349 227.95C412.468 230.324 416.714 232.435 426.207 238.821C433.663 243.837 451.72 258.763 451.092 259.391C450.964 259.518 447.033 260.2 442.354 260.904C437.676 261.61 431.076 262.714 427.688 263.357C424.299 264.001 421.203 264.301 420.807 264.025C417.809 261.935 399.216 234.087 399.216 231.687C399.216 230.828 398.617 229.271 397.885 228.226C396.202 225.822 396.965 225.79 404.349 227.95ZM523.551 233.029C524.377 234.365 508.211 259.675 506.531 259.675C506.332 259.675 504.135 258.918 501.649 257.993C499.161 257.067 494.438 255.691 491.153 254.935L485.179 253.558L483.284 255.761C481.633 257.681 480.718 257.964 476.167 257.964C473.033 257.964 471.149 257.634 471.455 257.14C472.337 255.712 488.377 242.506 492.995 239.405C495.729 237.569 500.293 235.671 504.967 234.426C512.475 232.426 522.703 231.658 523.551 233.029ZM117.028 246.804C117.028 247.121 116.355 248.148 115.532 249.085C114.708 250.022 113.608 251.537 113.088 252.451C112.567 253.366 110.651 254.531 108.83 255.042L105.52 255.971L110.633 261.332C113.445 264.279 116.837 267.257 118.172 267.947C121.259 269.544 136.023 270.636 156.122 270.754C170.833 270.841 171.8 270.747 173.482 269.065C175.297 267.249 175.196 264.875 173.197 262.383C172.694 261.755 172.224 260.448 172.152 259.475C171.99 257.267 169.688 255.535 166.262 255.042C164.815 254.834 156.513 254.293 147.812 253.84C131.291 252.98 125.794 251.759 123.006 248.33C121.773 246.813 117.028 245.602 117.028 246.804ZM491.37 264.005C499.81 266.258 500.406 266.872 496.975 269.775C495.48 271.039 491.601 274.46 488.355 277.377L482.454 282.681L476.964 275.239C473.944 271.147 471.345 267.51 471.189 267.157C471.031 266.804 473.077 266.515 475.734 266.515C480.999 266.515 483.873 265.448 483.873 263.493C483.873 261.928 483.493 261.902 491.37 264.005ZM468.625 278.68L475.669 288.119L473.285 290.021C471.243 291.648 469.074 292.077 458.206 292.998L445.51 294.072L442.672 290.869C438.251 285.879 438.246 285.803 442.142 282.283L445.716 279.055L447.185 282.515C448.867 286.476 451.648 288.754 454.776 288.736C457.659 288.718 458.79 287.899 459.876 285.042C461.992 279.476 459.871 275.22 454.535 274.317L451.385 273.784L455.352 270.574C458.375 268.127 459.587 267.587 460.449 268.303C461.072 268.819 464.751 273.489 468.625 278.68ZM438.522 273.998C436.052 276.232 433.719 278.182 433.339 278.331C432.551 278.64 427.382 273.125 427.937 272.569C428.422 272.085 438.459 270.125 440.995 270.02C442.735 269.947 442.395 270.493 438.522 273.998ZM514.28 273.84C519.953 277.244 524.918 281.675 524.918 283.336C524.918 284.976 520.883 286.71 514.657 287.746C508.058 288.845 488.103 290.698 487.658 290.253C487.487 290.082 490.125 287.575 493.52 284.682C496.915 281.789 501.602 277.48 503.935 275.106C506.27 272.733 508.408 270.791 508.689 270.791C508.969 270.791 511.485 272.163 514.28 273.84ZM422.493 280.145L426.53 285.105L420.937 290.475L415.345 295.846L405.338 295.308C393.188 294.655 382.114 291.497 382.114 288.685C382.114 287.238 390.061 282.575 396.038 280.514C404.749 277.51 416.588 274.383 417.601 274.819C418.072 275.02 420.273 277.418 422.493 280.145ZM432.862 294.848C429.716 296.085 428.77 295.711 430.425 293.883C431.659 292.518 432.219 292.381 433.206 293.2C434.267 294.081 434.218 294.314 432.862 294.848ZM488.058 307.247C493.995 316.705 498.973 328.037 499.955 334.324L500.729 339.282L498.073 338.708C492.347 337.468 484.318 332.353 472.807 322.611C466.195 317.014 460.785 312.17 460.785 311.847C460.785 311.135 473.508 301.203 475.321 300.499C476.027 300.224 478.143 299.977 480.025 299.95C483.407 299.899 483.496 299.98 488.058 307.247ZM456.524 303.244C454.872 304.513 454.135 304.654 453.204 303.881C452.214 303.06 452.358 302.789 454.044 302.317C457.887 301.24 458.725 301.553 456.524 303.244ZM444.509 306.798C446.061 308.731 446.969 310.558 446.526 310.86C446.083 311.162 440.933 314.897 435.081 319.161C409.358 337.902 401.106 343.017 395.019 343.99C391.71 344.519 391.52 344.434 391.52 342.417C391.52 336.75 403.343 319.64 415.143 308.234L419.311 304.205L427.863 303.924C432.566 303.769 437.6 303.563 439.05 303.464C441.211 303.318 442.193 303.917 444.509 306.798Z" fill="#00DCFF"/>
<path fill-rule="evenodd" clip-rule="evenodd" d="M225.884 41.8956C225.508 42.5164 222.395 45.5812 218.967 48.7049C212.309 54.7719 211.471 55.1465 197.589 58.2574C192.749 59.3417 188.096 60.8569 187.248 61.6248C185.266 63.418 181.116 71.7853 176.916 82.4563C175.49 86.0777 176.115 93.3376 178.224 97.6594C180.737 102.808 185.31 104.926 195.182 105.515C201.777 105.909 204.599 105.648 211.081 104.046C223.765 100.911 228.635 95.7474 228.014 86.0863L227.766 82.2382L217.661 81.9971C208.643 81.7816 207.586 81.5969 207.836 80.2869C208.081 79.0059 209.812 78.74 221.362 78.2089C238.458 77.4231 240.198 77.2367 242.573 75.9343C245.028 74.5892 250.426 63.1948 250.425 59.3605C250.424 54.7335 245.899 46.3439 241.806 43.3784C238.624 41.0738 237.51 40.7651 232.383 40.7651C228.478 40.7651 226.343 41.1363 225.884 41.8956ZM220.306 89.1279C223.817 91.5864 221.944 97.2028 217.614 97.2028C215.06 97.2028 213.656 95.6473 213.656 92.8169C213.656 90.396 215.582 87.7965 217.375 87.7965C217.942 87.7965 219.261 88.3959 220.306 89.1279ZM416.746 132.351C413.924 132.746 407.001 133.035 401.362 132.993C391.445 132.919 391.057 132.986 389.549 135.004C387.644 137.557 388.319 141.268 390.943 142.673C391.928 143.199 394.796 143.564 397.317 143.482L401.9 143.332L396.511 148.139C390.596 153.418 388.451 154.704 381.333 157.242C377.039 158.774 361.537 163.365 352.612 165.748C347.525 167.106 317.912 166.789 301.402 165.199C293.46 164.435 286.428 164.014 285.776 164.263C283.969 164.957 283.027 168.332 284.029 170.529C284.511 171.588 285.159 172.453 285.469 172.453C285.779 172.453 287.353 173.633 288.966 175.076C295.141 180.595 299.782 182.494 308.574 183.094C313.042 183.399 317.275 183.813 317.98 184.014C321.266 184.948 326.275 185.033 338.931 184.371C350.095 183.786 354.854 183.097 364.795 180.631C378.949 177.12 381.734 176.061 387.123 172.142C389.306 170.555 394.556 167.45 398.789 165.245C403.021 163.039 407.567 160.069 408.891 158.645C410.215 157.222 411.193 156.571 411.066 157.2C410.144 161.742 414.147 164.961 417.765 162.59C418.818 161.901 420.403 161.336 421.287 161.336C423.857 161.336 425.693 158.546 426.689 153.125C427.197 150.352 428.343 146.436 429.235 144.425C431.332 139.693 431.286 136.461 429.083 133.661C427.149 131.201 425.896 131.069 416.746 132.351ZM417.174 144.234C417.174 144.704 416.789 145.089 416.319 145.089C415.848 145.089 415.463 144.704 415.463 144.234C415.463 143.764 415.848 143.379 416.319 143.379C416.789 143.379 417.174 143.764 417.174 144.234ZM120.256 199.319C115.909 200.87 109.35 206.017 106.795 209.88C105.635 211.635 103.617 214.332 102.312 215.874C97.2741 221.819 96.1145 225.22 96.1145 234.051C96.1137 241.388 96.3694 242.717 98.6611 247.305C101.775 253.541 105.659 255.994 110.014 254.476C111.481 253.965 112.929 252.77 113.23 251.823C113.531 250.875 114.528 249.348 115.446 248.43C117.338 246.538 116.97 244.088 114.364 241.235C113.378 240.155 112.753 238.209 112.753 236.224C112.753 233.515 113.479 232.18 117.138 228.155C122.568 222.186 124.147 221.262 129 221.227C132.124 221.204 133.812 221.857 137.978 224.699C144.104 228.877 150.662 232.311 152.517 232.311C154.029 232.311 157.55 230.271 160.425 227.728C163.022 225.432 162.941 221.665 160.242 219.24C159.083 218.198 154.946 214.19 151.05 210.334C141.968 201.345 136.004 198.092 128.699 198.144C125.808 198.165 122.008 198.693 120.256 199.319ZM59.3078 298.127C57.4265 298.541 52.2317 299.316 47.7637 299.851C43.2958 300.387 35.0225 301.733 29.3788 302.843C23.735 303.953 17.3002 305.106 15.0787 305.405C9.80687 306.115 5.86051 309.886 3.33878 316.626C2.30494 319.389 1.04878 322.145 0.546825 322.75C-0.392947 323.882 -0.174893 328.37 1.61914 344.759C2.29981 350.986 2.29297 359.279 1.59349 375.275C0.745211 394.655 0.787967 397.541 1.95178 399.792C3.75094 403.271 7.42965 405.716 14.6998 408.269C26.8049 412.518 59.6575 411.781 82.6832 406.743C88.9546 405.37 96.165 403.296 98.7047 402.134C104.484 399.488 111.147 392.893 112.613 388.37C113.75 384.859 115.382 347.02 115.352 324.853C115.335 311.794 114.797 310.162 109.203 306.181C103.84 302.364 102.406 301.72 95.0191 299.812C87.5548 297.885 65.2038 296.829 59.3078 298.127ZM90.6392 308.04C95.8742 309.017 98.9903 310.164 102.277 312.324L106.767 315.274L106.735 322.748C106.654 341.779 105.047 381.828 104.258 384.457C103.197 387.994 99.7094 391.825 95.6476 393.916C92.175 395.703 76.1519 399.397 65.9777 400.757C62.1211 401.272 51.1543 401.774 41.6069 401.873C25.4888 402.039 23.8444 401.912 18.6009 400.099C9.0937 396.813 9.89922 400.444 10.8732 365.251C11.3418 348.336 11.512 333.417 11.2503 332.098C10.957 330.613 11.3606 328.612 12.3106 326.848C13.6207 324.415 13.6891 323.621 12.7758 321.417C11.8822 319.258 11.9224 318.506 13.0204 316.83C14.1449 315.114 16.1014 314.479 26.5594 312.441C55.3717 306.825 76.3913 305.381 90.6392 308.04Z" fill="#F1C40F"/>
<path fill-rule="evenodd" clip-rule="evenodd" d="M69.829 64.6879C63.8689 67.939 58.8801 77.123 58.8801 84.8421C58.8801 90.5833 59.3889 91.8489 62.3049 93.3565C64.4255 94.4536 65.0284 94.404 68.2026 92.8699C71.8642 91.1007 78.6803 90.5038 83.3031 91.5462C85.31 91.9994 86.2686 91.7514 87.417 90.4833C88.8921 88.8534 88.9434 88.8577 91.0667 90.8253C93.9595 93.5061 97.4322 94.1406 102.526 92.9187C105.624 92.1756 107.473 92.1508 109.413 92.8272C112.441 93.8832 113.819 93.3462 117.196 89.7941C121.782 84.9721 123.35 78.0439 120.92 73.3442C116.147 64.1141 104.986 62.326 96.4855 69.4278C94.5265 71.0653 92.6709 72.3959 92.3622 72.3856C92.0543 72.3754 91.2249 71.1252 90.5194 69.6065C87.9404 64.0568 76.1312 61.2495 69.829 64.6879ZM107.931 78.8178C107.66 79.5233 107.048 80.1005 106.571 80.1005C106.07 80.1005 106.153 79.5575 106.767 78.8178C107.352 78.1123 107.965 77.5351 108.127 77.5351C108.29 77.5351 108.201 78.1123 107.931 78.8178ZM188.968 173.461C179.356 174.964 163.831 185.725 154.404 197.422C146.782 206.88 146.84 206.288 152.918 212.48C157.377 217.022 158.381 217.67 159.797 216.912C162.069 215.696 163.552 212.703 163.339 209.763C163.242 208.415 163.632 206.746 164.206 206.054C165.766 204.173 179.286 197.596 185.011 195.932C189.833 194.529 197.32 194.577 201.114 196.032C202.041 196.388 202.54 196.146 202.54 195.338C202.54 192.86 207.978 189.822 215.73 187.971C218.875 187.22 219.443 185.691 217.053 184.412C216.042 183.871 213.763 182.116 211.987 180.512C208.312 177.193 200.976 173.679 196.554 173.122C194.908 172.914 191.494 173.067 188.968 173.461Z" fill="#ED3624"/>
<path fill-rule="evenodd" clip-rule="evenodd" d="M201.452 0.336973C202.97 0.525954 205.663 0.528519 207.438 0.343814C209.211 0.158254 207.969 0.00433243 204.677 5.68515e-05C201.385 -0.00336361 199.933 0.147993 201.452 0.336973ZM182.762 5.49161C181.699 6.84782 181.729 6.87775 183.086 5.81484C184.51 4.69721 184.963 3.99516 184.259 3.99516C184.082 3.99516 183.408 4.66899 182.762 5.49161ZM225.2 6.5605C226.051 7.50113 226.94 8.27073 227.175 8.27073C227.41 8.27073 226.906 7.50113 226.055 6.5605C225.204 5.61988 224.315 4.85027 224.08 4.85027C223.845 4.85027 224.349 5.61988 225.2 6.5605ZM178.731 10.8361C178.731 12.0119 178.925 12.4933 179.162 11.905C179.4 11.3175 179.4 10.3555 179.162 9.76719C178.925 9.17972 178.731 9.6603 178.731 10.8361ZM229.183 16.8219C229.183 17.9977 229.377 18.4791 229.614 17.8908C229.852 17.3033 229.852 16.3413 229.614 15.753C229.377 15.1655 229.183 15.6461 229.183 16.8219ZM191.313 17.4632C190.251 18.8194 190.28 18.8494 191.637 17.7865C193.061 16.6688 193.514 15.9668 192.81 15.9668C192.633 15.9668 191.959 16.6406 191.313 17.4632ZM536.676 18.2953C538.205 18.4851 540.705 18.4851 542.234 18.2953C543.763 18.1063 542.512 17.9506 539.455 17.9506C536.398 17.9506 535.147 18.1063 536.676 18.2953ZM517.452 19.1247C518.284 19.3419 519.438 19.3274 520.017 19.0931C520.596 18.8588 519.916 18.6818 518.505 18.6989C517.094 18.716 516.62 18.9075 517.452 19.1247ZM502.044 20.0098C503.808 20.1945 506.694 20.1945 508.457 20.0098C510.221 19.8259 508.778 19.6746 505.25 19.6746C501.723 19.6746 500.28 19.8259 502.044 20.0098ZM486.668 20.8349C487.5 21.0521 488.654 21.0376 489.233 20.8033C489.812 20.569 489.131 20.392 487.72 20.4091C486.31 20.4262 485.836 20.6177 486.668 20.8349ZM481.147 21.6815C481.764 21.9286 482.502 21.8979 482.786 21.614C483.069 21.3301 482.565 21.1283 481.664 21.165C480.667 21.2061 480.465 21.4087 481.147 21.6815ZM182.256 24.2922C184.504 24.4692 187.967 24.4666 189.952 24.2879C191.937 24.1083 190.097 23.9638 185.865 23.9664C181.632 23.9689 180.008 24.116 182.256 24.2922ZM205.8 26.8122C206.417 27.0593 207.154 27.0285 207.438 26.7446C207.722 26.4607 207.218 26.2589 206.316 26.2957C205.32 26.3368 205.118 26.5394 205.8 26.8122ZM180.122 27.7143C182.606 27.8879 186.454 27.8862 188.673 27.7109C190.891 27.5348 188.858 27.3937 184.154 27.3954C179.451 27.398 177.637 27.5416 180.122 27.7143ZM530.744 32.798C531.36 33.0451 532.098 33.0144 532.382 32.7305C532.666 32.4466 532.162 32.2448 531.26 32.2815C530.264 32.3226 530.061 32.5252 530.744 32.798ZM522.139 33.6728C523.197 33.8763 524.929 33.8763 525.987 33.6728C527.045 33.4684 526.179 33.3017 524.063 33.3017C521.946 33.3017 521.081 33.4684 522.139 33.6728ZM504.235 34.5082C504.852 34.7554 505.59 34.7246 505.874 34.4407C506.158 34.1568 505.653 33.955 504.752 33.9918C503.756 34.0328 503.553 34.2355 504.235 34.5082ZM497.341 35.3454C497.929 35.5831 498.891 35.5831 499.478 35.3454C500.067 35.1085 499.585 34.9144 498.409 34.9144C497.234 34.9144 496.753 35.1085 497.341 35.3454ZM467.76 37.3447C467.76 38.5204 467.954 39.0019 468.191 38.4136C468.429 37.8261 468.429 36.8641 468.191 36.2758C467.954 35.6883 467.76 36.1689 467.76 37.3447ZM486.328 37.1309C485.265 38.4871 485.295 38.517 486.652 37.4541C488.076 36.3365 488.529 35.6344 487.825 35.6344C487.648 35.6344 486.974 36.3074 486.328 37.1309ZM563.746 53.5919C563.746 61.352 563.876 64.5262 564.034 60.6466C564.193 56.7669 564.193 50.4168 564.034 46.5372C563.876 42.6575 563.746 45.8317 563.746 53.5919ZM508.047 43.0996C509.821 43.2843 511.049 43.7974 510.776 44.2386C509.99 45.5093 510.919 45.1707 512.091 43.758C513.015 42.6455 512.604 42.4942 508.989 42.619C505.244 42.7481 505.149 42.7969 508.047 43.0996ZM156.431 44.6841C156.472 45.6803 156.674 45.883 156.947 45.2015C157.194 44.5841 157.164 43.8461 156.88 43.5622C156.596 43.2783 156.394 43.7828 156.431 44.6841ZM498.196 43.8966C498.784 44.1343 499.746 44.1343 500.333 43.8966C500.922 43.6597 500.44 43.4656 499.265 43.4656C498.089 43.4656 497.608 43.6597 498.196 43.8966ZM515.402 51.6678C514.339 53.0241 514.369 53.054 515.725 51.9911C517.15 50.8734 517.602 50.1714 516.899 50.1714C516.722 50.1714 516.048 50.8444 515.402 51.6678ZM466.05 55.3021C466.05 56.4779 466.244 56.9593 466.481 56.371C466.719 55.7835 466.719 54.8215 466.481 54.2332C466.244 53.6457 466.05 54.1263 466.05 55.3021ZM510.167 55.8682C510.756 56.1059 511.718 56.1059 512.305 55.8682C512.893 55.6313 512.412 55.4372 511.236 55.4372C510.06 55.4372 509.58 55.6313 510.167 55.8682ZM522.994 55.8682C523.582 56.1059 524.544 56.1059 525.132 55.8682C525.72 55.6313 525.239 55.4372 524.063 55.4372C522.887 55.4372 522.407 55.6313 522.994 55.8682ZM529.034 55.8861C529.65 56.1333 530.388 56.1025 530.672 55.8186C530.956 55.5347 530.451 55.3329 529.55 55.3696C528.554 55.4107 528.351 55.6133 529.034 55.8861ZM487.183 58.5088C486.121 59.865 486.15 59.8949 487.507 58.832C488.931 57.7144 489.384 57.0123 488.68 57.0123C488.503 57.0123 487.829 57.6853 487.183 58.5088ZM465.195 62.143C465.195 63.3188 465.389 63.8002 465.626 63.2119C465.864 62.6244 465.864 61.6624 465.626 61.0741C465.389 60.4866 465.195 60.9672 465.195 62.143ZM485.65 61.7864C485.691 62.7826 485.894 62.9853 486.167 62.3038C486.414 61.6864 486.383 60.9484 486.099 60.6645C485.815 60.3806 485.613 60.8851 485.65 61.7864ZM68.7198 64.6989C68.4206 65.1829 68.7635 65.3266 69.5245 65.035C71.0056 64.4664 71.2766 63.8532 70.047 63.8532C69.604 63.8532 69.0072 64.2338 68.7198 64.6989ZM500.761 65.2744C501.349 65.5122 502.311 65.5122 502.899 65.2744C503.487 65.0376 503.006 64.8435 501.83 64.8435C500.654 64.8435 500.174 65.0376 500.761 65.2744ZM516.153 65.2744C516.741 65.5122 517.703 65.5122 518.291 65.2744C518.879 65.0376 518.398 64.8435 517.222 64.8435C516.046 64.8435 515.566 65.0376 516.153 65.2744ZM493.974 66.1475C494.59 66.3946 495.328 66.3639 495.612 66.08C495.896 65.7961 495.392 65.5943 494.49 65.631C493.494 65.6721 493.292 65.8747 493.974 66.1475ZM94.6854 70.4804C93.6225 71.8366 93.6524 71.8665 95.0087 70.8036C95.8321 70.158 96.5051 69.4842 96.5051 69.3072C96.5051 68.6034 95.8031 69.0558 94.6854 70.4804ZM563.466 77.1785C563.507 78.1747 563.709 78.3774 563.982 77.6959C564.229 77.0785 564.199 76.3405 563.915 76.0566C563.631 75.7727 563.429 76.2772 563.466 77.1785ZM487.46 79.6729C487.477 81.0838 487.668 81.5576 487.885 80.7255C488.103 79.8935 488.088 78.7391 487.854 78.1602C487.62 77.5813 487.443 78.2619 487.46 79.6729ZM528.273 81.5969L526.201 83.9485L528.552 81.8757C529.846 80.7349 530.904 79.6772 530.904 79.5241C530.904 78.8528 530.211 79.3992 528.273 81.5969ZM495.979 81.8107C495.979 82.9864 496.173 83.4679 496.41 82.8796C496.648 82.2921 496.648 81.3301 496.41 80.7418C496.173 80.1543 495.979 80.6349 495.979 81.8107ZM564.42 82.2382C564.437 83.6492 564.629 84.1229 564.846 83.2909C565.063 82.4588 565.049 81.3044 564.814 80.7255C564.58 80.1466 564.403 80.8273 564.42 82.2382ZM58.2404 85.6587C58.2498 87.5399 58.4251 88.2086 58.6295 87.1449C58.8339 86.0811 58.8262 84.5419 58.6124 83.7244C58.3986 82.9069 58.231 83.7774 58.2404 85.6587ZM387.99 86.7276C386.927 88.0838 386.957 88.1137 388.313 87.0508C389.136 86.4052 389.81 85.7314 389.81 85.5544C389.81 84.8506 389.108 85.303 387.99 86.7276ZM498.409 85.5544C498.409 85.7314 499.083 86.4052 499.906 87.0508C501.262 88.1137 501.292 88.0838 500.229 86.7276C499.111 85.303 498.409 84.8506 498.409 85.5544ZM318.675 88.3805C319.292 88.6276 320.03 88.5969 320.314 88.313C320.598 88.0291 320.093 87.8273 319.192 87.864C318.195 87.9051 317.993 88.1077 318.675 88.3805ZM467.625 88.1197C467.625 88.2967 468.299 88.9706 469.122 89.6162C470.478 90.6791 470.508 90.6491 469.445 89.2929C468.327 87.8683 467.625 87.416 467.625 88.1197ZM503.54 89.9343C504.645 91.11 505.741 92.072 505.976 92.072C506.211 92.072 505.5 91.11 504.395 89.9343C503.29 88.7585 502.194 87.7965 501.959 87.7965C501.724 87.7965 502.435 88.7585 503.54 89.9343ZM531.649 90.148C530.587 91.5043 530.616 91.5342 531.973 90.4713C533.397 89.3536 533.85 88.6516 533.146 88.6516C532.969 88.6516 532.295 89.3246 531.649 90.148ZM86.59 91.4307L84.9611 93.3547L86.8851 91.7257C88.6928 90.1951 89.1981 89.5067 88.5141 89.5067C88.3516 89.5067 87.4862 90.3721 86.59 91.4307ZM371.92 91.7155C371.961 92.7117 372.164 92.9143 372.436 92.2328C372.683 91.6154 372.653 90.8774 372.369 90.5936C372.085 90.3097 371.883 90.8142 371.92 91.7155ZM490.713 90.6851C490.713 90.8621 491.387 91.5359 492.21 92.1815C493.566 93.2444 493.596 93.2145 492.533 91.8583C491.415 90.4336 490.713 89.9813 490.713 90.6851ZM471.901 93.3547C473.006 94.5305 474.102 95.4925 474.337 95.4925C474.572 95.4925 473.861 94.5305 472.756 93.3547C471.651 92.1789 470.555 91.2169 470.32 91.2169C470.085 91.2169 470.796 92.1789 471.901 93.3547ZM512.837 92.7134C511.774 94.0696 511.804 94.0995 513.16 93.0366C514.585 91.919 515.037 91.2169 514.333 91.2169C514.156 91.2169 513.483 91.8899 512.837 92.7134ZM88.8091 95.065C89.9139 96.2407 91.0101 97.2027 91.2453 97.2027C91.4804 97.2027 90.769 96.2407 89.6642 95.065C88.5594 93.8892 87.4631 92.9272 87.228 92.9272C86.9928 92.9272 87.7043 93.8892 88.8091 95.065ZM494.134 93.2504C494.134 93.4274 494.808 94.1012 495.63 94.7469C496.986 95.8098 497.016 95.7798 495.954 94.4236C494.836 92.999 494.134 92.5466 494.134 93.2504ZM97.7878 94.6374C98.0785 95.1077 98.4856 95.4925 98.6934 95.4925C98.9011 95.4925 99.0705 95.1077 99.0705 94.6374C99.0705 94.1671 98.6626 93.7823 98.1649 93.7823C97.6672 93.7823 97.497 94.1671 97.7878 94.6374ZM474.466 96.6153C474.466 96.7624 475.716 98.0134 477.245 99.3944L480.024 101.906L477.513 99.1268C475.172 96.5366 474.466 95.9543 474.466 96.6153ZM402.209 98.913C403.06 99.8536 403.949 100.623 404.184 100.623C404.419 100.623 403.915 99.8536 403.064 98.913C402.213 97.9723 401.324 97.2027 401.089 97.2027C400.854 97.2027 401.358 97.9723 402.209 98.913ZM499.265 97.4704C499.265 97.6175 500.515 98.8685 502.044 100.25L504.823 102.761L502.311 99.9819C499.97 97.3917 499.265 96.8094 499.265 97.4704ZM517.113 100.409C516.05 101.766 516.08 101.796 517.436 100.733C518.86 99.615 519.313 98.913 518.609 98.913C518.432 98.913 517.758 99.5859 517.113 100.409ZM480.452 101.802C480.452 101.979 481.126 102.652 481.948 103.298C483.305 104.361 483.335 104.331 482.272 102.975C481.154 101.55 480.452 101.098 480.452 101.802ZM505.877 103.295C506.458 103.879 507.148 104.142 507.41 103.879C507.674 103.615 507.199 103.137 506.356 102.816C505.137 102.352 505.039 102.45 505.877 103.295ZM509.312 104.61C509.9 104.847 510.862 104.847 511.45 104.61C512.038 104.373 511.557 104.179 510.381 104.179C509.205 104.179 508.725 104.373 509.312 104.61ZM486.865 107.464C487.716 108.405 488.606 109.174 488.841 109.174C489.076 109.174 488.571 108.405 487.72 107.464C486.87 106.524 485.98 105.754 485.745 105.754C485.51 105.754 486.015 106.524 486.865 107.464ZM534.701 108.794C533.107 110.071 533.118 110.087 534.966 109.191C536.023 108.678 536.89 108.08 536.89 107.862C536.89 107.208 536.446 107.397 534.701 108.794ZM324.889 110.528C324.93 111.524 325.132 111.727 325.405 111.045C325.652 110.428 325.621 109.69 325.337 109.406C325.054 109.122 324.852 109.627 324.889 110.528ZM408.757 111.74C408.757 112.915 408.951 113.397 409.188 112.809C409.426 112.221 409.426 111.259 409.188 110.671C408.951 110.083 408.757 110.564 408.757 111.74ZM399.284 112.238C399.325 113.234 399.527 113.437 399.8 112.756C400.047 112.138 400.016 111.4 399.732 111.116C399.449 110.832 399.247 111.337 399.284 112.238ZM491.996 112.595C492.847 113.535 493.736 114.305 493.971 114.305C494.207 114.305 493.702 113.535 492.851 112.595C492 111.654 491.111 110.885 490.876 110.885C490.641 110.885 491.145 111.654 491.996 112.595ZM86.1343 115.802C85.0714 117.158 85.1013 117.188 86.4575 116.125C87.281 115.479 87.954 114.805 87.954 114.628C87.954 113.925 87.2519 114.377 86.1343 115.802ZM114.809 117.084L113.18 119.008L115.104 117.379C116.163 116.483 117.028 115.618 117.028 115.455C117.028 114.771 116.34 115.276 114.809 117.084ZM87.954 116.339C87.954 116.516 88.6269 117.189 89.4504 117.835C90.8066 118.898 90.8365 118.868 89.7736 117.512C88.656 116.087 87.954 115.635 87.954 116.339ZM521.388 117.512C520.325 118.868 520.355 118.898 521.711 117.835C523.136 116.717 523.588 116.015 522.885 116.015C522.708 116.015 522.034 116.688 521.388 117.512ZM53.7493 118.904C53.7493 119.081 54.4223 119.755 55.2458 120.4C56.602 121.463 56.6319 121.433 55.569 120.077C54.4514 118.652 53.7493 118.2 53.7493 118.904ZM94.635 120.02C95.2515 120.267 95.9895 120.236 96.2734 119.952C96.5573 119.668 96.0528 119.467 95.1515 119.503C94.1553 119.544 93.9526 119.747 94.635 120.02ZM379.616 120.789C379.657 121.786 379.86 121.988 380.132 121.307C380.38 120.689 380.349 119.951 380.065 119.667C379.781 119.384 379.579 119.888 379.616 120.789ZM366.612 121.787C365.549 123.144 365.579 123.173 366.935 122.111C367.758 121.465 368.432 120.791 368.432 120.614C368.432 119.91 367.73 120.363 366.612 121.787ZM403.838 123.07L402.209 124.994L404.133 123.365C405.192 122.469 406.057 121.603 406.057 121.441C406.057 120.757 405.369 121.262 403.838 123.07ZM326.599 123.355C326.64 124.351 326.842 124.554 327.115 123.872C327.362 123.255 327.332 122.517 327.048 122.233C326.764 121.949 326.562 122.453 326.599 123.355ZM317.192 125.065C317.234 126.061 317.436 126.264 317.709 125.582C317.956 124.965 317.925 124.227 317.641 123.943C317.357 123.659 317.156 124.164 317.192 125.065ZM360.576 124.295C361.192 124.542 361.93 124.512 362.214 124.228C362.498 123.944 361.994 123.742 361.092 123.779C360.096 123.82 359.893 124.023 360.576 124.295ZM391.316 127.736C392.38 127.941 393.919 127.933 394.737 127.719C395.554 127.505 394.684 127.338 392.803 127.347C390.921 127.357 390.253 127.532 391.316 127.736ZM328.309 134.471C328.35 135.467 328.553 135.67 328.825 134.989C329.073 134.371 329.042 133.633 328.758 133.349C328.474 133.065 328.272 133.57 328.309 134.471ZM292.462 135.683C292.462 136.859 292.656 137.34 292.893 136.752C293.13 136.164 293.13 135.202 292.893 134.614C292.656 134.027 292.462 134.507 292.462 135.683ZM79.3378 145.731L77.265 148.082L79.6166 146.009C80.9104 144.869 81.9681 143.811 81.9681 143.658C81.9681 142.986 81.2755 143.533 79.3378 145.731ZM60.804 152.519C61.6275 152.735 62.9735 152.735 63.7969 152.519C64.6204 152.305 63.9466 152.129 62.3005 152.129C60.6544 152.129 59.9806 152.305 60.804 152.519ZM330.647 167.051C331.263 167.298 332.001 167.267 332.285 166.984C332.569 166.7 332.065 166.498 331.163 166.535C330.167 166.576 329.964 166.778 330.647 167.051ZM336.633 167.051C337.249 167.298 337.987 167.267 338.271 166.984C338.555 166.7 338.05 166.498 337.149 166.535C336.153 166.576 335.95 166.778 336.633 167.051ZM189.943 173.045C190.775 173.263 191.929 173.248 192.508 173.014C193.087 172.78 192.406 172.603 190.995 172.62C189.584 172.637 189.111 172.828 189.943 173.045ZM195.485 173.019C196.073 173.257 197.035 173.257 197.623 173.019C198.211 172.782 197.729 172.588 196.554 172.588C195.378 172.588 194.897 172.782 195.485 173.019ZM212.373 181.004C213.224 181.945 214.113 182.714 214.349 182.714C214.584 182.714 214.079 181.945 213.228 181.004C212.378 180.063 211.488 179.294 211.253 179.294C211.018 179.294 211.522 180.063 212.373 181.004ZM162.695 188.059L161.066 189.983L162.99 188.354C164.049 187.458 164.914 186.592 164.914 186.43C164.914 185.746 164.226 186.251 162.695 188.059ZM156.254 194.472C155.191 195.828 155.221 195.858 156.577 194.795C157.4 194.15 158.073 193.476 158.073 193.299C158.073 192.595 157.371 193.048 156.254 194.472ZM189.926 195.298C191.219 195.494 193.337 195.494 194.63 195.298C195.923 195.102 194.865 194.942 192.278 194.942C189.691 194.942 188.634 195.102 189.926 195.298ZM202.539 198.878C202.539 199.765 204.166 201.051 204.648 200.543C204.805 200.379 204.394 199.748 203.736 199.142C203.078 198.535 202.539 198.416 202.539 198.878ZM206.585 202.45C206.888 203.606 207.275 203.995 207.489 203.354C207.694 202.737 207.456 201.826 206.959 201.328C206.324 200.694 206.213 201.028 206.585 202.45ZM224.084 203.665C224.101 205.076 224.293 205.549 224.51 204.717C224.727 203.885 224.713 202.731 224.478 202.152C224.244 201.573 224.067 202.254 224.084 203.665ZM164.406 206.016L162.777 207.94L164.701 206.311C165.759 205.415 166.625 204.55 166.625 204.387C166.625 203.703 165.936 204.208 164.406 206.016ZM207.738 209.721C207.779 210.718 207.981 210.92 208.254 210.239C208.501 209.621 208.471 208.883 208.187 208.599C207.903 208.316 207.701 208.82 207.738 209.721ZM162.831 213.248C162.368 214.466 162.465 214.565 163.31 213.727C163.895 213.146 164.158 212.456 163.894 212.194C163.631 211.93 163.153 212.405 162.831 213.248ZM229.262 214.088C230.084 214.303 231.432 214.303 232.255 214.088C233.077 213.873 232.404 213.697 230.758 213.697C229.112 213.697 228.439 213.873 229.262 214.088ZM224.147 230.338C224.979 230.555 226.134 230.541 226.713 230.307C227.292 230.072 226.611 229.895 225.2 229.912C223.789 229.929 223.315 230.121 224.147 230.338ZM230.385 231.706C230.707 232.55 231.185 233.024 231.448 232.761C231.712 232.498 231.449 231.808 230.864 231.228C230.019 230.39 229.922 230.488 230.385 231.706ZM441.972 239.475C441.972 239.652 442.646 240.326 443.468 240.972C444.824 242.034 444.854 242.005 443.791 240.648C442.674 239.224 441.972 238.771 441.972 239.475ZM226.373 241.503C225.31 242.86 225.34 242.89 226.696 241.827C228.121 240.709 228.573 240.007 227.87 240.007C227.693 240.007 227.019 240.681 226.373 241.503ZM434.276 244.606C434.276 244.783 434.95 245.457 435.772 246.102C437.128 247.165 437.158 247.135 436.095 245.779C434.978 244.354 434.276 243.902 434.276 244.606ZM253.474 246.597C253.01 247.816 253.108 247.914 253.952 247.076C254.537 246.496 254.8 245.806 254.536 245.543C254.273 245.28 253.795 245.754 253.474 246.597ZM450.095 246.848C450.946 247.789 451.836 248.558 452.071 248.558C452.306 248.558 451.801 247.789 450.95 246.848C450.1 245.907 449.21 245.138 448.975 245.138C448.74 245.138 449.245 245.907 450.095 246.848ZM440.262 249.737C440.262 249.914 440.935 250.587 441.758 251.233C443.114 252.296 443.144 252.266 442.081 250.91C440.964 249.485 440.262 249.033 440.262 249.737ZM204.09 250.852C204.706 251.1 205.444 251.069 205.728 250.785C206.012 250.501 205.508 250.299 204.606 250.336C203.61 250.377 203.407 250.58 204.09 250.852ZM186.522 252.571C187.354 252.788 188.509 252.774 189.088 252.54C189.667 252.305 188.986 252.128 187.575 252.145C186.164 252.162 185.69 252.354 186.522 252.571ZM247.379 254.758L244.868 257.537L247.647 255.025C249.176 253.644 250.426 252.393 250.426 252.246C250.426 251.585 249.72 252.168 247.379 254.758ZM136.926 253.426C137.758 253.644 138.912 253.629 139.491 253.395C140.07 253.16 139.389 252.983 137.978 253.001C136.567 253.018 136.094 253.209 136.926 253.426ZM474.357 254.33C473.294 255.686 473.324 255.716 474.68 254.653C476.105 253.536 476.557 252.834 475.853 252.834C475.676 252.834 475.002 253.508 474.357 254.33ZM150.164 254.255C150.752 254.493 151.714 254.493 152.301 254.255C152.89 254.018 152.408 253.824 151.232 253.824C150.057 253.824 149.576 254.018 150.164 254.255ZM459.086 254.898C459.64 255.452 460.218 255.452 460.772 254.898C461.326 254.345 461.037 254.056 459.929 254.056C458.822 254.056 458.533 254.345 459.086 254.898ZM109.759 261.385C110.61 262.326 111.5 263.095 111.735 263.095C111.97 263.095 111.465 262.326 110.615 261.385C109.764 260.444 108.874 259.675 108.639 259.675C108.404 259.675 108.909 260.444 109.759 261.385ZM132.216 270.541C133.28 270.745 134.819 270.737 135.637 270.524C136.454 270.31 135.584 270.142 133.703 270.152C131.821 270.161 131.153 270.336 132.216 270.541ZM142.521 271.375C143.138 271.622 143.876 271.592 144.16 271.308C144.444 271.024 143.939 270.822 143.038 270.859C142.042 270.9 141.839 271.102 142.521 271.375ZM441.49 282.977L438.979 285.756L441.758 283.244C443.287 281.863 444.537 280.612 444.537 280.465C444.537 279.804 443.832 280.386 441.49 282.977ZM429.84 295.318C430.457 295.566 431.195 295.535 431.479 295.251C431.763 294.967 431.258 294.765 430.357 294.802C429.361 294.843 429.158 295.046 429.84 295.318ZM461.639 313.015C461.639 313.192 462.313 313.866 463.136 314.512C464.492 315.574 464.522 315.545 463.459 314.188C462.341 312.764 461.639 312.311 461.639 313.015ZM407.658 315.899C406.595 317.255 406.625 317.285 407.981 316.222C408.804 315.576 409.477 314.902 409.477 314.725C409.477 314.022 408.775 314.474 407.658 315.899ZM473.611 323.276C473.611 323.453 474.285 324.127 475.108 324.773C476.464 325.836 476.494 325.806 475.431 324.45C474.313 323.025 473.611 322.573 473.611 323.276ZM499.96 348.336C500.576 348.583 501.314 348.552 501.598 348.268C501.882 347.984 501.378 347.782 500.476 347.819C499.48 347.86 499.277 348.063 499.96 348.336ZM71.5469 361.162C72.1634 361.409 72.9014 361.379 73.1853 361.095C73.4692 360.811 72.9646 360.609 72.0633 360.646C71.0671 360.687 70.8645 360.89 71.5469 361.162ZM57.0099 362.873C57.6264 363.12 58.3644 363.089 58.6483 362.805C58.9322 362.521 58.4277 362.319 57.5264 362.356C56.5302 362.397 56.3275 362.6 57.0099 362.873ZM259.618 364.602C260.677 364.806 262.408 364.806 263.466 364.602C264.525 364.398 263.659 364.231 261.542 364.231C259.426 364.231 258.56 364.398 259.618 364.602ZM246.846 365.438C247.462 365.685 248.2 365.654 248.484 365.37C248.768 365.086 248.263 364.885 247.362 364.921C246.366 364.962 246.163 365.165 246.846 365.438ZM97.2003 372.279C97.8169 372.526 98.5548 372.495 98.8387 372.211C99.1226 371.927 98.6181 371.726 97.7168 371.762C96.7206 371.803 96.5179 372.006 97.2003 372.279ZM267.956 374.26C268.247 374.73 268.654 375.115 268.861 375.115C269.069 375.115 269.238 374.73 269.238 374.26C269.238 373.79 268.831 373.405 268.333 373.405C267.835 373.405 267.665 373.79 267.956 374.26ZM54.6045 374.596C54.6045 374.781 55.2013 375.161 55.9316 375.442C56.6926 375.734 57.0355 375.59 56.7363 375.106C56.2343 374.293 54.6045 373.904 54.6045 374.596ZM65.9193 379.391C65.9193 381.037 66.0955 381.71 66.3101 380.887C66.5256 380.065 66.5256 378.717 66.3101 377.894C66.0955 377.072 65.9193 377.745 65.9193 379.391ZM246.364 378.27C247.187 378.485 248.534 378.485 249.357 378.27C250.18 378.055 249.507 377.879 247.861 377.879C246.214 377.879 245.541 378.055 246.364 378.27ZM216.967 383.453C215.904 384.809 215.934 384.839 217.29 383.776C218.113 383.13 218.787 382.456 218.787 382.279C218.787 381.576 218.085 382.028 216.967 383.453ZM74.1627 385.163C73.0997 386.519 73.1297 386.549 74.4859 385.486C75.9105 384.368 76.3629 383.666 75.6591 383.666C75.4821 383.666 74.8083 384.34 74.1627 385.163ZM80.0441 384.232C80.6325 384.47 81.5945 384.47 82.1819 384.232C82.7702 383.996 82.2888 383.802 81.113 383.802C79.9373 383.802 79.4567 383.996 80.0441 384.232ZM95.5405 388.583C94.4776 389.94 94.5076 389.969 95.8638 388.907C96.6872 388.261 97.3602 387.587 97.3602 387.41C97.3602 386.706 96.6582 387.159 95.5405 388.583ZM44.3431 391.686C44.3431 391.863 45.016 392.537 45.8395 393.182C47.1957 394.245 47.2257 394.215 46.1628 392.859C45.0451 391.434 44.3431 390.982 44.3431 391.686ZM79.2429 393.657C79.8594 393.904 80.5974 393.873 80.8813 393.589C81.1652 393.305 80.6607 393.103 79.7594 393.14C78.7632 393.181 78.5605 393.384 79.2429 393.657ZM301.733 409.643C301.733 409.82 302.407 410.494 303.229 411.14C304.585 412.202 304.615 412.173 303.553 410.816C302.435 409.392 301.733 408.939 301.733 409.643ZM225.468 420.165C226.084 420.412 226.822 420.382 227.106 420.098C227.39 419.814 226.885 419.612 225.984 419.649C224.988 419.69 224.785 419.893 225.468 420.165ZM288.906 424.18C288.906 424.357 289.58 425.031 290.403 425.677C291.759 426.739 291.789 426.71 290.726 425.353C289.608 423.929 288.906 423.476 288.906 424.18ZM244.508 429.486C244.549 430.482 244.751 430.685 245.024 430.003C245.271 429.386 245.24 428.648 244.957 428.364C244.673 428.08 244.471 428.585 244.508 429.486ZM292.493 432.836C292.51 434.246 292.702 434.72 292.919 433.888C293.136 433.056 293.122 431.902 292.888 431.323C292.653 430.744 292.476 431.425 292.493 432.836ZM331.552 446.731C330.49 448.087 330.519 448.117 331.876 447.054C333.3 445.937 333.753 445.235 333.049 445.235C332.872 445.235 332.198 445.909 331.552 446.731ZM186.427 450.365C186.427 451.541 186.621 452.023 186.858 451.434C187.096 450.847 187.096 449.885 186.858 449.297C186.621 448.709 186.427 449.19 186.427 450.365ZM235.729 449.239C236.346 449.486 237.084 449.456 237.367 449.172C237.651 448.888 237.147 448.686 236.246 448.723C235.249 448.764 235.047 448.966 235.729 449.239ZM506.63 463.349C506.877 463.748 507.437 463.854 507.875 463.583C508.993 462.892 508.867 462.622 507.426 462.622C506.741 462.622 506.382 462.949 506.63 463.349ZM257.107 466.342C257.723 466.589 258.461 466.558 258.745 466.274C259.029 465.99 258.525 465.788 257.623 465.825C256.627 465.866 256.425 466.069 257.107 466.342ZM192.278 466.88C192.278 467.027 193.529 468.278 195.057 469.659L197.836 472.171L195.325 469.392C192.984 466.802 192.278 466.219 192.278 466.88ZM260.687 466.936C260.687 467.113 261.361 467.787 262.184 468.432C263.54 469.495 263.57 469.465 262.507 468.109C261.389 466.684 260.687 466.232 260.687 466.936ZM159.674 471.53C158.611 472.886 158.641 472.916 159.997 471.853C161.422 470.735 161.874 470.033 161.171 470.033C160.994 470.033 160.32 470.707 159.674 471.53ZM184.582 472.067C184.582 472.244 185.255 472.917 186.078 473.563C187.435 474.626 187.465 474.596 186.402 473.24C185.284 471.815 184.582 471.363 184.582 472.067ZM434.116 475.748C434.732 475.995 435.47 475.964 435.754 475.68C436.038 475.396 435.534 475.195 434.632 475.231C433.636 475.272 433.433 475.475 434.116 475.748ZM428.13 476.603C428.747 476.85 429.485 476.819 429.768 476.535C430.052 476.251 429.548 476.05 428.646 476.086C427.65 476.127 427.448 476.33 428.13 476.603ZM504.66 480.722C504.665 483.544 504.824 484.595 505.015 483.058C505.205 481.522 505.202 479.213 505.007 477.928C504.811 476.642 504.655 477.9 504.66 480.722ZM233.11 485.136C233.698 485.374 234.66 485.374 235.248 485.136C235.836 484.899 235.354 484.705 234.179 484.705C233.003 484.705 232.522 484.899 233.11 485.136ZM239.523 485.159C240.346 485.375 241.693 485.375 242.516 485.159C243.339 484.945 242.666 484.768 241.02 484.768C239.374 484.768 238.701 484.945 239.523 485.159ZM514 489.701C514 491.347 514.176 492.02 514.391 491.197C514.606 490.375 514.606 489.027 514.391 488.204C514.176 487.382 514 488.055 514 489.701ZM251.799 494.701L250.18 496.969L252.179 495.069C253.279 494.024 254.008 493.003 253.798 492.801C253.59 492.599 252.69 493.454 251.799 494.701ZM247.701 493.705C248.317 493.952 249.055 493.922 249.339 493.638C249.623 493.354 249.118 493.152 248.217 493.189C247.221 493.23 247.018 493.432 247.701 493.705ZM260.178 499.321L258.549 501.245L260.474 499.616C262.281 498.085 262.787 497.397 262.102 497.397C261.94 497.397 261.075 498.263 260.178 499.321ZM505.567 512.789C505.567 517.727 505.708 519.748 505.881 517.278C506.053 514.809 506.053 510.769 505.881 508.299C505.708 505.83 505.567 507.851 505.567 512.789ZM310.352 527.824C310.393 528.821 310.595 529.023 310.868 528.342C311.115 527.724 311.084 526.986 310.8 526.702C310.517 526.419 310.315 526.923 310.352 527.824ZM300.945 528.679C300.986 529.676 301.189 529.878 301.462 529.197C301.709 528.579 301.678 527.841 301.394 527.558C301.11 527.274 300.909 527.778 300.945 528.679ZM513.869 529.535C513.91 530.531 514.113 530.733 514.386 530.052C514.633 529.435 514.602 528.697 514.318 528.413C514.034 528.129 513.832 528.633 513.869 529.535ZM214.297 535.588C214.886 535.826 215.848 535.826 216.435 535.588C217.023 535.351 216.542 535.157 215.366 535.157C214.19 535.157 213.71 535.351 214.297 535.588ZM218.573 535.588C219.161 535.826 220.123 535.826 220.711 535.588C221.299 535.351 220.818 535.157 219.642 535.157C218.466 535.157 217.985 535.351 218.573 535.588ZM513.014 537.231C513.055 538.227 513.258 538.429 513.53 537.748C513.778 537.131 513.747 536.393 513.463 536.109C513.179 535.825 512.977 536.329 513.014 537.231ZM91.7207 538.656L90.0917 540.58L92.0158 538.951C93.0744 538.055 93.9398 537.19 93.9398 537.027C93.9398 536.343 93.2514 536.848 91.7207 538.656ZM300.09 538.941C300.131 539.937 300.334 540.14 300.607 539.458C300.854 538.841 300.823 538.103 300.539 537.819C300.255 537.535 300.053 538.04 300.09 538.941ZM512.159 544.072C512.2 545.068 512.403 545.27 512.675 544.589C512.922 543.971 512.892 543.234 512.608 542.95C512.324 542.666 512.122 543.17 512.159 544.072ZM308.641 548.347C308.682 549.343 308.885 549.546 309.158 548.864C309.405 548.247 309.374 547.509 309.09 547.225C308.806 546.941 308.605 547.446 308.641 548.347ZM299.383 550.841C299.392 552.723 299.568 553.391 299.772 552.328C299.976 551.264 299.969 549.725 299.755 548.907C299.541 548.09 299.374 548.96 299.383 550.841ZM133.343 558.609C133.384 559.605 133.586 559.807 133.859 559.126C134.106 558.508 134.075 557.77 133.792 557.487C133.508 557.203 133.306 557.707 133.343 558.609ZM123.936 559.464C123.977 560.46 124.18 560.662 124.453 559.981C124.7 559.364 124.669 558.626 124.385 558.342C124.101 558.058 123.9 558.562 123.936 559.464ZM307.786 560.319C307.827 561.315 308.03 561.518 308.303 560.836C308.55 560.219 308.519 559.481 308.235 559.197C307.951 558.913 307.749 559.417 307.786 560.319ZM298.511 564.951C298.511 566.597 298.687 567.27 298.902 566.447C299.117 565.625 299.117 564.277 298.902 563.454C298.687 562.632 298.511 563.305 298.511 564.951ZM83.6784 564.419C83.6784 564.596 84.3514 565.27 85.1748 565.915C86.531 566.978 86.561 566.948 85.4981 565.592C84.3804 564.168 83.6784 563.715 83.6784 564.419ZM132.635 568.799C132.645 570.68 132.82 571.349 133.025 570.285C133.229 569.221 133.221 567.682 133.007 566.865C132.794 566.047 132.626 566.918 132.635 568.799ZM123.258 572.219C123.265 574.571 123.431 575.431 123.628 574.131C123.823 572.832 123.818 570.908 123.616 569.856C123.413 568.804 123.252 569.868 123.258 572.219ZM307.079 577.35C307.088 579.231 307.264 579.9 307.468 578.836C307.672 577.772 307.665 576.233 307.451 575.416C307.237 574.598 307.07 575.469 307.079 577.35ZM132.488 579.986C132.529 580.983 132.731 581.185 133.004 580.504C133.251 579.886 133.22 579.148 132.936 578.864C132.653 578.581 132.451 579.085 132.488 579.986ZM297.209 587.184C297.456 588.125 297.804 588.894 297.985 588.894C298.164 588.894 298.312 588.125 298.312 587.184C298.312 586.243 297.963 585.474 297.538 585.474C297.111 585.474 296.964 586.243 297.209 587.184ZM283.666 596.376C282.603 597.733 282.633 597.763 283.989 596.7C285.414 595.582 285.866 594.88 285.162 594.88C284.985 594.88 284.312 595.554 283.666 596.376ZM279.933 598.291C279.634 598.775 279.977 598.919 280.738 598.627C282.219 598.058 282.49 597.445 281.26 597.445C280.818 597.445 280.221 597.826 279.933 598.291ZM306.344 615.403C306.344 621.752 306.478 624.349 306.643 621.175C306.807 618.001 306.807 612.805 306.643 609.631C306.478 606.456 306.344 609.053 306.344 615.403ZM146.102 616.525C146.102 616.673 147.353 617.924 148.881 619.305L151.66 621.816L149.149 619.037C146.807 616.447 146.102 615.864 146.102 616.525ZM487.988 616.842C488.605 617.089 489.343 617.058 489.627 616.774C489.91 616.49 489.406 616.289 488.505 616.325C487.508 616.366 487.306 616.569 487.988 616.842ZM140.971 624.277C140.971 624.454 141.644 625.128 142.468 625.774C143.824 626.836 143.854 626.807 142.791 625.45C141.673 624.026 140.971 623.573 140.971 624.277ZM490.713 634.538C490.713 634.715 491.387 635.389 492.21 636.035C493.566 637.098 493.596 637.068 492.533 635.712C491.415 634.287 490.713 633.835 490.713 634.538ZM237.039 640.415C236.821 640.768 239.84 640.999 243.748 640.928C250.954 640.798 250.31 640.462 242.006 640.018C239.492 639.884 237.257 640.062 237.039 640.415ZM297.592 641.911C297.592 643.087 297.786 643.569 298.023 642.98C298.261 642.393 298.261 641.431 298.023 640.842C297.786 640.255 297.592 640.736 297.592 641.911ZM278.929 643.156C278.929 643.841 279.257 644.2 279.656 643.952C280.056 643.705 280.162 643.145 279.891 642.707C279.2 641.589 278.929 641.715 278.929 643.156ZM307.062 645.332C307.062 646.978 307.238 647.651 307.453 646.828C307.668 646.006 307.668 644.658 307.453 643.835C307.238 643.013 307.062 643.686 307.062 645.332ZM272.461 644.62C272.958 645.118 273.869 645.356 274.486 645.15C275.127 644.937 274.739 644.549 273.582 644.247C272.16 643.875 271.826 643.986 272.461 644.62ZM221.352 644.8C221.352 644.977 222.026 645.651 222.848 646.296C224.205 647.359 224.235 647.329 223.172 645.973C222.054 644.548 221.352 644.096 221.352 644.8ZM267.368 653.612C267.985 653.859 268.723 653.828 269.007 653.544C269.291 653.26 268.786 653.059 267.885 653.095C266.889 653.136 266.686 653.339 267.368 653.612ZM280.141 657.869C280.729 658.107 281.691 658.107 282.279 657.869C282.867 657.633 282.386 657.438 281.21 657.438C280.034 657.438 279.554 657.633 280.141 657.869ZM226.722 658.788C228.97 658.965 232.433 658.962 234.418 658.784C236.403 658.604 234.564 658.459 230.331 658.462C226.098 658.465 224.474 658.612 226.722 658.788ZM244.207 658.776C245.725 658.965 248.419 658.967 250.193 658.783C251.967 658.597 250.725 658.443 247.433 658.439C244.141 658.436 242.689 658.587 244.207 658.776ZM266.459 658.725C267.048 658.962 268.01 658.962 268.597 658.725C269.185 658.488 268.704 658.294 267.528 658.294C266.352 658.294 265.872 658.488 266.459 658.725ZM291.099 666.105C291.42 666.948 291.898 667.423 292.162 667.159C292.425 666.897 292.162 666.207 291.577 665.626C290.733 664.788 290.635 664.887 291.099 666.105ZM278.431 667.313C279.49 667.517 281.22 667.517 282.279 667.313C283.338 667.109 282.471 666.942 280.355 666.942C278.239 666.942 277.372 667.109 278.431 667.313ZM194.682 668.204C201.412 668.349 212.186 668.349 218.625 668.204C225.063 668.059 219.556 667.94 206.387 667.941C193.219 667.941 187.951 668.06 194.682 668.204ZM254.06 668.193C256.295 668.369 259.949 668.369 262.184 668.193C264.418 668.017 262.59 667.873 258.122 667.873C253.654 667.873 251.826 668.017 254.06 668.193ZM300.09 676.614C300.131 677.611 300.334 677.813 300.607 677.132C300.854 676.514 300.823 675.776 300.539 675.493C300.255 675.209 300.053 675.713 300.09 676.614ZM287.263 682.6C287.304 683.596 287.507 683.799 287.78 683.118C288.027 682.5 287.996 681.762 287.712 681.478C287.428 681.194 287.227 681.699 287.263 682.6ZM163.095 685.308C162.032 686.665 162.062 686.695 163.418 685.632C164.241 684.986 164.914 684.312 164.914 684.135C164.914 683.431 164.212 683.884 163.095 685.308ZM181.392 684.405C182.224 684.622 183.378 684.607 183.957 684.373C184.536 684.139 183.855 683.962 182.444 683.979C181.033 683.996 180.56 684.187 181.392 684.405ZM260.046 684.401C260.869 684.617 262.216 684.617 263.039 684.401C263.861 684.187 263.188 684.01 261.542 684.01C259.896 684.01 259.223 684.187 260.046 684.401ZM266.899 684.426C268.199 684.622 270.123 684.617 271.174 684.414C272.226 684.211 271.162 684.051 268.811 684.057C266.459 684.063 265.599 684.229 266.899 684.426ZM244.67 685.26C245.502 685.477 246.657 685.462 247.235 685.228C247.814 684.994 247.134 684.817 245.723 684.834C244.312 684.851 243.838 685.042 244.67 685.26ZM235.729 686.106C236.346 686.353 237.084 686.323 237.367 686.039C237.651 685.755 237.147 685.553 236.246 685.59C235.249 685.631 235.047 685.833 235.729 686.106ZM202.326 686.943C202.914 687.181 203.876 687.181 204.463 686.943C205.052 686.707 204.57 686.512 203.395 686.512C202.219 686.512 201.738 686.707 202.326 686.943ZM222.421 686.966C223.243 687.182 224.591 687.182 225.414 686.966C226.236 686.752 225.563 686.576 223.917 686.576C222.271 686.576 221.598 686.752 222.421 686.966ZM177.527 693.784C178.116 694.022 179.078 694.022 179.665 693.784C180.253 693.547 179.772 693.353 178.596 693.353C177.42 693.353 176.94 693.547 177.527 693.784ZM182.712 693.802C183.328 694.049 184.066 694.019 184.35 693.735C184.634 693.451 184.13 693.249 183.228 693.286C182.232 693.327 182.029 693.529 182.712 693.802ZM256.198 693.822C257.257 694.025 258.987 694.025 260.046 693.822C261.105 693.618 260.238 693.451 258.122 693.451C256.006 693.451 255.139 693.618 256.198 693.822ZM242.516 694.639C243.104 694.877 244.066 694.877 244.654 694.639C245.242 694.403 244.761 694.208 243.585 694.208C242.409 694.208 241.929 694.403 242.516 694.639ZM233.11 695.495C233.698 695.732 234.66 695.732 235.248 695.495C235.836 695.258 235.354 695.064 234.179 695.064C233.003 695.064 232.522 695.258 233.11 695.495ZM211.33 696.413C213.578 696.59 217.041 696.587 219.026 696.409C221.011 696.229 219.171 696.085 214.939 696.087C210.706 696.09 209.082 696.237 211.33 696.413ZM33.2941 710.819C33.3352 711.815 33.5378 712.018 33.8106 711.336C34.0577 710.719 34.027 709.981 33.7431 709.697C33.4592 709.413 33.2573 709.918 33.2941 710.819ZM41.2689 713.955L39.6399 715.879L41.5639 714.25C43.3717 712.719 43.877 712.031 43.1929 712.031C43.0305 712.031 42.1651 712.897 41.2689 713.955ZM34.0817 713.209C34.0817 713.386 34.7555 714.06 35.5781 714.706C36.9343 715.768 36.9643 715.739 35.9014 714.382C34.7837 712.958 34.0817 712.505 34.0817 713.209Z" fill="#BFBFBF"/>
<path fill-rule="evenodd" clip-rule="evenodd" d="M395.796 82.2954C389.796 85.0745 383.82 90.7969 383.837 93.7462C383.855 96.7186 384.369 97.3086 390.116 100.959C399.812 107.118 402.341 112.113 397.972 116.481C395.489 118.965 391.412 119.248 387.345 117.22C384.838 115.969 384.443 115.974 382.459 117.273C377.083 120.796 383.593 127.132 392.591 127.132C399.443 127.132 404.731 123.674 407.307 117.508C409.249 112.86 408.911 109.277 406.058 104.303C403.767 100.308 396.763 93.7821 394.767 93.7821C393.248 93.7821 395.098 92.0266 398.385 90.3497C400.216 89.4159 403.276 88.6514 405.187 88.6514C408.045 88.6514 408.829 88.2795 409.617 86.5487C410.385 84.865 410.292 84.0133 409.152 82.2731C407.233 79.3444 402.149 79.3529 395.796 82.2954ZM374.58 86.1194C373.446 87.1755 372.708 88.8892 372.708 90.4651C372.708 93.3486 369.085 102.12 364.844 109.503C361.685 115.003 361.053 114.648 360.262 106.936C359.563 100.101 358.462 98.0577 355.481 98.0577C352.643 98.0577 351.542 99.5413 348.279 107.756L345.955 113.607L342.727 107.475C338.821 100.051 337.113 98.0577 334.655 98.0577C330.115 98.0577 328.739 103.718 332.425 107.226C333.303 108.063 335.073 110.863 336.359 113.45C341.83 124.465 345.468 126.324 350.907 120.885L353.734 118.058L355.989 120.885C359.188 124.894 363.307 124.851 367.157 120.769C372.488 115.117 382.114 95.0126 382.114 89.5331C382.114 87.9246 381.439 86.565 380.213 85.7073C377.72 83.9611 376.826 84.0261 374.58 86.1194ZM315.68 90.3198C314.894 91.2373 312.835 96.0131 311.104 100.933C307.599 110.892 301.562 122.688 296.51 129.446C292.611 134.663 292.267 137.609 295.324 139.612C298.35 141.595 299.791 140.369 305.974 130.552C312.357 120.416 312.467 120.291 315.005 120.291C316.486 120.291 317.203 120.849 317.474 122.215C317.684 123.273 318.326 126.64 318.9 129.697C320.29 137.089 320.966 138.248 323.892 138.248C327.404 138.248 328.527 136.462 327.768 132.078C326.631 125.504 326.498 124.205 326.433 119.008C326.399 116.186 326.015 113.446 325.581 112.918C325.149 112.39 324.562 107.58 324.279 102.229C323.959 96.1893 323.309 91.77 322.563 90.5754C321.066 88.1786 317.623 88.0511 315.68 90.3198ZM317.941 106.989C319.596 108.983 318.7 112.126 316.386 112.454C313.35 112.883 312.406 111.455 313.685 108.367C314.861 105.527 316.333 105.051 317.941 106.989ZM83.5 359.68C82.2267 360.082 80.0573 361.214 78.6797 362.194C76.4102 363.81 76.0691 363.851 75.0472 362.619C74.1408 361.526 72.823 361.358 68.3243 361.76C51.1536 363.295 48.619 364.197 48.619 368.775C48.619 370.993 52.8116 374.251 55.6737 374.257C56.9906 374.26 57.1607 375.158 57.0932 381.742C57.0316 387.694 56.8572 388.678 56.2415 386.553C55.0666 382.501 53.5581 381.605 49.9273 382.803C45.9493 384.115 44.3434 385.819 44.3434 388.725C44.3434 391.624 45.7971 392.966 52.656 396.397C58.9231 399.532 60.4529 399.658 63.4681 397.286C65.7145 395.519 65.7213 395.477 65.7213 383.283V371.053L68.3935 370.519C72.7204 369.653 73.4173 369.86 73.4173 372.007C73.4173 375.12 76.3914 378.206 81.7744 380.675C86.0397 382.632 86.4664 383.037 85.082 383.816C84.208 384.308 81.9993 384.472 80.1745 384.179C77.5287 383.757 76.506 383.998 75.1361 385.368C72.9077 387.596 72.9676 388.931 75.3961 391.213C77.9229 393.587 81.6914 393.606 89.0933 391.283C95.847 389.163 98.6279 386.368 97.8497 382.478C97.1254 378.858 96.0839 377.933 89.1019 374.706C82.5825 371.695 81.3768 369.964 84.598 368.24C86.9846 366.962 92.5608 367.989 94.4241 370.047C98.1575 374.172 104.075 370.292 101.769 365.231C99.9883 361.324 88.936 357.966 83.5 359.68ZM248.062 365.421C245.397 365.704 244.046 366.372 243.047 367.896C242.294 369.045 241.231 369.984 240.684 369.984C238.6 369.984 227.55 375.898 222.635 379.642C214.802 385.61 200.659 399.835 195.085 407.353C182.643 424.134 176.278 442.972 178.582 456.2C181.678 473.982 199.308 487.992 224.616 492.782C231.955 494.171 247.534 494.048 252.992 492.558C254.822 492.058 254.45 492.762 250.395 497.465C247.79 500.484 242.451 507.088 238.528 512.138C229.532 523.725 225.668 526.477 218.427 526.456C206.329 526.421 166.137 517.681 157.033 513.106C151.958 510.555 150.753 510.565 149.044 513.174C146.879 516.478 148.14 518.309 154.547 521.175C162.077 524.541 165.76 525.552 188.43 530.472C204.401 533.938 208.663 534.558 216.649 534.574C230.224 534.603 233.057 532.829 245.971 516.218C250.538 510.343 256.709 502.954 259.685 499.796C263.976 495.244 265.038 493.586 264.816 491.791C264.555 489.685 264.985 489.364 271.009 487.166C290.529 480.041 317.711 462.013 330.301 447.838C336.491 440.868 341.531 430.636 342.79 422.483C344.862 409.06 338.794 396.195 325.353 385.514C314.652 377.011 298.888 369.87 284.268 366.904C278.151 365.664 254.78 364.706 248.062 365.421ZM276.507 374.244C289.808 375.991 307.185 382.626 316.516 389.518C333.189 401.835 338.266 414.572 332.247 428.987C328.872 437.07 323.807 443.283 313.712 451.725C302.077 461.454 291.74 468.199 279.073 474.328C261.595 482.785 246.966 486.202 232.896 485.115C213.613 483.625 195.039 473.798 189.343 462.072C185.051 453.236 185.765 443.65 191.743 429.856C199.773 411.326 219.89 389.458 237.118 380.531C247.426 375.192 259.679 377.741 271.317 387.647C274.803 390.614 277.564 391.246 279.329 389.481C282.2 386.61 278.433 380.989 270.539 376.364C268.414 375.117 266.673 373.942 266.673 373.751C266.673 373.218 269.941 373.382 276.507 374.244ZM289.981 411.393C284.323 413.494 283.265 414.143 278.859 418.208C275.781 421.047 275.262 424.102 277.448 426.516C278.701 427.901 278.701 428.19 277.448 429.98C275.894 432.198 275.651 436.849 276.96 439.296C278.89 442.903 286.006 444.699 289.087 442.359C293.714 438.843 292.96 425.388 288.062 424.107C287.116 423.86 286.341 423.368 286.341 423.014C286.341 421.97 296.504 417.871 299.092 417.871C301.619 417.871 304.299 415.595 304.299 413.446C304.299 411.301 301.356 409.317 298.245 409.364C296.637 409.389 292.918 410.301 289.981 411.393ZM218.787 420.304C215.867 420.708 214.511 421.984 214.511 424.328C214.511 427.399 216.737 429.013 220.777 428.871C224.541 428.739 231.614 429.724 231.614 430.379C231.614 430.592 230.846 431.809 229.908 433.083C228.795 434.595 228.135 436.995 228.008 439.984C227.835 444.057 228.078 444.796 230.188 446.611C234.371 450.21 242.632 448.502 245.318 443.483C247.082 440.186 244.865 427.146 242.196 425.126C238.663 422.452 224.436 419.52 218.787 420.304ZM503.54 454.313C493.561 457.18 473.906 460.818 443.829 465.365C397.429 472.379 379.503 475.79 351.33 482.963C330.791 488.192 321.073 490.243 313.165 491.016C309.811 491.343 306.57 491.92 305.962 492.295C305.239 492.741 304.634 496.189 304.215 502.243C303.862 507.337 302.982 517.47 302.258 524.76C301.534 532.05 300.525 544.364 300.016 552.124C298.591 573.833 298.415 575.064 296.67 575.618C293.794 576.531 274.153 587.267 268.913 590.791C266.035 592.726 260.926 596.457 257.56 599.084C254.194 601.71 247.267 606.143 242.168 608.935C230.976 615.064 218.46 622.692 216.686 624.467C215.974 625.179 211.526 627.452 206.802 629.518C185.915 638.652 177.041 646.624 183.063 650.841C185.625 652.636 185.73 652.608 189.451 649.14C192.644 646.164 215.146 634.215 217.556 634.215C218.23 634.215 220.226 632.941 221.991 631.385C223.756 629.827 229.048 626.234 233.751 623.4C241.517 618.719 244.522 616.991 255.061 611.142C256.905 610.12 261.558 606.827 265.404 603.824C271.664 598.936 272.703 598.415 275.341 598.843C279.428 599.506 283.913 596.912 285.15 593.17C286.114 590.252 290.727 587.12 295.894 585.873L298.179 585.321L297.736 603.141C297.491 612.942 297.681 628.258 298.157 637.176C298.888 650.867 298.831 653.764 297.787 655.783C296.886 657.525 296.79 658.621 297.431 659.819C298.137 661.137 297.994 661.564 296.715 661.97C293.572 662.968 292.217 665.519 291.946 670.949C291.751 674.876 291.228 676.693 289.879 678.129C288.491 679.606 288.105 681.028 288.21 684.283C288.384 689.733 289.307 691.508 291.963 691.508C294.405 691.508 299.985 688.882 304.098 685.799C309.236 681.946 315.693 679.661 339.786 673.172C364.861 666.418 385.658 659.915 418.321 648.613C429.064 644.895 445.033 639.979 453.809 637.685C470.441 633.338 482.44 629.33 485.739 627.018C488.663 624.971 489.859 625.335 489.859 628.272C489.859 631.464 491.858 635.525 493.796 636.269C494.585 636.572 496.174 636.201 497.329 635.444C499.098 634.285 499.344 633.62 498.891 631.211C498.263 627.863 500.507 612.059 505.263 586.329C507.131 576.217 509.906 559.863 511.43 549.986L514.199 532.029L513.974 501.364C513.849 484.435 514.088 470.264 514.506 469.725C517.292 466.144 515.816 462.337 511.641 462.337C509.394 462.337 508.357 462.879 507.194 464.664C505.808 466.79 505.7 469.334 505.942 494.379C506.255 526.833 505.706 532.873 498.667 574.496L493.799 603.283L491.187 603.686C482.619 605.009 433.173 618.408 411.616 625.25C403.62 627.787 389.96 631.964 381.259 634.531C372.558 637.098 358.367 641.738 349.723 644.842C341.079 647.947 328.765 651.787 322.359 653.376C315.953 654.964 310.072 656.526 309.29 656.847C306.964 657.799 306.429 649.059 306.517 611.555C306.606 573.403 308.371 540.986 312.054 509.796C313.351 498.821 312.776 499.59 320.525 498.461C324.274 497.915 336.619 495.129 347.96 492.271C382.446 483.579 393.569 481.42 442.827 473.856C488.775 466.8 507.113 463.216 513.1 460.12C515.846 458.699 516.342 455.593 514.169 453.419C512.504 451.754 512.422 451.761 503.54 454.313ZM254.562 467.681C248.51 472.579 249.589 482.005 256.203 482.005C259.003 482.005 264.108 476.48 264.108 473.449C264.108 468.298 258.207 464.732 254.562 467.681ZM162.016 470.218C158.45 472.876 150.481 485.421 144.237 498.207C139.391 508.132 138.603 509.278 136.597 509.32C132.59 509.406 122.846 515.083 109.332 525.207C93.9564 536.726 88.1399 542.159 84.9888 547.949C82.3456 552.806 81.9351 559.042 83.9968 563.028C87.0676 568.966 100.45 577.947 116.34 584.732L124.653 588.282L125.643 593.077C128.748 608.129 140.74 627.374 147.013 627.374C149.312 627.374 151.233 625.478 151.233 623.209C151.233 622.738 149.124 619.935 146.547 616.979C141.707 611.43 136.755 602.362 135.015 595.862C134.467 593.816 134.145 592.015 134.301 591.86C134.455 591.704 137.27 592.322 140.554 593.233C158.153 598.113 186.868 603.64 188.919 602.543C191.027 601.415 191.478 598.544 189.847 596.632C188.794 595.397 185.357 594.393 176.459 592.724C165.447 590.657 141.806 584.988 135.199 582.829L132.42 581.92L132.437 573.221C132.481 550.729 138.562 528.684 152.275 501.306C160.479 484.927 166.71 475.541 168.837 476.357C171.895 477.53 174.857 471.766 172.44 469.349C170.758 467.667 164.769 468.166 162.016 470.218ZM131.492 529.052C127.177 542.526 124.794 555.189 124.138 568.128C123.845 573.906 123.429 578.633 123.214 578.633C122.02 578.633 100.583 567.005 97.1742 564.508C89.703 559.037 89.2216 555.74 94.8559 548.627C99.9174 542.236 130.783 518.851 134.243 518.785C134.54 518.779 133.302 523.399 131.492 529.052ZM259.833 582.376C245.018 590.011 228.664 598.597 223.49 601.456C218.317 604.315 201.578 613 186.293 620.755C135.766 646.388 119.391 655.199 97.7881 668.374C86.0303 675.545 71.4078 684.313 65.2937 687.858C59.1797 691.403 49.6562 697.384 44.1296 701.149C35.2732 707.184 34.082 708.283 34.082 710.42C34.082 712.078 34.7738 713.3 36.2686 714.279C38.3508 715.643 38.5663 715.624 40.7579 713.877C45.6706 709.961 62.3487 699.082 72.1347 693.411C77.7784 690.14 91.981 681.629 103.696 674.497C123.553 662.41 153.135 646.519 191.851 627.142C200.787 622.671 213.293 616.227 219.642 612.824C225.991 609.42 243.307 600.402 258.122 592.784C290.163 576.308 292.327 575.015 292.327 572.379C292.327 569.932 290.804 568.352 288.522 568.433C287.558 568.467 274.647 574.742 259.833 582.376ZM273.514 607.14C269.987 608.698 258.388 615.716 247.74 622.736C237.092 629.755 227.182 636.154 225.72 636.955C221.932 639.03 220.705 642.078 222.533 644.869C223.368 646.143 224.763 647.042 225.904 647.042C226.975 647.042 228.289 647.48 228.823 648.014C229.412 648.602 235.301 649.236 243.745 649.621C252.998 650.042 259.135 650.738 261.97 651.688C264.322 652.475 269.763 653.299 274.062 653.518L281.879 653.918L287.103 649.411C291.502 645.616 292.327 644.465 292.327 642.125C292.327 639.322 291.209 637.838 286.78 634.763L284.49 633.174L286.698 630.868C290.269 627.142 289.721 623.858 284.631 618.476C282.279 615.989 280.355 613.73 280.355 613.455C280.355 613.181 281.208 612.833 282.251 612.683C283.293 612.533 284.723 611.378 285.429 610.116C286.6 608.023 286.573 607.67 285.111 606.054C282.935 603.65 281.007 603.83 273.514 607.14ZM491.569 614.547C491.569 616.778 491.261 617.113 489.21 617.113C487.913 617.113 485.04 618.077 482.824 619.257C476.863 622.43 466.005 626.118 453.944 629.066C448.065 630.504 431.903 635.49 418.029 640.147C380.309 652.808 361.202 658.927 353.974 660.661C345.433 662.711 312.971 671.73 310.458 672.752C309.378 673.191 307.789 673.55 306.928 673.55C306.068 673.55 304.866 674.149 304.26 674.88C303.653 675.611 302.451 676.586 301.59 677.048C300.191 677.796 300.023 677.516 300.023 674.435C300.023 672.201 300.588 670.42 301.627 669.381C303.513 667.495 316.045 663.212 326.959 660.723C331.192 659.757 341.582 656.495 350.047 653.475C358.513 650.454 369.864 646.638 375.273 644.996C380.682 643.352 396.266 638.57 409.905 634.368C423.544 630.166 439.129 625.521 444.537 624.046C454.023 621.458 489.617 612.277 490.927 612.079C491.281 612.026 491.569 613.136 491.569 614.547ZM265.818 623.942C265.818 624.924 260.73 626.847 260.019 626.133C259.099 625.209 263.145 622.255 264.578 622.805C265.26 623.067 265.818 623.578 265.818 623.942ZM254.059 632.147C254.332 632.42 253.627 634.013 252.491 635.687C251.356 637.36 250.426 639.253 250.426 639.893C250.426 640.784 248.695 641.056 243.015 641.056C238.939 641.056 235.89 640.768 236.241 640.415C236.59 640.062 239.636 637.963 243.01 635.751C248.532 632.129 252.686 630.774 254.059 632.147ZM268.068 634.626C268.363 635.394 267.511 636.77 265.904 638.123C264.446 639.349 263.253 640.896 263.253 641.56C263.253 642.909 261.712 643.119 259.957 642.007C259.07 641.444 259.668 640.369 262.523 637.397C266.631 633.121 267.352 632.761 268.068 634.626ZM282.066 642.411C282.066 643.493 276.306 645.385 273.677 645.167L270.521 644.904L273.254 643.146C275.126 641.941 276.942 641.5 279.026 641.744C280.697 641.939 282.066 642.239 282.066 642.411ZM223.407 658.977C169.367 659.473 170.045 659.414 170.045 663.684C170.045 664.871 169.254 665.94 167.932 666.543C165.547 667.63 164.187 671.455 165.661 672.929C167.019 674.287 166.837 680.408 165.364 682.957C161.962 688.839 161.944 688.921 163.692 690.596C165.022 691.87 167.752 692.371 177.741 693.174C184.561 693.723 192.834 694.514 196.126 694.933C205.062 696.072 221.642 695.901 238.455 694.501C246.685 693.815 260.454 693.245 269.052 693.236C284.398 693.218 284.699 693.183 285.386 691.326C286.291 688.881 285.687 686.658 283.905 685.872C280.862 684.529 258.15 684.522 242.681 685.86C222.854 687.574 203.809 687.607 192.78 685.944C188.118 685.242 182.021 684.667 179.232 684.667H174.16L174.727 680.55C175.038 678.285 175.419 674.749 175.572 672.692C175.776 669.955 176.288 668.79 177.479 668.35C178.374 668.019 203.695 667.61 233.748 667.442C281.995 667.173 288.585 666.979 290.06 665.785C291.279 664.797 291.581 663.841 291.178 662.236C290.452 659.341 286.791 658.11 279.587 658.335C276.482 658.433 251.201 658.722 223.407 658.977Z" fill="black"/>
</svg>
