<svg width="118" height="47" viewBox="0 0 118 47" fill="none" xmlns="http://www.w3.org/2000/svg">
<path fill-rule="evenodd" clip-rule="evenodd" d="M99.1069 0.462836C98.6554 0.914549 98.6441 0.996559 98.6388 3.90347C98.6315 7.83692 98.3731 11.2048 97.9005 13.5248C97.4048 15.9591 96.9569 20.8727 96.7534 26.1111C96.6629 28.4404 96.4726 30.7827 96.3192 31.4536C95.9947 32.8732 95.0369 34.3538 93.6687 35.5513C92.4262 36.6389 91.7957 36.6668 90.7068 35.6825L89.9285 34.9791L90.0527 33.1845C90.1925 31.1663 90.6073 28.3299 90.9076 27.3379C91.42 25.6453 90.8166 24.5086 89.4056 24.5086C88.2935 24.5086 87.6189 25.2213 87.4335 26.5922C87.2279 28.1118 86.0661 30.9921 84.8919 32.893C83.9601 34.4015 80.4496 36.745 78.6718 37.0456C77.8327 37.1873 76.6181 36.8983 76.0211 36.4146C75.6439 36.1091 75.6002 35.914 75.6241 34.6488C75.6631 32.5991 76.0916 30.8458 76.9644 29.1645C77.6535 27.8373 77.7283 27.5584 77.7283 26.3149C77.7283 25.2192 77.6505 24.8376 77.3492 24.4543C76.6152 23.5209 75.2742 23.6405 74.4839 24.7098C74.2872 24.9758 73.9235 25.9901 73.6759 26.9638C73.3493 28.2479 73.1066 28.8257 72.7919 29.068C72.0077 29.6717 68.1836 30.7314 68.3721 30.2927C69.8501 26.8541 70.7318 24.1076 71.1405 21.6692C71.3365 20.5002 71.4194 20.3574 72.6521 19.0692C74.6648 16.9656 76.1355 13.4462 75.7451 11.6676C75.4675 10.4032 74.1566 9.57119 72.928 9.87962C72.3145 10.0338 71.2581 10.9716 70.7164 11.8433C70.4793 12.2249 69.8189 13.8945 69.2489 15.5536L68.2125 18.57L67.3123 19.0166C66.5366 19.4016 65.9688 19.4893 63.2041 19.6508C61.4397 19.7541 59.9582 19.8009 59.9122 19.7547C59.8661 19.7085 60.128 18.9787 60.4945 18.133C61.4821 15.8526 61.9205 13.9629 62.0332 11.5002C62.1512 8.92095 61.9456 7.96022 61.1282 7.27209C60.0649 6.37696 58.4877 6.75307 58.2422 7.96059C58.1941 8.19644 58.1131 9.15303 58.062 10.0862C57.9979 11.2566 57.6725 12.9526 57.0132 15.5536C55.6435 20.9554 55.8225 20.5514 54.5106 21.2011C52.3227 22.2846 51.1254 23.7798 51.4386 25.0371C51.5083 25.3167 51.6919 25.8132 51.8466 26.1405C52.1253 26.7304 52.1164 26.7538 50.8518 28.7799C49.5843 30.8109 48.2637 32.2931 46.4299 33.7435C45.32 34.6213 44.8164 34.6835 44.1111 34.0295C43.3573 33.3304 43.0568 32.4261 43.0568 30.8566V29.463L44.046 29.344C44.59 29.2786 45.5271 29.2243 46.1282 29.2235C46.7291 29.2226 47.4619 29.0972 47.7565 28.9447C48.4872 28.5667 48.7817 27.6853 48.4461 26.8816C48.0689 25.9784 47.3417 25.7486 45.3165 25.8924C44.3948 25.9578 43.6021 25.9484 43.5544 25.8715C43.5069 25.7946 43.6827 24.6832 43.945 23.4022C44.3524 21.4124 44.389 20.9726 44.1951 20.3868C43.6094 18.6181 42.0234 17.9235 40.8589 18.9259C40.293 19.4127 40.2041 20.1495 40.5097 21.8178C40.6154 22.395 40.5431 23.1016 40.2474 24.3818L39.8395 26.1486L38.3047 26.4512C36.407 26.8253 35.8106 27.312 35.8106 28.4877C35.8106 29.1089 35.9191 29.3551 36.3593 29.7341C36.8242 30.1341 37.0322 30.1892 37.7219 30.0945L38.5355 29.9829L37.8506 31.3464C37.2291 32.5831 36.0367 34.5758 34.8097 36.4279C34.1986 37.3502 32.8383 38.6113 31.4829 39.5117C30.5786 40.1123 30.2249 40.2381 29.4222 40.2437C27.9324 40.2545 28.0088 39.9364 30.3502 36.3755C31.4573 34.6918 33.3252 31.4753 34.501 29.2279C38.5943 21.4043 39.4441 18.2529 37.8613 16.7667C37.4492 16.3797 37.1903 16.3092 36.2105 16.3178C34.7254 16.3307 33.8585 16.7741 32.1326 18.403C29.7454 20.6561 27.2974 25.3152 26.1751 29.7412C25.6709 31.7298 24.9699 36.2343 24.9682 37.495C24.9673 38.2644 24.8422 38.4697 23.1561 40.469C20.8197 43.2396 20.316 43.5588 20.5295 42.1343C20.7145 40.8998 21.3778 39.0758 22.6539 36.2916C24.7035 31.8199 25.7408 28.9566 25.7583 27.7215C25.7969 24.9918 24.1278 24.1312 20.0098 24.7569C18.654 24.9628 17.9762 24.9864 17.466 24.845C16.3452 24.5345 13.3813 24.7814 11.8712 25.3112C8.35132 26.5461 7.0762 27.79 7.72874 29.3527C8.3223 30.7736 9.88723 30.839 13.9773 29.6134C17.5613 28.5394 17.5353 28.5428 17.9141 29.121C18.3904 29.8483 18.1939 31.6258 17.4581 33.2461C16.1494 36.128 13.3499 39.1307 10.8761 40.3061C9.6125 40.9066 9.27878 40.9839 7.92885 40.9894C5.97425 40.9973 4.53651 40.3987 3.85306 39.2922C3.18997 38.2188 3.10762 35.7015 3.66783 33.6247C4.11687 31.9598 6.25275 27.8062 7.6984 25.7865C8.95449 24.0317 12.2613 20.3752 13.6683 19.185C15.0442 18.0214 17.032 16.5905 17.2728 16.5905C17.3593 16.5905 17.43 16.8063 17.43 17.0703C17.43 17.7889 18.2156 18.4757 19.0375 18.4757C20.0411 18.4757 20.688 17.7439 21.003 16.2526C21.3077 14.8094 21.0763 13.8019 20.2991 13.1892C19.8598 12.8431 19.5922 12.7941 18.4526 12.8512C17.3806 12.9051 16.8455 13.0539 15.7175 13.6115C13.0073 14.9516 8.73497 18.8656 5.63563 22.8473C3.72813 25.298 1.20936 29.9407 0.438482 32.4268C0.0676471 33.6226 0 34.248 0 36.4802C0 38.9378 0.0341059 39.1925 0.496519 40.1791C1.6616 42.6652 3.70232 43.9936 6.97199 44.3944C10.0082 44.7665 14.3853 42.8607 16.7175 40.1512C17.1613 39.6357 17.5724 39.214 17.6312 39.2138C17.6902 39.2138 17.589 39.7866 17.4066 40.4864C16.9798 42.1234 16.9597 43.9557 17.3589 44.7978C17.8402 45.8125 18.6348 46.2648 20.0788 46.3464C21.7743 46.4424 22.7867 45.9147 24.5676 44.0068L25.9232 42.5545L26.3402 42.9453C26.9756 43.5407 27.6871 43.7389 29.1721 43.734C30.8213 43.7285 32.1107 43.2447 33.9221 41.9514C35.872 40.5593 37.0294 39.2773 38.6264 36.7415C39.4351 35.4572 40.1165 34.3813 40.1406 34.3507C40.1647 34.32 40.4035 34.669 40.6712 35.1262C41.6422 36.7839 43.3517 37.8542 45.3129 38.0319C46.9307 38.1788 48.5211 37.3336 50.289 35.3873C51.7567 33.7716 53.026 32.0386 53.7006 30.7301C53.941 30.2635 55.0375 28.6191 56.1372 27.0762C57.2369 25.5331 58.1851 24.0778 58.244 23.842C58.3814 23.2947 58.7309 23.2342 62.6537 23.0788C64.3637 23.0112 66.1233 22.892 66.5637 22.814C67.1729 22.7059 67.3645 22.7316 67.3645 22.9207C67.3645 23.5451 66.295 26.5018 65.3443 28.5054C64.4546 30.3805 64.2126 30.741 63.7302 30.9092C63.4182 31.0181 63.0515 31.1071 62.9153 31.1071C62.1054 31.1071 60.5501 31.9513 59.6288 32.891C58.3741 34.1711 58.1464 34.5826 58.1379 35.5875C58.1327 36.24 58.2489 36.5198 58.7554 37.0727C59.2774 37.6426 59.5365 37.7691 60.3388 37.8464C61.7849 37.9854 63.0988 37.3061 64.9323 35.4715L66.4113 33.9918L67.9715 33.8773C68.8294 33.8142 70.1411 33.6057 70.886 33.4139L72.2404 33.0652L72.2129 34.7847C72.1886 36.3056 72.2446 36.6257 72.6977 37.5521C73.2634 38.7091 74.0793 39.3859 75.6084 39.9674C77.7225 40.7711 79.5866 40.6282 82.0065 39.4768C83.2537 38.8833 85.7551 37.0772 86.3721 36.3242C86.7256 35.8933 86.9004 35.9281 87.0329 36.4562C87.197 37.111 88.8085 38.728 89.788 39.2208C91.0761 39.8688 92.9063 39.9455 94.0354 39.3986C95.0816 38.892 97.0381 37.1106 98.0234 35.7677L98.7227 34.8147L98.8717 35.3901C99.1301 36.3876 100.194 37.7659 101.094 38.2687C101.814 38.6712 102.183 38.7425 103.546 38.7425C104.979 38.7425 105.285 38.6763 106.411 38.1224C108.787 36.9532 110.24 35.4006 111.655 32.5211C112.714 30.3666 113.251 28.4687 113.447 26.1894L113.584 24.6029L115.716 22.3873C117.307 20.7336 117.878 20.0102 117.967 19.5351C118.214 18.2186 117.039 17.1263 115.83 17.548C115.54 17.6492 114.763 18.3658 114.104 19.1407C113.445 19.9155 112.855 20.548 112.794 20.5462C112.733 20.5443 112.404 20.1161 112.063 19.5948C110.998 17.9658 109.242 17.1547 106.785 17.1572C105.351 17.1585 104.513 17.4136 103.335 18.2063C102.795 18.5696 102.275 18.9158 102.179 18.9752C102.074 19.0402 102.048 18.4201 102.115 17.4126C102.176 16.4937 102.27 12.6634 102.325 8.90078C102.419 2.42372 102.405 2.01536 102.059 1.23429C101.642 0.29071 101.216 0 100.25 0C99.7787 0 99.427 0.142339 99.1069 0.462836ZM33.368 11.5575C33.1068 11.9001 32.7569 12.5064 32.5905 12.9049C32.3028 13.594 32.3061 13.6479 32.6627 14.0046C33.0512 14.3934 34.0983 14.5057 34.9154 14.2461C36.0448 13.8875 36.1564 11.9568 35.0853 11.3034C34.2457 10.7912 33.9148 10.8402 33.368 11.5575ZM108.826 21.0263C109.229 21.3915 109.95 22.6347 109.95 22.9655C109.95 23.2617 107.741 24.697 106.106 25.4639C104.482 26.2254 103.326 26.4048 102.589 26.0103C102.104 25.7505 102.101 24.5445 102.584 23.6056C102.979 22.8383 103.53 22.2802 104.949 21.2139C105.847 20.5388 105.933 20.5143 107.149 20.5829C108.072 20.6351 108.526 20.7552 108.826 21.0263ZM34.5359 21.3508C34.0676 22.715 29.4037 31.7489 29.3372 31.4204C29.1113 30.3029 31.9496 23.8544 33.5856 21.7691C34.5055 20.5963 34.8462 20.4464 34.5359 21.3508ZM109.758 27.9493C109.754 28.5401 108.58 31.3313 107.873 32.4338C106.376 34.7679 103.53 36.1964 102.545 35.1079C102.104 34.6203 101.658 32.7652 101.529 30.8767L101.416 29.2324L102.054 29.4156C103.393 29.7997 104.947 29.6396 106.698 28.9372C107.606 28.5733 108.603 28.1073 108.914 27.9016C109.637 27.4229 109.763 27.4299 109.758 27.9493ZM22.3292 28.0967C22.3292 28.2038 22.1937 28.6067 22.0281 28.9922L21.727 29.6932L21.4656 28.8448C21.3219 28.3782 21.2032 27.9751 21.2015 27.9493C21.1999 27.9234 21.453 27.9021 21.7639 27.9021C22.0748 27.9021 22.3292 27.9896 22.3292 28.0967Z" fill="black"/>
</svg>
