<svg width="207" height="201" viewBox="0 0 207 201" fill="none" xmlns="http://www.w3.org/2000/svg">
<path fill-rule="evenodd" clip-rule="evenodd" d="M166.741 29.7846C162.809 30.3648 160.455 31.0738 158.53 32.2575C157.123 33.1226 156.861 33.6582 157.431 34.504C157.861 35.1412 158.519 35.0275 160.283 34.0103C161.648 33.223 164.131 32.589 167.686 32.1196C170.771 31.7123 171.463 31.7819 173.771 32.7308C174.923 33.2045 175.608 33.3393 176.334 33.2344C178.4 32.9361 182.047 35.2911 183.767 38.0356C185.991 41.5811 185.586 43.9899 182.164 47.5913C180.778 49.0501 175.344 53.0347 174.868 52.942C174.734 52.9161 175.513 52.0773 176.599 51.0777C180.802 47.2082 181.693 45.5839 180.281 44.363L179.541 43.7231L180.424 42.8448C181.51 41.7653 181.699 40.9279 181.082 39.9398C180.561 39.1044 179.254 38.704 178.54 39.1606C178.169 39.3981 178.145 39.3376 178.412 38.8321C178.9 37.9069 178.688 37.038 177.804 36.3389C177.073 35.7601 176.924 35.7407 175.789 36.0777L174.564 36.4415L174.377 35.6645C173.994 34.0686 172.486 33.763 170.614 34.9026L169.839 35.3743L169.286 34.6065C168.972 34.1708 168.353 33.7653 167.855 33.6685C166.857 33.4745 166.133 33.9358 163.389 36.5155C161.757 38.0502 161.549 38.1607 161.19 37.6817C160.264 36.4465 159.352 37.0194 156.878 40.39C153.593 44.8651 152.771 48.2646 153.843 52.9434C154.424 55.4788 154.632 55.9177 155.724 56.927C156.735 57.8608 157.352 58.1631 159.213 58.6381C161.982 59.3444 165.976 59.3774 168.021 58.7109C168.815 58.4521 169.856 58.2702 170.336 58.3067C171.175 58.3709 171.801 58.004 171.934 57.3702C171.968 57.2042 172.402 56.919 172.896 56.7365C176.415 55.4379 183.038 50.6062 185.277 47.7037C186.647 45.9268 186.831 45.5248 187.248 43.3816C187.614 41.5038 187.624 40.7432 187.298 39.6778C186.576 37.3205 184.754 34.9229 182.292 33.0923C180.337 31.639 179.785 31.3699 178.191 31.0934C175.534 30.6326 174.847 30.4829 172.432 29.8405C170.449 29.3125 169.973 29.3077 166.741 29.7846ZM123.191 36.4162C120.491 36.3991 115.063 36.7253 111.279 37.1317C102.826 38.0402 100.454 37.8299 97.3085 35.8928C95.1347 34.5541 94.4517 34.3931 93.4912 34.9927C92.0163 35.9136 91.5644 38.3684 91.6188 45.1673C91.6361 47.3087 91.5544 49.5201 91.438 50.0818C91.3212 50.6435 91.2853 51.8289 91.3581 52.7164C91.5795 55.4132 91.5045 57.1499 90.757 66.638C89.5975 81.3578 89.5217 84.3138 90.1795 89.194C90.3806 90.685 90.5073 91.926 90.4615 91.9523C90.0971 92.1593 86.3999 91.9363 81.5366 91.4139C70.4665 90.225 66.7449 90.6742 61.8746 93.7875L60.2281 94.8398L60.6093 92.8791C61.2515 89.5752 61.7994 82.2006 62.0151 73.9603C62.13 69.5712 62.5126 63.4862 62.8823 60.1648C63.6645 53.139 63.9353 45.5737 63.4769 43.5654C62.9778 41.3796 61.9822 39.9126 60.3888 39.0158C59.2215 38.3587 58.3699 38.1422 55.3012 37.7205C45.8899 36.4282 39.005 37.329 31.7231 40.8055C29.8827 41.6842 28.0088 42.5743 27.5591 42.7841C26.3368 43.3533 26.1065 44.9736 27.0393 46.4421C28.1069 48.1228 28.1793 48.6435 27.8363 52.1772C27.6634 53.9589 27.5892 56.0646 27.671 56.857C27.7532 57.6492 27.7343 60.5825 27.6291 63.3755C27.2619 73.1279 27.257 74.1951 27.5708 75.5867C27.7447 76.3572 27.7824 77.1842 27.655 77.4244C27.5273 77.6646 27.4509 78.3447 27.4851 78.9357C27.5196 79.5267 27.6996 83.1387 27.8853 86.9623C28.0713 90.7858 28.3585 94.6432 28.5239 95.5338C28.6984 96.4754 28.6913 97.9114 28.5062 98.9652C28.2855 100.224 28.3136 101.173 28.5988 102.071C28.8244 102.783 28.9132 103.688 28.7961 104.083C28.6787 104.478 28.6503 105.428 28.7327 106.196C29.1913 110.47 29.9337 127.057 29.9587 133.584C29.9745 137.751 30.0243 141.214 30.0693 141.281C30.1143 141.348 29.6813 141.744 29.1071 142.16C28.2812 142.759 28.0582 143.11 28.0397 143.839C27.9901 145.807 28.3111 151.077 28.651 153.867C29.2969 159.171 29.7889 165.013 29.9009 168.707C29.9165 169.215 30.2419 169.768 30.7585 170.164C31.8294 170.986 32.4058 171.087 33.3898 170.622C34.6165 170.043 36.839 169.547 39.2238 169.321C41.3228 169.122 51.5839 167.824 54.2063 167.427C57.0402 166.997 59.6529 164.953 60.0627 162.844C60.1897 162.193 60.1653 159.927 60.0089 157.81C59.8528 155.693 59.7464 152.667 59.7732 151.086C59.7997 149.505 59.6608 144.082 59.4643 139.035C58.7677 121.133 58.7469 122.68 59.6784 123.046C60.0726 123.201 61.0571 123.016 62.2774 122.559C67.6579 120.543 71.3058 119.38 73.4423 119C74.7394 118.769 78.1248 118.043 80.9658 117.386L86.131 116.191L84.7138 122.492C83.1229 129.565 83.0612 130.25 82.8366 143.274C82.702 151.071 82.6018 153.089 82.0445 159.209C81.8649 161.178 81.8185 162.986 81.9408 163.227C82.0633 163.468 82.5113 163.692 82.9367 163.724C83.6328 163.777 83.7465 163.645 84.0708 162.406C84.4239 161.056 84.442 161.04 84.9787 161.596C85.8025 162.449 92.605 163.703 96.1801 163.661C100.66 163.609 113.354 162.416 114.373 161.952C114.909 161.708 115.557 161.637 115.871 161.788C116.419 162.051 118.123 161.905 119.999 161.435L120.968 161.192L121.206 158.111C121.337 156.416 121.467 154.145 121.495 153.066C121.523 151.986 121.737 150.111 121.971 148.9C122.27 147.354 122.296 146.47 122.057 145.936C121.794 145.343 121.903 143.913 122.547 139.512C124.773 124.303 125.039 122.039 125.296 116.162C125.677 107.441 126.956 90.2938 128.544 72.6246C129.251 64.7564 129.611 62.1298 130.958 55.0316C132.278 48.0724 132.513 46.3799 132.375 44.8341C132.149 42.297 131.144 39.6676 129.946 38.4797C129.08 37.6207 128.616 37.4186 126.448 36.9552C125.074 36.6613 123.608 36.4189 123.191 36.4162ZM157.35 45.7978C157.357 46.1639 157.61 46.598 157.912 46.7627C158.34 46.9957 158.389 47.2171 158.134 47.761C157.909 48.241 157.946 48.7527 158.252 49.3937C158.651 50.2324 158.641 50.3812 158.15 50.8553C157.029 51.9376 157.815 53.8942 159.525 54.2774C160.388 54.4705 160.847 54.2398 163.708 52.175C166.458 50.1906 166.882 49.9717 166.64 50.6591C166.287 51.6659 166.924 52.9546 167.901 53.2082C168.558 53.379 168.59 53.5039 168.315 54.8174C168.053 56.0638 167.906 56.2746 167.132 56.5061C165.872 56.8831 162.459 56.8933 160.536 56.526C158.34 56.1061 157.328 55.4652 156.629 54.0516C155.996 52.7735 155.55 49.5734 155.813 48.2005C156.071 46.8519 157.44 43.5268 157.384 44.383C157.357 44.7951 157.342 45.432 157.35 45.7978ZM128.722 40.9365C129.32 41.8724 129.69 43.0044 129.862 44.4215C130.097 46.3571 129.995 47.1675 128.547 54.8666C127.293 61.5398 126.83 64.828 126.24 71.2661C125.439 80.0043 123.337 106.42 123.171 109.83C123.115 110.987 122.965 114.237 122.838 117.05C122.613 122.013 122.149 125.722 119.775 141.499C119.153 145.636 118.616 150.176 118.582 151.589C118.493 155.255 118.135 157.328 117.443 158.179C116.859 158.896 114.853 159.667 114.002 159.502C113.422 159.389 110.025 159.833 108.382 160.235C107.245 160.514 98.5029 161.352 97.9336 161.237C97.4566 161.141 102.484 156.421 104.45 155.119C105.584 154.368 106.56 153.823 106.616 153.907C106.673 153.992 106.313 154.7 105.815 155.481C105.067 156.654 104.933 157.079 105.041 157.925C105.171 158.949 106.04 160.079 106.813 160.229C107.581 160.379 108.943 159.427 110.357 157.755C111.808 156.039 112.24 154.984 111.775 154.295C111.578 154.003 111.768 153.595 112.511 152.716C114.008 150.945 114.287 150.105 113.736 149.033C113.018 147.634 111.46 147.461 108.956 148.503C107.862 148.959 106.912 149.32 106.845 149.307C106.778 149.294 107.405 148.562 108.237 147.681C110.643 145.135 110.939 144.731 111.405 143.363C111.975 141.689 111.512 140.804 109.903 140.491L108.785 140.274L111.831 137.451C113.506 135.898 114.988 134.603 115.124 134.572C115.502 134.486 116.952 132.542 117.063 131.973C117.213 131.197 116.241 129.884 115.393 129.719C114.455 129.537 112.596 130.287 110.104 131.854C105.523 134.734 105.643 134.541 111.835 129.087C117.354 124.226 117.907 123.602 117.71 122.461C117.631 122.004 117.229 121.421 116.816 121.164C115.518 120.357 113.816 121.037 106.583 125.253C104.987 126.183 103.838 126.769 104.03 126.555C104.414 126.128 106.114 124.572 113.1 118.252C118.805 113.092 120.325 111.325 120.05 110.179C119.945 109.738 119.524 109.157 119.116 108.887C118.49 108.473 118.151 108.459 116.971 108.798C115.324 109.271 112.103 111.08 107.403 114.172C105.543 115.396 103.977 116.328 103.924 116.242C103.778 116.009 113.499 106.74 115.546 105.161C118.886 102.584 119.546 101.508 118.653 100.092C117.86 98.833 116.849 98.8475 113.992 100.159C112.582 100.807 111.496 101.223 111.58 101.085C111.663 100.947 113.674 99.2769 116.047 97.374C122.029 92.5781 123.006 91.2535 121.837 89.5212C121.097 88.4229 120.386 88.3002 118.339 88.9172C115.451 89.7878 113.848 90.5921 105.374 95.4199C104.918 95.6795 104.703 95.7154 104.892 95.5001C106.503 93.6625 118.485 83.1496 120.019 82.2282C121.498 81.3389 121.059 78.9107 119.359 78.5801C118.506 78.4144 116.018 80.0099 110.39 84.332C108.626 85.6867 107.141 86.7335 107.09 86.6587C106.915 86.3988 111.569 81.14 115.334 77.3424C117.416 75.2427 120.646 72.2035 122.513 70.5886C126.174 67.4199 126.913 66.3303 126.343 64.9361C125.95 63.9761 124.731 63.3948 123.541 63.6007C122.139 63.8432 118.178 65.6864 114.843 67.6477C113.147 68.6457 111.719 69.4033 111.67 69.3316C111.573 69.1876 114.432 66.6664 117.356 64.3184C118.393 63.4855 119.514 62.2851 119.847 61.6512C120.429 60.5413 120.426 60.4671 119.78 59.6491C119.412 59.1822 118.85 58.7493 118.532 58.6875C118.072 58.5981 118.62 57.9794 121.227 55.6446C123.027 54.0325 125.234 52.1735 126.131 51.513C127.927 50.1905 128.498 48.8672 127.784 47.6843C126.898 46.2179 124.496 46.6995 119.362 49.3722C117.911 50.1283 116.658 50.7341 116.578 50.7187C116.391 50.6823 116.559 50.4994 119.395 47.6473C121.722 45.3055 121.957 44.9663 122.088 43.7451C122.193 42.7746 121.083 41.5766 119.859 41.3387C118.77 41.127 117.448 41.5394 114.971 42.8623L113.802 43.4867L113.605 42.5421C113.183 40.524 111.475 40.3733 108.213 42.0672C106.217 43.1035 105.917 43.1266 105.816 42.2524C105.745 41.6372 104.761 40.9888 103.7 40.8579C102.915 40.7612 102.077 41.3343 99.5851 43.6707C97.1498 45.9547 95.412 48.1811 95.1896 49.3014C94.8351 51.0879 96.4005 52.3518 98.4442 51.9294C99.0742 51.7993 100.683 50.9722 102.02 50.0916C103.357 49.2107 104.444 48.5258 104.436 48.5697C104.427 48.6133 103.5 49.5174 102.376 50.5787C101.251 51.6399 100.305 52.6426 100.273 52.807C100.241 52.9717 99.9593 53.2976 99.6469 53.532C98.4008 54.4661 99.6907 57.1875 101.292 57.0021C101.601 56.966 103.368 55.7035 105.217 54.1964C110.073 50.2398 111.756 48.9581 112.81 48.4168C113.743 47.9378 113.743 47.9379 113.292 48.4916C113.044 48.7965 111.648 50.0855 110.19 51.3563C108.732 52.6272 106.708 54.4617 105.693 55.433C104.677 56.4043 102.917 57.9957 101.783 58.9697C99.414 61.0024 97.3147 63.341 97.1644 64.1138C97.0061 64.9285 97.9702 66.2263 98.8624 66.3997C99.5059 66.5248 100.382 66.0023 103.524 63.6176C107.631 60.5017 115.23 55.5173 115.427 55.81C115.492 55.9058 115.215 56.2272 114.813 56.5239C113.184 57.7251 104.74 66.7903 102.568 69.6695C100.439 72.493 100.266 72.8158 100.493 73.5508C100.719 74.2829 100.624 74.4685 99.4016 75.6868C97.1897 77.8909 96.2377 79.0076 95.2071 80.6065C93.9618 82.5389 93.8191 83.8259 94.7382 84.8336C95.4156 85.5763 95.4583 85.5864 96.4787 85.2499C97.0541 85.0603 99.1504 83.5696 101.137 81.9371C106.086 77.8715 115.515 71.2189 115.386 71.8847C115.365 71.992 113.685 73.7823 111.653 75.8631C106.908 80.7215 100.803 87.9819 98.7046 91.2615C97.011 93.9091 96.364 95.8879 96.8821 96.835C97.3736 97.7328 96.7746 98.1346 95.5572 97.724C94.3117 97.3037 92.8757 97.5889 91.2603 98.5766C90.576 98.9955 90.2483 99.0602 90.2057 98.786C90.1717 98.5672 89.7959 98.1128 89.3709 97.7768C88.1227 96.7895 86.7463 96.974 84.1124 98.4819C82.8339 99.2136 81.7245 99.8 81.647 99.7849C81.5695 99.7699 81.4217 99.3432 81.319 98.8366C81.0875 97.6987 79.9265 96.886 78.5194 96.8769C77.3646 96.8691 74.8856 98.0362 73.0698 99.4425C72.431 99.9369 71.935 100.205 71.9673 100.039C72.1017 99.3475 71.0569 98.3336 69.9974 98.1276C69.004 97.9345 68.6132 98.1242 65.4203 100.349C62.4725 102.404 61.9886 102.653 62.31 101.946C62.5193 101.486 63.1238 100.683 63.6531 100.162C64.5199 99.3084 64.596 99.1195 64.4207 98.2582C64.3014 97.671 63.9517 97.1731 63.5156 96.9691C61.8698 96.1984 60.1384 97.7503 58.4395 101.519C57.5723 103.443 56.8911 104.199 57.1294 102.973C57.2884 102.155 56.7671 101.627 55.5713 101.395C54.8169 101.248 54.3173 101.335 53.9653 101.675C53.6843 101.947 52.1634 103.119 50.5854 104.282C49.0077 105.444 46.8633 107.117 45.8205 107.999C43.5704 109.903 43.7754 109.369 46.807 105.427C47.9916 103.887 49.9622 101.128 51.1859 99.2965C52.4096 97.4646 54.0116 95.1857 54.7461 94.232C56.7016 91.693 57.0392 90.6713 56.2898 89.5603C55.4721 88.348 54.0248 88.0803 52.5335 88.8656C50.3305 90.026 46.6053 92.5579 43.9848 94.6765C42.5215 95.8592 41.3486 96.7019 41.3784 96.5489C41.4932 95.9583 49.6761 84.1565 51.696 81.6686C54.7702 77.8818 57.441 74.3896 57.8069 73.6787C58.0371 73.2314 57.9612 72.8208 57.5311 72.1832C56.7028 70.9551 55.6296 70.8227 54.3955 71.7962C53.8437 72.2317 52.3661 73.3925 51.1118 74.3763C49.8578 75.3602 48.1039 76.8352 47.2147 77.6541C46.3251 78.4732 45.5583 79.0852 45.5104 79.0146C45.4626 78.9437 46.9264 76.7976 48.7631 74.2452C51.9028 69.8822 54.2423 67.1388 54.7415 67.2347C54.8624 67.2579 55.0378 66.8818 55.1316 66.3992C55.339 65.3321 54.6217 64.1751 53.6336 63.983C52.8133 63.8236 52.3353 64.1198 46.6381 68.3185C44.4456 69.9341 42.668 71.1738 42.6876 71.0728C42.7772 70.6121 47.5851 65.129 49.557 63.2392C53.1415 59.8038 53.0259 59.9535 52.8791 58.9374C52.618 57.1293 51.2097 56.7515 49.1974 57.9492C48.5552 58.3313 47.9129 58.6211 47.7702 58.5934C47.5064 58.5421 48.1187 57.8986 50.5738 55.6473C52.9373 53.48 56.5916 49.2291 57.0198 48.1491C57.3207 47.3898 57.3365 46.8804 57.0785 46.2496C56.5411 44.9351 54.7664 44.9037 51.9412 46.1589C50.7304 46.6971 49.6835 47.1262 49.6147 47.1128C49.546 47.0995 49.6836 46.7759 49.9209 46.3937C50.7338 45.0834 50.7334 44.08 49.9196 43.2239C49.2588 42.5284 49.024 42.4433 48.0939 42.5618C47.5071 42.6369 46.6773 42.8702 46.2503 43.0808C45.8234 43.2917 44.9137 43.6694 44.2285 43.9209L42.9834 44.3779L42.4249 43.6031C41.447 42.2467 40.4333 42.4485 38.2136 44.4413C33.8757 48.3359 31.8052 52.3783 33.2989 54.0364C34.1388 54.969 35.1007 54.9459 36.8022 53.9527C37.9623 53.2754 38.0224 53.2692 37.5443 53.8736C37.2585 54.2354 36.1666 55.4751 35.1182 56.6283C33.4101 58.5071 33.2187 58.8327 33.2761 59.7603C33.3139 60.3778 33.615 61.0289 34.0224 61.3743C35.2208 62.3911 36.1642 61.9652 39.6571 58.8308C41.4121 57.2558 44.1333 55.124 45.7039 54.0936C48.7848 52.0727 48.8037 52.1019 46.1568 54.7888C43.3708 57.6165 37.9127 64.3803 36.9042 66.2543C36.0009 67.9326 35.991 67.9822 36.3905 68.8158C36.6148 69.2831 37.139 69.7751 37.5556 69.9089C37.9722 70.0427 38.304 70.1992 38.2928 70.2568C38.2816 70.3141 37.5538 71.2379 36.6753 72.3093C33.3799 76.3297 32.6966 79.1099 34.6985 80.3521C35.9185 81.1092 37.364 80.6507 39.7434 78.753C40.9847 77.763 42.0295 76.9962 42.066 77.0491C42.1022 77.102 41.5366 78.0955 40.8093 79.2571C38.9589 82.2111 37.0492 86.0246 36.8139 87.235C36.6673 87.9891 36.786 88.4529 37.2685 89.0115C37.6275 89.4273 38.1075 89.8039 38.3353 89.8482C38.9461 89.9669 40.6396 89.4175 40.7053 89.0794C40.7887 88.6506 43.8936 85.4097 44.0289 85.6103C44.0923 85.704 42.8008 87.7476 41.159 90.1514C38.0074 94.7665 35.6802 99.0022 35.2631 100.882C35.0646 101.779 35.1531 102.19 35.6927 102.873C36.0666 103.347 36.6364 103.786 36.9591 103.848C37.7401 104 40.7286 102.078 44.3895 99.0695C46.0325 97.7192 47.8671 96.3024 48.4663 95.9213L49.5558 95.2282L48.6477 96.5637C48.1483 97.2981 46.0113 100.227 43.8986 103.072C41.0406 106.921 39.602 109.162 38.2774 111.829C36.2655 115.879 36.017 116.731 36.6206 117.512C37.8818 119.143 39.6531 118.962 41.3246 117.031C42.7871 115.342 44.3855 113.875 44.3034 114.297C44.2688 114.475 43.5672 115.612 42.7445 116.824C39.0614 122.249 37.113 126.554 37.6107 128.166C37.9122 129.142 39.2879 129.966 40.2371 129.738C41.291 129.485 41.779 128.925 44.9233 124.365C48.0195 119.875 49.1312 118.721 47.0132 122.195C43.0379 128.717 40.6901 133.292 38.9518 137.902C37.7858 140.995 37.8099 142.151 39.0515 142.685C39.4555 142.859 39.9222 143.072 40.0884 143.159C40.2945 143.267 40.083 143.965 39.4223 145.357C38.8896 146.479 38.113 148.399 37.6961 149.624C36.9689 151.761 36.9597 151.885 37.4678 152.691C38.1587 153.788 39.5788 154.089 40.5559 153.346C40.9492 153.047 41.623 152.221 42.0529 151.512C42.4828 150.802 42.9695 150.248 43.1344 150.28C43.3021 150.313 43.3006 150.546 43.1315 150.811C42.4711 151.842 39.174 159.437 38.9997 160.329C38.7556 161.577 39.4691 162.621 40.7348 162.867C41.9684 163.107 42.5271 162.683 44.0031 160.388C44.6483 159.385 45.2705 158.528 45.386 158.484C45.5014 158.44 45.3825 159.275 45.1216 160.339C44.7225 161.968 44.7221 162.421 45.1196 163.195C45.4365 163.811 45.8666 164.168 46.4247 164.276C48.1894 164.62 48.5554 164.308 50.576 160.742C51.2408 159.569 52.0516 158.336 52.3775 158.001C53.2564 157.098 53.2331 155.862 52.3203 154.953L51.5423 154.178L52.4615 152.238C54.1685 148.635 54.0549 147.546 51.9286 147.132C51.2707 147.004 50.7505 147.204 49.8256 147.938C49.1497 148.474 48.5132 148.897 48.4117 148.877C48.1859 148.833 50.2851 145.266 51.3221 143.931C53.2754 141.416 53.1856 139.18 51.1149 138.778C50.1514 138.591 49.7692 138.722 48.4281 139.698C47.5682 140.323 46.5795 141.113 46.2308 141.453C45.8823 141.792 45.555 142.002 45.5034 141.919C45.4517 141.835 46.8361 139.585 48.5799 136.919C52.1288 131.492 52.5966 130.282 51.5419 129.255C50.5249 128.265 49.5048 128.594 47.5319 130.548C46.5931 131.478 45.8186 132.067 45.811 131.858C45.8034 131.649 46.7341 129.894 47.8787 127.958C49.0237 126.022 51.2039 122.261 52.7239 119.601C55.388 114.938 55.5283 114.753 56.6358 114.442C57.645 114.159 58.0627 113.725 60.0725 110.872C61.3307 109.086 62.8201 107.258 63.3823 106.81L64.4042 105.996L62.837 108.575C61.9754 109.994 61.0412 111.724 60.7613 112.421C60.3205 113.519 60.3174 113.792 60.7387 114.466C61.2739 115.322 62.4712 115.696 63.2975 115.267C63.5896 115.115 64.8334 113.547 66.0616 111.782C68.7256 107.953 70.7348 105.838 73.8493 103.582L76.1624 101.906L75.0607 103.514C72.7662 106.861 70.9549 109.932 70.7972 110.744C70.5967 111.775 71.4055 112.974 72.4325 113.168C73.488 113.366 73.7781 113.19 75.0056 111.606C76.584 109.568 78.8322 107.161 80.72 105.488C82.6386 103.787 85.2407 102.03 85.1499 102.498C85.1155 102.675 84.5049 103.711 83.7926 104.8C82.3187 107.055 82.1315 107.665 82.5946 108.705C83.003 109.622 84.5963 110.014 85.391 109.392C85.6903 109.158 86.6842 108.019 87.5999 106.862C88.9655 105.135 91.877 102.247 91.7874 102.708C91.7743 102.776 91.2349 103.497 90.5887 104.312C88.7522 106.627 88.5023 107.941 89.7414 108.771C90.7288 109.432 91.4517 109.442 92.2988 108.807C92.635 108.555 93.0808 108.382 93.2897 108.423C94.3454 108.628 95.2607 108.087 95.6607 107.023C96.0225 106.06 96.8325 105.438 102.375 101.864C111.492 95.9869 112.758 95.463 106.942 99.9731C100.123 105.262 92.8043 113.094 92.3113 115.63C92.0833 116.803 92.7471 117.728 93.9909 117.97C94.9252 118.151 95.4171 117.899 97.225 116.312C99.5069 114.308 101.813 112.496 101.905 112.633C101.952 112.703 100.357 114.518 98.3596 116.667C94.312 121.022 92.6128 123.596 92.9805 124.815C93.284 125.822 93.589 126.076 94.7861 126.324C95.7241 126.518 96.216 126.25 100.812 123.042C103.565 121.121 105.799 119.645 105.776 119.761C105.753 119.878 104.275 121.29 102.49 122.898C95.9591 128.782 91.823 133.314 91.8722 134.531C91.9231 135.787 92.4913 136.499 93.6169 136.718C94.5175 136.893 95.0783 136.631 98.3242 134.514C104.746 130.326 104.789 130.367 99.2551 135.386C97.2086 137.242 94.297 140.055 92.7853 141.637C90.558 143.967 89.9936 144.733 89.8112 145.671C89.5414 147.059 90.1756 147.888 91.7412 148.194C92.6476 148.37 93.0527 148.187 95.079 146.681C96.3476 145.738 98.3142 144.31 99.4495 143.507C101.346 142.166 101.439 142.132 100.601 143.085C100.098 143.655 98.5716 145.202 97.2077 146.523C94.0802 149.552 91.8673 152.272 91.659 153.344C91.356 154.903 92.933 156.176 94.416 155.569C94.868 155.385 95.2623 155.109 95.2918 154.957C95.4451 154.168 101.938 148.102 102.205 148.498C102.258 148.575 101.029 150.153 99.4754 152.004C94.0309 158.492 93.7266 158.995 94.3725 160.445C94.8146 161.438 94.4009 161.459 90.2799 160.658C87.65 160.147 86.7284 159.858 86.2945 159.409C85.9799 159.083 85.4643 158.855 85.1293 158.894C84.4463 158.973 84.447 158.989 84.8776 153.841C85.0219 152.116 85.1923 147.367 85.2565 143.289C85.4485 131.095 85.5872 129.589 87.2601 121.572C89.1591 112.471 89.4945 113.024 82.9609 114.486C80.3486 115.071 76.6477 115.862 74.7368 116.244C70.4127 117.109 69.0511 117.502 64.1301 119.304C60.9892 120.455 60.0312 120.682 59.3503 120.439C58.1148 119.998 57.0094 120.769 56.7167 122.275C56.5017 123.381 56.4943 127.838 56.7034 130.15C56.9227 132.572 57.3777 147.109 57.3566 151.028C57.3442 153.339 57.4596 156.64 57.6133 158.363C57.9827 162.512 57.8728 162.971 56.2479 164.067C55.0901 164.848 54.289 165.032 49.8129 165.547C44.7093 166.135 38.9869 166.918 35.8671 167.457C34.9599 167.614 33.9073 167.618 33.5279 167.466C32.9925 167.251 32.788 167.323 32.6143 167.784C32.4584 168.197 32.3611 167.956 32.2957 166.994C32.0801 163.826 31.3215 155.533 31.0097 152.932C30.8251 151.394 30.6359 149.012 30.5889 147.641L30.5039 145.147L31.123 145.588C32.58 146.627 33.4866 144.59 32.7419 141.951C32.5016 141.099 32.3519 139.048 32.4 137.265C32.4795 134.32 32.2652 125.968 31.9538 119.875C31.8806 118.442 31.6677 114.266 31.4811 110.596C31.2944 106.925 31.2105 103.562 31.2942 103.122C31.3783 102.682 31.2561 101.554 31.0226 100.615C30.7894 99.6768 30.6999 98.3868 30.8239 97.7486C30.948 97.1103 30.9752 96.3439 30.8849 96.045C30.7942 95.7462 30.5765 92.1953 30.4009 88.1541C30.2251 84.1128 29.8622 79.2563 29.594 77.3615C29.2524 74.9476 29.1949 73.1648 29.4016 71.4045C29.5639 70.023 29.6981 67.5462 29.7001 65.9006C29.7018 64.255 29.8213 62.2975 29.9653 61.5505C30.1093 60.8034 30.18 59.0902 30.1222 57.7433C30.0312 55.6188 30.3233 50.0323 30.5525 49.5201C30.7363 49.1087 30.0221 46.7311 29.4453 45.8348L28.8211 44.8653L29.9097 44.3095C38.8247 39.7577 45.1559 38.7219 55.2858 40.1576C59.5559 40.763 60.3941 41.2705 60.9898 43.6123C61.5021 45.6262 61.253 52.9341 60.4214 60.2936C60.0522 63.5611 59.6991 68.8883 59.6363 72.1319C59.4336 82.6229 58.9553 88.8459 57.953 94.0351C57.4721 96.5247 57.4773 96.598 58.1654 96.9202C59.5174 97.5531 60.7303 97.2664 63.3775 95.687C67.3656 93.3078 70.6435 92.7659 77.047 93.4275C90.4064 94.8079 92.3916 94.7072 92.8266 92.627C92.9018 92.2679 92.8061 90.6477 92.6137 89.0263C92.4215 87.4052 92.2357 84.8395 92.2011 83.3247C92.1437 80.8136 92.275 78.5463 93.1666 66.6586C93.6053 60.8083 93.8981 53.2502 93.7245 52.2521C93.64 51.7657 93.6894 50.7508 93.8345 49.9967C93.9795 49.2426 94.079 46.6412 94.0554 44.2157C94.013 39.8844 94.3058 36.9788 94.775 37.07C94.9057 37.0954 95.5397 37.5225 96.1842 38.019C98.8619 40.0826 105.641 40.7336 110.619 39.4051C111.852 39.0761 113.534 38.8523 114.358 38.9077C115.621 38.9924 117.256 38.9809 123.174 38.8466C123.509 38.8389 124.695 38.9942 125.81 39.1914C127.809 39.5454 127.848 39.5688 128.722 40.9365ZM160.747 67.3137C155.92 67.7033 152.411 69.3942 150.294 72.3508L149.218 73.8546L148.272 80.5292C147.751 84.2001 147.3 87.9501 147.269 88.8624C147.238 89.7747 146.96 92.6576 146.651 95.2689C146.342 97.8802 146.041 100.881 145.982 101.938C145.917 103.124 145.73 104.038 145.494 104.327C145.284 104.585 145.01 105.325 144.884 105.972C144.592 107.473 143.51 122.908 143.348 127.867C143.281 129.941 143.149 132.784 143.056 134.185C142.962 135.586 142.921 137.28 142.964 137.95C143.007 138.619 143.006 139.575 142.961 140.074C142.881 140.971 142.845 142.441 142.795 146.894C142.767 149.338 143.01 150.569 143.542 150.673C144.19 150.799 143.322 151.096 141.258 151.456C139.11 151.831 138.505 152.333 139.036 153.302C139.395 153.958 140.082 154.061 142.111 153.763L143.804 153.514L143.806 154.32C143.808 154.763 143.794 155.67 143.776 156.334C143.726 158.172 143.966 158.698 144.887 158.769C145.627 158.826 145.709 158.728 145.936 157.513C146.072 156.788 146.209 155.508 146.241 154.668L146.298 153.142L149.908 153.031C151.893 152.97 155.132 153.044 157.106 153.197C161.427 153.529 170.753 155.2 172.507 155.955C173.2 156.254 174.889 156.811 176.26 157.193C178.716 157.877 178.762 157.878 179.39 157.232C180.004 156.602 180.017 156.351 179.74 150.815C179.365 143.334 179.549 140.097 180.684 134.214C181.753 128.677 182.194 124.769 182.613 117.134C183.656 98.1033 183.105 87.0915 180.851 81.9154C178.28 76.0109 173.119 70.6014 168.017 68.464C165.297 67.3246 163.714 67.0742 160.747 67.3137ZM167.73 70.9913C172.01 73.124 175.288 76.5021 177.934 81.5058C179.332 84.1507 179.984 86.9894 180.359 92.0674C180.876 99.0832 180.838 105.323 180.209 116.97C179.807 124.405 179.318 128.691 178.23 134.305C177.133 139.967 176.922 143.532 177.291 150.152C177.439 152.794 177.521 154.976 177.475 154.999C177.428 155.022 176.494 154.731 175.399 154.352C174.304 153.973 170.453 153.055 166.841 152.31C159.772 150.854 154.229 150.313 149.562 150.623C148.293 150.708 147.173 150.763 147.073 150.747C146.883 150.715 147.02 148.051 147.344 145.492C147.447 144.677 147.562 142.787 147.6 141.292C147.638 139.797 147.85 135.467 148.072 131.669C148.293 127.872 148.476 123.81 148.478 122.642C148.481 121.473 148.513 118.884 148.549 116.888C148.586 114.891 148.58 112.773 148.537 112.18C148.493 111.587 148.479 109.877 148.504 108.379C148.529 106.881 148.487 105.335 148.41 104.943C148.271 104.238 148.316 101.732 148.516 99.1224C148.572 98.3821 148.578 97.356 148.529 96.842C148.481 96.3279 148.705 94.8998 149.027 93.6678C149.35 92.4357 149.65 90.4479 149.695 89.2505C149.801 86.4228 151.316 75.5232 151.757 74.409C152.206 73.2771 154.986 71.1422 156.877 70.4772C158.783 69.8069 162.656 69.4267 164.379 69.7407C165.108 69.8733 166.616 70.4363 167.73 70.9913ZM162.827 73.9988C161.776 74.5386 159.826 76.3592 155.141 81.1754C151.356 85.0671 151.061 85.7107 152.317 87.3393C153.167 88.4407 154.025 88.5296 155.949 87.715L157.59 87.0206L156.668 87.9305C155.143 89.4357 153.405 91.8097 153.252 92.5968C153.048 93.6437 153.853 94.6957 155.032 94.9249C155.706 95.0559 156.503 94.8735 157.574 94.3425C158.432 93.9174 159.121 93.6357 159.105 93.7168C159.09 93.7978 157.926 94.8389 156.519 96.0302C153.919 98.2325 153.421 98.8719 153.366 100.08C153.32 101.087 154.481 102.229 155.495 102.174C155.965 102.149 158.245 100.869 160.772 99.214C163.219 97.6102 165.313 96.3162 165.426 96.338C165.538 96.3599 164.771 97.0398 163.721 97.8487C161.748 99.3679 161.095 99.9076 157.599 102.906C155 105.135 154.373 106.443 155.325 107.648C156.025 108.534 156.792 108.801 157.77 108.5C158.685 108.217 158.454 108.685 157.066 109.924C153.863 112.782 153.021 114.26 153.917 115.455C154.16 115.779 154.803 116.13 155.347 116.236C156.185 116.399 156.611 116.215 158.137 115.033C161.813 112.185 168.033 108.495 170.733 107.559C171.497 107.295 170.73 107.98 168.144 109.871C166.123 111.349 164.337 112.609 164.177 112.67C163.429 112.952 156.185 118.802 154.514 120.472C153.483 121.503 152.49 122.403 152.307 122.472C151.673 122.712 151.618 124.321 152.213 125.202C153.347 126.884 153.901 126.7 159.6 122.754C162.471 120.766 164.627 119.375 164.389 119.663C164.153 119.951 162.475 121.537 160.663 123.189C154.187 129.087 149.431 134.192 149.16 135.532C149.094 135.858 149.196 136.474 149.387 136.901C149.692 137.586 149.91 137.695 151.244 137.824C152.412 137.936 152.889 137.832 153.341 137.365C154.097 136.585 158.328 133.43 158.878 133.236C159.11 133.155 158.081 134.425 156.591 136.058C153.49 139.458 152.83 140.789 153.67 141.945C154.476 143.053 155.141 143.229 156.432 142.677C157.078 142.4 157.655 142.184 157.715 142.196C157.775 142.207 157.437 142.685 156.964 143.259C156.167 144.224 156.125 144.367 156.394 145.197C156.798 146.443 158.532 146.96 159.543 146.137C160.145 145.646 160.226 145.64 160.146 146.097C160.006 146.893 161.104 148.318 161.989 148.491C162.501 148.59 163.213 148.339 164.067 147.756L165.366 146.87L165.527 148.261C165.662 149.426 165.855 149.754 166.714 150.283C167.696 150.886 167.825 150.889 169.706 150.339C170.786 150.024 172.044 149.838 172.5 149.927C174.173 150.252 175.151 147.996 173.9 146.701C173.299 146.078 171.697 145.681 170.846 145.943C170.322 146.105 170.324 146.004 170.87 144.601C171.582 142.774 171.264 141.578 169.92 141.027C169.125 140.7 169.11 140.653 169.642 140.148C172.762 137.185 173.387 135.57 171.964 134.153L171.138 133.331L173.151 131.562C175.33 129.647 175.738 128.77 174.975 127.64C174.382 126.761 173.427 126.575 172.343 127.129C170.926 127.851 170.864 127.515 172.239 126.564C174.291 125.144 174.275 122.951 172.209 122.549C171.382 122.388 168.197 123.636 164.692 125.495C163.621 126.062 162.762 126.443 162.782 126.341C162.825 126.12 166.043 123.205 168.741 120.943C169.803 120.053 171.491 118.624 172.493 117.767C173.494 116.911 174.616 115.959 174.986 115.652C175.357 115.344 175.836 114.53 176.052 113.844C176.534 112.308 176.084 111.554 174.406 111.084L173.261 110.763L175.632 109.063C178.274 107.169 179.353 105.824 179.32 104.461C179.269 102.38 176.633 101.611 173.093 102.645C172.012 102.961 171.096 103.174 171.059 103.119C171.021 103.063 172.727 101.804 174.849 100.321C176.971 98.8381 178.88 97.4123 179.091 97.1526C179.725 96.3734 179.725 95.621 179.088 94.738C178.528 93.9613 178.403 93.9136 177.321 94.0676C176.68 94.1586 175.349 94.5601 174.363 94.9597L172.569 95.6859L173.813 94.6623C176.028 92.8404 176.703 92.1076 177.109 91.0839C177.452 90.2183 177.416 89.9633 176.849 89.2461C175.884 88.0236 174.584 87.8853 172.517 88.785C171.569 89.198 170.754 89.4789 170.708 89.4095C170.661 89.3399 171.438 88.5678 172.434 87.6935C174.628 85.7683 175.103 84.4104 174.019 83.1558C172.919 81.8816 171.807 81.9843 168.342 83.6792C165.599 85.0212 165.397 85.0499 166.726 83.9096C167.392 83.3381 168.075 82.818 168.245 82.7538C168.735 82.5685 170.146 80.6451 170.274 79.9893C170.444 79.1123 169.581 78.0211 168.56 77.8226C167.343 77.5861 165.965 77.9204 163.81 78.9754C162.806 79.467 161.943 79.8067 161.891 79.7302C161.655 79.3801 163.513 78.1003 164.264 78.0962C166.144 78.086 167.06 76.3058 165.997 74.7305C165.282 73.6691 164.03 73.3804 162.827 73.9988ZM56.2038 106.281C55.9144 106.861 55.61 107.68 55.527 108.103C55.4057 108.719 55.1985 108.871 54.4749 108.875C53.8669 108.878 53.2446 109.215 52.5593 109.913C51.4925 110.998 50.991 111.078 51.8301 110.028C52.1 109.691 53.2919 108.311 54.4787 106.963C56.634 104.514 57.1963 104.292 56.2038 106.281ZM145.881 126.899C145.742 127.114 145.686 127.031 145.739 126.688C145.786 126.377 145.888 126.218 145.967 126.334C146.045 126.45 146.006 126.704 145.881 126.899Z" fill="#FF3030"/>
</svg>
