<svg width="300" height="269" viewBox="0 0 300 269" fill="none" xmlns="http://www.w3.org/2000/svg">
<path fill-rule="evenodd" clip-rule="evenodd" d="M146.768 0.724956C148.565 0.946956 151.265 0.942957 152.768 0.714957C154.271 0.485957 152.8 0.303959 149.5 0.309959C146.2 0.314959 144.971 0.501956 146.768 0.724956ZM16.079 107.583C16.127 108.748 16.364 108.985 16.683 108.188C16.972 107.466 16.936 106.603 16.604 106.271C16.272 105.939 16.036 106.529 16.079 107.583ZM80.813 140.683C81.534 140.972 82.397 140.936 82.729 140.604C83.061 140.272 82.471 140.036 81.417 140.079C80.252 140.127 80.015 140.364 80.813 140.683ZM85.813 141.683C86.534 141.972 87.397 141.936 87.729 141.604C88.061 141.272 87.471 141.036 86.417 141.079C85.252 141.127 85.015 141.364 85.813 141.683ZM89.75 142.662C90.438 142.94 91.563 142.94 92.25 142.662C92.938 142.385 92.375 142.158 91 142.158C89.625 142.158 89.063 142.385 89.75 142.662ZM183.75 148.662C184.438 148.94 185.563 148.94 186.25 148.662C186.938 148.385 186.375 148.158 185 148.158C183.625 148.158 183.063 148.385 183.75 148.662ZM77.813 150.683C78.534 150.972 79.397 150.936 79.729 150.604C80.061 150.272 79.471 150.036 78.417 150.079C77.252 150.127 77.015 150.364 77.813 150.683ZM179.079 154.583C179.127 155.748 179.364 155.985 179.683 155.188C179.972 154.466 179.936 153.603 179.604 153.271C179.272 152.939 179.036 153.529 179.079 154.583ZM210.813 154.683C211.534 154.972 212.397 154.936 212.729 154.604C213.061 154.272 212.471 154.036 211.417 154.079C210.252 154.127 210.015 154.364 210.813 154.683ZM182.813 163.683C183.534 163.972 184.397 163.936 184.729 163.604C185.061 163.272 184.471 163.036 183.417 163.079C182.252 163.127 182.015 163.364 182.813 163.683ZM253.195 171.5C253.215 173.15 253.439 173.704 253.693 172.731C253.947 171.758 253.93 170.408 253.656 169.731C253.382 169.054 253.175 169.85 253.195 171.5ZM259.813 170.683C260.534 170.972 261.397 170.936 261.729 170.604C262.061 170.272 261.471 170.036 260.417 170.079C259.252 170.127 259.015 170.364 259.813 170.683ZM37.336 181C37.336 185.125 37.513 186.813 37.728 184.75C37.944 182.688 37.944 179.313 37.728 177.25C37.513 175.188 37.336 176.875 37.336 181ZM252.252 181.5C252.263 183.7 252.468 184.482 252.707 183.238C252.946 181.994 252.937 180.194 252.687 179.238C252.437 178.282 252.241 179.3 252.252 181.5ZM251.232 192C251.232 193.925 251.438 194.713 251.689 193.75C251.941 192.787 251.941 191.213 251.689 190.25C251.438 189.287 251.232 190.075 251.232 192ZM36.336 204C36.336 208.125 36.513 209.813 36.728 207.75C36.944 205.688 36.944 202.313 36.728 200.25C36.513 198.188 36.336 199.875 36.336 204ZM250.252 204.5C250.263 206.7 250.468 207.482 250.707 206.238C250.946 204.994 250.937 203.194 250.687 202.238C250.437 201.282 250.241 202.3 250.252 204.5ZM249.32 218C249.32 221.575 249.502 223.038 249.723 221.25C249.945 219.462 249.945 216.538 249.723 214.75C249.502 212.962 249.32 214.425 249.32 218ZM35.343 223.5C35.346 227.9 35.522 229.576 35.733 227.224C35.945 224.872 35.942 221.272 35.727 219.224C35.512 217.176 35.339 219.1 35.343 223.5ZM160.75 218.723C162.537 218.945 165.463 218.945 167.25 218.723C169.037 218.502 167.575 218.32 164 218.32C160.425 218.32 158.963 218.502 160.75 218.723ZM133.75 219.743C137.738 219.932 144.262 219.932 148.25 219.743C152.238 219.553 148.975 219.397 141 219.397C133.025 219.397 129.762 219.553 133.75 219.743ZM120.75 220.662C121.438 220.94 122.563 220.94 123.25 220.662C123.938 220.385 123.375 220.158 122 220.158C120.625 220.158 120.063 220.385 120.75 220.662ZM161.75 228.662C162.438 228.94 163.563 228.94 164.25 228.662C164.938 228.385 164.375 228.158 163 228.158C161.625 228.158 161.063 228.385 161.75 228.662ZM246.559 236.532C245.491 237.339 245.099 238 245.686 238C246.274 238 247.315 237.325 248 236.5C249.557 234.624 249.067 234.634 246.559 236.532ZM56.75 244.662C57.438 244.94 58.563 244.94 59.25 244.662C59.938 244.385 59.375 244.158 58 244.158C56.625 244.158 56.063 244.385 56.75 244.662ZM64.75 245.662C65.438 245.94 66.563 245.94 67.25 245.662C67.938 245.385 67.375 245.158 66 245.158C64.625 245.158 64.063 245.385 64.75 245.662ZM223.813 245.683C224.534 245.972 225.397 245.936 225.729 245.604C226.061 245.272 225.471 245.036 224.417 245.079C223.252 245.127 223.015 245.364 223.813 245.683ZM95.813 253.683C96.534 253.972 97.397 253.936 97.729 253.604C98.061 253.272 97.471 253.036 96.417 253.079C95.252 253.127 95.015 253.364 95.813 253.683ZM101.75 254.662C102.438 254.94 103.563 254.94 104.25 254.662C104.938 254.385 104.375 254.158 103 254.158C101.625 254.158 101.063 254.385 101.75 254.662ZM192 256C191.175 256.533 190.95 256.969 191.5 256.969C192.05 256.969 193.175 256.533 194 256C194.825 255.467 195.05 255.031 194.5 255.031C193.95 255.031 192.825 255.467 192 256ZM176.5 262C175.181 262.567 175.011 262.878 176 262.914C176.825 262.945 178.175 262.533 179 262C180.828 260.819 179.249 260.819 176.5 262ZM163.5 266C162.239 266.542 162.055 266.859 163 266.859C163.825 266.859 165.4 266.473 166.5 266C167.761 265.458 167.945 265.141 167 265.141C166.175 265.141 164.6 265.527 163.5 266ZM148.269 268.693C149.242 268.947 150.592 268.93 151.269 268.656C151.946 268.382 151.15 268.175 149.5 268.195C147.85 268.215 147.296 268.439 148.269 268.693Z" fill="#F8E187"/>
<path fill-rule="evenodd" clip-rule="evenodd" d="M194.667 46.996C192.558 47.39 189.683 48.863 188.277 50.269C185.495 53.051 185.098 55.835 183.212 85.776C182.555 96.224 182.01 99.419 180.654 100.776C178.596 102.836 167.058 103.034 133.17 101.592C113.119 100.739 111.761 100.559 110.537 98.592C109.804 97.416 108.955 91.685 108.597 85.5C106.551 50.192 106.896 52.998 104.6 53.019C98.1 53.08 81.972 56.231 71.692 59.45C62.596 62.298 59.285 63.819 57.277 66.074C55.843 67.683 53.984 69 53.147 69C50.103 69 45.012 73.561 43.1 78C40.425 84.212 38.852 96.956 39.117 110.287C39.54 131.57 36.9 219.258 35.513 230C35.264 231.925 35.61 234.583 36.28 235.907C37.985 239.27 47.91 242.759 60.913 244.565C66.736 245.374 75.55 247.366 80.5 248.992C85.45 250.618 93.496 252.635 98.38 253.474C109.153 255.325 113.995 256.78 124.787 261.409C143.327 269.363 152.145 269.997 169 264.59C175.325 262.561 184.325 259.288 189 257.316C199.752 252.78 212.763 248.222 220.5 246.279C223.8 245.45 228.879 243.924 231.788 242.886C234.696 241.849 237.926 241 238.966 241C240.006 241 241.461 240.396 242.199 239.658C242.937 238.92 244.583 237.759 245.855 237.077C249.512 235.12 251.306 229.755 249.887 225.018C248.947 221.879 249.136 216.136 250.851 195.806C252.025 181.888 252.965 169.375 252.941 168C252.757 157.787 254.085 129.125 255.511 112.5C257.34 91.181 257.034 67.743 254.81 58.785C253.534 53.642 251.644 52.409 243.5 51.407C241.3 51.136 236.125 50.274 232 49.491C227.875 48.709 219.55 47.8 213.5 47.472C207.45 47.145 201.6 46.742 200.5 46.578C199.4 46.414 196.775 46.602 194.667 46.996ZM83 140.434C87.675 141.299 92.444 142.414 93.597 142.912C94.751 143.41 98.126 144.126 101.097 144.503C107.568 145.324 113.355 147.891 113.787 150.132C114.79 155.342 104.46 156.502 88.624 152.958C73.673 149.611 70.61 148.726 68.281 147.074C63.908 143.971 66.684 137.291 71.911 138.34C73.335 138.626 78.325 139.568 83 140.434ZM216.677 141.303C217.68 142.57 219.316 143.917 220.314 144.296C221.649 144.804 222.045 145.829 221.814 148.177C221.516 151.206 221.122 151.485 214 153.711C207.949 155.603 194.578 159.998 183.842 163.625C181.007 164.583 177.949 160.566 178.622 156.771C179.419 152.282 182.223 148.564 185.1 148.179C187.843 147.813 201.085 143.743 208.5 140.988C214.884 138.615 214.54 138.602 216.677 141.303ZM171.358 220.197C173.122 223.008 170.986 227.375 167.478 228.126C165.84 228.476 153.62 228.817 140.321 228.882C119.568 228.983 115.92 228.777 114.571 227.429C111.438 224.295 113.019 221.826 119 220.513C122.677 219.705 154.297 218.236 164.396 218.403C168.782 218.475 170.565 218.935 171.358 220.197Z" fill="#F1C40F"/>
<path fill-rule="evenodd" clip-rule="evenodd" d="M200.75 46.662C201.438 46.94 202.563 46.94 203.25 46.662C203.938 46.385 203.375 46.158 202 46.158C200.625 46.158 200.063 46.385 200.75 46.662ZM96.75 53.662C97.438 53.94 98.563 53.94 99.25 53.662C99.938 53.385 99.375 53.158 98 53.158C96.625 53.158 96.063 53.385 96.75 53.662ZM184.195 62.5C184.215 64.15 184.439 64.704 184.693 63.731C184.947 62.758 184.93 61.408 184.656 60.731C184.382 60.054 184.175 60.85 184.195 62.5ZM256.272 71C256.272 73.475 256.467 74.488 256.706 73.25C256.944 72.013 256.944 69.987 256.706 68.75C256.467 67.513 256.272 68.525 256.272 71ZM183.158 82C183.158 83.375 183.385 83.938 183.662 83.25C183.94 82.563 183.94 81.438 183.662 80.75C183.385 80.063 183.158 80.625 183.158 82ZM109.195 94.5C109.215 96.15 109.439 96.704 109.693 95.731C109.947 94.758 109.93 93.408 109.656 92.731C109.382 92.054 109.175 92.85 109.195 94.5ZM172.75 102.662C173.438 102.94 174.563 102.94 175.25 102.662C175.938 102.385 175.375 102.158 174 102.158C172.625 102.158 172.063 102.385 172.75 102.662ZM38.158 134C38.158 135.375 38.385 135.938 38.662 135.25C38.94 134.563 38.94 133.438 38.662 132.75C38.385 132.063 38.158 132.625 38.158 134ZM253.32 147C253.32 150.575 253.502 152.037 253.723 150.25C253.945 148.463 253.945 145.537 253.723 143.75C253.502 141.963 253.32 143.425 253.32 147Z" fill="#F0A014"/>
<path fill-rule="evenodd" clip-rule="evenodd" d="M205.269 46.6929C206.242 46.9469 207.592 46.9299 208.269 46.6559C208.946 46.3819 208.15 46.1749 206.5 46.1949C204.85 46.2149 204.296 46.4389 205.269 46.6929ZM218.75 47.6619C219.438 47.9399 220.563 47.9399 221.25 47.6619C221.938 47.3849 221.375 47.1579 220 47.1579C218.625 47.1579 218.063 47.3849 218.75 47.6619ZM256.158 64.9999C256.158 66.3749 256.385 66.9379 256.662 66.2499C256.94 65.5629 256.94 64.4379 256.662 63.7499C256.385 63.0629 256.158 63.6249 256.158 64.9999ZM108.158 76.9999C108.158 78.3749 108.385 78.9379 108.662 78.2499C108.94 77.5629 108.94 76.4379 108.662 75.7499C108.385 75.0629 108.158 75.6249 108.158 76.9999ZM183.195 77.4999C183.215 79.1499 183.439 79.7039 183.693 78.7309C183.947 77.7579 183.93 76.4079 183.656 75.7309C183.382 75.0539 183.175 75.8499 183.195 77.4999ZM257.079 92.5829C257.127 93.7479 257.364 93.9849 257.683 93.1879C257.972 92.4659 257.936 91.6029 257.604 91.2709C257.272 90.9389 257.036 91.5289 257.079 92.5829ZM119.75 100.662C120.438 100.94 121.563 100.94 122.25 100.662C122.938 100.385 122.375 100.158 121 100.158C119.625 100.158 119.063 100.385 119.75 100.662ZM126.762 100.707C128.006 100.946 129.806 100.937 130.762 100.687C131.718 100.437 130.7 100.241 128.5 100.252C126.3 100.263 125.518 100.468 126.762 100.707ZM165.75 102.706C166.988 102.944 169.012 102.944 170.25 102.706C171.488 102.467 170.475 102.272 168 102.272C165.525 102.272 164.512 102.467 165.75 102.706ZM39.079 117.583C39.127 118.748 39.364 118.985 39.683 118.188C39.972 117.466 39.936 116.603 39.604 116.271C39.272 115.939 39.036 116.529 39.079 117.583ZM254.232 130C254.232 131.925 254.438 132.713 254.689 131.75C254.941 130.787 254.941 129.213 254.689 128.25C254.438 127.287 254.232 128.075 254.232 130ZM38.158 166C38.158 167.375 38.385 167.938 38.662 167.25C38.94 166.563 38.94 165.438 38.662 164.75C38.385 164.063 38.158 164.625 38.158 166Z" fill="#EF7D1A"/>
<path fill-rule="evenodd" clip-rule="evenodd" d="M159.25 1.68906C160.213 1.94106 161.787 1.94106 162.75 1.68906C163.713 1.43806 162.925 1.23206 161 1.23206C159.075 1.23206 158.287 1.43806 159.25 1.68906ZM165.813 2.68306C166.534 2.97206 167.397 2.93606 167.729 2.60406C168.061 2.27206 167.471 2.03606 166.417 2.07906C165.252 2.12706 165.015 2.36406 165.813 2.68306ZM233.733 25.1241C234.412 25.8081 235.219 26.1151 235.526 25.8071C235.834 25.4991 235.279 24.9401 234.293 24.5641C232.868 24.0221 232.753 24.1361 233.733 25.1241ZM35.946 44.7501L32.5 48.5001L36.25 45.0541C38.313 43.1581 40 41.4711 40 41.3041C40 40.5401 39.154 41.2601 35.946 44.7501ZM276 48.3781C276 48.5851 276.788 49.3731 277.75 50.1281C279.336 51.3711 279.371 51.3361 278.128 49.7501C276.821 48.0841 276 47.5551 276 48.3781ZM233.813 49.6831C234.534 49.9721 235.397 49.9361 235.729 49.6041C236.061 49.2721 235.471 49.0361 234.417 49.0791C233.252 49.1271 233.015 49.3641 233.813 49.6831ZM27.872 51.7501C26.629 53.3361 26.664 53.3711 28.25 52.1281C29.916 50.8211 30.445 50.0001 29.622 50.0001C29.415 50.0001 28.627 50.7871 27.872 51.7501ZM282.272 67.0001C282.272 69.4751 282.467 70.4871 282.706 69.2501C282.944 68.0131 282.944 65.9871 282.706 64.7501C282.467 63.5131 282.272 64.5251 282.272 67.0001ZM16.158 77.0001C16.158 78.3751 16.385 78.9381 16.662 78.2501C16.94 77.5631 16.94 76.4381 16.662 75.7501C16.385 75.0631 16.158 75.6251 16.158 77.0001ZM284.158 80.0001C284.158 81.3751 284.385 81.9381 284.662 81.2501C284.94 80.5631 284.94 79.4381 284.662 78.7501C284.385 78.0631 284.158 78.6251 284.158 80.0001ZM16.343 98.5001C16.346 102.9 16.522 104.576 16.733 102.224C16.945 99.8721 16.942 96.2721 16.727 94.2241C16.512 92.1761 16.339 94.1001 16.343 98.5001ZM256.195 104.5C256.215 106.15 256.439 106.704 256.693 105.731C256.947 104.758 256.93 103.408 256.656 102.731C256.382 102.054 256.175 102.85 256.195 104.5ZM294.079 149.583C294.127 150.748 294.364 150.985 294.683 150.188C294.972 149.466 294.936 148.603 294.604 148.271C294.272 147.939 294.036 148.529 294.079 149.583ZM0.365008 158.5C0.368008 164 0.536009 166.122 0.738009 163.216C0.941009 160.311 0.939012 155.811 0.734012 153.216C0.528012 150.622 0.363008 153 0.365008 158.5ZM293.232 160C293.232 161.925 293.438 162.713 293.689 161.75C293.941 160.787 293.941 159.213 293.689 158.25C293.438 157.287 293.232 158.075 293.232 160ZM265.813 169.683C266.534 169.972 267.397 169.936 267.729 169.604C268.061 169.272 267.471 169.036 266.417 169.079C265.252 169.127 265.015 169.364 265.813 169.683ZM277.813 169.683C278.534 169.972 279.397 169.936 279.729 169.604C280.061 169.272 279.471 169.036 278.417 169.079C277.252 169.127 277.015 169.364 277.813 169.683ZM6.26901 171.693C7.24201 171.947 8.59201 171.93 9.26901 171.656C9.94601 171.382 9.15001 171.175 7.50001 171.195C5.85001 171.215 5.29601 171.439 6.26901 171.693Z" fill="#F69A91"/>
<path fill-rule="evenodd" clip-rule="evenodd" d="M209.813 46.683C210.534 46.972 211.397 46.936 211.729 46.604C212.061 46.272 211.471 46.036 210.417 46.079C209.252 46.127 209.015 46.364 209.813 46.683ZM87.7501 54.662C88.4381 54.94 89.5631 54.94 90.2501 54.662C90.9381 54.385 90.3751 54.158 89.0001 54.158C87.6251 54.158 87.0631 54.385 87.7501 54.662ZM280.079 55.583C280.127 56.748 280.364 56.985 280.683 56.188C280.972 55.466 280.936 54.603 280.604 54.271C280.272 53.939 280.036 54.529 280.079 55.583ZM108.195 72.5C108.215 74.15 108.439 74.704 108.693 73.731C108.947 72.758 108.93 71.408 108.656 70.731C108.382 70.054 108.175 70.85 108.195 72.5ZM183.079 73.583C183.127 74.748 183.364 74.985 183.683 74.188C183.972 73.466 183.936 72.603 183.604 72.271C183.272 71.939 183.036 72.529 183.079 73.583ZM16.3201 85C16.3201 88.575 16.5021 90.037 16.7231 88.25C16.9451 86.463 16.9451 83.537 16.7231 81.75C16.5021 79.963 16.3201 81.425 16.3201 85ZM109.195 87.5C109.215 89.15 109.439 89.704 109.693 88.731C109.947 87.758 109.93 86.408 109.656 85.731C109.382 85.054 109.175 85.85 109.195 87.5ZM283.272 90C283.272 92.475 283.467 93.488 283.706 92.25C283.944 91.012 283.944 88.988 283.706 87.75C283.467 86.512 283.272 87.525 283.272 90ZM182.079 88.583C182.127 89.748 182.364 89.985 182.683 89.188C182.972 88.466 182.936 87.603 182.604 87.271C182.272 86.939 182.036 87.529 182.079 88.583ZM132.813 100.683C133.534 100.972 134.397 100.936 134.729 100.604C135.061 100.272 134.471 100.036 133.417 100.079C132.252 100.127 132.015 100.364 132.813 100.683ZM38.2721 105C38.2721 107.475 38.4671 108.488 38.7061 107.25C38.9441 106.012 38.9441 103.988 38.7061 102.75C38.4671 101.512 38.2721 102.525 38.2721 105ZM143.728 101.722C145.503 101.943 148.653 101.946 150.728 101.73C152.802 101.513 151.35 101.333 147.5 101.328C143.65 101.324 141.952 101.501 143.728 101.722ZM17.3001 117C17.3001 120.025 17.4871 121.262 17.7161 119.75C17.9451 118.238 17.9451 115.762 17.7161 114.25C17.4871 112.738 17.3001 113.975 17.3001 117ZM38.0791 128.583C38.1271 129.748 38.3641 129.985 38.6831 129.188C38.9721 128.466 38.9361 127.603 38.6041 127.271C38.2721 126.939 38.0361 127.529 38.0791 128.583ZM37.1951 157.5C37.2151 159.15 37.4391 159.704 37.6931 158.731C37.9471 157.758 37.9301 156.408 37.6561 155.731C37.3821 155.054 37.1751 155.85 37.1951 157.5Z" fill="#F1685B"/>
<path fill-rule="evenodd" clip-rule="evenodd" d="M134 2.49304C121.167 4.57104 110.71 7.03503 106.137 9.05703C103.722 10.126 101.327 11 100.815 11C99.252 11 74.671 22.106 71.942 24.045C70.536 25.044 67.3861 26.649 64.9421 27.611C62.4991 28.573 58.925 30.323 57 31.5C55.075 32.677 51.365 34.66 48.755 35.907C46.145 37.154 41.1911 40.722 37.7461 43.837C34.3001 46.952 29.398 51.201 26.851 53.28C23.914 55.678 21.3571 58.97 19.8601 62.28C17.5661 67.354 17.5 68.258 17.5 94.686V121.871L14.229 122.485C9.79505 123.317 4.29005 128.363 2.94205 132.832C2.33305 134.85 1.58905 143.284 1.28905 151.576C0.658051 168.989 1.18905 171 6.41205 171C8.25005 171 14.14 172.35 19.5 174C24.86 175.65 30.1201 177 31.1891 177C34.5571 177 37.1461 175.023 36.8431 172.681C36.6881 171.482 36.873 170 37.254 169.388C37.635 168.777 37.947 166.977 37.948 165.388C37.952 143.946 38.306 128.518 38.959 121.354C39.474 115.701 39.3941 112.002 38.7331 110.945C37.3911 108.796 39.3121 88.512 41.5671 81.016C43.4451 74.771 48.501 69.25 53.202 68.31C54.977 67.955 56.489 66.845 56.989 65.529C57.859 63.242 59.906 62.349 75 57.674C83.091 55.168 90.065 53.823 101.75 52.518L107 51.931L107.024 57.716C107.037 60.897 107.467 65.3 107.979 67.5C108.491 69.7 109.22 77.462 109.6 84.748C110.032 93.029 110.74 98.369 111.489 98.991C112.147 99.537 121.68 100.222 132.672 100.513C143.663 100.803 153.99 101.424 155.62 101.891C160.181 103.199 179.959 101.676 181.063 99.932C182.064 98.35 182.153 97.739 182.43 90.5C182.535 87.75 182.994 78.993 183.45 71.039C184.803 47.408 185.718 46.437 206.46 46.631C219.954 46.758 241.03 49.435 250.246 52.193C255.3 53.706 256.058 56.509 256.957 77C257.608 91.84 257.378 98.235 255.461 118.503C255.149 121.804 254.52 134.404 254.065 146.503C253.326 166.124 253.41 168.637 254.84 169.772C255.721 170.472 257.131 170.717 257.971 170.317C258.812 169.916 266.202 169.538 274.394 169.476C288.647 169.368 289.368 169.264 291.144 167.071C292.188 165.781 293.002 163.187 293.005 161.139C293.014 155.32 296.963 130.024 298.399 126.586C299.675 123.534 299.029 119.1 297.282 118.919C296.852 118.874 295.375 118.73 294 118.598C292.625 118.467 289.64 118.023 287.366 117.611L283.232 116.863L283.219 95.682C283.207 75.729 282.268 62.572 280.342 55.341C279.493 52.156 270.602 42.086 264.587 37.498C262.799 36.135 256.873 33.615 251.418 31.899C245.963 30.183 238.35 27.217 234.5 25.308C227.775 21.974 184.315 7.00004 181.363 7.00004C180.575 7.00004 178.836 6.28404 177.5 5.40804C174.619 3.52104 157.202 1.01904 148 1.17104C144.425 1.23004 138.125 1.82504 134 2.49304Z" fill="#ED3624"/>
</svg>
