<svg width="339" height="270" viewBox="0 0 339 270" fill="none" xmlns="http://www.w3.org/2000/svg">
<path fill-rule="evenodd" clip-rule="evenodd" d="M237.124 49.108C228.633 51.395 218.68 56.984 208.189 65.357C195.507 75.477 186.493 85.635 174.556 103.258L164.946 117.445L164.424 113.258C164.136 110.955 163.412 104.451 162.813 98.8041C161.549 86.8891 159.775 80.251 156.59 75.525C151.24 67.586 139.015 61.7181 130.489 62.9971C124.618 63.8771 116.777 67.731 111.907 72.131C99.258 83.558 74.627 120.899 59.836 151.071C51.095 168.901 43.855 194.415 43.845 207.42C43.835 221.052 58.712 228.441 68.903 219.867C72.932 216.476 74.411 212.562 75.093 203.477C76.112 189.921 81.975 173.486 93.075 153.071C99.136 141.923 102.95 135.601 115.414 116.045C120.269 108.427 131.283 95.608 131.943 96.807C132.326 97.502 133.38 107.06 134.286 118.047C135.222 129.404 137.013 142.995 138.438 149.547C139.958 156.537 141.268 166.798 141.768 175.629C142.674 191.642 143.692 194.904 148.955 198.651C153.117 201.615 160.5 202.316 164.696 200.146C169.722 197.548 173.609 191.361 174.364 184.76C174.721 181.631 176.097 174.141 177.42 168.114C181.545 149.326 197.034 120.949 213.614 101.804C221.92 92.2131 238.17 79.571 242.193 79.571C244.877 79.571 248.989 89.1991 250.519 99.0651C251.383 104.642 252.207 122.349 252.683 145.571C253.527 186.808 253.574 187.108 259.918 191.625C267.093 196.734 277.897 194.344 281.701 186.808C283.498 183.247 283.547 181.213 282.748 143.571C281.658 92.209 280.773 85.449 273.12 70.071C265.875 55.511 262.306 51.508 254.41 49.085C248.427 47.248 244.008 47.2541 237.124 49.108Z" fill="#F1C40F"/>
<path fill-rule="evenodd" clip-rule="evenodd" d="M109.714 73.3209C108.471 74.9069 108.506 74.9419 110.092 73.6989C111.055 72.9439 111.842 72.1559 111.842 71.9489C111.842 71.1259 111.021 71.6549 109.714 73.3209ZM279.921 91.1539C279.969 92.3189 280.206 92.5559 280.525 91.7589C280.814 91.0369 280.778 90.1739 280.446 89.8419C280.114 89.5099 279.878 90.0999 279.921 91.1539ZM131.921 99.1539C131.969 100.319 132.206 100.556 132.525 99.7589C132.814 99.0369 132.778 98.1739 132.446 97.8419C132.114 97.5099 131.878 98.0999 131.921 99.1539ZM163 100.571C163 101.946 163.227 102.509 163.504 101.821C163.782 101.134 163.782 100.009 163.504 99.3209C163.227 98.6339 163 99.1959 163 100.571ZM280.921 100.154C280.969 101.319 281.206 101.556 281.525 100.759C281.814 100.037 281.778 99.1739 281.446 98.8419C281.114 98.5099 280.878 99.0999 280.921 100.154ZM213.714 101.321C212.471 102.907 212.506 102.942 214.092 101.699C215.054 100.944 215.842 100.156 215.842 99.9489C215.842 99.1259 215.021 99.6549 213.714 101.321ZM251 107.571C251 108.946 251.227 109.509 251.504 108.821C251.782 108.134 251.782 107.009 251.504 106.321C251.227 105.634 251 106.196 251 107.571ZM133 108.571C133 109.946 133.227 110.509 133.504 109.821C133.782 109.134 133.782 108.009 133.504 107.321C133.227 106.634 133 107.196 133 108.571ZM282.074 112.571C282.074 114.496 282.28 115.284 282.531 114.321C282.783 113.358 282.783 111.784 282.531 110.821C282.28 109.858 282.074 110.646 282.074 112.571ZM163.921 112.154C163.969 113.319 164.206 113.556 164.525 112.759C164.814 112.037 164.778 111.174 164.446 110.842C164.114 110.51 163.878 111.1 163.921 112.154ZM134 120.571C134 121.946 134.227 122.509 134.504 121.821C134.782 121.134 134.782 120.009 134.504 119.321C134.227 118.634 134 119.196 134 120.571ZM252.257 141.571C252.257 151.746 252.406 155.909 252.587 150.821C252.769 145.733 252.769 137.408 252.587 132.321C252.406 127.233 252.257 131.396 252.257 141.571ZM134.921 133.154C134.969 134.319 135.206 134.556 135.525 133.759C135.814 133.037 135.778 132.174 135.446 131.842C135.114 131.51 134.878 132.1 134.921 133.154ZM283.114 168.571C283.114 171.046 283.309 172.059 283.548 170.821C283.786 169.583 283.786 167.559 283.548 166.321C283.309 165.083 283.114 166.096 283.114 168.571ZM140.921 168.154C140.969 169.319 141.206 169.556 141.525 168.759C141.814 168.037 141.778 167.174 141.446 166.842C141.114 166.51 140.878 167.1 140.921 168.154ZM252.921 180.154C252.969 181.319 253.206 181.556 253.525 180.759C253.814 180.037 253.778 179.174 253.446 178.842C253.114 178.51 252.878 179.1 252.921 180.154Z" fill="#F0A114"/>
<path fill-rule="evenodd" clip-rule="evenodd" d="M115.655 1.25408C116.376 1.54308 117.239 1.50708 117.571 1.17508C117.903 0.843079 117.313 0.607077 116.259 0.650077C115.094 0.698077 114.857 0.935077 115.655 1.25408ZM334.921 41.1541C334.969 42.3191 335.206 42.5561 335.525 41.7591C335.814 41.0371 335.778 40.1741 335.446 39.8421C335.114 39.5101 334.878 40.1001 334.921 41.1541ZM8.92107 48.1541C8.96907 49.3191 9.20607 49.5561 9.52507 48.7591C9.81407 48.0371 9.77807 47.1741 9.44607 46.8421C9.11407 46.5101 8.87807 47.1001 8.92107 48.1541ZM150.842 68.8841C150.842 69.0561 152.305 70.5191 154.092 72.1341L157.342 75.0711L154.405 71.8211C151.667 68.7921 150.842 68.1111 150.842 68.8841ZM196.766 74.3211L194.342 77.0711L197.092 74.6471C198.604 73.3131 199.842 72.0761 199.842 71.8971C199.842 71.1121 199.032 71.7511 196.766 74.3211ZM106.247 76.8211L104.342 79.0711L106.592 77.1661C108.706 75.3761 109.297 74.5711 108.497 74.5711C108.307 74.5711 107.295 75.5831 106.247 76.8211ZM99.7141 85.3211C98.4711 86.9071 98.5061 86.9421 100.092 85.6991C101.758 84.3921 102.287 83.5711 101.464 83.5711C101.257 83.5711 100.469 84.3581 99.7141 85.3211ZM186.247 85.8211L184.342 88.0711L186.592 86.1661C188.706 84.3761 189.297 83.5711 188.497 83.5711C188.307 83.5711 187.295 84.5831 186.247 85.8211ZM95.7141 90.3211C94.4711 91.9071 94.5061 91.9421 96.0921 90.6991C97.0551 89.9441 97.8421 89.1561 97.8421 88.9491C97.8421 88.1261 97.0211 88.6551 95.7141 90.3211ZM218.279 96.8211L215.342 100.071L218.592 97.1341C221.621 94.3961 222.302 93.5711 221.529 93.5711C221.357 93.5711 219.894 95.0341 218.279 96.8211ZM208.714 107.321C207.471 108.907 207.506 108.942 209.092 107.699C210.054 106.944 210.842 106.156 210.842 105.949C210.842 105.126 210.021 105.655 208.714 107.321ZM118.714 111.321C117.471 112.907 117.506 112.942 119.092 111.699C120.758 110.392 121.287 109.571 120.464 109.571C120.257 109.571 119.469 110.358 118.714 111.321ZM283.253 147.571C283.253 157.196 283.403 161.134 283.587 156.321C283.77 151.508 283.77 143.633 283.587 138.821C283.403 134.009 283.253 137.946 283.253 147.571ZM59.3011 149.638C58.9381 150.224 58.8561 150.919 59.1181 151.181C59.3801 151.443 59.8611 150.963 60.1871 150.114C60.8631 148.352 60.2871 148.042 59.3011 149.638ZM93.8421 151.571C93.2531 152.671 92.9971 153.571 93.2721 153.571C93.5471 153.571 94.2531 152.671 94.8421 151.571C95.4311 150.471 95.6871 149.571 95.4121 149.571C95.1371 149.571 94.4311 150.471 93.8421 151.571ZM252.114 163.571C252.114 166.046 252.309 167.059 252.548 165.821C252.786 164.583 252.786 162.559 252.548 161.321C252.309 160.083 252.114 161.096 252.114 163.571ZM140.921 171.154C140.969 172.319 141.206 172.556 141.525 171.759C141.814 171.037 141.778 170.174 141.446 169.842C141.114 169.51 140.878 170.1 140.921 171.154ZM43.9211 199.154C43.9691 200.319 44.2061 200.556 44.5251 199.759C44.8141 199.037 44.7781 198.174 44.4461 197.842C44.1141 197.51 43.8781 198.1 43.9211 199.154ZM74.9211 202.154C74.9691 203.319 75.2061 203.556 75.5251 202.759C75.8141 202.037 75.7781 201.174 75.4461 200.842C75.1141 200.51 74.8781 201.1 74.9211 202.154ZM157.655 202.254C158.376 202.543 159.239 202.507 159.571 202.175C159.903 201.843 159.313 201.607 158.259 201.65C157.094 201.698 156.857 201.935 157.655 202.254ZM26.6551 263.254C27.3761 263.543 28.2391 263.507 28.5711 263.175C28.9031 262.843 28.3131 262.607 27.2591 262.65C26.0941 262.698 25.8571 262.935 26.6551 263.254ZM159.592 267.233C160.28 267.511 161.405 267.511 162.092 267.233C162.78 266.956 162.217 266.729 160.842 266.729C159.467 266.729 158.905 266.956 159.592 267.233Z" fill="#EF7D1A"/>
<path fill-rule="evenodd" clip-rule="evenodd" d="M137.148 0.318006C143.642 0.493006 153.992 0.492003 160.148 0.317003C166.305 0.142003 160.992 -0.000994787 148.342 5.21312e-06C135.692 5.21312e-06 130.655 0.144006 137.148 0.318006ZM111.655 1.254C112.376 1.543 113.239 1.507 113.571 1.175C113.903 0.843004 113.313 0.607003 112.259 0.650003C111.094 0.698003 110.857 0.935003 111.655 1.254ZM184.655 1.254C185.376 1.543 186.239 1.507 186.571 1.175C186.903 0.843004 186.313 0.607003 185.259 0.650003C184.094 0.698003 183.857 0.935003 184.655 1.254ZM207.655 3.254C208.376 3.543 209.239 3.507 209.571 3.175C209.903 2.843 209.313 2.607 208.259 2.65C207.094 2.698 206.857 2.935 207.655 3.254ZM269.092 9.287C270.604 9.516 273.08 9.516 274.592 9.287C276.104 9.058 274.867 8.871 271.842 8.871C268.817 8.871 267.58 9.058 269.092 9.287ZM289.655 10.254C290.376 10.543 291.239 10.507 291.571 10.175C291.903 9.843 291.313 9.60701 290.259 9.65001C289.094 9.69801 288.857 9.935 289.655 10.254ZM15.714 27.321C14.471 28.907 14.506 28.942 16.092 27.699C17.758 26.392 18.287 25.571 17.464 25.571C17.257 25.571 16.469 26.358 15.714 27.321ZM335 54.571C335 55.946 335.227 56.509 335.504 55.821C335.782 55.134 335.782 54.009 335.504 53.321C335.227 52.634 335 53.196 335 54.571ZM7.19701 87.071C7.19401 92.021 7.36301 94.172 7.57301 91.851C7.78201 89.53 7.78501 85.48 7.57801 82.851C7.37201 80.222 7.20001 82.121 7.19701 87.071ZM335.037 96.071C335.057 97.721 335.281 98.275 335.535 97.302C335.789 96.329 335.772 94.979 335.498 94.302C335.224 93.625 335.017 94.421 335.037 96.071ZM4.22701 118.571C4.22701 125.446 4.38701 128.259 4.58201 124.821C4.77801 121.384 4.77801 115.759 4.58201 112.321C4.38701 108.884 4.22701 111.696 4.22701 118.571ZM4.12801 144.071C4.13601 146.821 4.33001 147.827 4.56001 146.307C4.78901 144.787 4.78301 142.537 4.54601 141.307C4.30901 140.077 4.12101 141.321 4.12801 144.071ZM338.128 162.071C338.136 164.821 338.33 165.827 338.56 164.307C338.789 162.787 338.783 160.537 338.546 159.307C338.309 158.077 338.121 159.321 338.128 162.071ZM3.00001 164.571C3.00001 165.946 3.22701 166.509 3.50401 165.821C3.78201 165.134 3.78201 164.009 3.50401 163.321C3.22701 162.634 3.00001 163.196 3.00001 164.571ZM2.00001 180.571C2.00001 181.946 2.22701 182.509 2.50401 181.821C2.78201 181.134 2.78201 180.009 2.50401 179.321C2.22701 178.634 2.00001 179.196 2.00001 180.571ZM1.00001 199.571C1.00001 200.946 1.22701 201.509 1.50401 200.821C1.78201 200.134 1.78201 199.009 1.50401 198.321C1.22701 197.634 1.00001 198.196 1.00001 199.571ZM0.114014 223.571C0.114014 226.046 0.309012 227.059 0.548012 225.821C0.786012 224.583 0.786012 222.559 0.548012 221.321C0.309012 220.083 0.114014 221.096 0.114014 223.571ZM317.247 235.821L315.342 238.071L317.592 236.166C319.706 234.376 320.297 233.571 319.497 233.571C319.307 233.571 318.295 234.583 317.247 235.821ZM49.592 263.233C50.28 263.511 51.405 263.511 52.092 263.233C52.78 262.956 52.217 262.729 50.842 262.729C49.467 262.729 48.905 262.956 49.592 263.233ZM115.111 267.264C116.084 267.518 117.434 267.501 118.111 267.227C118.788 266.953 117.992 266.746 116.342 266.766C114.692 266.786 114.138 267.01 115.111 267.264ZM240.592 268.233C241.28 268.511 242.405 268.511 243.092 268.233C243.78 267.956 243.217 267.729 241.842 267.729C240.467 267.729 239.905 267.956 240.592 268.233ZM195.092 269.316C199.905 269.499 207.78 269.499 212.592 269.316C217.405 269.132 213.467 268.982 203.842 268.982C194.217 268.982 190.28 269.132 195.092 269.316Z" fill="#FBCDC8"/>
<path fill-rule="evenodd" clip-rule="evenodd" d="M181.655 1.25408C182.376 1.54308 183.239 1.50708 183.571 1.17508C183.903 0.843079 183.313 0.607077 182.259 0.650077C181.094 0.698077 180.857 0.935077 181.655 1.25408ZM203.111 3.26408C204.084 3.51808 205.434 3.50108 206.111 3.22708C206.788 2.95308 205.992 2.74608 204.342 2.76608C202.692 2.78608 202.138 3.01008 203.111 3.26408ZM217.655 4.25408C218.376 4.54308 219.239 4.50708 219.571 4.17508C219.903 3.84308 219.313 3.60708 218.259 3.65008C217.094 3.69808 216.857 3.93508 217.655 4.25408ZM228.655 5.25408C229.376 5.54308 230.239 5.50708 230.571 5.17508C230.903 4.84308 230.313 4.60708 229.259 4.65008C228.094 4.69808 227.857 4.93508 228.655 5.25408ZM236.655 6.25408C237.376 6.54308 238.239 6.50708 238.571 6.17508C238.903 5.84308 238.313 5.60708 237.259 5.65008C236.094 5.69808 235.857 5.93508 236.655 6.25408ZM251.655 8.25408C252.376 8.54308 253.239 8.50708 253.571 8.17508C253.903 7.84308 253.313 7.60708 252.259 7.65008C251.094 7.69808 250.857 7.93508 251.655 8.25408ZM262.092 9.26008C263.054 9.51208 264.63 9.51208 265.592 9.26008C266.554 9.00908 265.767 8.80308 263.842 8.80308C261.917 8.80308 261.13 9.00908 262.092 9.26008ZM286.655 10.2541C287.376 10.5431 288.239 10.5071 288.571 10.1751C288.903 9.84307 288.313 9.60708 287.259 9.65008C286.094 9.69808 285.857 9.93508 286.655 10.2541ZM8.92101 45.1541C8.96901 46.3191 9.206 46.5561 9.525 45.7591C9.814 45.0371 9.778 44.1741 9.446 43.8421C9.114 43.5101 8.87801 44.1001 8.92101 45.1541ZM335.128 48.0711C335.136 50.8211 335.33 51.8271 335.56 50.3071C335.789 48.7871 335.783 46.5371 335.546 45.3071C335.309 44.0771 335.121 45.3211 335.128 48.0711ZM9.094 53.0711C9.105 55.2711 9.31 56.0531 9.549 54.8091C9.788 53.5651 9.779 51.7651 9.529 50.8091C9.279 49.8531 9.083 50.8711 9.094 53.0711ZM334.921 100.154C334.969 101.319 335.206 101.556 335.525 100.759C335.814 100.037 335.778 99.1741 335.446 98.8421C335.114 98.5101 334.878 99.1001 334.921 100.154ZM335.921 114.154C335.969 115.319 336.206 115.556 336.525 114.759C336.814 114.037 336.778 113.174 336.446 112.842C336.114 112.51 335.878 113.1 335.921 114.154ZM337 127.571C337 128.946 337.227 129.509 337.504 128.821C337.782 128.134 337.782 127.009 337.504 126.321C337.227 125.634 337 126.196 337 127.571ZM4 150.571C4 151.946 4.22701 152.509 4.50401 151.821C4.78201 151.134 4.78201 150.009 4.50401 149.321C4.22701 148.634 4 149.196 4 150.571ZM3.037 169.071C3.057 170.721 3.281 171.275 3.535 170.302C3.789 169.329 3.772 167.979 3.498 167.302C3.224 166.625 3.017 167.421 3.037 169.071ZM2.037 185.071C2.057 186.721 2.281 187.275 2.535 186.302C2.789 185.329 2.772 183.979 2.498 183.302C2.224 182.625 2.017 183.421 2.037 185.071ZM1.037 204.071C1.057 205.721 1.281 206.275 1.535 205.302C1.789 204.329 1.772 202.979 1.498 202.302C1.224 201.625 1.017 202.421 1.037 204.071ZM0.152 233.071C0.157 236.371 0.344001 237.6 0.567001 235.803C0.789001 234.006 0.784999 231.306 0.556999 229.803C0.327999 228.3 0.146 229.771 0.152 233.071ZM0 242.571C0 243.946 0.227005 244.509 0.504005 243.821C0.782005 243.134 0.782005 242.009 0.504005 241.321C0.227005 240.634 0 241.196 0 242.571ZM63.592 262.277C64.83 262.515 66.854 262.515 68.092 262.277C69.33 262.038 68.317 261.843 65.842 261.843C63.367 261.843 62.354 262.038 63.592 262.277ZM46.655 263.254C47.376 263.543 48.239 263.507 48.571 263.175C48.903 262.843 48.313 262.607 47.259 262.65C46.094 262.698 45.857 262.935 46.655 263.254ZM101.655 266.254C102.376 266.543 103.239 266.507 103.571 266.175C103.903 265.843 103.313 265.607 102.259 265.65C101.094 265.698 100.857 265.935 101.655 266.254ZM128.592 267.317C134.229 267.495 143.455 267.495 149.092 267.317C154.729 267.139 150.117 266.993 138.842 266.993C127.567 266.993 122.955 267.139 128.592 267.317Z" fill="#F69A91"/>
<path fill-rule="evenodd" clip-rule="evenodd" d="M213.655 4.25408C214.376 4.54308 215.239 4.50708 215.571 4.17508C215.903 3.84308 215.313 3.60708 214.259 3.65008C213.094 3.69808 212.857 3.93508 213.655 4.25408ZM8.92098 59.1541C8.96898 60.3191 9.20598 60.5561 9.52498 59.7591C9.81398 59.0371 9.77798 58.1741 9.44598 57.8421C9.11398 57.5101 8.87798 58.1001 8.92098 59.1541ZM191.766 79.3211L189.342 82.0711L192.092 79.6471C193.604 78.3131 194.842 77.0761 194.842 76.8971C194.842 76.1121 194.032 76.7511 191.766 79.3211ZM249.921 102.154C249.969 103.319 250.206 103.556 250.525 102.759C250.814 102.037 250.778 101.174 250.446 100.842C250.114 100.51 249.878 101.1 249.921 102.154ZM131.921 103.154C131.969 104.319 132.206 104.556 132.525 103.759C132.814 103.037 132.778 102.174 132.446 101.842C132.114 101.51 131.878 102.1 131.921 103.154ZM282 105.571C282 106.946 282.227 107.509 282.504 106.821C282.782 106.134 282.782 105.009 282.504 104.321C282.227 103.634 282 104.196 282 105.571ZM164 106.571C164 107.946 164.227 108.509 164.504 107.821C164.782 107.134 164.782 106.009 164.504 105.321C164.227 104.634 164 105.196 164 106.571ZM251.074 114.571C251.074 116.496 251.28 117.284 251.531 116.321C251.783 115.358 251.783 113.784 251.531 112.821C251.28 111.858 251.074 112.646 251.074 114.571ZM132.921 114.154C132.969 115.319 133.206 115.556 133.525 114.759C133.814 114.037 133.778 113.174 133.446 112.842C133.114 112.51 132.878 113.1 132.921 114.154ZM283.142 125.571C283.142 128.596 283.329 129.833 283.558 128.321C283.787 126.809 283.787 124.333 283.558 122.821C283.329 121.309 283.142 122.546 283.142 125.571ZM134 126.571C134 127.946 134.227 128.509 134.504 127.821C134.782 127.134 134.782 126.009 134.504 125.321C134.227 124.634 134 125.196 134 126.571ZM3.92098 156.154C3.96898 157.319 4.20598 157.556 4.52498 156.759C4.81398 156.037 4.77798 155.174 4.44598 154.842C4.11398 154.51 3.87798 155.1 3.92098 156.154ZM139.921 163.154C139.969 164.319 140.206 164.556 140.525 163.759C140.814 163.037 140.778 162.174 140.446 161.842C140.114 161.51 139.878 162.1 139.921 163.154ZM252.094 171.071C252.105 173.271 252.31 174.053 252.549 172.809C252.788 171.565 252.779 169.765 252.529 168.809C252.279 167.853 252.083 168.871 252.094 171.071ZM2.92098 173.154C2.96898 174.319 3.20598 174.556 3.52498 173.759C3.81398 173.037 3.77798 172.174 3.44598 171.842C3.11398 171.51 2.87798 172.1 2.92098 173.154ZM141.094 176.071C141.105 178.271 141.31 179.053 141.549 177.809C141.788 176.565 141.779 174.765 141.529 173.809C141.279 172.853 141.083 173.871 141.094 176.071ZM284 180.571C284 181.946 284.227 182.509 284.504 181.821C284.782 181.134 284.782 180.009 284.504 179.321C284.227 178.634 284 179.196 284 180.571ZM1.92098 189.154C1.96898 190.319 2.20598 190.556 2.52498 189.759C2.81398 189.037 2.77798 188.174 2.44598 187.842C2.11398 187.51 1.87798 188.1 1.92098 189.154ZM266.592 195.233C267.28 195.511 268.405 195.511 269.092 195.233C269.78 194.956 269.217 194.729 267.842 194.729C266.467 194.729 265.905 194.956 266.592 195.233ZM1.03698 210.071C1.05698 211.721 1.28098 212.275 1.53498 211.302C1.78898 210.329 1.77198 208.979 1.49798 208.302C1.22398 207.625 1.01698 208.421 1.03698 210.071ZM69.714 219.321C68.471 220.907 68.506 220.942 70.092 219.699C71.055 218.944 71.842 218.156 71.842 217.949C71.842 217.126 71.021 217.655 69.714 219.321ZM56.592 262.233C57.28 262.511 58.405 262.511 59.092 262.233C59.78 261.956 59.217 261.729 57.842 261.729C56.467 261.729 55.905 261.956 56.592 262.233ZM37.592 263.277C38.83 263.515 40.854 263.515 42.092 263.277C43.33 263.038 42.317 262.843 39.842 262.843C37.367 262.843 36.354 263.038 37.592 263.277ZM163.655 267.254C164.376 267.543 165.239 267.507 165.571 267.175C165.903 266.843 165.313 266.607 164.259 266.65C163.094 266.698 162.857 266.935 163.655 267.254ZM234.655 268.254C235.376 268.543 236.239 268.507 236.571 268.175C236.903 267.843 236.313 267.607 235.259 267.65C234.094 267.698 233.857 267.935 234.655 268.254Z" fill="#EE5A1F"/>
<path fill-rule="evenodd" clip-rule="evenodd" d="M109.842 1.73411C104.617 2.22411 92.504 4.19911 82.924 6.12211C73.345 8.04611 60.97 10.2941 55.424 11.1181C36.127 13.9861 28.223 16.9401 19.676 24.4781C17.109 26.7421 13.969 30.7261 12.698 33.3321C10.25 38.3511 9.76004 43.5101 8.30704 79.5711C7.94904 88.4381 7.07404 96.9661 6.26204 99.4991C5.20104 102.807 4.84104 109.893 4.83704 127.499C4.83504 140.464 4.12404 161.871 3.25804 175.071C2.39104 188.271 1.60604 210.161 1.51204 223.715L1.34204 248.36L4.44704 252.208C6.66904 254.964 9.79404 257.032 15.447 259.487L23.342 262.917L39.342 262.494C64.922 261.818 78.603 262.257 89.842 264.115C100.181 265.825 109.662 266.178 198.664 268.171C229.858 268.87 246.43 267.785 260.971 264.092C292.23 256.154 318.634 239.052 327.385 221.077C330.117 215.465 331.417 210.49 333.919 196.071C337.972 172.72 338.738 149.313 336.437 119.169C335.462 106.391 334.842 86.2541 334.842 67.3561V36.4451L332.14 30.9271C330.654 27.8921 328.115 24.2951 326.498 22.9351C316.207 14.2761 296.419 9.57411 270.254 9.57211C265.255 9.57111 252.655 8.48012 242.254 7.14712C231.852 5.81412 219.067 4.43711 213.842 4.08811C208.617 3.73811 197.407 2.80412 188.931 2.01212C171.902 0.420117 125.588 0.257113 109.842 1.73411ZM257.351 49.4361C262.447 51.7511 266.485 56.3661 271.732 65.8721C281.595 83.7391 283.533 97.8871 283.959 155.135C284.16 182.201 284.044 184.422 282.259 187.454C278.309 194.163 269.665 196.914 262.498 193.743C253.188 189.625 251.891 183.982 251.862 147.466C251.842 122.662 250.608 100.964 248.741 92.6041C248.185 90.1111 246.611 86.1591 245.244 83.8221L242.759 79.5731L239.004 81.4891C233.164 84.4681 219.759 95.7101 213.685 102.723C204.498 113.329 193 130.954 186.767 143.983C180.795 156.467 176.736 170.268 175.271 183.071C173.771 196.175 165.513 204.045 155.276 202.125C150.864 201.297 144.289 195.5 142.948 191.255C142.394 189.504 141.489 181.771 140.936 174.071C140.382 166.371 138.826 154.896 137.478 148.571C136.13 142.246 134.28 128.077 133.366 117.085C132.452 106.093 131.559 96.9541 131.381 96.7761C130.791 96.1861 119.882 110.882 111.12 124.071C89.963 155.916 78.604 181.226 75.571 203.286C74.008 214.649 71.96 218.98 66.858 221.708C57.682 226.614 46.781 222.006 43.823 211.97C41.512 204.129 46.451 181.278 54.962 160.437C65.031 135.779 91.628 93.0901 108.243 74.9181C115.126 67.3911 124.914 62.5711 133.317 62.5711C141.059 62.5711 150.146 66.7711 155.214 72.6931C160.621 79.0091 164.784 96.2281 164.856 112.571L164.876 117.071L167.609 112.531C172.846 103.833 184.263 88.0231 190.282 81.1371C202.591 67.0541 221.207 53.4781 233.681 49.4891C241.213 47.0801 252.111 47.0561 257.351 49.4361Z" fill="#ED3624"/>
</svg>
