<svg width="507" height="236" viewBox="0 0 507 236" fill="none" xmlns="http://www.w3.org/2000/svg">
<path fill-rule="evenodd" clip-rule="evenodd" d="M49.4512 0.511614C36.6802 2.14261 26.1562 6.91461 15.4192 15.9406C9.80216 20.6626 4.30417 28.8446 3.41017 33.8116C3.04317 35.8546 2.11417 38.0476 1.34617 38.6846C-0.925834 40.5706 -0.108836 48.3706 2.21016 46.9376C2.82916 46.5546 2.96217 46.7696 2.53517 47.4616C2.13617 48.1066 3.39817 52.7886 5.34017 57.8666C13.8832 80.2126 19.2462 106.736 26.4882 162.457C28.9972 181.764 29.0702 183.523 27.8962 196.457C26.7792 208.769 26.8282 210.682 28.3992 216.098C29.3572 219.398 30.6032 222.661 31.1682 223.348C32.3552 224.791 36.5682 225.027 37.3902 223.696C38.6592 221.644 49.2822 215.405 56.2792 212.603C65.2912 208.995 71.0702 208.773 80.4682 211.676C84.1672 212.819 88.2582 213.487 89.5582 213.161C92.7532 212.358 93.7772 208.168 91.4152 205.558C89.9482 203.937 89.9012 203.598 91.1412 203.598C91.9662 203.598 93.4762 202.676 94.4962 201.548C95.9892 199.899 96.3512 197.879 96.3512 191.211V182.924L100.119 187.691C104.398 193.104 110.412 197.531 118.733 201.39C123.623 203.658 126.117 204.1 135.949 204.436C149.838 204.911 157.857 203.615 172.233 198.571C190.684 192.097 203.021 183.174 220.931 163.35C233.268 149.694 238.844 139.746 242.651 124.598C243.725 120.327 245.232 120.217 253.146 123.836C256.279 125.268 262.354 127.639 266.646 129.105C277.229 132.72 285.448 137.437 293.174 144.329C296.732 147.502 302.868 152.945 306.811 156.425C315.59 164.172 321.765 172.949 322.562 178.815C323.104 182.8 322.913 183.269 319.814 185.551C315.418 188.788 307.525 189.35 297.268 187.156C287.51 185.069 284.508 183.95 279.372 180.487C273.953 176.834 264.824 167.275 262.948 163.291C260.69 158.496 257.251 158.552 250.714 163.488C244.918 167.863 225.724 177.418 216.951 180.295C211.923 181.943 211.424 182.376 211.138 185.34C210.813 188.714 212.343 191.091 221.438 201.342C225.741 206.192 241.292 218.263 246.901 221.107C252.36 223.875 272.549 230.194 282.951 232.39C290.241 233.929 298.302 234.554 317.605 235.077C341.527 235.725 343.191 235.649 351.605 233.533C363.681 230.496 366.902 228.669 371.941 221.995C380.102 211.186 381.311 204.176 377.27 191.098C373.334 178.361 367.829 171.712 349.951 158.102C346.376 155.381 339.79 149.917 335.315 145.961C330.841 142.005 325.832 138.071 324.184 137.219C322.537 136.367 320.061 134.329 318.681 132.689C317.302 131.05 315.898 129.909 315.562 130.153C315.226 130.398 315.172 130.302 315.442 129.94C315.713 129.578 315.404 128.644 314.757 127.864C313.138 125.914 314.725 125.052 323.951 122.871C335.007 120.258 348.21 120.615 359.451 123.832C364.401 125.249 369.85 126.698 371.56 127.052C373.271 127.406 375.942 129.023 377.498 130.647C380.555 133.838 383.402 134.33 386.262 132.161C387.417 131.286 392.313 130.551 399.762 130.136C406.191 129.777 412.755 129.234 414.349 128.929L417.247 128.374L415.084 131.411C411.635 136.255 404.159 160.129 401.851 173.67C400.247 183.079 399.845 188.77 400.193 197.098C400.928 214.649 405.121 223.615 415.197 229.175C423.237 233.613 432.165 233.207 456.451 227.298C466.901 224.755 481.894 221.47 489.769 219.997C502.017 217.707 504.307 216.985 505.602 215.008C507.436 212.208 506.601 208.939 503.828 208.059C502.559 207.656 502.02 206.861 502.379 205.925C502.694 205.105 503.244 198.652 503.602 191.586C504.307 177.657 503.424 173.2 499.729 172.028C498.481 171.631 496.727 172.124 495.087 173.332C493.637 174.4 486.151 177.097 478.451 179.325C459.469 184.817 459.287 184.849 455.266 183.395C451.796 182.14 451.74 182.031 452.266 177.607C453.778 164.896 465.046 143.278 471.951 139.841C474.703 138.47 475.443 137.511 475.412 135.348C475.39 133.836 475.39 132.59 475.412 132.58C475.433 132.57 479.495 132.137 484.437 131.617C491.221 130.904 493.722 130.234 494.641 128.885C495.311 127.902 496.514 126.423 497.314 125.598C500.091 122.735 501.247 119.019 500.054 116.79C499.442 115.646 498.951 109.832 498.951 103.72C498.951 93.5036 498.776 92.5066 496.526 89.9036L494.101 87.0976L481.914 87.3506L469.727 87.6036L470.297 84.3506C471.165 79.3996 471.385 54.3896 470.582 51.9396C469.479 48.5726 467.18 48.3796 462.296 51.2416C457.83 53.8586 457.68 53.8746 444.122 53.1776C436.603 52.7906 430.023 52.0516 429.501 51.5356C428.978 51.0196 427.076 50.5976 425.274 50.5976C418.663 50.5976 417.97 54.6456 420.543 78.2356L421.212 84.3726L414.173 85.5596C410.302 86.2126 400.906 86.8266 393.293 86.9226C380.261 87.0876 379.1 86.9416 373.451 84.4286C369.892 82.8446 362.162 80.8636 354.451 79.5586C343.162 77.6476 339.082 77.4306 323.451 77.9116C287.239 79.0266 266.688 85.5346 250.101 101.139L242.41 108.374L239.534 102.236C234.156 90.7606 219.877 79.5816 204.951 75.1616C192.221 71.3926 173.733 72.1696 159.651 77.0666C155.326 78.5716 151.607 79.2536 149.552 78.9206C145.125 78.2016 134.966 80.9456 127.564 84.8576C119.194 89.2816 106.315 102.186 101.374 111.098C94.7752 123 89.1462 142.056 88.8602 153.458C88.7742 156.891 88.6612 156.756 86.8842 151.098C84.5892 143.794 76.9512 105.733 76.9512 101.604C76.9512 99.2256 77.4792 98.5036 79.6062 97.9696C84.7892 96.6686 100.472 85.0746 110.46 75.1576C123.43 62.2826 128.036 53.8496 128.739 41.6906C129.36 30.9696 127.367 25.2406 120.397 17.7126C114.048 10.8546 106.676 6.69262 94.4242 3.04962C86.8002 0.782616 83.1962 0.334616 70.4512 0.0636157C62.2012 -0.112384 52.7512 0.0896137 49.4512 0.511614ZM54.9512 10.4426C54.9512 10.9076 54.1082 12.0506 53.0782 12.9826C51.3092 14.5836 51.1762 14.5676 50.6872 12.6956C50.4022 11.6056 50.4202 10.4626 50.7262 10.1556C51.6052 9.27761 54.9512 9.50461 54.9512 10.4426ZM76.7862 10.6296C75.7492 11.2356 73.6752 11.2616 71.2862 10.7006C67.4622 9.80161 67.4672 9.79861 72.9512 9.72861C76.9622 9.67761 78.0002 9.92161 76.7862 10.6296ZM91.3852 12.4086C91.8982 12.7026 91.4482 13.2836 90.3852 13.6996C87.2182 14.9396 86.2132 14.7056 85.6622 12.6026C85.2122 10.8776 85.5012 10.6936 87.7962 11.2406C89.2562 11.5886 90.8712 12.1146 91.3852 12.4086ZM38.9602 14.0866C38.2802 14.9056 37.2772 15.2996 36.7312 14.9616C36.1272 14.5886 36.2702 14.0106 37.0942 13.4876C39.2512 12.1216 40.3102 12.4606 38.9602 14.0866ZM109.481 20.0526C123.863 31.0226 122.95 48.0186 107.073 64.8526C99.4822 72.9026 88.5452 82.0466 81.8632 85.9306C76.5792 89.0026 75.9512 89.1316 75.9512 87.1476C75.9512 86.3496 75.2142 85.2846 74.3122 84.7796C72.8312 83.9516 72.8972 83.4656 74.9972 79.7306C76.5832 76.9086 77.9942 75.5976 79.4482 75.5976C80.6192 75.5976 82.8842 74.2336 84.4812 72.5656C86.8162 70.1296 87.9322 69.6536 90.1662 70.1446C93.1972 70.8106 94.8222 69.4856 102.266 60.2786C104.365 57.6836 106.465 55.7966 106.932 56.0866C108.574 57.1006 112.988 54.6116 114.177 52.0006C115.248 49.6506 115.107 49.1286 112.889 47.2206L110.398 45.0786L112.658 41.0876C113.901 38.8936 114.926 36.3106 114.935 35.3476C114.96 32.6546 111.281 29.5976 108.014 29.5976C105.238 29.5976 105.107 29.4126 105.622 26.2346C106.334 21.8526 104.595 18.7646 100.439 17.0276C98.5962 16.2576 96.7992 15.1606 96.4462 14.5886C95.3902 12.8806 105.798 17.2436 109.481 20.0526ZM19.8342 28.8476C18.6862 31.7346 17.3542 35.1096 16.8742 36.3476C16.3932 37.5856 15.3142 38.5976 14.4762 38.5976C12.6742 38.5976 12.4692 35.4056 14.0712 32.2816C15.0822 30.3096 20.9272 23.5976 21.6332 23.5976C21.7922 23.5976 20.9832 25.9596 19.8342 28.8476ZM93.4072 34.7236C91.4422 40.2916 91.5752 42.9476 93.9242 45.0726C95.3572 46.3696 96.7652 46.6846 99.0692 46.2236L102.241 45.5896L97.8462 50.4586C94.3932 54.2836 92.9522 55.2216 91.1212 54.8336C89.7352 54.5406 87.7082 55.1206 86.1212 56.2656C84.6522 57.3246 82.6672 58.0246 81.7102 57.8226C80.2302 57.5096 80.4962 56.7646 83.4852 52.8486C87.6762 47.3606 88.3492 45.0886 87.7202 38.5436C87.3232 34.4086 87.5172 33.5976 88.9072 33.5976C89.8212 33.5976 91.4422 32.9366 92.5102 32.1296C93.5772 31.3216 94.5442 30.6466 94.6572 30.6296C94.7702 30.6116 94.2072 32.4546 93.4072 34.7236ZM40.0642 34.6216C39.8522 35.4336 39.4552 37.2226 39.1842 38.5976C38.7302 40.8946 34.4642 45.4766 32.7012 45.5616C32.2892 45.5816 31.9512 43.7146 31.9512 41.4116C31.9512 38.4686 32.6082 36.5276 34.1642 34.8706C36.5712 32.3086 40.7162 32.1336 40.0642 34.6216ZM72.4052 34.0136C74.2702 34.7936 76.5592 36.5956 77.4922 38.0196C78.9232 40.2036 78.9972 41.0726 77.9642 43.5656C76.4332 47.2616 68.2362 55.0176 63.4442 57.3026C60.3062 58.7986 59.7092 58.8326 58.8882 57.5606C57.3942 55.2456 54.9512 46.5056 54.9512 43.4726C54.9512 41.7976 54.1222 40.1306 52.8442 39.2356C50.7622 37.7776 50.7772 37.7386 54.0882 36.0266C61.1472 32.3766 66.9572 31.7376 72.4052 34.0136ZM17.8702 53.4006C17.2572 55.1586 16.4182 56.5976 16.0052 56.5976C15.5922 56.5976 14.5572 54.8226 13.7052 52.6536C12.2002 48.8236 12.2182 48.6996 14.3032 48.3476C17.8202 47.7546 19.1712 49.6686 17.8702 53.4006ZM49.9342 62.3476C49.9442 62.4846 48.9152 62.5976 47.6482 62.5976C46.3812 62.5976 43.3892 64.0356 40.9992 65.7936C38.6092 67.5506 36.8332 68.5326 37.0522 67.9736C37.2722 67.4156 39.2302 63.0556 41.4052 58.2856L45.3602 49.6126L47.6392 55.8546C48.8922 59.2886 49.9252 62.2106 49.9342 62.3476ZM461.878 66.5976C461.814 69.9316 460.169 75.4676 460.021 72.8466C459.93 71.2216 448.027 65.5976 444.681 65.5976C441.158 65.5976 436.249 69.9656 435.393 73.8596C434.685 77.0866 431.998 81.9776 431.312 81.2916C431.109 81.0886 430.49 77.3626 429.937 73.0106C428.585 62.3806 428.322 62.5366 447.136 62.8506L461.946 63.0976L461.878 66.5976ZM70.8152 68.2286C69.5152 70.2846 68.1742 72.3746 67.8352 72.8736C67.4732 73.4076 66.4432 73.3566 65.3352 72.7506C64.2992 72.1826 62.1222 71.4346 60.4972 71.0876C57.6122 70.4716 57.6702 70.4056 62.9972 68.2296C65.9972 67.0046 69.3472 65.4946 70.4432 64.8746C73.3702 63.2176 73.4622 64.0456 70.8152 68.2286ZM26.5752 67.1346C26.2512 67.9796 25.2372 71.2426 24.3222 74.3846L22.6602 80.0976L20.8402 73.5976C19.8402 70.0226 19.0052 66.9546 18.9862 66.7806C18.9672 66.6056 19.7392 66.7076 20.7012 67.0076C21.6642 67.3066 23.1262 67.1196 23.9512 66.5896C26.1672 65.1696 27.2442 65.3926 26.5752 67.1346ZM54.7782 69.4566C54.0482 69.6816 52.8152 70.3686 52.0372 70.9816C50.8412 71.9266 50.8092 71.7486 51.8342 69.8266C52.4992 68.5776 52.7202 67.0026 52.3252 66.3266C51.9302 65.6506 52.6192 65.9856 53.8562 67.0716C55.4542 68.4756 55.7212 69.1646 54.7782 69.4566ZM460.951 81.1206V85.6436L458.463 84.0136L455.976 82.3836L458.213 79.5456C459.444 77.9856 460.564 76.6836 460.701 76.6526C460.838 76.6226 460.951 78.6326 460.951 81.1206ZM200.451 83.9546C215.226 87.8936 229.804 99.6896 232.274 109.706C232.856 112.064 232.68 112.269 230.434 111.84C228.977 111.561 227.951 110.679 227.951 109.704C227.951 107.001 225.005 103.6 222.644 103.576C219.864 103.548 216.674 100.892 215.165 97.3476C214.287 95.2866 213.296 94.5976 211.21 94.5976C209.281 94.5976 208.122 93.9056 207.438 92.3476C206.063 89.2146 201.424 88.7916 199.155 91.5936C197.719 93.3676 196.986 93.5616 194.825 92.7396C193.395 92.1956 191.98 90.8166 191.681 89.6746C190.738 86.0666 185.578 86.8996 182.244 91.1976C180.708 93.1776 178.638 95.7646 177.645 96.9476L175.838 99.0976L176.895 96.9136C180.771 88.8976 173.92 84.2236 167.921 90.7906C166.317 92.5476 164.827 93.7846 164.61 93.5406C164.394 93.2976 163.915 91.4316 163.547 89.3956C162.825 85.3956 162.589 85.5576 172.451 83.2896C176.949 82.2556 195.753 82.7016 200.451 83.9546ZM29.6352 86.5976C31.2592 86.5976 31.4192 87.4166 31.1522 94.3476C30.9882 98.6096 30.8142 103.41 30.7672 105.013C30.7192 106.64 31.4032 108.455 32.3162 109.123C34.3552 110.614 34.2902 112.046 31.9512 117.098C30.5472 120.132 30.0812 120.571 30.0252 118.915C29.9612 117.028 26.0862 95.6326 24.2892 87.2386C23.7222 84.5936 23.8312 84.4626 25.7482 85.4886C26.8872 86.0986 28.6372 86.5976 29.6352 86.5976ZM340.951 88.2836C340.951 88.6606 340 89.9806 338.839 91.2176C336.744 93.4466 336.708 93.4496 334.644 91.5266C332.201 89.2506 329.271 89.7796 326.745 92.9536C325.283 94.7916 324.75 94.9196 323.009 93.8476C320.318 92.1916 318.379 92.2716 315.499 94.1576C313.408 95.5286 313.016 95.5376 312.284 94.2376C311.826 93.4236 310.3 92.4686 308.894 92.1176C306.741 91.5786 305.611 92.2546 301.74 96.3926L297.143 101.307L296.577 98.4786C295.944 95.3146 291.883 93.5786 289.581 95.4896C288.82 96.1216 286.891 96.3356 285.132 95.9836C282.812 95.5196 280.905 96.0206 277.59 97.9636C274.054 100.036 273.042 100.278 272.611 99.1536C272.313 98.3786 272.606 97.3096 273.26 96.7786C275.53 94.9386 291.494 90.4506 300.451 89.1346C309.87 87.7506 340.951 87.0976 340.951 88.2836ZM358.951 90.0386C358.951 91.0936 357.032 91.5376 356.461 90.6136C356.116 90.0546 356.535 89.5976 357.392 89.5976C358.249 89.5976 358.951 89.7956 358.951 90.0386ZM66.3452 97.1436C66.9052 102.609 70.9042 125.038 73.5122 137.348C74.0632 139.947 73.8812 140.598 72.6012 140.598C71.3862 140.598 71.1342 139.931 71.5552 137.829C71.9882 135.661 71.4402 134.36 69.0302 131.838C67.3362 130.066 65.9512 128.162 65.9512 127.607C65.9512 127.052 65.0512 126.598 63.9512 126.598C61.3972 126.598 61.4322 126.255 64.4512 121.813C67.8132 116.865 67.6762 114.009 63.9662 111.754C61.2392 110.095 61.1072 109.773 62.4352 108.018C64.2342 105.64 64.3642 102.162 62.7012 100.876C59.6512 98.5156 57.9442 98.7616 53.8952 102.144C48.7562 106.438 48.2042 106.478 51.0692 102.348C56.9162 93.9186 59.4672 91.7976 65.0632 90.7156C65.3992 90.6506 65.9772 93.5436 66.3452 97.1436ZM154.44 92.5626C154.816 93.7466 154.297 95.6336 153.135 97.3126C152.074 98.8446 150.005 102.235 148.537 104.848C145.971 109.412 144.419 111.147 145.559 108.176C146.296 106.257 144.233 102.598 142.416 102.598C141.61 102.598 140.951 102.193 140.951 101.698C140.951 100.598 151.774 90.5976 152.964 90.5976C153.433 90.5976 154.097 91.4816 154.44 92.5626ZM372.654 94.4516C373.563 94.9596 374.376 96.3256 374.461 97.4866C374.647 100.012 374.542 100.031 371.508 98.0436C369.931 97.0096 368.918 96.8426 368.485 97.5436C367.458 99.2046 365.951 98.7746 365.951 96.8206C365.951 95.8426 365.261 94.0566 364.417 92.8526L362.883 90.6626L366.943 92.0946C369.176 92.8826 371.746 93.9426 372.654 94.4516ZM464.951 94.8026C464.951 97.1456 468.552 98.9046 471.794 98.1466C473.798 97.6776 473.366 98.1866 470.036 100.217L465.621 102.908L463.786 100.642C462.777 99.3956 461.951 97.8056 461.951 97.1096C461.951 96.4126 461.27 95.2776 460.439 94.5876C459.315 93.6556 459.209 92.9916 460.024 92.0096C461.448 90.2936 464.951 92.2796 464.951 94.8026ZM132.439 96.4366C130.303 99.6636 129.201 100.443 126.861 100.376C125.257 100.331 123.005 101.144 121.857 102.183C116.821 106.741 105.951 129.299 105.951 135.192C105.951 136.927 105.251 140.316 104.395 142.722C102.541 147.938 99.9512 159.787 99.9512 163.053C99.9512 166.48 103.245 170.002 106.582 170.141C109.089 170.246 109.492 170.693 109.779 173.68C110.13 177.335 112.406 180.598 114.606 180.598C115.346 180.598 115.951 181.519 115.951 182.645C115.951 183.871 117.15 185.373 118.945 186.395C120.911 187.514 121.941 188.892 121.945 190.412L121.951 192.726L117.876 190.436C112.131 187.207 105.276 179.53 102.142 172.816C93.3532 153.986 103.779 115.677 121.735 100.827C127.513 96.0486 134.203 91.5166 134.719 92.0326C134.929 92.2426 133.903 94.2246 132.439 96.4366ZM432.3 95.8236C432.62 97.0476 431.323 98.4276 427.836 100.574C422.459 103.882 421.096 104.333 422.846 102.225C424.309 100.462 423.302 97.8616 420.583 96.3816L418.451 95.2206L420.76 94.6586C422.03 94.3506 425.044 94.0976 427.459 94.0976C430.775 94.0976 431.959 94.5196 432.3 95.8236ZM415.09 96.4906C413.849 97.2766 409.951 96.8906 409.951 95.9806C409.951 95.7706 411.413 95.6046 413.201 95.6126C415.411 95.6236 416.015 95.9046 415.09 96.4906ZM406.149 98.2706C402.957 99.8436 391.951 111.082 391.951 112.768C391.951 113.225 391.439 113.598 390.813 113.598C390.012 113.598 389.869 111.698 390.332 107.188C390.848 102.144 390.665 100.455 389.471 99.2606C388.115 97.9046 388.14 97.6956 389.703 97.2866C390.664 97.0356 395.501 96.7876 400.451 96.7366C409.424 96.6436 409.441 96.6476 406.149 98.2706ZM488.951 97.9906C488.951 100.432 485.726 100.817 483.546 98.6366L481.507 96.5976H485.229C487.744 96.5976 488.951 97.0496 488.951 97.9906ZM268.951 108.027C268.951 109.362 269.656 111.16 270.518 112.022C272.56 114.065 272.018 118.973 269.701 119.413C268.739 119.595 265.364 118.535 262.201 117.056L256.451 114.368L259.451 113.349C263.365 112.019 264.965 110.691 266.03 107.889C267.177 104.872 268.951 104.956 268.951 108.027ZM354.442 109.628C353.867 111.438 353.236 111.705 350.725 111.203C349.062 110.87 346.831 110.598 345.767 110.598C344.661 110.598 344.113 110.145 344.487 109.539C344.847 108.957 346.345 108.745 347.816 109.068C349.428 109.422 351.276 109.081 352.469 108.209C354.882 106.444 355.346 106.778 354.442 109.628ZM375.108 112.099C375.297 115.125 375.099 117.6 374.669 117.599C374.239 117.599 372.254 116.916 370.259 116.082L366.632 114.567L368.624 112.332C369.72 111.103 371.255 109.328 372.034 108.386C374.278 105.675 374.743 106.236 375.108 112.099ZM132.313 113.098C131.996 113.923 131.28 114.598 130.722 114.598C130.136 114.598 130.233 113.963 130.951 113.098C131.636 112.273 132.352 111.598 132.542 111.598C132.732 111.598 132.629 112.273 132.313 113.098ZM178.162 116.711C181.157 118.314 184.883 122.805 184.919 124.858C184.937 125.826 185.801 127.345 186.839 128.234C188.3 129.485 188.609 130.73 188.204 133.747C187.592 138.309 189.855 141.598 193.606 141.598C194.896 141.598 196.82 142.467 197.883 143.53C199.351 144.998 200.49 145.281 202.628 144.709C206.428 143.693 210.243 145.299 212.223 148.749C213.209 150.467 214.697 151.598 215.973 151.598H218.087L215.951 154.598C213.348 158.254 212.066 158.45 212.707 155.092C213.261 152.194 211.487 149.598 208.951 149.598C207.986 149.598 206.636 148.923 205.951 148.098C204.332 146.147 201.065 146.185 198.859 148.181C197.251 149.636 197.018 149.591 195.964 147.623C195.094 145.997 194.055 145.556 191.652 145.79C188.86 146.062 188.013 146.958 184.469 153.387C181.704 158.402 180.356 160.072 180.145 158.741C179.977 157.677 178.964 156.015 177.895 155.047C175.976 153.31 175.984 153.244 178.502 149.942C183.874 142.9 185.279 135.711 182.557 129.198C181.18 125.902 176.334 121.574 172.451 120.172C170.506 119.469 170.516 119.396 172.812 117.524C175.582 115.264 175.486 115.279 178.162 116.711ZM469.6 122.153C466.762 124.753 465.981 126.118 466.464 127.639C466.953 129.181 465.79 131.085 461.579 135.633C457.998 139.501 454.25 145.214 450.938 151.851C445.332 163.087 442.951 166.421 442.951 163.035C442.951 161.939 442.284 160.09 441.468 158.926C440.083 156.949 440.215 156.634 443.468 154.153C446.241 152.038 446.951 150.803 446.951 148.097C446.951 145.926 446.319 144.318 445.201 143.648C443.553 142.661 443.565 142.512 445.392 141.099C446.46 140.273 448.594 139.598 450.136 139.598C452.302 139.598 453.61 138.633 455.897 135.348C463.185 124.877 465.261 122.43 468.741 120.205C473.777 116.985 474.198 117.94 469.6 122.153ZM435.275 120.403C436.809 122.099 436.589 122.524 431.639 127.412C427.518 131.482 426.106 132.353 425.16 131.407C423.518 129.765 423.639 128.598 425.451 128.598C427.932 128.598 431.127 124.727 430.438 122.556C429.195 118.64 432.391 117.217 435.275 120.403ZM488.641 121.241C488.356 121.526 487.072 121.576 485.787 121.352L483.451 120.945L485.951 119.893C488.224 118.937 490.037 119.845 488.641 121.241ZM231.395 128.844C229.197 135.557 225.757 142.43 223.003 145.608L220.845 148.098L221.5 145.598C222.621 141.317 232.353 121.305 232.744 122.478C232.948 123.089 232.341 125.954 231.395 128.844ZM301.345 128.845C303.699 135.473 313.55 145.637 324.851 153.098C329.85 156.398 333.928 159.323 333.914 159.598C333.9 159.873 332.78 160.904 331.426 161.89C328.982 163.668 328.94 163.655 325.79 160.068C324.045 158.08 319.205 153.696 315.034 150.326C310.863 146.955 304.76 141.741 301.47 138.737C298.181 135.734 293.823 132.069 291.786 130.593C288.14 127.952 288.112 127.881 289.995 126.004C291.193 124.811 293.353 124.082 295.768 124.055C299.491 124.013 299.69 124.184 301.345 128.845ZM450.951 124.039C450.951 124.282 450.501 124.758 449.951 125.098C449.401 125.438 448.951 125.239 448.951 124.657C448.951 124.075 449.401 123.598 449.951 123.598C450.501 123.598 450.951 123.796 450.951 124.039ZM37.9612 134.29C38.4892 134.946 39.6172 135.871 40.4662 136.347C41.8532 137.123 41.8562 137.582 40.4912 140.849C38.9432 144.554 39.2272 146.892 41.5602 149.63C42.6362 150.892 42.6172 151.858 41.4522 155.13C40.6752 157.312 40.0032 159.998 39.9592 161.098C39.9162 162.198 39.2612 164.216 38.5052 165.583L37.1302 168.067L36.5342 164.583C35.5412 158.778 31.9492 130.48 31.9832 128.732C32.0122 127.198 32.9462 128.066 37.9612 134.29ZM170.267 129.748C173.161 131.271 173.917 132.539 173.936 135.898C173.959 140.179 171.408 144.19 165.885 148.556C157.946 154.831 150.364 155.231 147.416 149.53C145.541 145.904 146.219 139.33 148.929 134.875C150.608 132.114 151.021 131.969 156.098 132.358C160.606 132.703 161.793 132.43 163.373 130.684C165.516 128.316 167.131 128.097 170.267 129.748ZM136.033 138.598C136.538 138.598 136.951 141.163 136.951 144.298C136.951 148.731 136.684 149.731 135.751 148.798C135.091 148.138 133.303 147.598 131.778 147.598C129.548 147.598 128.312 148.626 125.478 152.835C120.191 160.685 121.232 156.916 126.951 147.5C129.701 142.972 131.951 138.844 131.951 138.326C131.951 137.808 132.663 137.657 133.533 137.991C134.403 138.325 135.528 138.598 136.033 138.598ZM422.134 140.815C421.417 141.532 420.951 141.591 420.951 140.965C420.951 139.63 422.134 138.447 422.801 139.115C423.085 139.399 422.785 140.164 422.134 140.815ZM83.9332 177.848C83.9432 178.261 83.2672 178.598 82.4322 178.598C81.3272 178.598 81.0772 177.942 81.5172 176.191C82.2382 173.317 80.4752 169.598 78.3912 169.598C77.5722 169.598 76.4842 168.5 75.9742 167.159C73.7572 161.326 68.9452 162.106 63.5492 169.173C61.5702 171.765 59.9512 173.564 59.9512 173.172C59.9512 172.308 64.5042 165.505 71.2882 156.233L76.3112 149.368L80.1132 163.233C82.2042 170.859 83.9232 177.435 83.9332 177.848ZM142.421 158.821C143.933 160.318 147.168 162.118 149.612 162.821C153.787 164.021 153.968 164.217 152.611 166.06C151.38 167.734 150.93 167.825 149.551 166.681C148.542 165.843 146.654 165.547 144.528 165.892C141.956 166.309 140.696 165.973 139.382 164.521C137.399 162.331 134.908 162.041 133.151 163.798C131.418 165.531 131.651 164.705 134.455 159.179C135.828 156.473 136.969 153.323 136.99 152.179C137.022 150.507 137.289 150.688 138.351 153.098C139.079 154.748 140.91 157.323 142.421 158.821ZM167.919 160.348C167.902 160.761 167.227 161.972 166.419 163.039C164.973 164.952 164.951 164.951 164.951 162.956C164.951 161.842 165.251 160.631 165.618 160.265C166.516 159.366 167.959 159.418 167.919 160.348ZM49.0032 170.639C44.9422 176.921 43.5342 177.303 46.5682 171.298C48.3132 167.845 52.0532 163.367 52.6742 163.987C52.8842 164.197 51.2322 167.19 49.0032 170.639ZM344.451 167.598C344.791 168.148 344.592 168.598 344.01 168.598C343.428 168.598 342.951 168.148 342.951 167.598C342.951 167.048 343.149 166.598 343.392 166.598C343.635 166.598 344.111 167.048 344.451 167.598ZM357.66 178.348C364.609 185.179 365.805 186.901 367.747 192.869C368.959 196.593 369.941 200.868 369.929 202.369C369.897 206.372 366.676 212.652 362.823 216.225C359.245 219.544 349.1 223.977 342.451 225.129C339.003 225.726 338.672 225.634 340.055 224.46C340.937 223.711 342.4 221.984 343.306 220.623C344.621 218.648 345.655 218.209 348.427 218.448C351.605 218.721 352.158 218.341 354.929 213.971C357.733 209.55 361.951 199.723 361.951 197.612C361.951 197.111 360.826 195.487 359.451 194.003C357.83 192.254 356.951 190.141 356.951 187.992C356.951 185.424 356.074 183.867 353.053 181.072C350.323 178.546 349.034 176.435 348.753 174.031C348.533 172.143 348.673 170.598 349.065 170.598C349.457 170.598 353.325 174.086 357.66 178.348ZM265.699 192.323C260.271 197.851 258.411 198.589 261.711 193.906C266.099 187.677 265.312 182.598 259.958 182.598C257.817 182.598 256.29 183.534 254.244 186.098C252.304 188.529 250.634 189.598 248.778 189.598C245.28 189.598 240.367 193.806 238.797 198.147C238.111 200.045 237.09 201.598 236.529 201.598C235.329 201.598 223.951 190.531 223.951 189.363C223.951 188.925 228.564 186.338 234.201 183.615C239.838 180.891 247.114 177.161 250.369 175.326L256.288 171.989L263.559 179.543L270.83 187.098L265.699 192.323ZM182.034 180.681C183.18 181.827 183.968 182.895 183.784 183.054C183.096 183.652 176.867 186.679 174.381 187.624C171.93 188.557 171.993 188.354 175.625 183.645C177.729 180.916 179.564 178.664 179.701 178.641C179.838 178.617 180.889 179.536 182.034 180.681ZM413.475 186.382C411.161 189.88 410.926 190.987 411.501 195.724C411.989 199.755 412.786 201.635 414.691 203.247L417.231 205.396L414.943 208.609C413.095 211.204 412.494 211.533 411.815 210.319C410.309 207.628 409.14 196.112 409.684 189.331C410.185 183.095 410.37 182.686 412.834 182.38C414.273 182.201 415.597 182.135 415.776 182.234C415.955 182.333 414.919 184.2 413.475 186.382ZM335.36 184.451C336.09 185.632 333.512 188.961 332.235 188.486C331.583 188.243 331.511 187.257 332.04 185.848C332.903 183.553 334.413 182.918 335.36 184.451ZM493.951 189.577C493.951 193.457 493.89 193.527 491.451 192.416C489.901 191.71 488.951 190.451 488.951 189.104C488.951 186.451 489.721 185.598 492.118 185.598C493.588 185.598 493.951 186.385 493.951 189.577ZM86.5932 194.745C86.1772 198.733 86.3452 201.368 87.0732 202.245C88.4322 203.883 88.1382 203.908 84.1002 202.5C82.3682 201.896 80.9512 201.006 80.9512 200.522C80.9512 199.372 86.2372 188.598 86.8022 188.598C87.0412 188.598 86.9472 191.364 86.5932 194.745ZM164.985 190.098C164.904 191.229 159.951 192.816 159.951 191.712C159.951 191.319 160.504 190.445 161.18 189.769C162.577 188.372 165.093 188.59 164.985 190.098ZM148.951 193.598C148.951 194.148 148.249 194.598 147.392 194.598C146.535 194.598 146.111 194.148 146.451 193.598C146.791 193.048 147.492 192.598 148.01 192.598C148.528 192.598 148.951 193.048 148.951 193.598ZM281.951 192.976C281.951 193.183 281.163 193.971 280.201 194.726C278.615 195.969 278.58 195.934 279.823 194.348C281.13 192.682 281.951 192.153 281.951 192.976ZM42.6682 201.515C44.0502 202.145 46.0292 202.391 47.0662 202.062C48.4512 201.622 48.9512 201.956 48.9512 203.322C48.9512 204.583 47.1742 206.053 43.4292 207.89C40.3922 209.379 37.6922 210.598 37.4292 210.598C36.6482 210.598 36.8872 197.996 37.6822 197.2C38.0852 196.798 38.8062 197.346 39.2842 198.419C39.7632 199.492 41.2862 200.885 42.6682 201.515ZM312.951 200.598C312.951 201.148 312.501 201.598 311.951 201.598C311.401 201.598 310.951 201.148 310.951 200.598C310.951 200.048 311.401 199.598 311.951 199.598C312.501 199.598 312.951 200.048 312.951 200.598ZM492.951 204.598C492.951 209.989 491.428 211.192 489.173 207.582C488.103 205.869 488.245 205.119 490.121 202.582C491.334 200.941 492.467 199.598 492.639 199.598C492.811 199.598 492.951 201.848 492.951 204.598ZM444.102 215.598C444.646 215.598 444.946 216.58 444.771 217.781C444.441 220.031 442.881 220.724 435.472 221.91L431.494 222.546L435.972 218.612C438.436 216.448 441.05 214.885 441.783 215.138C442.515 215.391 443.559 215.598 444.102 215.598ZM276.275 219.574C278.505 220.689 279.502 220.735 281.012 219.792C283.618 218.165 283.951 218.268 283.951 220.706C283.951 222.501 283.541 222.716 281.201 222.151C272.897 220.147 270.948 219.412 271.512 218.499C271.854 217.945 272.431 217.643 272.793 217.827C273.155 218.011 274.722 218.798 276.275 219.574ZM305.589 219.726C308.34 219.63 308.781 219.985 309.166 222.607L309.605 225.598H304.403C301.542 225.598 297.769 225.312 296.019 224.962L292.838 224.325L295.633 221.408C297.664 219.288 298.979 218.674 300.44 219.162C301.546 219.532 303.863 219.785 305.589 219.726ZM320.951 224.598C320.951 225.148 320.501 225.598 319.951 225.598C319.401 225.598 318.951 225.148 318.951 224.598C318.951 224.048 319.401 223.598 319.951 223.598C320.501 223.598 320.951 224.048 320.951 224.598Z" fill="black"/>
</svg>
