<svg width="125" height="57" viewBox="0 0 125 57" fill="none" xmlns="http://www.w3.org/2000/svg">
<path fill-rule="evenodd" clip-rule="evenodd" d="M18.675 1.79868C12.939 2.86989 8.44048 5.89325 5.2761 10.8039C2.80491 14.6385 2.57604 15.0761 2.3223 16.4482C2.03981 17.9764 2.68234 19.6679 4.07357 21.0592C5.37459 22.3602 8.55586 24.1732 11.1715 25.1043C11.9454 25.3798 15.0408 26.2264 18.0502 26.9857C21.0597 27.7448 24.2255 28.5914 25.0853 28.8667C29.2127 30.1884 30.9071 31.7838 31.0703 34.502C31.236 37.265 29.2451 40.8923 27.0014 41.9146C25.5984 42.5537 21.8805 42.7902 21.8805 42.2402C21.8805 42.1346 21.3228 41.9848 20.5125 41.8729C18.886 41.6482 15.7557 40.8729 14.9786 40.5023C14.541 40.2937 14.4402 40.166 14.4935 39.8872C14.5987 39.3368 14.0664 39.2223 13.6504 39.706C13.4654 39.921 13.2733 40.0558 13.2231 40.0057C13.1731 39.9557 12.8266 40.1888 12.4533 40.5238C12.0801 40.8589 11.0058 41.7661 10.0661 42.5399C7.40992 44.7272 5.35833 46.7851 4.90027 47.7215C4.44846 48.645 4.44893 49.2623 4.90168 49.2623C5.11914 49.2623 5.25375 49.0713 5.40711 48.5454C5.64458 47.731 6.8382 46.3415 8.68077 44.7344C9.48855 44.03 9.91363 43.7603 10.1277 43.8163C10.3464 43.8735 10.8901 43.5014 12.0775 42.4819C12.9831 41.7046 13.7665 40.9999 13.8184 40.9159C13.8736 40.8267 14.1874 40.9197 14.5744 41.1401C14.9409 41.3488 16.3176 41.7695 17.6594 42.083C18.9922 42.3944 20.4874 42.7827 20.9822 42.9463C21.477 43.1098 22.1101 43.2442 22.3892 43.2452C22.6682 43.2461 23.1535 43.2894 23.4674 43.3413L24.0384 43.4357L23.4111 44.7857C23.0661 45.5281 22.5089 46.899 22.1727 47.8322C20.6917 51.9432 19.4898 53.6066 19.1668 51.9921C18.9453 50.8843 19.056 50.2829 19.6958 49.1171C20.1314 48.3236 20.4439 47.447 20.7106 46.2713C21.1657 44.2648 21.174 44.1227 20.8535 43.802C20.0643 43.013 18.8097 45.5774 18.4322 48.751C18.2793 50.0373 18.1872 50.3128 17.6141 51.1998C16.9184 52.2763 16.2732 52.7783 15.5841 52.7793C15.0521 52.78 14.8469 52.335 14.8418 51.1673C14.8385 50.4744 14.9876 50.0617 15.8687 48.3243C16.7483 46.5903 16.9331 46.0795 17.1277 44.844C17.3736 43.2828 17.2765 42.7744 16.7322 42.7744C15.9236 42.7744 14.4287 46.4358 14.1306 49.1467C14.0096 50.2474 13.3641 51.4492 12.7742 51.6721C12.3226 51.8428 12.2479 51.7911 12.1356 51.2298C12.0629 50.8665 12.1955 50.4988 12.7545 49.5119C13.5161 48.1678 14.1308 46.5337 14.2949 45.417C14.4183 44.5767 14.1408 44.0862 13.6328 44.2476C12.9411 44.4671 11.7266 47.3896 11.4163 49.5814C11.2128 51.0178 10.2838 52.1739 10.0576 51.2724C9.95068 50.8463 10.095 48.4005 10.2763 47.568L10.3839 47.0737L10.465 47.699C10.5297 48.1983 10.6171 48.3343 10.8979 48.3744C11.2162 48.4195 11.2495 48.36 11.2487 47.749C11.2465 45.9509 10.3997 44.9756 9.86298 46.1533C9.3502 47.2789 9.04268 50.8931 9.38349 51.7895C9.67146 52.547 10.3001 52.6891 10.9837 52.1513L11.3854 51.8355L11.7934 52.2435C12.0354 52.4855 12.2995 52.6142 12.4419 52.5595C12.5741 52.5086 12.7766 52.4672 12.892 52.4672C13.0073 52.4672 13.3103 52.2917 13.5655 52.077L14.0292 51.6868L14.135 52.2509C14.3876 53.5975 15.7612 53.9966 17.0158 53.0879C17.3755 52.8273 17.8011 52.3983 17.9614 52.1344L18.2532 51.6547L18.3579 52.1319C18.5199 52.8692 19.0181 53.4052 19.5414 53.4052C20.0513 53.4052 21.0131 52.6526 21.202 52.1058C21.2917 51.8461 21.345 51.9812 21.4238 52.6672C21.5442 53.7166 21.8889 54.1869 22.5378 54.1869C23.5892 54.1869 24.3359 53.3608 25.3408 51.0855L25.8456 49.9429L26.0942 50.6159C26.3626 51.3424 26.9104 51.7401 27.4304 51.586C27.9133 51.4428 28.4204 50.9128 29.0466 49.8971C29.5487 49.0827 29.6256 49.0153 29.6724 49.3499C29.7424 49.8506 30.1364 50.2785 30.5274 50.2785C30.9357 50.2785 31.9628 49.1917 32.2159 48.4918C32.3798 48.0386 32.4747 47.9576 32.7587 48.0289C33.4874 48.2118 34.6457 47.2267 35.3061 45.8627C35.5315 45.397 35.8091 45.0865 36.1127 44.9608C36.3938 44.8443 36.7862 44.4321 37.1125 43.9105L37.6495 43.0519L37.753 43.6032C37.8736 44.2462 38.3401 44.8068 38.7545 44.8068C39.2033 44.8068 40.0021 43.779 40.7085 42.2926C41.2371 41.1801 41.3851 40.9797 41.5488 41.1548C42.0968 41.7414 42.6218 41.189 43.659 38.9344C43.9781 38.2412 44.3766 37.2915 44.5447 36.8239L44.8505 35.9739L44.8552 36.5992C44.8622 37.5205 44.5997 38.3087 43.9114 39.4336C43.5737 39.985 42.7596 41.5003 42.1023 42.8007L40.9071 45.1653L38.6243 47.4623C36.1823 49.9194 35.2407 50.581 33.1863 51.2833C31.431 51.8833 29.6897 52.5667 28.4465 53.1434C26.1725 54.1983 22.2034 54.7644 18.2066 54.6039C12.5144 54.3753 8.02182 52.4178 6.62183 49.5564C6.33887 48.9781 6.12219 48.7163 5.95319 48.7488C4.91669 48.9484 6.68624 51.5497 8.8013 52.9358C10.0087 53.727 13.4821 54.8885 15.5916 55.2065C16.428 55.3325 18.037 55.4362 19.1671 55.4366C23.2342 55.4385 26.4961 54.8935 28.9155 53.8079C29.7324 53.4415 31.1394 52.8799 32.0422 52.5599C32.9451 52.2401 34.422 51.6135 35.3242 51.1674C36.6605 50.5069 37.1386 50.171 37.9037 49.3544C39.1033 48.0744 39.6398 47.5389 40.5147 46.7491C41.2721 46.0651 42.1504 44.6583 42.996 42.7744C43.5679 41.5006 44.3915 40.0633 44.492 40.164C44.5265 40.1983 44.3371 41.5913 44.0708 43.2594C43.531 46.6428 43.3204 49.4182 43.4613 51.2947C43.5157 52.0206 43.4913 52.6297 43.4031 52.7463C43.2976 52.8856 43.342 53.0388 43.5484 53.2469C43.7117 53.4116 43.9404 53.6601 44.0566 53.7987C44.2481 54.0276 44.2925 54.0282 44.538 53.8062C44.7288 53.6333 45.1289 53.5616 45.9001 53.5616C47.2738 53.5616 49.9054 53.2175 52.4843 52.7008C55.4683 52.1028 56.1179 51.8927 56.1179 51.5248C56.1179 51.1187 55.9581 51.1281 53.5132 51.6794C49.6065 52.5602 45.1936 53.035 44.5722 52.6412C44.4487 52.5629 44.3077 52.0284 44.2326 51.3538C44.0408 49.6296 44.1907 47.7099 44.8603 43.3216C45.7341 37.594 45.8077 36.5634 45.9667 27.8444C46.0497 23.2873 46.1763 18.5386 46.248 17.2918C46.3247 15.959 46.3131 13.3725 46.22 11.0146C46.0331 6.27862 46.0507 6.18497 47.1752 5.91326C47.5795 5.81571 48.4027 5.68986 49.0046 5.63358C49.6065 5.57746 50.8376 5.35796 51.7405 5.14581C54.8927 4.4051 55.515 4.31614 55.7683 4.56941C55.9421 4.74325 56.0452 4.75373 56.2126 4.6149C56.7657 4.1559 56.2514 3.64515 55.256 3.66516C54.8687 3.67298 53.5149 3.92187 52.2473 4.21828C50.9798 4.51469 49.4336 4.80266 48.8115 4.85847C47.4793 4.97775 45.6892 5.44582 45.4167 5.74583C45.2698 5.90764 45.2544 6.5841 45.3512 8.6152C45.523 12.217 45.5182 15.7503 45.3345 20.9657C45.2498 23.3732 45.1749 26.3983 45.1683 27.6881L45.1564 30.0331L44.8878 29.0043C44.4654 27.3864 43.7425 26.3652 41.5005 24.2198C39.2871 22.1018 38.0732 21.3415 36.104 20.8401C31.1119 19.569 29.7623 19.2918 29.0015 19.3811C28.4977 19.4402 27.9327 19.3897 27.4401 19.2413C27.0154 19.1134 25.5029 18.7939 24.0788 18.5312C21.6982 18.0921 21.3921 17.9967 20.278 17.3453C19.4388 16.8544 19.0664 16.5453 19.0664 16.3389C19.0664 16.151 19.1755 16.0411 19.3624 16.0411C19.5251 16.0411 19.7027 15.9256 19.757 15.7843C19.8708 15.4874 19.8984 15.523 19.3267 15.2297L18.8837 15.0023L19.7652 14.1967C20.833 13.2207 21.4468 13.0254 23.4741 13.0164C24.856 13.0103 25.0697 13.0507 25.8973 13.4758C27.0233 14.0541 28.0465 14.1134 28.0724 13.6015C28.0815 13.4205 28.4797 12.6114 28.957 11.8037C30.8297 8.63506 33.0553 5.94218 33.6733 6.09727C34.1398 6.21436 34.46 5.97517 34.3104 5.62154C34.2431 5.46239 34.1576 5.05076 34.1204 4.70682C34.0834 4.36289 33.9114 3.93015 33.7385 3.74521C33.1657 3.13284 30.7631 2.47842 27.4899 2.04334C23.3652 1.49492 20.6981 1.42082 18.675 1.79868ZM25.3675 2.59521C29.7397 3.05264 31.4271 3.38032 32.6881 4.01676C33.1127 4.2311 33.2731 4.42245 33.3251 4.77686C33.3772 5.1319 33.3251 5.27229 33.1172 5.33826C32.2602 5.61029 29.0692 9.79616 27.8029 12.3092L27.2806 13.3457L26.4819 12.8949C25.3464 12.2541 24.1852 12.0744 22.4187 12.2664C20.9492 12.4262 20.2317 12.6807 19.5495 13.2845C19.2672 13.5343 19.1954 13.5545 19.2633 13.3644C19.3131 13.2249 19.3979 12.7676 19.4516 12.3482C19.6796 10.567 19.6951 10.5142 19.9061 10.8026C20.215 11.2252 20.8275 11.0436 21.0878 10.4521C21.2109 10.1728 21.3516 9.94437 21.4005 9.94483C21.4496 9.9453 21.5951 10.2789 21.7241 10.6862C21.9822 11.501 22.4798 11.8756 23.0366 11.6741C23.5512 11.4877 24.026 10.4623 24.308 8.92787C24.6435 7.10204 24.826 6.64866 24.8402 7.60528C24.8552 8.60489 25.2768 10.1126 25.6536 10.5137C26.6765 11.6025 27.7512 10.5161 28.1848 7.95438L28.3907 6.73918L28.6162 7.20819C28.7547 7.49631 28.9613 7.67719 29.1521 7.67719C29.4912 7.67719 29.494 7.63373 29.2481 6.19201C29.0675 5.13409 28.951 4.83205 28.6842 4.72965C28.232 4.55612 27.9893 5.07281 27.5195 7.20819C27.0058 9.54415 26.8016 10.1004 26.458 10.1004C25.9711 10.1004 25.4807 7.70221 25.4774 5.3059C25.4759 4.13401 25.3785 3.84698 24.9825 3.84698C24.5544 3.84698 24.3141 4.51938 23.9208 6.81735C23.2509 10.7318 22.8676 11.5943 22.3973 10.245C22.2807 9.90997 22.2075 8.63975 22.2019 6.85159C22.1944 4.40619 22.1578 3.97987 21.9482 3.89951C21.8134 3.84776 21.6446 3.86762 21.573 3.94344C21.5012 4.01942 21.2647 5.32779 21.047 6.85096C20.8296 8.37414 20.5833 9.74207 20.5 9.89106C20.216 10.3987 20.099 8.11947 20.2957 5.90951C20.485 3.78273 20.4623 3.53431 20.0789 3.53431C19.6005 3.53431 19.5253 3.92093 19.0631 8.74871C18.7561 11.9575 18.4442 13.9081 18.1556 14.4235C17.958 14.7768 17.7238 13.6687 17.4898 11.2715C17.3219 9.55275 17.3372 3.02278 17.5093 2.8505C17.6492 2.71074 20.5163 2.31474 21.4896 2.30098C22.0055 2.29364 23.7505 2.42605 25.3675 2.59521ZM16.6642 3.96423C16.4921 5.72504 16.4045 7.26072 16.2516 11.1947C16.0345 16.7815 15.9455 17.7965 15.6818 17.6953C15.5642 17.6501 15.3103 17.6733 15.1176 17.7466L14.7672 17.8801L14.8926 14.4201C15.0331 10.5402 14.9642 8.11306 14.6994 7.61826C14.455 7.1616 13.996 7.20209 13.769 7.70033C13.2268 8.8902 13.0993 14.7435 13.5542 17.5607C13.9408 19.9559 13.8525 22.2945 13.3752 22.2945C13.1035 22.2945 12.0915 20.0911 11.8317 18.9333C11.6452 18.1032 11.6565 17.7438 11.9288 15.8066C12.3625 12.722 12.3869 8.23343 11.9744 7.40361C11.4498 6.34788 10.7632 6.75654 10.4817 8.29222C10.2252 9.6911 10.2719 14.265 10.5649 16.4553C10.8015 18.2231 10.8008 18.4363 10.556 19.5371C10.4112 20.1876 10.165 20.8777 10.0087 21.0706L9.72462 21.4216L9.33206 20.6464C8.47613 18.9561 8.41562 18.4654 8.7691 16.078C9.37036 12.0185 8.87478 9.12282 7.7684 10.2292C7.54374 10.4539 7.44963 10.8378 7.38381 11.7993C7.31393 12.8176 7.25609 13.0382 7.09381 12.9036C6.98234 12.8112 6.69406 12.7582 6.45299 12.7859C5.90394 12.8491 5.67804 13.2957 5.47105 14.7279C5.01252 17.9001 5.74323 21.3565 6.87228 21.3565C7.1848 21.3565 7.74041 20.7911 7.92911 20.2811C8.05746 19.9339 8.09529 19.968 8.49989 20.795C8.99954 21.8161 9.4712 22.1981 10.0523 22.0522C10.5074 21.9381 10.8021 21.5451 11.0891 20.6699L11.2886 20.0614L11.7288 21.0937C12.2771 22.3788 12.7721 23.0599 13.2436 23.1783C13.6533 23.2812 14.2178 22.8706 14.2235 22.4657C14.2254 22.3286 14.3571 22.5031 14.5163 22.8536C14.7051 23.2694 14.9697 23.5587 15.2773 23.6862C15.6024 23.8208 15.7771 24.0223 15.8395 24.3339C15.9782 25.0276 16.5021 25.4739 17.0086 25.3298C17.7652 25.1145 18.2868 25.2339 18.7486 25.7284C19.2332 26.2473 19.328 26.274 19.9038 26.0552C20.233 25.93 20.332 25.9678 20.5518 26.3033C20.6943 26.5209 20.7816 26.7287 20.7455 26.7648C20.6221 26.888 13.6777 25.128 12.0313 24.5562C7.62285 23.0251 4.30995 20.7961 3.40618 18.7531C2.69579 17.1469 3.03019 15.8204 4.91184 12.7808C7.29408 8.93256 9.52123 6.6371 12.7127 4.74091C13.6364 4.19217 16.2235 3.08594 16.6195 3.07046C16.6925 3.06765 16.7125 3.4699 16.6642 3.96423ZM92.9348 3.39846C90.6512 3.5465 89.9021 3.70941 89.093 4.23422C88.5507 4.58598 88.529 4.58801 88.3492 4.29988C87.9407 3.64593 87.0125 4.24564 87.3775 4.92773C87.4656 5.09219 87.6055 5.2504 87.6885 5.27948C87.9216 5.36093 87.926 16.3888 87.6938 18.4643C87.4784 20.3893 87.5614 23.0454 87.9525 26.7501C88.2294 29.3712 88.1634 33.0437 87.7757 36.5992C87.3771 40.2568 87.1915 44.2956 87.2528 47.9871L87.313 51.6144L86.7921 51.5536C86.4262 51.5109 86.2959 51.4281 86.3543 51.2756C87.055 49.4498 87.1892 44.3547 86.6903 38.5195C86.4033 35.1634 86.3973 34.5185 86.582 26.7943C86.718 21.1045 86.7288 18.2881 86.6173 17.5263C86.3276 15.5444 85.7729 14.1651 85.2659 14.1651C84.9132 14.1651 84.8291 14.5613 85.0943 14.9732C85.6238 15.796 85.8455 17.1803 85.9291 20.184C85.9969 22.6278 85.9754 23.1197 85.8072 22.959C85.6948 22.8516 85.4385 22.7635 85.238 22.7635C84.3858 22.7635 81.6824 24.5028 79.4509 26.4865C78.4896 27.3412 78.1611 27.5582 78.1611 27.3387C78.1611 26.9174 78.4356 26.6342 79.4113 26.0486C80.5996 25.3356 81.3982 24.7093 83.4374 22.891C84.4048 22.0285 85.1962 21.2227 85.1962 21.1003C85.1962 20.447 83.6568 20.8208 82.0695 21.8596C80.8849 22.6349 78.7769 24.5997 78.2974 25.3754C77.9902 25.8726 77.2858 26.3177 77.1001 26.1319C76.9648 25.9967 77.8761 24.7971 78.3839 24.4421C78.6483 24.2572 79.7914 23.3903 80.9239 22.5157C82.0565 21.6412 83.3436 20.6921 83.7839 20.4068C84.6962 19.8157 84.824 19.2843 84.0747 19.1977C83.293 19.1073 81.4929 20.328 79.015 22.6286C77.8484 23.7117 77.9612 23.4372 79.3103 21.9099C79.8478 21.3016 80.5989 20.6857 81.315 20.2659C81.9449 19.8967 82.8338 19.3171 83.2903 18.9783C83.9799 18.4664 84.1122 18.2914 84.072 17.9442C84.0328 17.6051 83.9332 17.5174 83.5434 17.4794C82.9808 17.4244 81.641 18.3388 80.2585 19.7214C79.429 20.5509 78.3586 21.2078 77.4997 21.4145C77.0965 21.5116 77.0812 21.4955 77.2219 21.1251C77.5101 20.3671 77.8921 19.9448 78.5548 19.6517C80.4249 18.8245 84.0353 15.9123 83.9196 15.3243C83.8104 14.7689 83.384 14.6999 82.5063 15.0959C82.0026 15.3232 81.3421 15.4793 80.8188 15.4947C80.3445 15.5088 79.7178 15.6458 79.4209 15.8002C78.7397 16.1546 77.2619 17.5449 76.9734 18.1027C76.7142 18.6039 76.6867 19.3506 76.9187 19.5826C77.0339 19.6978 76.9927 19.9064 76.7807 20.2783C76.0672 21.5304 76.2773 22.2236 77.3616 22.1951C77.8031 22.1835 77.963 22.2329 77.8841 22.3568C77.8214 22.4548 77.5683 22.8314 77.3214 23.1936C77.0236 23.6307 76.9025 23.967 76.9616 24.1929C77.0172 24.4057 76.9031 24.7851 76.6569 25.2052C76.1216 26.1186 76.1952 26.7007 76.8714 26.8997C77.2755 27.0187 77.3794 27.1322 77.3794 27.4547C77.3794 27.6776 77.4556 27.9362 77.5488 28.0294C77.6702 28.1508 77.5597 28.4188 77.1579 28.9782C76.5648 29.8038 76.4944 30.0952 76.7661 30.6028C76.8928 30.8395 76.8764 31.0402 76.7 31.4133C76.2702 32.3223 76.2249 32.756 76.5252 33.0879C76.6778 33.2564 76.8815 33.3943 76.9778 33.3943C77.0876 33.3943 77.1313 33.6237 77.0949 34.0061C77.0469 34.5085 77.0974 34.6505 77.3773 34.8003C77.6846 34.9647 77.6948 35.0082 77.4811 35.2444C77.3508 35.3884 76.9906 36.04 76.6809 36.6922C76.2174 37.6682 76.1447 37.9496 76.2706 38.2807C76.4885 38.854 76.9688 38.9547 77.6283 38.5656C77.9312 38.3869 78.196 38.2407 78.2168 38.2407C78.2376 38.2407 78.2269 38.479 78.1929 38.7701C78.1589 39.0613 78.2072 39.4418 78.3003 39.6157C78.4353 39.8682 78.3833 40.1161 78.0417 40.8451C77.7276 41.5156 77.603 42.049 77.573 42.8526C77.5506 43.4545 77.4904 44.2454 77.4395 44.61C77.3682 45.1201 77.4018 45.2942 77.5847 45.3644C77.7928 45.4442 77.7854 45.5375 77.5262 46.1083C77.1887 46.8518 77.1337 47.7815 77.4107 48.0586C77.5139 48.1617 77.8028 48.2462 78.0528 48.2462C78.3825 48.2462 78.4836 48.3074 78.4216 48.4696C78.15 49.1771 78.1388 49.8303 78.3916 50.2162C78.6156 50.5581 78.7467 50.6109 79.2298 50.5535C79.5448 50.516 79.9258 50.4314 80.0762 50.3653C80.2852 50.2734 80.3498 50.3182 80.3498 50.5554C80.3498 50.726 80.4553 50.9531 80.5843 51.0602C80.7133 51.1673 80.8188 51.3058 80.8188 51.368C80.8188 51.4304 79.9976 51.5255 78.9938 51.5792C77.1576 51.6776 76.6894 51.8477 77.1115 52.263C77.2578 52.4069 78.047 52.4102 80.5516 52.2768C83.8624 52.1006 85.7526 52.1875 88.6794 52.6509C89.7601 52.8221 90.1611 52.8051 92.2751 52.4982C95.2759 52.0626 98.6385 51.8386 102.805 51.7965C105.576 51.7687 106.205 51.8064 106.984 52.047C107.937 52.3411 108.334 52.3137 108.334 51.954C108.334 51.5833 107.263 51.2165 105.71 51.0555C104.32 50.9115 102.915 50.9303 98.9696 51.1459L97.5004 51.2261L97.5909 48.9936C97.6408 47.7656 97.8398 45.6354 98.0332 44.2596C98.3348 42.1139 98.3803 41.1803 98.3529 37.6935C98.3349 35.3921 98.4237 32.035 98.5577 29.955C98.6879 27.9343 98.795 24.653 98.7958 22.663C98.7967 20.6407 98.8963 18.0894 99.0219 16.8786C99.274 14.4446 99.3175 7.08093 99.0899 5.34795C99.012 4.75466 98.9717 4.24595 99.0003 4.21718C99.029 4.18857 99.4699 4.23375 99.9802 4.31771C100.49 4.40166 101.893 4.53501 103.097 4.61412C104.3 4.69307 105.743 4.87363 106.301 5.01512L107.318 5.27244L107.307 12.9627C107.3 18.0563 107.228 21.3176 107.094 22.6211C106.944 24.0857 106.92 26.0655 107.003 30.3597C107.175 39.276 107.17 40.6511 106.952 45.492C106.748 50.0417 106.775 50.43 107.288 50.2335C107.468 50.1644 107.533 49.5564 107.613 47.2033C107.669 45.5843 107.796 43.041 107.898 41.5514C108.04 39.4565 108.038 38.1288 107.892 35.6889C107.632 31.3601 107.656 24.3073 107.939 21.6375C108.116 19.9756 108.148 18.0996 108.084 13.2735C108.034 9.42862 108.063 6.636 108.161 5.96345C108.248 5.36484 108.299 4.8544 108.274 4.82939C108.249 4.80422 107.644 4.6088 106.929 4.39494C105.983 4.11181 104.967 3.9622 103.191 3.84448C101.849 3.75568 100.102 3.57918 99.3072 3.45239C97.7529 3.20413 96.1428 3.19053 92.9348 3.39846ZM56.7323 3.93828C56.3922 4.34804 56.3588 8.19795 56.6646 11.7419C56.882 14.263 56.9233 16.1707 56.8778 21.591L56.8214 28.3134H57.2904C57.6012 28.3134 57.7608 28.2343 57.7634 28.0789C57.7658 27.95 57.8224 27.7569 57.8895 27.65C58.1191 27.2832 63.1525 23.7896 66.8331 21.4423C69.271 19.8876 69.4614 19.7946 69.7218 20.0302C69.8752 20.169 70.0486 20.5376 70.107 20.8492C70.1655 21.1608 70.4544 22.1518 70.749 23.0512C71.2728 24.65 71.278 24.6913 70.9816 24.8989C70.6619 25.1229 70.1436 26.3628 69.9709 27.3176C69.7994 28.2658 67.2455 30.8092 66.7638 30.5115C66.6831 30.4616 66.8493 30.035 67.1334 29.5633C67.4173 29.0918 67.7933 28.3363 67.9687 27.8843C69.1093 24.9466 69.2644 24.4304 69.2189 23.7252C69.1743 23.0378 69.1453 22.9954 68.6856 22.9507C68.0036 22.8842 67.2688 23.5482 66.7336 24.7144C66.2596 25.7472 65.2868 26.6927 65.1268 26.2759C65.0011 25.9484 64.2933 25.9926 63.6893 26.366C62.7169 26.9669 61.2124 29.2743 60.5504 31.1797C60.3286 31.8185 60.0636 32.1823 59.4184 32.7346L58.5761 33.4555L58.9638 32.8386C59.177 32.4993 59.5385 32.13 59.767 32.0178C60.0112 31.898 60.1826 31.6845 60.1826 31.4999C60.1826 31.2405 60.0953 31.1944 59.681 31.2349C59.3022 31.2718 59.0537 31.4494 58.6649 31.9604C58.071 32.7412 58.0689 32.7374 58.3986 31.4627C58.9098 29.4858 60.1188 27.4536 60.7837 27.4536C61.0973 27.4536 61.3446 27.0643 61.19 26.8142C61.1417 26.7359 60.9048 26.6719 60.6638 26.6719C59.6574 26.6719 57.9518 28.6444 56.9511 30.9658C56.6847 31.5838 56.5439 31.7427 56.2951 31.7053C55.9081 31.6473 55.1062 32.038 54.4763 32.5914C54.2185 32.8181 54.5944 32.3899 55.3116 31.6398C56.0289 30.8898 56.5845 30.1863 56.5464 30.0764C56.3983 29.6504 55.2965 29.8713 54.3982 30.5071C52.8902 31.5744 50.9121 33.3415 49.8743 34.5481C48.9558 35.616 48.5831 35.8876 48.0275 35.8935C47.7053 35.8971 47.8057 35.1559 48.245 34.2881C48.7917 33.2083 50.1174 31.2522 50.5422 30.8989C51.5988 30.0197 54.2817 27.6792 54.9988 27.0112C55.9722 26.1043 56.0431 25.6403 55.2022 25.68C54.4313 25.7164 53.1892 26.6308 51.8025 28.1824C49.8199 30.4013 49.0126 31.153 48.3929 31.3574C48.0729 31.4631 47.7711 31.5096 47.7224 31.4606C47.5458 31.2843 48.5076 29.6596 49.2171 28.9358C49.616 28.5287 50.7517 27.6315 51.7405 26.9422C53.8266 25.488 55.6124 24.0109 55.9939 23.4242C56.2878 22.9722 56.1383 22.6072 55.6596 22.6072C54.965 22.6072 51.5224 25.168 49.8743 26.9106C49.1162 27.7122 48.4814 28.0789 47.8518 28.0789C47.6919 28.0789 47.6578 27.9375 47.7224 27.5397C47.8779 26.5808 48.3255 25.8821 49.196 25.2389C50.7076 24.1224 53.6737 21.584 54.5154 20.6868C55.3193 19.8298 55.4969 19.4419 55.1759 19.2437C55.0807 19.1847 55.2121 18.8967 55.4999 18.5333C56.5309 17.2315 55.3853 16.7132 53.5383 17.6458C52.5866 18.1263 51.3243 19.1547 49.9642 20.5576C49.2882 21.2551 48.7079 21.8255 48.6744 21.8255C48.4653 21.8255 48.6843 20.8625 49.084 20.025C49.4627 19.2318 49.6953 18.9571 50.278 18.6157C51.404 17.9558 53.6404 16.373 54.2028 15.8379C55.0154 15.0648 54.8451 14.3772 53.8599 14.4523C53.4467 14.4837 53.5427 14.3768 54.6657 13.5541C55.3668 13.0406 56.0155 12.4804 56.1069 12.3097C56.4663 11.6379 55.8327 11.2305 54.8617 11.509L54.3356 11.6598L55.0704 10.9138C55.8535 10.1188 56.0116 9.56166 55.5002 9.39938C55.1656 9.29307 54.1176 9.53586 53.382 9.8898L52.913 10.1156L53.3038 9.80898C53.5188 9.64045 54.1519 9.1605 54.7108 8.74262C55.4835 8.1648 55.727 7.88997 55.727 7.59543C55.727 7.00589 54.9625 6.99776 53.8252 7.57526C52.898 8.04599 49.9057 10.4362 49.7564 10.8253C49.6479 11.108 49.0828 11.1002 49.0828 10.8159C49.0828 10.4056 49.8559 9.66906 51.0767 8.91615C53.6937 7.30215 55.7325 5.97502 55.8419 5.81383C55.9051 5.72097 55.9578 5.5218 55.9592 5.37125C55.9631 4.91631 55.2013 5.04607 54.0227 5.70112C52.9486 6.298 52.9422 6.29941 52.6352 5.99237C51.6862 5.04341 47.723 7.07468 46.7315 9.01824C46.1426 10.1726 46.5295 11.0074 47.5749 10.8378C48.0292 10.7642 48.1316 10.807 48.2806 11.1339C48.3763 11.3442 48.5564 11.5552 48.6807 11.6029C48.8542 11.6695 48.7459 11.9245 48.2131 12.7027C47.5299 13.7006 47.347 14.3991 47.6815 14.7337C47.7935 14.8456 47.7935 15.0278 47.6815 15.3223C47.4325 15.9775 47.4805 16.7854 47.7785 16.9522C48.0149 17.0845 48.008 17.1452 47.7003 17.6429C47.1425 18.5455 47.3698 19.4805 48.1471 19.4805C48.4293 19.4805 48.4284 19.5066 48.1199 20.2037C47.7247 21.0973 47.6869 21.9035 48.0244 22.2411C48.2592 22.4759 48.2448 22.5564 47.8357 23.2938C47.2596 24.3325 47.1348 24.9504 47.4217 25.3428C47.6185 25.612 47.6112 25.7166 47.3611 26.2068C47.0101 26.8948 46.8317 27.7924 46.9633 28.2073C47.0179 28.3789 47.3092 28.6177 47.6107 28.738L48.159 28.9566L47.8365 29.3667C47.4374 29.8741 46.9021 31.0337 46.8975 31.4011C46.8956 31.5515 47.0428 31.8233 47.2244 32.005C47.4785 32.259 47.6775 32.3153 48.0877 32.2487C48.4754 32.1857 48.5903 32.2129 48.5089 32.3483C48.4474 32.4507 48.1713 32.8895 47.8956 33.3235C47.2682 34.3105 46.8891 35.5369 47.065 36.01C47.1362 36.2018 47.4098 36.448 47.6731 36.5571L48.1516 36.7555L47.7753 37.3069C47.2668 38.0523 46.8711 39.2674 46.9869 39.7286C47.0389 39.9359 47.2191 40.1493 47.3872 40.2026C47.5554 40.2559 47.6684 40.3464 47.6386 40.4036C47.2741 41.099 46.8891 42.0972 46.8017 42.5726C46.7418 42.8986 46.4889 43.4636 46.2397 43.8283C45.3615 45.1135 45.0212 46.0534 45.0196 47.1979C45.0182 48.1186 45.0692 48.3115 45.4019 48.644C45.9043 49.1467 47.0116 49.1739 47.7746 48.7024L48.3011 48.377V49.0932C48.3011 50.375 49.2324 50.8151 50.3452 50.0589L50.8985 49.6829L50.8895 50.4106C50.8813 51.0865 50.9105 51.1418 51.3002 51.1868C51.531 51.2136 51.9531 51.1163 52.2382 50.9708C52.8944 50.6361 54.7108 49.3155 54.7108 49.1732C54.7108 49.1143 54.6049 48.9781 54.4753 48.8706C54.2812 48.7095 54.1266 48.7544 53.5979 49.1251C52.0627 50.2016 51.662 50.4339 51.6098 50.2771C51.5793 50.186 51.8013 49.5919 52.1029 48.957C52.4912 48.1392 52.9971 47.4403 53.8372 46.5609C54.4898 45.878 55.0235 45.2098 55.0235 45.076C55.0235 44.3334 53.7653 44.9584 52.9908 46.0858C52.2661 47.1407 50.3633 49.1579 49.8332 49.4337C49.102 49.8139 49.0313 49.741 49.1255 48.7031L49.2116 47.7531L51.4649 45.5373C54.0094 43.035 54.9217 41.9903 55.7203 40.6641C56.025 40.1582 56.2742 39.8296 56.2742 39.9338C56.2742 40.0381 56.4501 40.2035 56.665 40.3015C56.9228 40.4189 57.0559 40.6064 57.0559 40.8525C57.0559 41.2763 57.6965 41.9928 58.0755 41.9928C58.2529 41.9928 58.3014 42.0853 58.2389 42.3054C57.9257 43.4096 57.9808 43.3386 57.7 43.0008C57.3479 42.5775 56.4878 42.2798 56.3011 42.5166C56.2232 42.6154 56.1185 43.3646 56.0683 44.1815C56.0181 44.9983 55.8995 46.5948 55.8046 47.7292C55.6085 50.0722 55.7469 51.0602 56.2711 51.0602C56.6816 51.0602 56.774 50.8488 56.5828 50.3462C56.4704 50.0504 56.4702 49.2391 56.5823 47.7145C56.8337 44.2926 56.9174 43.6918 57.1347 43.7442C57.2408 43.7697 57.7414 44.3306 58.2471 44.9905C58.7527 45.6504 60.081 47.3723 61.1988 48.8169C62.7773 50.857 63.2311 51.5491 63.2311 51.9163C63.2311 52.3159 63.2977 52.3967 63.661 52.4385C64.0437 52.4825 64.091 52.4375 64.091 52.0285C64.091 51.5295 64.9175 50.6489 66.0669 49.9233C67.8303 48.8101 70.1508 47.5719 71.7123 46.9111C73.021 46.3572 73.4711 46.095 73.4711 45.8868C73.4711 45.7329 73.4051 45.5661 73.3244 45.5162C73.1725 45.4223 70.9996 46.2721 69.652 46.9527C69.228 47.1667 68.7355 47.3612 68.5576 47.3848C68.3795 47.4084 68.1138 47.4775 67.9671 47.5383C67.7375 47.6336 67.7181 47.5874 67.8278 47.205C67.9787 46.6791 68.8629 44.8932 69.2475 44.3378C69.3963 44.1228 69.487 43.8591 69.4492 43.7515C69.2775 43.2645 68.7663 43.6441 67.6296 45.1023C66.4064 46.6714 65.0699 48.0459 64.4386 48.3837C63.8974 48.6734 63.9878 48.2471 64.8812 46.2981C65.5181 44.9084 65.8575 44.3869 66.6766 43.5383C67.2322 42.963 67.6867 42.4236 67.6867 42.3398C67.6867 42.256 67.5815 42.1002 67.4529 41.9934C67.1254 41.7217 66.6134 42.0839 65.7975 43.1645C65.1872 43.9729 63.0815 45.9011 62.8092 45.9011C62.5886 45.9011 62.6728 45.4332 63.1497 44.0098C63.5516 42.8106 63.7666 42.4447 64.7155 41.3466C65.3205 40.6464 65.8572 39.9076 65.908 39.7046C66.0309 39.2153 65.8827 38.8661 65.5524 38.8661C65.1204 38.8661 63.8507 40.3112 63.3355 41.389C62.9011 42.2978 62.4987 42.7777 61.4489 43.6391L61.0738 43.947L61.1852 43.4779C61.4748 42.2585 62.1047 41.2566 63.4067 39.9449C64.6469 38.6953 64.7229 38.5823 64.483 38.3425C64.3411 38.2005 64.1772 38.0847 64.1189 38.085C63.7512 38.087 62.8876 38.8586 62.1571 39.8377C60.9052 41.5158 58.9319 43.3221 58.9319 42.7901C58.9319 42.3462 59.3585 41.6818 60.2853 40.6833C60.8536 40.0708 61.7032 39.0507 62.1732 38.4166C63.808 36.211 64.2623 35.1589 63.7139 34.8482C63.5432 34.7515 63.7817 34.3262 64.7691 32.9675C66.0173 31.2502 66.0564 31.2136 66.5632 31.2958C67.2619 31.4092 68.1746 30.8612 69.2853 29.6614C69.8661 29.0341 70.201 28.7798 70.307 28.8858C70.3938 28.9725 70.6303 29.0199 70.8327 28.9912C71.3139 28.9227 71.4253 28.3997 70.9833 28.284C70.8038 28.2371 70.657 28.1782 70.657 28.1529C70.657 28.1277 70.8681 27.661 71.1259 27.1159C71.3838 26.5708 71.5949 26.0017 71.5949 25.8512C71.5952 25.3582 71.8477 25.5633 72.2204 26.3592C72.5762 27.1189 72.9972 27.372 73.2431 26.9741C73.2997 26.8823 72.9964 26.126 72.5692 25.2935C71.7461 23.6903 71.493 23.0082 70.8961 20.7861C70.6677 19.9357 70.5801 19.3451 70.6689 19.2538C70.7483 19.1721 70.8134 18.9787 70.8134 18.8239C70.8134 18.4402 70.2656 18.4585 69.4822 18.8684C68.2195 19.5291 62.3489 23.4095 59.5572 25.4289C57.2183 27.1206 57.4602 27.2006 57.5858 24.7749C57.7656 21.306 57.694 14.4162 57.4489 11.5856C57.1883 8.57721 57.1433 5.25791 57.3531 4.52626C57.5566 3.81634 57.1517 3.43301 56.7323 3.93828ZM98.2145 4.62866C98.4741 5.69658 98.4983 14.3615 98.2485 16.7312C98.1123 18.0227 98.0162 20.4535 98.016 22.6094C98.0158 24.6311 97.9102 27.9842 97.7812 30.0605C97.6522 32.1366 97.5554 35.6532 97.5661 37.8751C97.5823 41.2567 97.5306 42.2965 97.2482 44.2596C97.0628 45.5494 96.8676 47.6363 96.8143 48.8971L96.7175 51.1896L95.6078 51.2941C94.9975 51.3516 93.5298 51.5336 92.3464 51.6984C90.1514 52.0042 88.8982 52.0598 88.4792 51.87C88.1248 51.7093 88.0868 51.0874 88.1059 45.7448C88.1197 41.8716 88.1939 40.1824 88.4538 37.8324C88.887 33.9146 89.0277 29.7541 88.8074 27.3754C88.2726 21.6015 88.2687 21.5022 88.4742 18.9366C88.6001 17.3637 88.6622 14.2541 88.6407 10.5774C88.6099 5.28214 88.6301 4.74216 88.8513 4.92569C89.0553 5.09501 89.1863 5.07265 89.6441 4.78968C90.0418 4.54392 90.6121 4.4112 91.7199 4.30661C94.0724 4.08461 94.6833 4.05381 96.4462 4.0682L98.0817 4.08148L98.2145 4.62866ZM80.378 4.51141C80.422 4.82189 80.5473 4.87551 81.4442 4.96837C83.9039 5.22304 85.9779 6.55908 85.9779 7.88887C85.9779 8.66429 85.7005 9.01433 84.6753 9.53305C83.8564 9.94734 81.8266 10.561 81.2561 10.5667C81.0063 10.5692 81.006 10.5411 81.2514 10.1135C81.5062 9.66937 81.5023 9.64702 81.1024 9.24711C80.6959 8.84048 80.6814 8.83829 79.6219 9.02574C78.3611 9.24867 78.1611 9.37265 78.1611 9.93186C78.1611 10.1621 78.2491 10.4407 78.3565 10.5509C78.6342 10.8358 77.2566 10.6269 76.1288 10.2131C75.0755 9.8268 73.9401 8.76794 73.9401 8.17215C73.9401 7.56541 74.7438 6.76404 75.8502 6.26752C78.0883 5.26307 80.4728 5.72566 80.753 7.21882C80.8689 7.83681 81.2186 8.02035 81.4514 7.58558C81.8259 6.88567 81.0152 5.67219 79.8467 5.18412C77.4959 4.20217 73.1584 6.10384 73.1584 8.11649C73.1584 9.43534 74.7837 10.8222 76.8742 11.2873C79.8434 11.9478 84.8327 10.9641 86.2552 9.43753C87.0891 8.54267 86.9911 7.10094 86.0309 6.14073C84.9267 5.03654 82.7821 4.16512 81.1596 4.16153C80.3862 4.15981 80.3315 4.1842 80.378 4.51141ZM82.4994 6.67899C82.0153 7.04028 81.936 7.59949 82.3151 7.97876C82.8845 8.54798 84.1019 7.96579 84.1019 7.12424C84.1019 6.34709 83.2584 6.11275 82.4994 6.67899ZM52.3567 6.62193C52.3464 6.75575 49.8924 8.67743 48.7732 9.42815C48.363 9.70314 47.8349 9.97657 47.5998 10.0357C47.205 10.1348 47.181 10.1143 47.2857 9.7699C47.703 8.39993 50.3725 6.52829 51.9359 6.50984C52.1723 6.50702 52.3618 6.55752 52.3567 6.62193ZM76.6237 7.06686C76.3569 7.25384 76.2795 7.43988 76.3154 7.80945C76.3584 8.25282 76.4205 8.30738 76.9301 8.3499C77.8963 8.43057 78.3825 7.5687 77.6573 7.06076C77.2209 6.75497 77.0677 6.75591 76.6237 7.06686ZM11.5056 11.5856C11.3836 15.1913 11.124 15.7408 11.1068 12.4293C11.0994 11.0017 11.1416 9.38359 11.2007 8.83361L11.308 7.83353L11.4492 8.45887C11.5267 8.80281 11.5522 10.2098 11.5056 11.5856ZM80.4202 9.93342C80.2618 10.0888 79.6907 10.1717 79.1773 10.1137L78.8646 10.0783L79.1773 9.94405C79.6118 9.75739 80.6082 9.74879 80.4202 9.93342ZM14.1794 12.4005C14.1483 12.8982 14.1225 12.5314 14.1222 11.5856C14.1219 10.6397 14.1473 10.2326 14.1788 10.6809C14.2102 11.1292 14.2105 11.9031 14.1794 12.4005ZM54.0073 10.8314C53.2824 11.4827 50.4563 13.6193 49.9894 13.8693C49.2657 14.2566 49.8635 13.5699 51.2971 12.3672C52.5464 11.3192 54.2162 10.2381 54.547 10.2633C54.5941 10.2669 54.3513 10.5225 54.0073 10.8314ZM51.013 11.5793C50.5963 11.9628 50.207 12.2794 50.1479 12.2828C50.0888 12.2863 49.649 12.7504 49.1708 13.3142C48.6924 13.8779 48.3011 14.2534 48.3011 14.1485C48.3011 13.8881 49.1525 12.5811 49.5879 12.1732C49.8657 11.9131 51.4489 10.9627 51.7166 10.8957C51.7463 10.8882 51.4297 11.1958 51.013 11.5793ZM8.23787 13.657C8.20567 14.0655 8.17925 13.7313 8.17925 12.9144C8.17925 12.0976 8.20567 11.7633 8.23787 12.1718C8.27008 12.5803 8.27008 13.2485 8.23787 13.657ZM54.3195 12.8516C52.9238 13.8568 50.8025 15.2695 50.8025 15.1938C50.8025 15.0618 53.405 13.084 54.1061 12.6832C55.1047 12.1124 55.2197 12.2033 54.3195 12.8516ZM7.50028 17.0573C7.65365 18.2975 7.6402 18.5741 7.38772 19.3901C7.23029 19.8995 7.01799 20.3439 6.91606 20.3779C6.80553 20.4148 6.61746 20.0725 6.44987 19.5301C6.23272 18.8276 6.17456 18.1582 6.1941 16.5883C6.22334 14.2423 6.35294 13.6398 6.84367 13.5679C7.03143 13.5405 7.19918 13.435 7.21638 13.3334C7.23373 13.2319 7.26547 13.7117 7.2872 14.3996C7.30877 15.0875 7.4046 16.2834 7.50028 17.0573ZM81.6005 13.4886C80.2677 13.6084 78.4877 13.8762 77.6449 14.084C76.8023 14.2917 76.0071 14.4213 75.8783 14.3718C75.7475 14.3216 75.4678 14.446 75.2455 14.6533L74.8473 15.0249L74.9605 21.601L75.0738 28.1771L74.5069 28.1108C74.077 28.0606 73.9401 28.1016 73.9401 28.2801C73.9401 28.4221 72.7587 29.1884 70.9613 30.2123C68.2001 31.7852 66.7837 32.7801 64.7945 34.5442C64.0169 35.2338 64.0144 35.2391 64.3106 35.5666C64.7007 35.9976 64.8476 35.9817 65.0354 35.4878C65.2391 34.9522 65.4428 35.1217 66.3487 36.5808C67.3194 38.1438 71.1146 45.1243 71.225 45.5494C71.3269 45.9421 71.8663 46.0348 72.0012 45.6829C72.0473 45.563 71.8605 45.0177 71.5863 44.4713C70.7616 42.8288 67.5381 36.9793 66.9037 35.9739C65.9767 34.5049 65.9767 34.5042 67.0988 33.6076C68.2481 32.6896 69.3236 32.0133 72.2843 30.3472C73.4803 29.6742 74.5707 29.0116 74.7075 28.8748C74.935 28.6474 74.9566 29.0681 74.9591 33.7852C74.9617 38.3824 75.0033 39.2422 75.3416 41.6801C75.6497 43.9002 75.7229 45.0934 75.7296 48.0095C75.7371 51.2752 75.7623 51.6078 76.0059 51.6547C76.431 51.7365 76.5119 51.0919 76.5035 47.699C76.4977 45.3444 76.4044 43.8774 76.1258 41.7583C75.7667 39.0266 75.7554 38.5998 75.7379 27.1795C75.7281 20.7091 75.7592 15.3525 75.8072 15.2762C75.855 15.1999 76.246 15.1036 76.6759 15.0625C77.1059 15.0214 77.8431 14.875 78.3142 14.7374C79.1263 14.5001 82.9547 14.1054 84.3681 14.113C84.8229 14.1155 85.0539 14.0411 85.1191 13.8713C85.2336 13.5731 84.7927 13.2185 84.3456 13.2491C84.1685 13.2612 82.9333 13.369 81.6005 13.4886ZM17.1057 14.1997C17.1591 14.5195 17.3811 14.9931 17.5989 15.2519C17.8572 15.5588 17.9618 15.8273 17.8995 16.0231C17.688 16.6899 20.1112 18.4482 21.8805 18.9118C22.4516 19.0614 22.7222 19.2077 22.6864 19.3478C22.6567 19.4638 22.5292 20.0511 22.4032 20.653C22.2106 21.5724 20.939 24.3269 20.7072 24.3269C20.6726 24.3269 20.5802 24.0941 20.5017 23.8097C20.3973 23.4319 20.4351 23.0001 20.6417 22.2073C20.9618 20.9785 21.0203 19.7616 20.7806 19.3138C20.5888 18.9555 20.0326 18.9124 19.9047 19.246C19.8551 19.375 19.6488 19.4805 19.446 19.4805C18.9778 19.4805 18.8175 19.7883 18.5865 21.1331C18.4841 21.7289 18.1875 22.6385 17.9275 23.1544C17.4663 24.0694 17.4513 24.0822 17.3134 23.6742C17.207 23.3592 17.2473 23.1083 17.4767 22.658C18.5701 20.5114 18.5344 17.7608 17.4133 17.7608C17.1208 17.7608 16.9584 17.892 16.7844 18.2689L16.5497 18.777L16.6374 18.0735C16.6856 17.6866 16.771 16.4554 16.8271 15.3376C16.8832 14.2198 16.947 13.3756 16.9687 13.4616C16.9906 13.5476 17.0522 13.8796 17.1057 14.1997ZM49.3603 15.5257C48.87 16.016 48.4226 16.371 48.3661 16.3146C48.1424 16.0908 48.4806 15.3995 48.8917 15.2404C49.1258 15.1497 49.4932 14.9827 49.7081 14.8691C49.9231 14.7556 50.1334 14.6563 50.1754 14.6483C50.2175 14.6405 49.8507 15.0353 49.3603 15.5257ZM53.556 15.3872C53.5125 15.4575 53.0335 15.8223 52.4915 16.1979C51.9495 16.5734 51.6414 16.7256 51.8068 16.5358C52.0736 16.2298 53.4175 15.2594 53.5743 15.2594C53.6077 15.2594 53.5995 15.317 53.556 15.3872ZM50.6267 16.6274C50.2486 17.0359 49.7288 17.6282 49.4719 17.9437C49.2149 18.2594 48.8034 18.5678 48.5573 18.6294C48.1402 18.7338 48.118 18.7163 48.2282 18.3683C48.4412 17.6961 48.8351 17.2862 49.7081 16.8292C50.181 16.5816 50.7087 16.2702 50.8806 16.137C51.4083 15.7283 51.3435 15.8532 50.6267 16.6274ZM82.4525 16.0192C81.5186 16.8645 79.5658 18.2927 79.5755 18.1232C79.5838 17.9816 80.8729 16.9297 81.8178 16.2939C82.4088 15.8964 82.753 15.7474 82.4525 16.0192ZM80.4932 16.2398C80.4574 16.2633 79.7772 16.9091 78.9819 17.6751C78.1322 18.4937 77.5358 18.9649 77.5358 18.8179C77.5358 18.4262 79.0302 16.8896 79.765 16.5259C80.3293 16.2465 80.7161 16.0946 80.4932 16.2398ZM54.4634 18.4656C53.4797 19.3467 51.0845 21.1333 50.4898 21.4295C50.013 21.6672 50.0819 21.5602 51.0266 20.5975C52.2317 19.3697 53.4669 18.4584 54.3574 18.1407C54.6807 18.0253 54.9746 17.9278 55.0105 17.924C55.0463 17.9203 54.8001 18.164 54.4634 18.4656ZM15.3979 19.6265C15.2615 19.8901 15.1077 20.1058 15.056 20.1058C14.901 20.1058 15.1566 18.8109 15.3603 18.5631C15.665 18.1925 15.6954 19.0512 15.3979 19.6265ZM16.5155 19.1972C16.4656 19.3218 16.4286 19.2848 16.4211 19.1026C16.4144 18.9379 16.4513 18.8456 16.5032 18.8975C16.5551 18.9494 16.5607 19.0843 16.5155 19.1972ZM17.5031 19.3334C17.5031 19.5963 17.4421 19.7739 17.3677 19.728C17.2418 19.6501 17.3105 18.8552 17.4432 18.8552C17.476 18.8552 17.5031 19.0704 17.5031 19.3334ZM27.015 19.975C28.4259 20.3238 28.9911 20.4055 29.1177 20.2789C29.3791 20.0175 29.9525 20.0677 31.4169 20.4798C32.1478 20.6854 33.6955 21.0765 34.8563 21.349C36.0171 21.6215 37.353 22.0433 37.8249 22.2864C38.8056 22.7917 41.6769 25.2727 42.633 26.4412C43.4558 27.4467 44.016 28.5705 44.1981 29.5815C44.3242 30.2809 44.3064 30.4027 44.0547 30.5598C43.6326 30.8234 43.6794 31.362 44.1243 31.362C44.4679 31.362 44.4792 31.4037 44.4276 32.4954C44.3061 35.0707 43.7677 37.0466 42.5373 39.4312L42.0627 40.3512L42.0552 39.4625C42.0511 38.9736 42.1241 38.3756 42.2176 38.1336C42.311 37.8916 42.5522 36.5679 42.7537 35.1922C43.1177 32.7061 43.118 32.6893 42.812 32.4261C42.6132 32.2553 42.4051 31.7012 42.2247 30.8628C41.9942 29.7919 41.8934 29.5641 41.6497 29.5641C41.4231 29.5641 41.2335 29.876 40.8381 30.8989C40.3633 32.1269 40.288 32.2332 39.8951 32.2278C39.5346 32.2228 39.4031 32.3502 39.0504 33.046C38.7612 33.6165 38.6135 33.785 38.5705 33.5932C38.4112 32.8825 38.6713 30.4996 39.0886 28.8465C39.3401 27.8499 39.5901 26.612 39.644 26.0958C39.7275 25.2968 39.7022 25.1419 39.4738 25.0542C39.1156 24.9167 38.9327 25.0498 38.6741 25.6354L38.4581 26.1247L38.494 25.5995C38.5417 24.9061 38.0824 24.5592 37.7353 25.0266C37.2182 25.7233 36.2109 29.4477 35.7218 32.4727C35.5288 33.6654 35.4113 34.002 35.0745 34.3266L34.6629 34.7232L34.7511 33.1533C34.8342 31.6714 35.4521 27.5868 35.826 26.0466C35.92 25.6596 36.1298 25.0768 36.2922 24.7515C36.608 24.1193 36.5622 23.8563 36.1368 23.8604C35.8277 23.8632 33.7544 27.6024 32.9884 29.5388C31.6731 32.8629 31.4919 32.7554 31.5037 28.6574C31.5107 26.206 31.5743 25.3579 31.851 24.0314C32.0376 23.1381 32.1526 22.3466 32.1068 22.2726C32.0612 22.1987 31.8922 22.1382 31.7315 22.1382C31.501 22.1382 31.4003 22.3285 31.256 23.0371C30.9709 24.438 30.0332 27.2338 29.7179 27.6232C29.1142 28.3688 28.7544 27.6215 28.7703 25.6557C28.7744 25.1398 28.8416 24.366 28.9196 23.9361C29.2775 21.9637 29.28 21.8788 28.9856 21.7658C28.5883 21.6134 28.4695 21.7961 28.2811 22.8489C27.9866 24.4946 27.249 26.3592 26.8926 26.3592C26.8156 26.3592 26.6335 26.0472 26.488 25.6659C26.2128 24.9455 26.2191 24.711 26.5713 22.5436C26.7589 21.3892 26.753 21.2932 26.4823 21.0953C26.2313 20.9117 26.1506 20.9253 25.879 21.1969C25.6269 21.4489 25.5484 21.7935 25.4774 22.9577C25.2315 26.9951 23.1546 27.3582 23.0048 23.3898C22.9546 22.0597 22.9912 21.8088 23.3527 21.0002C23.5748 20.5034 23.7565 19.97 23.7565 19.8147C23.7565 19.1961 23.8916 19.2027 27.015 19.975ZM16.2718 19.8349C16.1173 19.9881 16.0995 19.9701 16.1842 19.7474C16.243 19.5932 16.3304 19.5065 16.3786 19.5546C16.4267 19.6026 16.3787 19.7288 16.2718 19.8349ZM17.2794 20.9657C17.1598 21.3956 17.0561 21.6067 17.0489 21.4347C17.0322 21.0356 17.3733 19.8197 17.4438 20.0277C17.4729 20.1137 17.399 20.5358 17.2794 20.9657ZM53.5235 20.593C53.3596 20.775 52.5573 21.4891 51.7405 22.1801C50.3457 23.3598 50.3077 23.3814 51.1151 22.5345C51.8785 21.7339 53.5899 20.2625 53.758 20.2623C53.7928 20.2622 53.6873 20.411 53.5235 20.593ZM15.817 21.7155C15.7457 22.9833 15.5778 23.18 15.1995 22.4385C14.8649 21.783 14.9493 21.118 15.3926 20.916C15.6075 20.8179 15.7834 20.6543 15.7834 20.5522C15.7834 20.4499 15.8064 20.3957 15.8345 20.4315C15.8627 20.4674 15.8548 21.0451 15.817 21.7155ZM19.3549 23.4233C19.0522 23.9719 18.9998 23.4259 19.2504 22.3346L19.457 21.4347L19.5042 22.2508C19.5304 22.7046 19.4641 23.225 19.3549 23.4233ZM82.6914 22.5333C82.3709 22.9194 79.7173 24.9973 79.6415 24.9214C79.5542 24.8342 81.1123 23.4747 82.0597 22.8112C82.8745 22.2408 82.9684 22.1993 82.6914 22.5333ZM49.2838 23.3537C48.8724 23.8504 48.4105 24.4307 48.2576 24.6435L47.9798 25.0304L48.0815 24.6396C48.2959 23.8155 49.1345 22.6238 49.5449 22.5597C49.7636 22.5256 49.9628 22.4871 49.9873 22.4743C50.012 22.4613 49.6955 22.8572 49.2838 23.3537ZM85.8092 25.0695C85.8025 26.0799 85.7614 26.8186 85.7181 26.711C85.3841 25.8837 82.0249 28.1372 79.0389 31.1917C78.2707 31.9776 77.5195 32.6127 77.3583 32.6127C76.9944 32.6127 76.9942 32.6141 77.4124 31.7533C77.6918 31.1783 77.9462 30.9383 78.7385 30.5029C79.905 29.8616 83.0386 27.5399 83.7329 26.8025C84.4733 26.0159 84.5354 25.6324 83.9746 25.3106L83.5129 25.0456L84.5501 24.2653C85.1204 23.8362 85.6105 23.4283 85.6391 23.3589C85.7829 23.0105 85.8204 23.3887 85.8092 25.0695ZM22.6467 25.8601C23.3286 27.1966 24.564 27.3723 25.3408 26.2434L25.5819 25.8929L25.9592 26.4779C26.4236 27.1974 27.0491 27.3332 27.5839 26.8309L27.9392 26.497L28.0444 27.1988C28.2663 28.6779 29.3956 29.2155 30.2208 28.2348L30.6157 27.7655L30.6646 29.4544L30.7134 31.1434L30.0881 30.5365C28.972 29.4534 27.1884 28.6009 24.4242 27.8293C22.6448 27.3326 21.7838 26.8217 21.3141 25.9842L20.9768 25.3831L21.5459 24.4923L22.115 23.6013L22.2258 24.4268C22.2868 24.8808 22.4761 25.5257 22.6467 25.8601ZM68.3115 24.7978C68.1378 25.5219 68.1038 25.5612 67.7889 25.3975C67.3196 25.1537 67.3282 25.175 67.5372 24.7703C67.8189 24.2245 68.3759 23.659 68.4407 23.853C68.4719 23.9467 68.4138 24.3718 68.3115 24.7978ZM19.8423 25.2685C19.5995 25.4186 19.2228 25.2948 19.2228 25.0651C19.2228 24.9735 19.3441 24.7646 19.4923 24.6008C19.7554 24.3102 19.7654 24.3131 19.9022 24.7238C20.0024 25.0241 19.9852 25.1802 19.8423 25.2685ZM83.2272 26.2206C82.8571 26.6311 80.6948 28.3062 79.6463 28.9946C78.9734 29.4362 79.076 29.3021 80.3833 28.0308C81.7004 26.7498 82.9045 25.8907 83.3835 25.8904C83.4614 25.8902 83.391 26.0389 83.2272 26.2206ZM67.5227 26.3983C67.5127 26.8625 66.4537 28.8891 66.4436 28.4635C66.4357 28.1302 66.85 26.4183 66.9957 26.1826C67.1676 25.9043 67.5302 26.0527 67.5227 26.3983ZM38.3991 26.8673C38.3558 26.9749 38.3204 26.8869 38.3204 26.6719C38.3204 26.457 38.3558 26.3691 38.3991 26.4765C38.4426 26.5841 38.4426 26.7599 38.3991 26.8673ZM63.9107 28.0262C63.6229 28.506 62.9453 29.3649 62.405 29.9349L61.4226 30.9711L61.8857 30.0206C62.6372 28.4784 64.2292 26.5458 64.3797 26.9927C64.4096 27.0814 64.1985 27.5465 63.9107 28.0262ZM116.294 26.9858C112.989 27.5058 109.779 29.6027 108.962 31.7755C108.517 32.961 108.572 34.3989 109.104 35.4548C109.893 37.0213 110.554 37.5849 114.998 40.4829C116.191 41.261 116.7 41.7006 117.064 42.267C117.596 43.0968 117.954 44.4516 117.801 45.0602C117.66 45.6235 116.868 45.9011 115.401 45.9011C114.28 45.9011 114.139 45.8655 113.794 45.4955C113.233 44.8951 112.661 44.6505 111.817 44.6505C109.789 44.6505 108.731 46.8279 109.901 48.5939C110.462 49.4414 111.735 50.36 112.787 50.6764C113.693 50.9492 116.549 50.9806 117.745 50.7311C119.681 50.3275 121.43 49.0671 122.23 47.4997C122.741 46.4979 122.937 44.8399 122.719 43.3548C122.492 41.7973 122.112 40.8154 121.214 39.4647C120.296 38.0847 119.32 37.2295 117.111 35.8713C114.87 34.4932 113.806 33.7081 113.806 33.4326C113.806 33.1639 115.949 32.141 116.732 32.0359C117.302 31.9595 117.339 31.9825 117.6 32.5737C117.943 33.3517 118.242 33.6165 119.104 33.9038C120.357 34.3219 121.516 33.838 122.103 32.6521C122.489 31.8729 122.546 30.2174 122.218 29.3041C121.932 28.5048 121.089 27.6334 120.235 27.2532C119.41 26.8863 117.675 26.7685 116.294 26.9858ZM85.6913 31.4193C85.6418 34.8934 85.6894 36.4938 85.9111 38.8062C86.0782 40.5498 86.196 43.1023 86.1988 45.0413C86.2032 48.1391 86.1155 49.0757 85.6629 50.756L85.4968 51.3729L83.744 51.3721C82.0218 51.3713 81.9985 51.3665 82.4075 51.0985C82.6364 50.9484 83.036 50.6661 83.2955 50.4711C83.5822 50.2555 83.8058 50.1789 83.8656 50.2757C84.0795 50.6218 84.5687 50.4302 84.7835 49.9158C84.9028 49.6304 85.1851 49.1041 85.411 48.7464C85.893 47.9827 85.9468 47.4645 85.5437 47.4645C85.391 47.4645 84.7754 47.9607 84.1758 48.5671C82.4638 50.2989 81.3053 50.9572 81.0665 50.3347C80.9064 49.9175 81.1001 49.6152 82.004 48.8715C82.8926 48.1403 84.1905 46.5656 84.4369 45.9196C84.616 45.4495 84.4792 45.0007 84.1336 44.9247C83.7449 44.8393 83.0116 45.0683 82.6493 45.3884C82.0127 45.9509 80.9745 47.5122 80.6556 48.3867C80.3301 49.2797 79.7851 49.8095 79.1923 49.8095C78.8815 49.8095 78.8812 49.6569 79.1893 48.5692C79.3937 47.8475 79.5591 47.6055 80.1577 47.1518C81.3807 46.2249 84.5709 43.0662 84.5709 42.7823C84.5709 42.3716 84.4535 42.33 83.7424 42.489C82.4311 42.7823 80.6415 44.3301 79.4087 46.2376C79.0599 46.7774 78.6892 47.2731 78.5849 47.3394C78.2515 47.5513 78.0048 47.4734 78.0048 47.1564C78.0048 46.7547 78.7286 45.1195 78.9064 45.1195C79.1542 45.1195 81.0946 43.3462 82.259 42.0553C83.5634 40.6095 84.3023 39.5954 84.3321 39.21C84.3436 39.0638 84.5777 38.6347 84.8527 38.2564C85.4235 37.4708 85.4377 37.4117 85.1198 37.1478C84.8016 36.8837 83.8845 37.0688 83.0183 37.5721C82.1786 38.0598 79.8116 40.4439 79.0063 41.6132C78.6848 42.08 78.3975 42.4377 78.368 42.408C78.2881 42.3281 78.7094 41.1905 79.0774 40.4924C79.2544 40.1568 80.1803 39.0768 81.1352 38.0924C82.9472 36.2245 84.2582 34.6089 84.2582 34.2442C84.2582 34.1268 84.1294 33.9618 83.9721 33.8776C83.3164 33.5266 81.8724 34.806 80.1555 37.2588C79.5405 38.1374 79.0114 38.8304 78.9799 38.7988C78.9481 38.7671 79.0031 38.4352 79.1021 38.0611C79.2494 37.5044 79.6324 37.0257 81.2103 35.4261C83.0597 33.5511 83.4764 32.9327 83.2637 32.3785C83.1629 32.1155 82.5061 32.0663 82.0873 32.2904C81.9363 32.3713 82.5459 31.7122 83.4418 30.8261C85.1068 29.1792 85.3652 28.6843 84.6162 28.5772C84.3051 28.5328 84.3409 28.4601 85.0086 27.7811C85.4127 27.3703 85.7459 27.023 85.7488 27.0093C85.752 26.9957 85.726 28.9802 85.6913 31.4193ZM38.2428 27.649C38.1995 27.7566 38.164 27.6686 38.164 27.4536C38.164 27.2386 38.1995 27.1508 38.2428 27.2582C38.2863 27.3657 38.2863 27.5416 38.2428 27.649ZM65.6598 28.4354C65.57 28.9972 65.5399 29.5696 65.5929 29.7075C65.7136 30.0222 64.6467 31.6865 63.7847 32.5282C63.4372 32.8675 63.1529 33.0718 63.1529 32.9821C63.1529 32.4013 63.8704 30.2032 64.3413 29.3417C64.9594 28.2104 65.6476 27.2383 65.7544 27.3453C65.7922 27.3829 65.7495 27.8735 65.6598 28.4354ZM34.2952 30.1946C34.0038 31.9471 33.9151 33.0054 33.9423 34.4105C33.976 36.1504 33.9458 36.3716 33.5271 37.459C33.2568 38.1615 32.8779 38.8196 32.5821 39.1006C31.6527 39.9835 30.9653 41.7271 30.164 45.2339C29.7535 47.0303 29.5553 47.5803 28.9651 48.5588C27.9703 50.2083 27.5365 50.7475 27.2046 50.7475C26.77 50.7475 26.7064 50.3733 26.8896 48.8923C27.0229 47.8134 27.2485 47.0946 28.0136 45.3089C28.8976 43.2463 28.9513 43.0558 28.7165 42.821C28.5086 42.6131 28.4187 42.6029 28.2236 42.7649C27.8889 43.0427 27.0892 44.7838 26.5707 46.3641C25.971 48.1919 24.0818 52.1075 23.4555 52.8207C22.9149 53.4365 22.4469 53.5717 22.288 53.1579C22.1259 52.7355 22.1838 51.1889 22.4045 50.044C22.5857 49.1037 22.9795 48.0795 24.6987 44.0762C24.8529 43.7173 24.9478 43.3926 24.9096 43.3544C24.8716 43.3163 25.1769 43.2405 25.5883 43.1859C27.6986 42.9058 29.6366 41.3016 30.8249 38.8506C31.7128 37.019 31.9492 35.984 31.8543 34.3441C31.7819 33.0929 31.7888 33.0624 32.2639 32.5587C32.5477 32.2579 33.1264 31.1597 33.6653 29.9001C34.1701 28.7196 34.606 27.7764 34.6338 27.8043C34.6616 27.8321 34.5092 28.9078 34.2952 30.1946ZM38.0618 28.9779C37.9165 30.474 36.7533 33.964 36.5236 33.5926C36.4747 33.5131 36.783 32.3298 37.2088 30.9628C37.6345 29.596 37.983 28.3527 37.983 28.2001C37.983 28.0475 38.0238 27.9226 38.0737 27.9226C38.1234 27.9226 38.1181 28.3974 38.0618 28.9779ZM78.4924 28.8215C78.319 29.0579 77.9938 29.4625 77.77 29.7205C77.4063 30.1394 77.3832 30.1479 77.5531 29.7986C77.8037 29.2833 78.518 28.3916 78.6798 28.3916C78.7502 28.3916 78.6658 28.5851 78.4924 28.8215ZM62.6416 31.7659C62.3133 33.0737 62.3735 33.6601 62.854 33.8379C63.1503 33.9474 63.1286 34.0034 62.5234 34.6908C61.8275 35.4812 61.57 35.6135 61.7009 35.1132C61.8294 34.6216 61.4512 34.2886 60.8711 34.3827L60.3725 34.4635L60.5828 33.5619C60.7682 32.7676 60.9197 32.5368 61.8558 31.6231C62.4402 31.0526 62.9231 30.5847 62.9288 30.5831C62.9344 30.5815 62.8053 31.1139 62.6416 31.7659ZM41.8271 32.6255C42.0267 33.2521 42.0271 33.4675 41.829 34.3452C41.7045 34.897 41.5221 36.121 41.4239 37.0651C41.1829 39.3798 40.2123 42.1063 39.1194 43.5392L38.6979 44.0919L38.5905 43.7067C38.3136 42.7135 38.4528 41.2052 38.9831 39.4506C39.2751 38.4841 39.6659 36.9549 39.8513 36.052C40.0536 35.0671 40.4353 33.8732 40.8055 33.0673C41.1447 32.3286 41.4305 31.6251 41.4405 31.5039C41.4505 31.3829 41.4902 31.4245 41.5287 31.5965C41.5673 31.7684 41.7014 32.2315 41.8271 32.6255ZM54.0855 31.7337C54.0855 31.7663 53.6106 32.1946 53.0302 32.6855L51.975 33.5783L52.9879 32.6264C53.9714 31.7022 54.0855 31.6093 54.0855 31.7337ZM57.2683 33.168C57.0945 34.1541 56.9294 34.6475 56.7088 34.8404C56.1835 35.2997 56.1211 35.1534 56.4421 34.2151C56.8395 33.0532 57.4117 31.6657 57.4697 31.7237C57.4945 31.7486 57.4039 32.3985 57.2683 33.168ZM79.2361 32.9644C78.7014 33.5879 78.1705 34.1205 78.0562 34.1483C77.6937 34.2365 77.832 33.7023 78.2784 33.2896C78.6792 32.9191 80.0581 31.8569 80.1617 31.839C80.1872 31.8346 79.7706 32.3409 79.2361 32.9644ZM52.1896 34.7623C50.4097 36.5964 48.3011 39.0846 48.3011 39.3507C48.3011 39.4281 48.1557 39.4914 47.978 39.4914C47.5823 39.4914 47.6473 39.2064 48.3458 37.8791C48.9333 36.763 49.3057 36.3913 50.8025 35.4276C51.4473 35.0124 52.3971 34.2826 52.913 33.806C53.4289 33.3295 53.8784 32.9363 53.9117 32.9324C53.945 32.9285 53.1702 33.752 52.1896 34.7623ZM54.7011 33.8016C54.3195 34.1938 53.1644 35.3004 52.134 36.2606C50.4623 37.8183 50.3603 37.8912 51.188 36.9374C52.3438 35.6051 55.1914 32.8848 55.3082 33.0016C55.3559 33.0491 55.0826 33.4092 54.7011 33.8016ZM82.5385 32.9686C82.5385 32.9924 82.0342 33.5025 81.4179 34.1021C80.5913 34.9061 80.4275 35.0218 80.7935 34.5431C81.4124 33.7337 82.5385 32.7176 82.5385 32.9686ZM37.8019 33.9159C37.7726 33.9318 37.5831 34.0845 37.3808 34.2554L37.0132 34.5659L37.2943 33.9764C37.5234 33.4961 37.6015 33.4331 37.7153 33.6368C37.7924 33.7742 37.8313 33.8999 37.8019 33.9159ZM59.7026 33.9013C59.6227 34.1802 59.5572 34.5729 59.5572 34.774C59.5572 34.975 59.3193 35.4328 59.0285 35.7913C58.4144 36.5481 57.8368 37.6632 57.4558 38.827C57.308 39.2783 57.1126 39.6477 57.0218 39.6477C56.8026 39.6477 56.9679 38.2676 57.3873 36.5953C57.6976 35.3577 57.7361 35.293 58.3169 35.0312C58.9772 34.7333 59.5121 34.2349 59.3474 34.0705C59.2621 33.9851 59.662 33.3943 59.805 33.3943C59.8288 33.3943 59.7827 33.6226 59.7026 33.9013ZM51.8968 33.6046C51.8968 33.6343 51.7386 33.7925 51.5451 33.9564L51.1933 34.2542L51.4911 33.9024C51.771 33.5719 51.8968 33.4795 51.8968 33.6046ZM80.4062 33.7461C80.3411 33.8536 80.0592 34.2615 79.7797 34.6527C79.5 35.0438 79.126 35.7028 78.9484 36.1172C78.6365 36.8446 78.2904 37.2158 77.3558 37.8249L76.9143 38.1127L77.151 37.434C77.5191 36.3789 78.5937 34.9042 79.3374 34.4336C79.7056 34.2007 80.0925 33.9068 80.1974 33.7805C80.4302 33.5 80.5692 33.4772 80.4062 33.7461ZM55.5168 34.6428C55.4039 34.9663 55.3989 35.2585 55.5011 35.5275C55.6335 35.8758 55.7281 35.9207 56.211 35.8643C56.7398 35.8025 56.7635 35.8196 56.6757 36.1991C56.6249 36.4193 56.4718 37.1664 56.3358 37.8597C56.095 39.0859 56.0769 39.1185 55.6731 39.0596C55.387 39.0177 55.0395 39.1565 54.5545 39.5064L53.851 40.014L54.4443 39.3537C55.1869 38.5271 55.3948 38.017 55.1645 37.5866C54.8028 36.9108 53.2169 37.4808 51.0609 39.0615C50.3599 39.5754 49.3467 40.4255 48.8092 40.9508C48.2719 41.4759 47.8329 41.8372 47.834 41.7537C47.8373 41.4892 48.6293 40.2005 48.8728 40.0633C49.3647 39.7862 51.8968 37.5749 53.6947 35.8524C54.7265 34.8639 55.5965 34.0786 55.6279 34.1075C55.6593 34.1365 55.6093 34.3774 55.5168 34.6428ZM37.9115 35.8174C37.7425 37.1708 37.1133 39.3387 36.4287 40.9266C35.7141 42.5842 35.6309 42.395 36.039 40.0386C36.3601 38.1838 36.6673 37.1217 37.2262 35.9348C37.8065 34.7025 38.0563 34.6597 37.9115 35.8174ZM35.6986 36.8711C35.1131 39.3898 34.2741 42.0775 33.4994 43.9158C33.108 44.8446 32.7692 45.5833 32.7464 45.5574C32.6419 45.4385 32.9985 42.039 33.2148 41.0949C33.5209 39.7569 34.1906 37.7017 34.5522 36.99C34.7051 36.6891 34.9818 36.3513 35.1669 36.2393C35.352 36.1272 35.5759 35.8283 35.6642 35.5751C35.7525 35.3216 35.8803 35.1487 35.9481 35.1906C36.016 35.2325 35.9037 35.9887 35.6986 36.8711ZM60.8079 35.4267C60.6511 35.7197 60.3389 35.8611 60.3389 35.6393C60.3389 35.5508 60.8154 35.1318 60.9306 35.119C60.9552 35.1162 60.9 35.2547 60.8079 35.4267ZM62.9966 35.9548C62.9966 35.9871 62.8734 36.1103 62.723 36.2284C62.4751 36.4227 62.4696 36.4172 62.6639 36.1693C62.8683 35.9088 62.9966 35.8261 62.9966 35.9548ZM59.9317 36.5454C59.9121 36.8128 58.4596 38.7587 58.3566 38.6555C58.2829 38.5818 58.9561 37.1817 59.3667 36.5543C59.6154 36.1744 59.9592 36.1691 59.9317 36.5454ZM61.9088 37.4493C61.5621 37.9599 61.1969 38.428 61.0973 38.4896C60.9147 38.6025 61.7483 37.3036 62.1849 36.7946C62.6469 36.2562 62.5287 36.5365 61.9088 37.4493ZM60.7041 37.5763C60.3838 38.0708 59.8219 39.0029 59.4556 39.6477C59.0893 40.2926 58.7097 40.9122 58.612 41.0244C58.3331 41.3448 57.9209 41.1753 57.8679 40.7185C57.8311 40.4022 57.9765 40.16 58.494 39.6749C58.8647 39.3276 59.5546 38.5129 60.027 37.8647C61.0398 36.4752 61.5615 36.2531 60.7041 37.5763ZM83.5297 38.5182C83.172 38.8385 82.5942 39.3116 82.2455 39.5696C81.8969 39.8275 81.1452 40.5887 80.5749 41.2613C80.0046 41.9337 79.5008 42.4464 79.4549 42.4008C79.2079 42.1536 82.6001 38.6725 83.5924 38.155C84.251 37.8114 84.2385 37.8835 83.5297 38.5182ZM54.2484 38.3849C54.0011 38.847 49.0076 43.5061 48.4517 43.7936C47.8893 44.0844 47.5194 44.0064 47.5194 43.5969C47.5194 43.2483 49.8735 40.9148 51.3496 39.8005C52.2032 39.1561 54.0844 38.0853 54.3646 38.0845C54.3891 38.0844 54.3367 38.2196 54.2484 38.3849ZM37.075 42.3573C36.338 43.9299 35.9467 44.2907 36.4836 42.9026C37.5499 40.1458 37.5882 40.0689 37.6408 40.5764C37.6719 40.8765 37.4677 41.5192 37.075 42.3573ZM55.0412 40.3903C54.7554 40.913 52.2364 43.7969 51.1153 44.885C50.2197 45.7543 50.0388 45.8777 50.2357 45.485C50.7141 44.531 52.3741 42.4865 53.6274 41.3074C54.8673 40.1411 55.3481 39.8291 55.0412 40.3903ZM51.8701 41.9537C50.9541 42.9142 49.7492 44.6877 49.137 45.9771C48.4168 47.4934 47.4994 48.2704 46.5032 48.2076L45.8779 48.168L45.8309 47.2616C45.794 46.5527 45.8681 46.1779 46.171 45.5419C46.7815 44.2602 46.8206 44.2227 47.1936 44.5604C47.8993 45.199 49.1183 44.5743 51.1112 42.5528C51.7539 41.9008 52.3134 41.3674 52.3546 41.3674C52.3957 41.3674 52.1776 41.6313 51.8701 41.9537ZM80.7422 42.6165C80.496 42.8736 80.2541 43.043 80.2049 42.9933C80.125 42.9125 80.9519 42.1518 81.1216 42.1499C81.1592 42.1494 80.9884 42.3594 80.7422 42.6165ZM34.5328 45.5397C34.0429 46.552 33.1971 47.4312 32.9504 47.1845C32.8664 47.1005 33.2077 46.2269 33.7937 45.0261L34.7781 43.0089L34.8896 43.7906C34.9865 44.4708 34.9402 44.6978 34.5328 45.5397ZM60.3756 43.6971C60.3116 44.3644 60.3459 44.4869 60.6416 44.6451C60.9253 44.7969 61.0939 44.7605 61.6703 44.4227L62.3597 44.0187L62.131 44.6669C61.5213 46.395 62.2979 47.2334 63.6551 46.3125L64.2009 45.9421L63.7594 46.9769C63.5164 47.5459 63.3158 48.2742 63.3135 48.595C63.3099 49.0896 63.3692 49.1932 63.7031 49.277C64.2956 49.4257 64.9719 49.0705 66.0941 48.0209C66.8066 47.3546 67.0741 47.177 66.9964 47.4223C66.9356 47.614 66.9519 47.8886 67.0324 48.0325C67.1533 48.2485 66.9436 48.4494 65.8303 49.1843C65.0887 49.674 64.3478 50.226 64.184 50.4111C64.0201 50.5962 63.8343 50.7475 63.7708 50.7475C63.7073 50.7475 63.1076 50.0264 62.438 49.1451C61.7683 48.2638 60.6 46.7591 59.8416 45.8016C59.0834 44.844 58.4629 44.0175 58.4629 43.9646C58.4629 43.9119 58.593 43.8688 58.7521 43.8688C58.9111 43.8688 59.3507 43.659 59.7292 43.4026C60.1075 43.1462 60.4243 42.9352 60.4332 42.9336C60.4421 42.932 60.4161 43.2757 60.3756 43.6971ZM31.9516 45.4873C31.9169 47.1096 31.8732 47.3422 31.4435 48.1935C31.1849 48.7056 30.8621 49.217 30.7262 49.3299C30.5047 49.5137 30.4789 49.4212 30.4789 48.4436C30.4789 47.5333 30.5671 47.1604 31.0103 46.1968C31.3026 45.5613 31.6303 44.7422 31.7385 44.3769C31.8468 44.0115 31.9477 43.7124 31.9625 43.7124C31.9775 43.7124 31.9725 44.5112 31.9516 45.4873ZM78.4141 44.2849C78.2818 44.529 78.1708 44.6792 78.1674 44.6187C78.1567 44.4328 78.5205 43.707 78.5896 43.7761C78.6253 43.8119 78.5463 44.0408 78.4141 44.2849ZM82.0695 44.3842C82.0695 44.4097 81.7704 44.7088 81.4051 45.0486L80.7407 45.6666L81.3586 45.0022C81.9333 44.3844 82.0695 44.2659 82.0695 44.3842ZM16.319 45.0804C16.1972 45.7678 15.3128 47.984 15.2039 47.875C15.0489 47.7201 16.1492 44.4941 16.3568 44.4941C16.3933 44.4941 16.3762 44.758 16.319 45.0804ZM19.6922 47.0737C19.4967 47.6618 19.4101 47.8108 19.4601 47.4729C19.5841 46.6359 19.8963 45.6405 19.953 45.9011C19.9811 46.0301 19.8637 46.5578 19.6922 47.0737ZM83.3438 46.2975C82.8248 46.9573 81.9701 47.8799 81.7542 48.0134C81.4132 48.224 82.1147 47.1548 82.8101 46.4039C83.5 45.659 83.9103 45.5771 83.3438 46.2975ZM13.0535 47.0796C12.6978 48.0109 12.5821 47.8952 12.9092 46.9353C13.0477 46.5291 13.1982 46.2343 13.244 46.2801C13.2897 46.3257 13.204 46.6856 13.0535 47.0796Z" fill="black"/>
</svg>
